<svg xmlns="http://www.w3.org/2000/svg" width="20" height="20" viewBox="0 0 20 20">
    <defs>
        <style>
            .cls-1{fill:#0d0c22}
        </style>
    </defs>
    <g id="Layer_2" transform="rotate(90 11 10)">
        <path id="Path_7003" d="M1 11a10 10 0 1 1 10 10A10 10 0 0 1 1 11zm18.667 0A8.667 8.667 0 1 0 11 19.667 8.667 8.667 0 0 0 19.667 11z" class="cls-1"/>
        <path id="Path_7004" d="M11.978 14.874l2.671-2.674-2.671-2.677a.479.479 0 0 1 0-.675.479.479 0 0 1 .675 0l3.047 3.045a.436.436 0 0 1 0 .613l-3.044 3.044a.479.479 0 0 1-.675 0 .479.479 0 0 1-.003-.676z" class="cls-1" transform="translate(-4.164 -1.199)"/>
        <path id="Path_7005" d="M11.978 14.874l2.671-2.674-2.671-2.677a.479.479 0 0 1 0-.675.479.479 0 0 1 .675 0l3.047 3.045a.436.436 0 0 1 0 .613l-3.044 3.044a.479.479 0 0 1-.675 0 .479.479 0 0 1-.003-.676z" class="cls-1" transform="translate(-.831 -1.199)"/>
    </g>
</svg>
