<svg xmlns="http://www.w3.org/2000/svg" width="18.854" height="16.967" viewBox="0 0 18.854 16.967">
    <g>
        <g>
            <path fill="#fec108" d="M17.822 16.342H2.4a1.42 1.42 0 0 1-1.21-2.133L8.9.711a1.39 1.39 0 0 1 2.419 0l7.71 13.5a1.42 1.42 0 0 1-1.21 2.133z" transform="translate(.003) translate(.312 .316) translate(-.999 -.005)"/>
            <path fill="#ffdc00" d="M16.879 16.523H2.4a1.42 1.42 0 0 1-1.21-2.133L8.9.892A1.349 1.349 0 0 1 9.64.27a1.349 1.349 0 0 1 .738.622l7.71 13.5a1.42 1.42 0 0 1-1.21 2.133z" transform="translate(.003) translate(.312 .316) translate(-.999 -.187)"/>
            <path fill="#1f009e" d="M25.4 9.257L23.514 8 21 14.6h2.828l-.943 2.2-.943-.628-.314 4.4 3.456-2.828-.943-.314 2.514-4.4h-3.141z" transform="translate(.003) translate(.312 .316) translate(-14.716 -5.488)"/>
        </g>
        <g>
            <path d="M11.906.866a1.7 1.7 0 0 0-2.965 0L1.23 14.364a1.734 1.734 0 0 0 1.483 2.6h15.422a1.734 1.734 0 0 0 1.483-2.6zm6.229 15.472H2.713a1.106 1.106 0 0 1-.937-1.662l7.711-13.5a1.074 1.074 0 0 1 1.874 0l7.711 13.5a1.106 1.106 0 0 1-.937 1.662z" transform="translate(.003) translate(-.003) translate(-.997)"/>
            <path d="M26.973 13.027h-2.634L26 9.711a.314.314 0 0 0-.107-.4l-1.886-1.258a.314.314 0 0 0-.468.15l-2.514 6.6a.314.314 0 0 0 .292.426h2.351l-.606 1.414-.628-.419a.314.314 0 0 0-.488.239l-.314 4.4a.314.314 0 0 0 .512.265L25.6 18.3a.314.314 0 0 0-.1-.541l-.579-.193 2.325-4.066a.314.314 0 0 0-.273-.471zm-2.786 4.556a.314.314 0 0 0 .173.454l.4.134-2.451 2 .224-3.133.493.329a.314.314 0 0 0 .463-.138l.943-2.2a.314.314 0 0 0-.288-.437h-2.371l2.211-5.8 1.327.884L23.55 13.2a.314.314 0 0 0 .281.455h2.6z" transform="translate(.003) translate(-.003) translate(-14.718 -5.486)"/>
        </g>
    </g>
</svg>
