<svg xmlns="http://www.w3.org/2000/svg" width="36.241" height="36.26" viewBox="0 0 36.241 36.26">
  <g id="Expiry_Leases" transform="translate(-1054.88 -590.848)">
    <g id="credit-card" transform="translate(1067.049 526.152)">
      <path id="Path_7247" data-name="Path 7247" d="M239.471,71.982a1.635,1.635,0,0,0-1.164-.482h-6.84a.471.471,0,0,0-.449.332l-4.465,14.527a.471.471,0,0,0,.449.608h4.1a.47.47,0,1,0,0-.94h-3.465l2.529-8.228h8.845v7.522a.708.708,0,0,1-.705.705h-2.973a.47.47,0,0,0,0,.94h2.973a1.645,1.645,0,0,0,1.646-1.646V73.146A1.635,1.635,0,0,0,239.471,71.982Zm-7.656.458h6.493a.707.707,0,0,1,.705.705v1.363h-7.834Zm-1.358,4.419.434-1.41h8.123v1.41Z" transform="translate(-215.882)" fill="#27009b"/>
      <circle id="Ellipse_794" data-name="Ellipse 794" cx="0.47" cy="0.47" r="0.47" transform="translate(16.867 86.027)" fill="#27009b"/>
      <path id="Path_7248" data-name="Path 7248" d="M13.329,111.691a.47.47,0,0,0-.378-.191H1.645A1.647,1.647,0,0,0,0,113.146v12.177a1.647,1.647,0,0,0,1.645,1.646h6.84a.47.47,0,0,0,.449-.332L13.4,112.108a.47.47,0,0,0-.071-.417Zm-3.9,10.13a3.539,3.539,0,0,0-1.6.416,6.409,6.409,0,0,0-1,.681,3.523,3.523,0,0,1-2.123.75c-.108,0-.192-.006-.243-.01-.029,0-.121-.014-.146-.014a.5.5,0,0,0-.4.218,1.334,1.334,0,0,1-.377.179,1.778,1.778,0,0,1-.5.083h0a.545.545,0,0,1-.25-.051,1.2,1.2,0,0,1,.2-.527,3.087,3.087,0,0,1,.674-.869.529.529,0,0,1,.317-.151.253.253,0,0,1,.161.068.652.652,0,0,1,.071.075h0A.47.47,0,0,0,5,122.157a1.383,1.383,0,0,0-.257-.285,1.194,1.194,0,0,0-.767-.287,1.448,1.448,0,0,0-.906.362,4.075,4.075,0,0,0-.894,1.127,2.012,2.012,0,0,0-.325.99.979.979,0,0,0,.114.471.966.966,0,0,0,.5.432,1.557,1.557,0,0,0,.573.1,2.737,2.737,0,0,0,.94-.18,2.153,2.153,0,0,0,.4-.2c.046-.031.083-.057.117-.084.069,0,.14.006.212.006h0a4.4,4.4,0,0,0,1.178-.164,4.35,4.35,0,0,0,1.512-.777,5.5,5.5,0,0,1,.864-.6,2.637,2.637,0,0,1,.865-.284l-1,3.242H1.645a.706.706,0,0,1-.705-.705V117.8h9.727Zm1.525-4.961H.94v-1.41H11.39Zm.723-2.351H.94v-1.363a.706.706,0,0,1,.705-.705H12.315Z" transform="translate(0 -38.119)" fill="#27009b"/>
      <path id="Path_7249" data-name="Path 7249" d="M374.11,225.543a.47.47,0,0,0-.627.222l-.94,1.975a.47.47,0,1,0,.849.4l.94-1.975A.47.47,0,0,0,374.11,225.543Z" transform="translate(-354.985 -146.757)" fill="#27009b"/>
      <path id="Path_7250" data-name="Path 7250" d="M314.146,246.5H312.97a.47.47,0,1,0,0,.94h1.175a.47.47,0,0,0,0-.94Z" transform="translate(-297.808 -166.772)" fill="#27009b"/>
      <path id="Path_7251" data-name="Path 7251" d="M428.646,247.44a.47.47,0,1,0,0-.94H427.47a.47.47,0,1,0,0,.94Z" transform="translate(-406.925 -166.772)" fill="#27009b"/>
    </g>
    <path id="Path_7252" data-name="Path 7252" d="M14.792,6.132c9.123,14.737,14.792.474,14.792,8.643A14.792,14.792,0,0,1,0,14.775C0,6.606,5.669-8.6,14.792,6.132Z" transform="matrix(0.966, 0.259, -0.259, 0.966, 1062.532, 590.891)" fill="#27009b" opacity="0.1"/>
  </g>
</svg>
