<svg xmlns="http://www.w3.org/2000/svg" width="28" height="28" viewBox="0 0 28 28">
    <g transform="translate(-1426 -193)">
        <circle cx="14" cy="14" r="14" transform="translate(1426 193)" style="mix-blend-mode:multiply;isolation:isolate" fill="#efefef"/>
        <g fill="none" stroke-linecap="round" stroke-linejoin="round">
            <path d="M4 4L0 0l4 4-4 4z" transform="rotate(90 619 824.5)"/>
            <path fill="#92919b" d="M0 8l4-4-4 4m4-4L0 0l4 4M0 9c-.256 0-.512-.098-.707-.293-.39-.39-.39-1.024 0-1.414L2.586 4-.707.707c-.39-.39-.39-1.024 0-1.414C-.512-.902-.256-1 0-1c.256 0 .512.098.707.293L4.705 3.29l.002.002c.116.116.197.253.244.399l.001.002v.001l.001.001v.002l.001.003c.073.232.059.485-.042.71v.002c-.05.107-.117.207-.205.294l-4 4C.512 8.902.256 9 0 9z" transform="rotate(90 619 824.5)"/>
        </g>
    </g>
</svg>
