<svg xmlns="http://www.w3.org/2000/svg" width="14.943" height="15.028" viewBox="0 0 14.943 15.028">
    <defs>
        <style>
            .cls-1{fill:#acacac}
        </style>
    </defs>
    <g id="Group_7527" transform="rotate(180 191.17 86.213)">
        <path id="iconfinder_maximize_134215" d="M3.061 2h3.184a1.061 1.061 0 0 1 0 2.123h-.636l3.352 3.438a1 1 0 0 1 .318.742 1.053 1.053 0 0 1-1.061 1.061.978.978 0 0 1-.743-.318L4.123 5.609v.637A1.061 1.061 0 0 1 2 6.245V3.061A1.062 1.062 0 0 1 3.061 2z" class="cls-1" transform="translate(365.397 155.397)"/>
        <path id="iconfinder_maximize_134215-2" d="M8.218 9.364H5.034a1.061 1.061 0 1 1 0-2.123h.637L2.318 3.8A1 1 0 0 1 2 3.061 1.053 1.053 0 0 1 3.061 2a.978.978 0 0 1 .743.318l3.353 3.438v-.637a1.061 1.061 0 0 1 2.123 0V8.3a1.062 1.062 0 0 1-1.062 1.064z" class="cls-1" transform="translate(373.061 163.061)"/>
    </g>
</svg>
