<svg xmlns="http://www.w3.org/2000/svg" width="18.203" height="18.203" viewBox="0 0 18.203 18.203">
  <defs>
    <style>
      .cls-1 {
        fill: #1ecc61;
      }
    </style>
  </defs>
  <g id="income" transform="translate(0)">
    <path id="Path_7244" data-name="Path 7244" class="cls-1" d="M291.668,50.6l1.247.923a.186.186,0,0,1-.108.335l-.391,0h0a.184.184,0,0,1-.184-.182.533.533,0,1,0-1.067.007,1.252,1.252,0,0,0,.911,1.2V52.9a.533.533,0,1,0,1.066,0v-.027a1.25,1.25,0,0,0,.914-1.213v0a1.256,1.256,0,0,0-.507-1l-1.247-.923a.183.183,0,0,1,.109-.331h.392a.184.184,0,0,1,.184.183.533.533,0,1,0,1.067,0,1.252,1.252,0,0,0-.912-1.2v-.026a.533.533,0,1,0-1.066,0v.025a1.25,1.25,0,0,0-.408,2.208Z" transform="translate(-280.809 -46.129)"/>
    <path id="Path_7245" data-name="Path 7245" class="cls-1" d="M209.685,9.006a4.5,4.5,0,1,0-4.5-4.5A4.509,4.509,0,0,0,209.685,9.006Zm0-7.94A3.436,3.436,0,1,1,206.248,4.5,3.441,3.441,0,0,1,209.685,1.067Z" transform="translate(-197.886 0)"/>
    <path id="Path_7246" data-name="Path 7246" class="cls-1" d="M17.836,261.09a1.74,1.74,0,0,0-2.368-.362l-2.029,1.357a1.672,1.672,0,0,0-1.473-.883H10.519a3.962,3.962,0,0,0-6.2,1l-.272.166-.07-.206a.533.533,0,0,0-.677-.332L.361,262.838a.533.533,0,0,0-.332.677l1.78,5.207a.533.533,0,0,0,.677.332l2.942-1.005a.534.534,0,0,0,.326-.694l4.669-.145a6.063,6.063,0,0,0,3.527-1.129l3.521-2.5a1.739,1.739,0,0,0,.365-2.486ZM2.646,267.872l-1.435-4.2,1.933-.661,1.435,4.2Zm14.207-5.165-3.521,2.5a5,5,0,0,1-2.917.932H10.4l-5,.155L4.4,263.4l.6-.368h0a.539.539,0,0,0,.2-.22,2.9,2.9,0,0,1,4.706-.715.542.542,0,0,0,.388.167h1.667a.6.6,0,1,1,0,1.208H8.958a.533.533,0,0,0,0,1.067h3.009a1.672,1.672,0,0,0,1.624-1.276l2.475-1.656.009-.006a.674.674,0,0,1,.778,1.1Z" transform="translate(0 -250.88)"/>
  </g>
</svg>
