<svg xmlns="http://www.w3.org/2000/svg" width="45.714" height="42.5" viewBox="0 0 45.714 42.5">
    <defs>
        <linearGradient id="linear-gradient" x1="-.049" x2="1.034" y1=".337" y2=".735" gradientUnits="objectBoundingBox">
            <stop offset="0" stop-color="#d2deff" stop-opacity="0"/>
            <stop offset="1" stop-color="#00ba53"/>
        </linearGradient>
        <style>
            .cls-2{fill:#2626bc;opacity:.1}.cls-3{fill:#fff}.cls-5{fill:#27009b}.cls-6{fill:#6583fe}
        </style>
    </defs>
    <g id="_4052932" transform="translate(0 -18)">
        <path id="Path_7017" fill="url(#linear-gradient)" d="M34.161 83.74h-.051a9.892 9.892 0 0 1-7.45-3.392 15.164 15.164 0 0 0-11.529-5.214 15.2 15.2 0 0 0 .069 30.4 15.134 15.134 0 0 0 6.567-1.489 5.069 5.069 0 0 1 5.265.55 11.623 11.623 0 1 0 7.129-20.855z" transform="translate(0 -52.033)"/>
        <path id="Path_7018" d="M215.6 176.019l-2.691-.766a10.724 10.724 0 0 0-1.246-3.007l1.362-2.446a.534.534 0 0 0-.089-.636l-1.839-1.839a.534.534 0 0 0-.636-.089l-2.446 1.362a10.723 10.723 0 0 0-3.007-1.246l-.766-2.691a.533.533 0 0 0-.513-.387h-2.6a.533.533 0 0 0-.513.387l-.766 2.691a10.723 10.723 0 0 0-3.007 1.246l-2.446-1.362a.534.534 0 0 0-.636.089l-1.839 1.839a.534.534 0 0 0-.089.636l1.362 2.446a10.723 10.723 0 0 0-1.246 3.007l-2.691.766a.533.533 0 0 0-.387.513v2.6a.533.533 0 0 0 .387.513l2.691.766a10.723 10.723 0 0 0 1.246 3.007l-1.362 2.446a.534.534 0 0 0 .089.636l1.839 1.839a.534.534 0 0 0 .636.089l2.446-1.362a10.723 10.723 0 0 0 3.007 1.246l.766 2.691a.533.533 0 0 0 .513.387h2.6a.533.533 0 0 0 .513-.387l.766-2.691a10.724 10.724 0 0 0 3.007-1.246l2.446 1.362a.534.534 0 0 0 .636-.089l1.839-1.839a.534.534 0 0 0 .089-.636l-1.362-2.446a10.724 10.724 0 0 0 1.246-3.007l2.691-.766a.533.533 0 0 0 .387-.513v-2.6a.533.533 0 0 0-.387-.513zm-13.172 8.488a6.675 6.675 0 1 1 6.675-6.675 6.675 6.675 0 0 1-6.677 6.675z" class="cls-2" transform="translate(-172.004 -133.213)"/>
        <path id="Path_7019" d="M33.84 185.067l-1.453-.414a5.791 5.791 0 0 0-.673-1.624l.735-1.321a.288.288 0 0 0-.048-.344l-.993-.993a.288.288 0 0 0-.344-.048l-1.321.735a5.791 5.791 0 0 0-1.624-.673l-.414-1.453a.288.288 0 0 0-.277-.209h-1.4a.288.288 0 0 0-.277.209l-.414 1.453a5.791 5.791 0 0 0-1.624.673l-1.321-.735a.288.288 0 0 0-.344.048l-.993.993a.288.288 0 0 0-.048.344l.735 1.321a5.791 5.791 0 0 0-.673 1.624l-1.453.414a.288.288 0 0 0-.209.277v1.4a.288.288 0 0 0 .209.277l1.453.414a5.791 5.791 0 0 0 .673 1.624l-.735 1.321a.288.288 0 0 0 .048.344l.993.993a.288.288 0 0 0 .344.048l1.321-.735a5.791 5.791 0 0 0 1.624.673l.414 1.453a.288.288 0 0 0 .277.209h1.4a.288.288 0 0 0 .277-.209l.414-1.453a5.79 5.79 0 0 0 1.624-.673l1.321.735a.288.288 0 0 0 .344-.048l.993-.993a.288.288 0 0 0 .048-.344l-.735-1.321a5.79 5.79 0 0 0 .673-1.624l1.453-.414a.288.288 0 0 0 .209-.277v-1.4a.288.288 0 0 0-.209-.277zm-7.113 3.282a2.3 2.3 0 1 1 2.3-2.3 2.3 2.3 0 0 1-2.299 2.301z" class="cls-2" transform="translate(-17.673 -146.375)"/>
        <path id="Path_7020" d="M131.948 24.83l-1.565-.446a6.236 6.236 0 0 0-.725-1.748l.792-1.422a.311.311 0 0 0-.052-.37l-1.069-1.069a.311.311 0 0 0-.37-.052l-1.422.792a6.235 6.235 0 0 0-1.748-.725l-.446-1.565a.31.31 0 0 0-.3-.225h-1.512a.31.31 0 0 0-.3.225l-.446 1.565a6.235 6.235 0 0 0-1.748.725l-1.422-.792a.311.311 0 0 0-.37.052l-1.069 1.07a.311.311 0 0 0-.052.37l.792 1.422a6.236 6.236 0 0 0-.725 1.748l-1.565.446a.31.31 0 0 0-.225.3v1.512a.31.31 0 0 0 .225.3l1.565.446a6.236 6.236 0 0 0 .725 1.748l-.792 1.422a.31.31 0 0 0 .052.37l1.069 1.069a.311.311 0 0 0 .37.052l1.422-.792a6.233 6.233 0 0 0 1.748.725l.446 1.565a.31.31 0 0 0 .3.225h1.512a.31.31 0 0 0 .3-.225l.446-1.565a6.235 6.235 0 0 0 1.748-.725l1.422.792a.311.311 0 0 0 .37-.052l1.069-1.069a.311.311 0 0 0 .052-.37l-.792-1.422a6.235 6.235 0 0 0 .725-1.748l1.565-.446a.31.31 0 0 0 .225-.3v-1.514a.31.31 0 0 0-.225-.3zm-7.659 4.122a3.067 3.067 0 1 1 3.067-3.067 3.067 3.067 0 0 1-3.067 3.067z" class="cls-2" transform="translate(-106.011)"/>
        <path id="Path_7021" d="M215.6 197.02l-2.691-.766a10.724 10.724 0 0 0-1.246-3.007l1.362-2.446a.534.534 0 0 0-.089-.636l-1.839-1.839a.534.534 0 0 0-.636-.089l-2.446 1.362a10.723 10.723 0 0 0-3.007-1.246l-.766-2.691a.533.533 0 0 0-.513-.387h-2.6a.533.533 0 0 0-.513.387l-.766 2.691a10.723 10.723 0 0 0-3.007 1.246l-2.446-1.362a.534.534 0 0 0-.636.089l-1.839 1.839a.534.534 0 0 0-.089.636l1.362 2.446a10.722 10.722 0 0 0-1.246 3.007l-2.691.766a.533.533 0 0 0-.387.513v2.6a.533.533 0 0 0 .387.513l2.691.766a10.723 10.723 0 0 0 1.246 3.007l-1.362 2.446a.534.534 0 0 0 .089.636l1.839 1.839a.534.534 0 0 0 .636.089l2.446-1.362a10.722 10.722 0 0 0 3.007 1.246l.766 2.691a.533.533 0 0 0 .513.387h2.6a.533.533 0 0 0 .513-.387l.766-2.691a10.723 10.723 0 0 0 3.007-1.246l2.446 1.362a.534.534 0 0 0 .636-.089l1.839-1.839a.534.534 0 0 0 .089-.636l-1.362-2.446a10.724 10.724 0 0 0 1.246-3.007l2.691-.766a.533.533 0 0 0 .387-.513v-2.6a.533.533 0 0 0-.387-.513zm-13.172 8.488a6.675 6.675 0 1 1 6.675-6.675 6.675 6.675 0 0 1-6.677 6.675z" class="cls-3" transform="translate(-172.004 -152.339)"/>
        <path id="Path_7022" fill="#00ba53" d="M33.84 206.067l-1.453-.414a5.791 5.791 0 0 0-.673-1.624l.735-1.321a.288.288 0 0 0-.048-.344l-.993-.993a.288.288 0 0 0-.344-.048l-1.321.735a5.791 5.791 0 0 0-1.624-.673l-.414-1.453a.288.288 0 0 0-.277-.209h-1.4a.288.288 0 0 0-.277.209l-.414 1.453a5.791 5.791 0 0 0-1.624.673l-1.321-.735a.288.288 0 0 0-.344.048l-.993.993a.288.288 0 0 0-.048.344l.735 1.321a5.791 5.791 0 0 0-.673 1.624l-1.453.414a.288.288 0 0 0-.209.277v1.4a.288.288 0 0 0 .209.277l1.453.414a5.791 5.791 0 0 0 .673 1.624l-.735 1.321a.288.288 0 0 0 .048.344l.993.993a.288.288 0 0 0 .344.048l1.321-.735a5.79 5.79 0 0 0 1.624.673l.414 1.453a.288.288 0 0 0 .277.209h1.4a.288.288 0 0 0 .277-.209l.414-1.453a5.79 5.79 0 0 0 1.624-.673l1.321.735a.288.288 0 0 0 .344-.048l.993-.993a.288.288 0 0 0 .048-.344l-.735-1.321a5.79 5.79 0 0 0 .673-1.624l1.453-.414a.288.288 0 0 0 .209-.277v-1.4a.288.288 0 0 0-.209-.277zm-7.113 3.282a2.3 2.3 0 1 1 2.3-2.3 2.3 2.3 0 0 1-2.299 2.301z" transform="translate(-17.673 -165.5)"/>
        <path id="Path_7023" d="M131.948 45.83l-1.565-.446a6.236 6.236 0 0 0-.725-1.748l.792-1.422a.311.311 0 0 0-.052-.37l-1.069-1.069a.311.311 0 0 0-.37-.052l-1.422.792a6.235 6.235 0 0 0-1.748-.725l-.446-1.565a.31.31 0 0 0-.3-.225h-1.512a.31.31 0 0 0-.3.225l-.446 1.565a6.235 6.235 0 0 0-1.748.725l-1.422-.792a.31.31 0 0 0-.37.052l-1.069 1.07a.311.311 0 0 0-.052.37l.792 1.422a6.236 6.236 0 0 0-.725 1.748l-1.565.446a.31.31 0 0 0-.225.3v1.512a.31.31 0 0 0 .225.3l1.565.446a6.236 6.236 0 0 0 .725 1.748l-.792 1.422a.311.311 0 0 0 .052.37l1.069 1.069a.311.311 0 0 0 .37.052l1.422-.792a6.233 6.233 0 0 0 1.748.725l.446 1.565a.31.31 0 0 0 .3.225h1.512a.31.31 0 0 0 .3-.225l.446-1.565a6.236 6.236 0 0 0 1.748-.725l1.422.792a.31.31 0 0 0 .37-.052l1.069-1.069a.311.311 0 0 0 .052-.37l-.792-1.422a6.235 6.235 0 0 0 .725-1.748l1.565-.446a.31.31 0 0 0 .225-.3v-1.514a.31.31 0 0 0-.225-.299zm-7.659 4.122a3.067 3.067 0 1 1 3.067-3.067 3.067 3.067 0 0 1-3.067 3.067z" class="cls-3" transform="translate(-106.011 -19.125)"/>
        <g id="Group_8100" transform="translate(1.286 19.429)">
            <g id="Group_8099">
                <path id="Path_7024" d="M199.174 208.284h-2.6a.984.984 0 0 1-.943-.711l-.7-2.445a11.154 11.154 0 0 1-2.654-1.1l-2.222 1.237a.984.984 0 0 1-1.169-.163l-1.839-1.839a.984.984 0 0 1-.164-1.169l1.237-2.222a11.152 11.152 0 0 1-1.1-2.654l-2.445-.7a.984.984 0 0 1-.712-.942v-2.6a.984.984 0 0 1 .711-.943l2.445-.7a11.156 11.156 0 0 1 1.1-2.654l-1.237-2.222a.985.985 0 0 1 .163-1.169l1.839-1.839a.984.984 0 0 1 1.169-.164l2.222 1.237a11.155 11.155 0 0 1 2.654-1.1l.7-2.445a.984.984 0 0 1 .943-.712h2.6a.984.984 0 0 1 .942.711l.7 2.445a11.156 11.156 0 0 1 2.654 1.1l2.222-1.237a.984.984 0 0 1 1.169.163l1.839 1.839a.984.984 0 0 1 .164 1.169l-1.237 2.222a11.152 11.152 0 0 1 1.1 2.654l2.445.7a.984.984 0 0 1 .711.942v2.6a.984.984 0 0 1-.711.942l-2.445.7a11.158 11.158 0 0 1-1.1 2.654l1.237 2.222a.984.984 0 0 1-.163 1.169l-1.839 1.839a.984.984 0 0 1-1.169.164l-2.222-1.237a11.155 11.155 0 0 1-2.654 1.1l-.7 2.445a.984.984 0 0 1-.941.713zm-6.887-5.217a.446.446 0 0 1 .232.065 10.265 10.265 0 0 0 2.882 1.194.446.446 0 0 1 .323.311l.766 2.691a.086.086 0 0 0 .084.063h2.6a.086.086 0 0 0 .084-.063l.766-2.691a.446.446 0 0 1 .323-.311 10.264 10.264 0 0 0 2.882-1.194.446.446 0 0 1 .449-.008l2.446 1.362a.087.087 0 0 0 .1-.015l1.839-1.839a.087.087 0 0 0 .014-.1l-1.361-2.445a.447.447 0 0 1 .008-.449 10.266 10.266 0 0 0 1.194-2.882.446.446 0 0 1 .311-.323l2.691-.766a.086.086 0 0 0 .063-.084v-2.6a.086.086 0 0 0-.063-.084l-2.691-.766a.446.446 0 0 1-.311-.323 10.268 10.268 0 0 0-1.194-2.882.446.446 0 0 1-.008-.449l1.362-2.446a.087.087 0 0 0-.015-.1l-1.839-1.839a.087.087 0 0 0-.1-.014l-2.445 1.361a.446.446 0 0 1-.449-.008 10.269 10.269 0 0 0-2.882-1.194.446.446 0 0 1-.323-.311l-.766-2.691a.087.087 0 0 0-.084-.063h-2.6a.086.086 0 0 0-.084.063l-.766 2.691a.446.446 0 0 1-.323.311 10.264 10.264 0 0 0-2.882 1.194.446.446 0 0 1-.449.008l-2.446-1.362a.087.087 0 0 0-.1.015l-1.839 1.839a.087.087 0 0 0-.014.1l1.361 2.445a.447.447 0 0 1-.008.449 10.264 10.264 0 0 0-1.194 2.882.447.447 0 0 1-.311.323l-2.691.766a.086.086 0 0 0-.063.084v2.6a.086.086 0 0 0 .063.084l2.691.766a.446.446 0 0 1 .311.323 10.265 10.265 0 0 0 1.194 2.882.446.446 0 0 1 .008.449l-1.362 2.446a.087.087 0 0 0 .015.1l1.839 1.839a.087.087 0 0 0 .1.014l2.445-1.361a.445.445 0 0 1 .217-.057zm5.586-1.667a7.12 7.12 0 0 1-5.937-11.053.446.446 0 0 1 .744.494 6.237 6.237 0 1 0 1.6-1.645.446.446 0 1 1-.516-.728 7.12 7.12 0 1 1 4.113 12.932z" class="cls-5" transform="translate(-168.737 -167.213)"/>
                <path id="Path_7025" d="M22.875 210.258h-1.4a.738.738 0 0 1-.707-.533l-.344-1.21a6.234 6.234 0 0 1-1.267-.525l-1.1.612a.738.738 0 0 1-.876-.123l-.993-.993a.738.738 0 0 1-.123-.876l.612-1.1a6.227 6.227 0 0 1-.525-1.268l-1.21-.344a.737.737 0 0 1-.533-.707v-1.4a.738.738 0 0 1 .533-.707l1.21-.344a6.228 6.228 0 0 1 .525-1.268l-.612-1.1a.738.738 0 0 1 .122-.876l.993-.993a.738.738 0 0 1 .876-.123l1.1.612a6.226 6.226 0 0 1 1.267-.525l.344-1.21a.738.738 0 0 1 .707-.533h1.4a.738.738 0 0 1 .707.533l.344 1.21a6.232 6.232 0 0 1 1.267.525l1.1-.612a.738.738 0 0 1 .876.122l.993.993a.738.738 0 0 1 .123.876l-.612 1.1a6.227 6.227 0 0 1 .525 1.268l1.21.344a.737.737 0 0 1 .533.707v1.4a.738.738 0 0 1-.533.707l-1.21.344a6.234 6.234 0 0 1-.525 1.268l.612 1.1a.738.738 0 0 1-.123.876l-.993.993a.738.738 0 0 1-.876.123l-1.1-.612a6.231 6.231 0 0 1-1.267.525l-.344 1.21a.738.738 0 0 1-.707.534zm-1.285-.893h1.165l.381-1.338a.446.446 0 0 1 .323-.311 5.34 5.34 0 0 0 1.5-.621.446.446 0 0 1 .449-.008l1.216.677.824-.824-.677-1.216a.447.447 0 0 1 .008-.449 5.34 5.34 0 0 0 .621-1.5.446.446 0 0 1 .311-.323l1.338-.381v-1.165l-1.338-.381a.446.446 0 0 1-.311-.323 5.339 5.339 0 0 0-.621-1.5.446.446 0 0 1-.008-.449l.677-1.216-.824-.824-1.216.677a.446.446 0 0 1-.449-.008 5.338 5.338 0 0 0-1.5-.621.446.446 0 0 1-.323-.311l-.381-1.338h-1.164l-.381 1.338a.446.446 0 0 1-.323.311 5.338 5.338 0 0 0-1.5.621.446.446 0 0 1-.449.008l-1.216-.677-.824.824.677 1.216a.446.446 0 0 1-.008.449 5.341 5.341 0 0 0-.621 1.5.446.446 0 0 1-.311.323l-1.338.381v1.165l1.338.381a.446.446 0 0 1 .311.323 5.338 5.338 0 0 0 .621 1.5.446.446 0 0 1 .008.449l-.677 1.216.824.824 1.216-.677a.447.447 0 0 1 .449.008 5.34 5.34 0 0 0 1.5.621.446.446 0 0 1 .323.311zm7.573-7.425zm0 0z" class="cls-5" transform="translate(-14.405 -180.371)"/>
                <path id="Path_7026" d="M73.365 256.434a2.749 2.749 0 1 1 2.749-2.749 2.752 2.752 0 0 1-2.749 2.749zm0-4.606a1.857 1.857 0 1 0 1.857 1.857 1.859 1.859 0 0 0-1.857-1.857z" class="cls-5" transform="translate(-65.597 -231.566)"/>
                <path id="Path_7027" d="M120.491 50.663h-1.512a.76.76 0 0 1-.728-.549l-.376-1.321a6.67 6.67 0 0 1-1.393-.577l-1.2.668a.76.76 0 0 1-.9-.126l-1.07-1.07a.76.76 0 0 1-.126-.9l.669-1.2a6.67 6.67 0 0 1-.577-1.393l-1.321-.376a.76.76 0 0 1-.549-.728v-1.515a.76.76 0 0 1 .549-.728l1.321-.376a6.67 6.67 0 0 1 .577-1.393l-.668-1.2a.76.76 0 0 1 .126-.9l1.07-1.07a.76.76 0 0 1 .9-.126l1.2.669a6.67 6.67 0 0 1 1.393-.577l.376-1.321a.76.76 0 0 1 .728-.549h1.512a.76.76 0 0 1 .728.549l.376 1.321a6.671 6.671 0 0 1 1.393.577l1.2-.668a.76.76 0 0 1 .9.126l1.07 1.07a.76.76 0 0 1 .126.9l-.669 1.2a6.671 6.671 0 0 1 .577 1.393l1.321.376a.76.76 0 0 1 .549.728v1.512a.76.76 0 0 1-.549.728l-1.321.376a6.67 6.67 0 0 1-.577 1.393l.668 1.2a.76.76 0 0 1-.126.9l-1.07 1.069a.76.76 0 0 1-.9.126l-1.2-.669a6.67 6.67 0 0 1-1.393.577l-.376 1.321a.76.76 0 0 1-.728.549zm-1.409-.893h1.307l.417-1.466a.446.446 0 0 1 .323-.311 5.785 5.785 0 0 0 1.623-.673.446.446 0 0 1 .449-.008l1.332.742.924-.924-.742-1.332a.446.446 0 0 1 .008-.449 5.784 5.784 0 0 0 .673-1.623.447.447 0 0 1 .311-.323l1.466-.417v-1.307l-1.466-.417a.446.446 0 0 1-.311-.323 5.785 5.785 0 0 0-.673-1.623.446.446 0 0 1-.008-.449l.742-1.332-.924-.924-1.332.742a.446.446 0 0 1-.449-.008 5.784 5.784 0 0 0-1.623-.673.447.447 0 0 1-.323-.311l-.417-1.466h-1.307l-.417 1.466a.446.446 0 0 1-.323.311 5.785 5.785 0 0 0-1.623.673.446.446 0 0 1-.449.008l-1.332-.742-.924.924.742 1.332a.446.446 0 0 1-.008.449 5.784 5.784 0 0 0-.673 1.623.447.447 0 0 1-.311.323l-1.466.417v1.307l1.466.417a.446.446 0 0 1 .311.323 5.785 5.785 0 0 0 .673 1.623.446.446 0 0 1 .008.449l-.742 1.332.924.924 1.332-.742a.446.446 0 0 1 .449.008 5.784 5.784 0 0 0 1.623.673.447.447 0 0 1 .323.311zm.653-3.925a3.491 3.491 0 0 1-1.36-.273.446.446 0 1 1 .346-.823 2.617 2.617 0 1 0-1.449-1.518.446.446 0 1 1-.839.306 3.514 3.514 0 1 1 3.3 2.308z" class="cls-5" transform="translate(-102.743 -34.001)"/>
            </g>
            <path id="Path_7028" d="M301.9 323.166a.444.444 0 0 1-.315-.131l-1.073-1.073a.446.446 0 0 1 0-.63l1.073-1.073a.446.446 0 0 1 .63.63l-.758.758.758.758a.446.446 0 0 1-.315.761z" class="cls-5" transform="translate(-274.845 -294.582)"/>
            <path id="Path_7029" d="M359.527 323.166a.446.446 0 0 1-.315-.761l.758-.758-.758-.758a.446.446 0 0 1 .63-.63l1.073 1.073a.446.446 0 0 1 0 .63l-1.073 1.073a.444.444 0 0 1-.315.131z" class="cls-5" transform="translate(-328.307 -294.582)"/>
            <path id="Path_7030" d="M329.4 323.164a.446.446 0 0 1-.388-.665l1.212-2.146a.446.446 0 1 1 .776.438l-1.212 2.146a.446.446 0 0 1-.388.227z" class="cls-5" transform="translate(-300.869 -294.58)"/>
        </g>
        <path id="Path_7031" d="M138.4 382.917a.445.445 0 0 1-.316-.131l-.982-.982a.446.446 0 0 1 0-.631l.982-.982a.447.447 0 0 1 .631 0l.982.982a.447.447 0 0 1 0 .631l-.982.982a.446.446 0 0 1-.315.131zm-.351-1.429l.351.351.351-.351-.351-.351z" class="cls-6" transform="translate(-124.741 -329.733)"/>
        <path id="Path_7032" d="M337.938 119.171a.446.446 0 0 1-.446-.446.536.536 0 0 0-.536-.536.446.446 0 1 1 0-.893.536.536 0 0 0 .536-.536.446.446 0 1 1 .893 0 .536.536 0 0 0 .536.536.446.446 0 0 1 0 .893.536.536 0 0 0-.536.536.446.446 0 0 1-.447.446z" class="cls-6" transform="translate(-306.464 -89.536)"/>
        <path id="Path_7033" d="M168.841 432.5a.446.446 0 0 1-.446-.446.536.536 0 0 0-.536-.536.446.446 0 1 1 0-.893.536.536 0 0 0 .536-.536.446.446 0 1 1 .893 0 .536.536 0 0 0 .536.536.446.446 0 1 1 0 .893.536.536 0 0 0-.536.536.446.446 0 0 1-.447.446z" class="cls-6" transform="translate(-152.465 -374.892)"/>
        <path id="Path_7034" d="M61.045 143.813a.446.446 0 0 1-.446-.446.536.536 0 0 0-.536-.536.446.446 0 1 1 0-.893.536.536 0 0 0 .536-.536.446.446 0 0 1 .893 0 .536.536 0 0 0 .536.536.446.446 0 1 1 0 .893.536.536 0 0 0-.536.536.446.446 0 0 1-.447.446z" class="cls-6" transform="translate(-54.293 -111.978)"/>
    </g>
</svg>
