<svg xmlns="http://www.w3.org/2000/svg" width="36.241" height="36.26" viewBox="0 0 36.241 36.26">
  <defs>
    <style>
      .cls-1 {
        fill: #9e9ea7;
        opacity: 0.1;
      }

      .cls-2 {
        fill: #92919b;
      }
    </style>
  </defs>
  <g id="Group_8313" data-name="Group 8313" transform="translate(-1410.88 -302.848)">
    <path id="Path_7242" data-name="Path 7242" class="cls-1" d="M14.792,6.132c9.123,14.737,14.792.474,14.792,8.643A14.792,14.792,0,0,1,0,14.775C0,6.606,5.669-8.6,14.792,6.132Z" transform="matrix(0.966, 0.259, -0.259, 0.966, 1418.532, 302.891)"/>
    <g id="team" transform="translate(1421.746 243.451)">
      <g id="Group_8289" data-name="Group 8289" transform="translate(0 71.36)">
        <g id="Group_8288" data-name="Group 8288">
          <path id="Path_7235" data-name="Path 7235" class="cls-2" d="M22.519,179.319l-1.085-.2a.17.17,0,0,1-.139-.167v-.063a2.428,2.428,0,0,0,1.128-2.049v-.811a2.428,2.428,0,0,0-4.856,0v.811a2.428,2.428,0,0,0,1.127,2.048v.063a.17.17,0,0,1-.139.167l-1.084.2a2.264,2.264,0,0,0-1.38.841,2.264,2.264,0,0,0-1.38-.841l-1.085-.2a.17.17,0,0,1-.139-.167v-.063a2.428,2.428,0,0,0,1.128-2.049v-.811a2.428,2.428,0,0,0-4.856,0v.811a2.428,2.428,0,0,0,1.127,2.048v.063a.17.17,0,0,1-.139.167l-1.084.2a2.264,2.264,0,0,0-1.38.841,2.264,2.264,0,0,0-1.38-.841l-1.085-.2a.17.17,0,0,1-.139-.167v-.063a2.428,2.428,0,0,0,1.128-2.049v-.811a2.428,2.428,0,0,0-4.856,0v.811a2.428,2.428,0,0,0,1.127,2.048v.063a.17.17,0,0,1-.139.167l-1.084.2A2.268,2.268,0,0,0,0,181.549v4.532a.476.476,0,0,0,.476.476H23.9a.476.476,0,0,0,.476-.476v-4.532A2.268,2.268,0,0,0,22.519,179.319ZM4.38,174.553A1.478,1.478,0,0,1,5.8,175.636l-.535-.314a.476.476,0,0,0-.606.1,1.664,1.664,0,0,1-1.279.6H2.9A1.478,1.478,0,0,1,4.38,174.553ZM2.91,176.975h.472A2.613,2.613,0,0,0,5.1,176.33l.751.441v.069a1.476,1.476,0,0,1-2.945.135Zm1.9,2.4-.431.417-.432-.417a1.109,1.109,0,0,0,.046-.135,2.418,2.418,0,0,0,.771,0A1.115,1.115,0,0,0,4.811,179.373Zm3,6.232H7.043v-3.281a.476.476,0,1,0-.952,0V185.6H2.668v-3.281a.476.476,0,1,0-.952,0V185.6H.952v-4.056a1.316,1.316,0,0,1,1.077-1.294l1.084-.2a1.125,1.125,0,0,0,.135-.035l.655.633V182.1a.476.476,0,0,0,.952,0v-1.447l.655-.633a1.123,1.123,0,0,0,.135.035l1.085.2a1.316,1.316,0,0,1,1.077,1.294Zm4.38-11.052a1.478,1.478,0,0,1,1.423,1.083l-.535-.314a.476.476,0,0,0-.606.1,1.664,1.664,0,0,1-1.279.6h-.478A1.478,1.478,0,0,1,12.187,174.553Zm-1.469,2.422h.472a2.613,2.613,0,0,0,1.722-.645l.751.441v.069a1.476,1.476,0,0,1-2.945.135Zm1.9,2.4-.431.417-.432-.417a1.109,1.109,0,0,0,.046-.135,2.418,2.418,0,0,0,.771,0A1.114,1.114,0,0,0,12.618,179.373Zm3,6.232h-.764v-3.281a.476.476,0,1,0-.952,0V185.6H10.476v-3.281a.476.476,0,1,0-.952,0V185.6H8.76v-4.056h0a1.316,1.316,0,0,1,1.077-1.294l1.084-.2a1.125,1.125,0,0,0,.135-.035l.655.633V182.1a.476.476,0,0,0,.952,0v-1.447l.655-.633a1.123,1.123,0,0,0,.135.035l1.085.2a1.316,1.316,0,0,1,1.077,1.294Zm4.38-11.052a1.478,1.478,0,0,1,1.423,1.083l-.535-.314a.476.476,0,0,0-.606.1,1.664,1.664,0,0,1-1.279.6h-.478A1.478,1.478,0,0,1,19.995,174.553Zm-1.469,2.422H19a2.613,2.613,0,0,0,1.722-.645l.751.441v.069a1.476,1.476,0,0,1-2.945.135Zm1.9,2.4-.431.417-.432-.417a1.109,1.109,0,0,0,.046-.135,2.418,2.418,0,0,0,.771,0A1.115,1.115,0,0,0,20.426,179.373Zm3,6.232h-.764v-3.281a.476.476,0,1,0-.952,0V185.6H18.283v-3.281a.476.476,0,1,0-.952,0V185.6h-.764v-4.056h0a1.316,1.316,0,0,1,1.077-1.294l1.084-.2a1.125,1.125,0,0,0,.135-.035l.773.747V182.1a.476.476,0,0,0,.952,0v-1.561l.537-.519a1.123,1.123,0,0,0,.135.035l1.085.2a1.316,1.316,0,0,1,1.077,1.294Z" transform="translate(0 -173.601)"/>
        </g>
      </g>
      <g id="Group_8291" data-name="Group 8291" transform="translate(5.856 66.249)">
        <g id="Group_8290" data-name="Group 8290">
          <path id="Path_7236" data-name="Path 7236" class="cls-2" d="M125.428,66.249A2.431,2.431,0,0,0,123,68.677v.811a2.428,2.428,0,0,0,4.856,0v-.811A2.431,2.431,0,0,0,125.428,66.249Zm0,.952a1.478,1.478,0,0,1,1.423,1.083l-.535-.314a.476.476,0,0,0-.606.1,1.664,1.664,0,0,1-1.279.6h-.478A1.478,1.478,0,0,1,125.428,67.2Zm1.476,2.287a1.476,1.476,0,0,1-2.945.135h.472a2.613,2.613,0,0,0,1.722-.645l.751.441Z" transform="translate(-123 -66.249)"/>
        </g>
      </g>
      <g id="Group_8293" data-name="Group 8293" transform="translate(13.663 66.249)">
        <g id="Group_8292" data-name="Group 8292">
          <path id="Path_7237" data-name="Path 7237" class="cls-2" d="M289.428,66.249A2.431,2.431,0,0,0,287,68.677v.811a2.428,2.428,0,1,0,4.856,0v-.811A2.431,2.431,0,0,0,289.428,66.249Zm0,.952a1.478,1.478,0,0,1,1.423,1.083l-.535-.314a.476.476,0,0,0-.606.1,1.664,1.664,0,0,1-1.279.6h-.478A1.478,1.478,0,0,1,289.428,67.2Zm1.476,2.287a1.476,1.476,0,0,1-2.945.135h.472a2.613,2.613,0,0,0,1.722-.645l.751.441Z" transform="translate(-287 -66.249)"/>
        </g>
      </g>
      <g id="Group_8295" data-name="Group 8295" transform="translate(7.807 72.713)">
        <g id="Group_8294" data-name="Group 8294">
          <path id="Path_7238" data-name="Path 7238" class="cls-2" d="M164.476,202.036a.476.476,0,0,0-.476.476v1.653a.476.476,0,1,0,.952,0v-1.653A.476.476,0,0,0,164.476,202.036Z" transform="translate(-164 -202.036)"/>
        </g>
      </g>
      <g id="Group_8297" data-name="Group 8297" transform="translate(7.807 75.887)">
        <g id="Group_8296" data-name="Group 8296">
          <path id="Path_7239" data-name="Path 7239" class="cls-2" d="M164.813,268.841a.476.476,0,1,0,.14.337A.477.477,0,0,0,164.813,268.841Z" transform="translate(-164 -268.701)"/>
        </g>
      </g>
      <g id="Group_8299" data-name="Group 8299" transform="translate(15.615 74.234)">
        <g id="Group_8298" data-name="Group 8298">
          <path id="Path_7240" data-name="Path 7240" class="cls-2" d="M328.476,233.983a.476.476,0,0,0-.476.476v1.653a.476.476,0,1,0,.952,0v-1.653A.476.476,0,0,0,328.476,233.983Z" transform="translate(-328 -233.983)"/>
        </g>
      </g>
      <g id="Group_8301" data-name="Group 8301" transform="translate(15.615 72.714)">
        <g id="Group_8300" data-name="Group 8300">
          <path id="Path_7241" data-name="Path 7241" class="cls-2" d="M328.813,202.18a.476.476,0,1,0,.14.337A.479.479,0,0,0,328.813,202.18Z" transform="translate(-328 -202.041)"/>
        </g>
      </g>
    </g>
  </g>
</svg>
