<svg xmlns="http://www.w3.org/2000/svg" width="36.241" height="36.26" viewBox="0 0 36.241 36.26">
    <defs>
        <style>
            .cls-2{fill:#92919b}
        </style>
    </defs>
    <g id="Group_8228" transform="translate(-650.88 -530.848)">
        <path id="Path_7015" fill="#9e9ea7" d="M14.792 6.132c9.123 14.737 14.792.474 14.792 8.643a14.792 14.792 0 0 1-29.584 0C0 6.606 5.669-8.6 14.792 6.132z" opacity="0.1" transform="rotate(14.98 -1686.925 2764.044)"/>
        <g id="iconfinder_car_parking_3383435" transform="translate(616.058 490.617)">
            <path id="Path_6493" d="M118.709 234.116l.948-1.427v-6.116a8.207 8.207 0 0 1-2.357 0v7.6h1.295a.136.136 0 0 0 .114-.057z" class="cls-2" transform="translate(-65.628 -166.327)"/>
            <path id="Path_6494" d="M51.672 59.233v.014a7.271 7.271 0 0 0 2.357 0v-.014a7.305 7.305 0 1 0-2.357 0zm1.179-12.386a5.176 5.176 0 1 1-5.176 5.176 5.176 5.176 0 0 1 5.176-5.176z" class="cls-2"/>
            <path id="Path_6495" d="M108.579 94.493v-2.564h.937a.936.936 0 0 1 0 1.873v1.382a2.319 2.319 0 0 0 0-4.638H107.2v6.785h1.382z" class="cls-2" transform="translate(-56.388 -41.915)"/>
        </g>
    </g>
</svg>
