<svg xmlns="http://www.w3.org/2000/svg" width="110.76" height="17.822" viewBox="0 0 110.76 17.822">
    <defs>
        <radialGradient id="radial-gradient" cx=".5" cy=".5" r=".5" gradientUnits="objectBoundingBox">
            <stop offset="0" stop-color="#fff8b4"/>
            <stop offset="1" stop-color="#eddc00"/>
        </radialGradient>
        <style>
            .cls-1{fill-rule:evenodd;fill:url(#radial-gradient)}
        </style>
    </defs>
    <g id="Group_7565" transform="translate(-1118.62 -596.532)">
        <g id="Page-1" transform="translate(1122.62 596.032)">
            <g id="Core" transform="translate(-4 .5)">
                <g id="star">
                    <path id="Shape" d="M9.38 14.326l5.8 3.5-1.534-6.593 5.114-4.438-6.745-.579L9.38 0 6.745 6.216 0 6.795l5.117 4.434-1.534 6.593z" class="cls-1"/>
                </g>
            </g>
        </g>
        <g id="Page-1-2" transform="translate(1145.62 596.032)">
            <g id="Core-2" transform="translate(-4 .5)">
                <g id="star-2">
                    <path id="Shape-2" d="M9.38 14.326l5.8 3.5-1.534-6.593 5.114-4.438-6.745-.579L9.38 0 6.745 6.216 0 6.795l5.117 4.434-1.534 6.593z" class="cls-1"/>
                </g>
            </g>
        </g>
        <g id="Page-1-3" transform="translate(1168.62 596.032)">
            <g id="Core-3" transform="translate(-4 .5)">
                <g id="star-3">
                    <path id="Shape-3" d="M9.38 14.326l5.8 3.5-1.534-6.593 5.114-4.438-6.745-.579L9.38 0 6.745 6.216 0 6.795l5.117 4.434-1.534 6.593z" class="cls-1"/>
                </g>
            </g>
        </g>
        <g id="Page-1-4" transform="translate(1191.62 596.032)">
            <g id="Core-4" transform="translate(-4 .5)">
                <g id="star-4">
                    <path id="Shape-4" d="M9.38 14.326l5.8 3.5-1.534-6.593 5.114-4.438-6.745-.579L9.38 0 6.745 6.216 0 6.795l5.117 4.434-1.534 6.593z" class="cls-1"/>
                </g>
            </g>
        </g>
        <g id="Page-1-5" transform="translate(1214.62 596.032)">
            <g id="Core-5" transform="translate(-4 .5)">
                <g id="star-5">
                    <path id="Shape-5" d="M9.38 14.326l5.8 3.5-1.534-6.593 5.114-4.438-6.745-.579L9.38 0 6.745 6.216 0 6.795l5.117 4.434-1.534 6.593z" class="cls-1"/>
                </g>
            </g>
        </g>
    </g>
</svg>
