<svg xmlns="http://www.w3.org/2000/svg" width="36.241" height="36.26" viewBox="0 0 36.241 36.26">
  <defs>
    <style>
      .cls-1 {
        fill: #9e9ea7;
        opacity: 0.1;
      }

      .cls-2 {
        fill: #92919b;
      }
    </style>
  </defs>
  <g id="Group_8314" data-name="Group 8314" transform="translate(-1410.88 -522.848)">
    <path id="Path_7243" data-name="Path 7243" class="cls-1" d="M14.792,6.132c9.123,14.737,14.792.474,14.792,8.643A14.792,14.792,0,0,1,0,14.775C0,6.606,5.669-8.6,14.792,6.132Z" transform="matrix(0.966, 0.259, -0.259, 0.966, 1418.532, 522.891)"/>
    <g id="_4091120" data-name="4091120" transform="translate(1411.439 1030.657)">
      <path id="Path_7217" data-name="Path 7217" class="cls-2" d="M19.2-503.645a11.626,11.626,0,0,0-5.21,1.705l-.414.255-.139-.167c-.074-.093-.214-.251-.3-.348l-.163-.181-.432,1.2c-.237.655-.423,1.2-.418,1.2.023.023,2.431-.4,2.463-.437a1.181,1.181,0,0,0-.246-.362l-.274-.33.288-.186a10.967,10.967,0,0,1,5.711-1.635A10.806,10.806,0,0,1,30.5-494.818a9.032,9.032,0,0,1,.316,2.667,9.031,9.031,0,0,1-.316,2.667,10.775,10.775,0,0,1-7.858,7.791,9,9,0,0,1-2.579.293,9.045,9.045,0,0,1-2.677-.321,10.788,10.788,0,0,1-6.548-4.855,11.122,11.122,0,0,1-1.45-4.047,14.049,14.049,0,0,1,0-3.062,10.772,10.772,0,0,1,1.664-4.376c.223-.349.237-.544.06-.683a.349.349,0,0,0-.469,0A11.306,11.306,0,0,0,9.306-496.3a12.381,12.381,0,0,0-.683,2.7,15.863,15.863,0,0,0,.023,3.043A11.541,11.541,0,0,0,17.192-481a9.672,9.672,0,0,0,2.867.344,9.418,9.418,0,0,0,2.6-.279,11.522,11.522,0,0,0,8.811-9.612,14.785,14.785,0,0,0,0-3.206,11.545,11.545,0,0,0-6.148-8.632,11.379,11.379,0,0,0-3.657-1.175A20.417,20.417,0,0,0,19.2-503.645Z" transform="translate(0 0)"/>
      <path id="Union_69" data-name="Union 69" class="cls-2" d="M4.978,16.524a8.655,8.655,0,1,1,3.687.83A8.564,8.564,0,0,1,4.978,16.524ZM6.357,1.671a7.33,7.33,0,1,0,3.079-.342,7.076,7.076,0,0,0-.767-.043A7.361,7.361,0,0,0,6.357,1.671Z" transform="translate(11.378 -500.827)"/>
      <path id="Path_7219" data-name="Path 7219" class="cls-2" d="M248.1-431.9c-.088.084-.1.132-.1.38s.012.3.1.38a.312.312,0,0,0,.22.1.312.312,0,0,0,.22-.1c.088-.084.1-.132.1-.38s-.012-.3-.1-.38a.312.312,0,0,0-.22-.1A.312.312,0,0,0,248.1-431.9Z" transform="translate(-228.26 -66.832)"/>
      <path id="Path_7220" data-name="Path 7220" class="cls-2" d="M129.321-382.679c-.1.108-.12.148-.1.256a.954.954,0,0,0,.456.488.325.325,0,0,0,.388-.388.954.954,0,0,0-.488-.456C129.469-382.8,129.429-382.783,129.321-382.679Z" transform="translate(-113.973 -114.183)"/>
      <path id="Path_7221" data-name="Path 7221" class="cls-2" d="M361.637-382.81a1.153,1.153,0,0,0-.4.432.328.328,0,0,0,.388.388.954.954,0,0,0,.456-.488c.02-.108,0-.148-.1-.252A.265.265,0,0,0,361.637-382.81Z" transform="translate(-337.209 -114.128)"/>
      <path id="Path_7222" data-name="Path 7222" class="cls-2" d="M141.7-345.333l-2.671,2.671-.938-.938c-1.166-1.162-1.052-1.127-1.651-.528-.615.615-.709.414,1.024,2.143,1.328,1.332,1.438,1.43,1.564,1.43s.323-.185,3.3-3.164c3.12-3.116,3.164-3.164,3.164-3.317s-.028-.181-.406-.559-.418-.406-.559-.406S144.331-347.957,141.7-345.333Zm.185,1.154-2.856,2.856-1.123-1.123-1.123-1.119.106-.11.106-.11.95.946c.871.867.961.946,1.083.946s.307-.173,2.817-2.679l2.679-2.675.11.1.11.106Z" transform="translate(-120.705 -147.761)"/>
      <path id="Path_7223" data-name="Path 7223" class="cls-2" d="M80.1-263.9a.312.312,0,0,0-.1.22.312.312,0,0,0,.1.22c.084.088.132.1.38.1s.3-.012.38-.1a.294.294,0,0,0,0-.44c-.084-.088-.132-.1-.38-.1S80.184-263.988,80.1-263.9Z" transform="translate(-66.623 -228.472)"/>
      <path id="Path_7224" data-name="Path 7224" class="cls-2" d="M408.1-263.9a.312.312,0,0,0-.1.22.312.312,0,0,0,.1.22c.084.088.132.1.38.1s.3-.012.38-.1a.312.312,0,0,0,.1-.22.312.312,0,0,0-.1-.22c-.084-.088-.132-.1-.38-.1S408.184-263.988,408.1-263.9Z" transform="translate(-382.218 -228.472)"/>
      <path id="Path_7225" data-name="Path 7225" class="cls-2" d="M129.625-150.81a.994.994,0,0,0-.4.468c-.02.108,0,.148.1.256s.148.12.256.1a.736.736,0,0,0,.3-.2c.232-.232.26-.384.1-.548A.265.265,0,0,0,129.625-150.81Z" transform="translate(-113.973 -337.354)"/>
      <path id="Path_7226" data-name="Path 7226" class="cls-2" d="M361.321-150.679c-.1.108-.12.148-.1.256a.875.875,0,0,0,.492.492c.108.02.148,0,.256-.1s.12-.148.1-.256a.875.875,0,0,0-.492-.492C361.469-150.8,361.429-150.783,361.321-150.679Z" transform="translate(-337.197 -337.409)"/>
      <path id="Path_7227" data-name="Path 7227" class="cls-2" d="M248.1-103.9c-.088.084-.1.132-.1.38s.012.3.1.38a.312.312,0,0,0,.22.1.312.312,0,0,0,.22-.1c.088-.084.1-.132.1-.38s-.012-.3-.1-.38a.312.312,0,0,0-.22-.1A.312.312,0,0,0,248.1-103.9Z" transform="translate(-228.26 -382.431)"/>
    </g>
  </g>
</svg>
