<svg xmlns="http://www.w3.org/2000/svg" width="15.009" height="15.009">
    <defs>
        <style>
            .cls-1{fill:#26009c;fill-rule:evenodd}
        </style>
    </defs>
    <g id="iconfinder_Icon_select_apps_outline_6637732" transform="translate(-5.001 -5.001)">
        <path id="Path_5781" data-name="Path 5781" class="cls-1" d="M5 16a2 2 0 0 1 2-2h3a2 2 0 0 1 2 2v3a2 2 0 0 1-2 2H7a2 2 0 0 1-2-2zm5 0H7v3h3z" transform="translate(.001 -.994)"/>
        <path id="Path_5782" data-name="Path 5782" class="cls-1" d="M3 4.556A1.556 1.556 0 0 1 4.556 3h3.891A1.556 1.556 0 0 1 10 4.556v3.891A1.556 1.556 0 0 1 8.447 10H4.556A1.556 1.556 0 0 1 3 8.447z" transform="translate(2.001 2.001)"/>
        <path id="Path_5783" data-name="Path 5783" class="cls-1" d="M14 16a2 2 0 0 1 2-2h3a2 2 0 0 1 2 2v3a2 2 0 0 1-2 2h-3a2 2 0 0 1-2-2zm5 0h-3v3h3z" transform="translate(-.994 -.994)"/>
        <path id="Path_5784" data-name="Path 5784" class="cls-1" d="M14 7a2 2 0 0 1 2-2h3a2 2 0 0 1 2 2v3a2 2 0 0 1-2 2h-3a2 2 0 0 1-2-2zm5 0h-3v3h3z" transform="translate(-.994 .001)"/>
    </g>
</svg>
