<svg xmlns="http://www.w3.org/2000/svg" width="15.009" height="15.009">
    <defs>
        <style>
            .cls-1{fill:#acacac;fill-rule:evenodd}
        </style>
    </defs>
    <g id="iconfinder_Icon_select_apps_outline_6637732" transform="translate(-5.001 -5.001)">
        <path id="Path_5781" data-name="Path 5781" class="cls-1" d="M5 16a2 2 0 0 1 2-2h3a2 2 0 0 1 2 2v3a2 2 0 0 1-2 2H7a2 2 0 0 1-2-2zm5 0H7v3h3z" transform="translate(.001 -.994)"/>
        <path id="Path_5783" data-name="Path 5783" class="cls-1" d="M14 16a2 2 0 0 1 2-2h3a2 2 0 0 1 2 2v3a2 2 0 0 1-2 2h-3a2 2 0 0 1-2-2zm5 0h-3v3h3z" transform="translate(-.994 -.994)"/>
        <path id="Path_5784" data-name="Path 5784" class="cls-1" d="M14 7a2 2 0 0 1 2-2h3a2 2 0 0 1 2 2v3a2 2 0 0 1-2 2h-3a2 2 0 0 1-2-2zm5 0h-3v3h3z" transform="translate(-.994 .001)"/>
        <path id="Path_9164" data-name="Path 9164" class="cls-1" d="M14 7a2 2 0 0 1 2-2h3a2 2 0 0 1 2 2v3a2 2 0 0 1-2 2h-3a2 2 0 0 1-2-2zm5 0h-3v3h3z" transform="translate(-8.999 .001)"/>
    </g>
</svg>
