<svg xmlns="http://www.w3.org/2000/svg" width="17.63" height="17.217">
    <path data-name="Path 7259" d="M10.127.59a.662.662 0 0 1 .717-.59.661.661 0 0 1 .718.59v2.575a.663.663 0 0 1-.718.59.661.661 0 0 1-.718-.59zM2.09 11.329h1.641a.192.192 0 0 1 .191.191v1.216a.192.192 0 0 1-.191.191H2.085a.191.191 0 0 1-.189-.191V11.52a.191.191 0 0 1 .189-.191zm6.3-3.466h1.646a.194.194 0 0 1 .131.052 5.884 5.884 0 0 0-1.65 1.547h-.128a.191.191 0 0 1-.189-.191V8.054a.191.191 0 0 1 .189-.191zm-3.157 0h1.656a.191.191 0 0 1 .191.189V9.27a.192.192 0 0 1-.191.191H5.237a.189.189 0 0 1-.189-.189V8.053a.191.191 0 0 1 .189-.189zm-3.157 0h1.655a.191.191 0 0 1 .191.189V9.27a.192.192 0 0 1-.191.191H2.085a.191.191 0 0 1-.185-.19V8.053a.191.191 0 0 1 .189-.189zm3.157 3.466h1.656a.192.192 0 0 1 .191.191v1.216a.192.192 0 0 1-.191.191H5.237a.191.191 0 0 1-.189-.191V11.52a.189.189 0 0 1 .189-.191zM3.677.59A.662.662 0 0 1 4.395 0a.661.661 0 0 1 .718.59v2.575a.664.664 0 0 1-.718.59.662.662 0 0 1-.718-.59V.59zM.791 5.63h13.676V2.667a.356.356 0 0 0-.106-.255.36.36 0 0 0-.255-.106h-1.31a.4.4 0 0 1 0-.8h1.31a1.158 1.158 0 0 1 1.16 1.16v4.711a6.008 6.008 0 0 0-.807-.217v-.735H.791v7.68a.359.359 0 0 0 .106.255.363.363 0 0 0 .251.106h6.5a6.107 6.107 0 0 0 .278.8H1.16A1.158 1.158 0 0 1 0 14.111V2.669A1.161 1.161 0 0 1 1.16 1.51h1.4a.4.4 0 1 1 0 .8h-1.4a.356.356 0 0 0-.26.101.369.369 0 0 0-.1.256v2.965zM6.26 2.3a.4.4 0 0 1 0-.8h2.67a.4.4 0 1 1 0 .8z" style="fill:#acacac"/>
    <path data-name="Path 7260" d="M66.372 59.12a4.366 4.366 0 1 1-3.091 1.28 4.366 4.366 0 0 1 3.091-1.28zm-.472 6.11h.931v.825H65.9zm.931-.574H65.9c-.093-1.132-.287-1.851-.287-2.984a.756.756 0 0 1 1.511 0c0 1.131-.2 1.851-.287 2.984z" transform="translate(-53.102 -50.635)" style="fill-rule:evenodd;fill:#acacac"/>
</svg>
