<svg xmlns="http://www.w3.org/2000/svg" width="12.694" height="16.127">
    <path data-name="Path 8059" d="M24.628 16.99a7.093 7.093 0 0 1-.885-3.4v-2.678a4.7 4.7 0 0 0-3.491-4.375v-.809a1.913 1.913 0 0 0-3.808 0v.808a4.7 4.7 0 0 0-3.491 4.376v2.675a7.016 7.016 0 0 1-.224 1.749 7.272 7.272 0 0 1-.662 1.656.53.53 0 0 0 .03.559.652.652 0 0 0 .539.272h2.874a2.77 2.77 0 0 0 2.837 2.3 2.77 2.77 0 0 0 2.837-2.3h2.876a.652.652 0 0 0 .54-.273.53.53 0 0 0 .028-.56zM17.712 5.728A.579.579 0 0 1 18.1 5.2a.684.684 0 0 1 .691.121.557.557 0 0 1 .189.411v.585a5.617 5.617 0 0 0-.317-.009h-.633q-.159 0-.317.009zm.635 13.247a1.56 1.56 0 0 1-1.555-1.152H19.9a1.56 1.56 0 0 1-1.555 1.152zm2.222-2.3H13.6a8.016 8.016 0 0 0 .619-3.084v-2.679a3.572 3.572 0 0 1 2.99-3.377 4.257 4.257 0 0 1 .818-.079h.635a4.254 4.254 0 0 1 .817.079 3.573 3.573 0 0 1 2.991 3.377v2.675a8.094 8.094 0 0 0 .619 3.084z" style="fill:#acacac" transform="translate(-12 -4)"/>
</svg>
