<svg xmlns="http://www.w3.org/2000/svg" width="20.13" height="21.073" viewBox="0 0 20.13 21.073">
    <defs>
        <style>
            .cls-1{fill:#aaabad}
        </style>
    </defs>
    <g id="_4252365" transform="translate(-11.448)">
        <g id="Group_8225" transform="translate(11.448)">
            <path id="Path_7095" d="M140.851 222.339h1.768a.309.309 0 0 0 0-.617h-1.768a.309.309 0 1 0 0 .617z" class="cls-1" transform="translate(-135.229 -212.597)"/>
            <path id="Path_7096" d="M140.851 258.687h7.181a.309.309 0 1 0 0-.617h-7.181a.309.309 0 1 0 0 .617z" class="cls-1" transform="translate(-135.229 -247.449)"/>
            <path id="Path_7097" d="M270.723 294.417h-1.914a.309.309 0 0 0 0 .617h1.914a.309.309 0 1 0 0-.617z" class="cls-1" transform="translate(-257.92 -282.3)"/>
            <path id="Path_7098" d="M31.18 2.073l-4-2a.724.724 0 0 0-.644 0l-4 2a.716.716 0 0 0-.4.644v.574h-4.327a.309.309 0 1 0 0 .617h4.338v.939a7.864 7.864 0 0 0 .1 1.286H17.07a.309.309 0 1 0 0 .617h5.31a6.039 6.039 0 0 0 .307.879H17.07a.309.309 0 1 0 0 .617H23a6.072 6.072 0 0 0 .357.538q.128.172.271.341h-3.556a.309.309 0 0 0 0 .617h4.146a13.769 13.769 0 0 0 2.267 1.668.719.719 0 0 0 .753 0l.094-.058v7.5h-8.076v-.576a.309.309 0 1 0-.617 0v2.078a.1.1 0 0 1-.1.1h-6.371a.1.1 0 0 1-.1-.1v-4.448a.1.1 0 0 1 .1-.1h6.368a.1.1 0 0 1 .1.1v.927a.309.309 0 1 0 .617 0v-.927a.717.717 0 0 0-.024-.179h5.021a.309.309 0 0 0 0-.617h-5.986v-.879h5.986a.309.309 0 0 0 0-.617h-6a2.889 2.889 0 0 0-.223-.879h3.2a.309.309 0 1 0 0-.617h-3.561a2.907 2.907 0 0 0-3.679-.806v-7.4h2.381a.309.309 0 1 0 0-.617h-2.483a.515.515 0 0 0-.514.514v7.946a2.9 2.9 0 0 0-.93 2.131v1.3h-.272a.721.721 0 0 0-.72.72v4.446a.721.721 0 0 0 .72.72h6.368a.721.721 0 0 0 .72-.72v-.886h8.179a.515.515 0 0 0 .514-.514v-8a9.4 9.4 0 0 0 2.416-2.172 6.369 6.369 0 0 0 1.212-3.938V2.717a.716.716 0 0 0-.4-.644zM16.412 15.186h-2.12v-1.3a1.06 1.06 0 1 1 2.121 0v1.3zm-3.355-1.3a2.295 2.295 0 1 1 4.59 0v1.3h-.617v-1.3a1.678 1.678 0 0 0-3.355 0v1.3h-.617zm17.9-9.036c0 2.966-1.547 4.509-4.044 6.037a.105.105 0 0 1-.109 0c-2.5-1.528-4.044-3.071-4.044-6.037V2.717a.1.1 0 0 1 .057-.092l4-2a.1.1 0 0 1 .092 0l4 2a.1.1 0 0 1 .057.092v2.131z" class="cls-1" transform="translate(-11.448)"/>
            <path id="Path_7099" d="M312.75 52.13a3.124 3.124 0 1 0 2.943 4.172.309.309 0 1 0-.582-.207 2.508 2.508 0 1 1 .106-1.283.309.309 0 1 0 .608-.108 3.118 3.118 0 0 0-3.075-2.574z" class="cls-1" transform="translate(-297.354 -49.984)"/>
            <path id="Path_7100" d="M354.45 105.4l-1.216 1.216-.707-.707a.309.309 0 0 0-.437.437l.925.925a.309.309 0 0 0 .437 0l1.434-1.434a.309.309 0 0 0-.437-.437z" class="cls-1" transform="translate(-337.983 -100.972)"/>
        </g>
    </g>
</svg>
