<svg xmlns="http://www.w3.org/2000/svg" width="22.408" height="25.822" viewBox="0 0 22.408 25.822">
    <defs>
        <style>
            .cls-1{fill:#b3404a}
        </style>
    </defs>
    <g id="_216658" transform="translate(-33.85)">
        <g id="Group_8246" transform="translate(35.213)">
            <path id="Path_7145" d="M151.034 3.038a.741.741 0 0 1-.741-.741v-.815h-5.631V2.3a.741.741 0 1 1-1.482 0V.741a.741.741 0 0 1 .741-.741h7.113a.741.741 0 0 1 .741.741V2.3a.741.741 0 0 1-.741.738z" class="cls-1" transform="translate(-139.03)"/>
            <path id="Path_7146" d="M260.468 299.949a5.631 5.631 0 1 1 5.631-5.631 5.638 5.638 0 0 1-5.631 5.631zm0-9.781a4.149 4.149 0 1 0 4.149 4.149 4.154 4.154 0 0 0-4.149-4.149z" class="cls-1" transform="translate(-245.055 -274.127)"/>
            <path id="Path_7147" d="M72.828 162.485h-9.72a.741.741 0 0 1-.738-.671l-1.482-15.56a.741.741 0 0 1 .738-.811H77.04a.741.741 0 0 1 0 1.482h-14.6L63.782 161h9.046a.741.741 0 1 1 0 1.482z" class="cls-1" transform="translate(-60.885 -138.108)"/>
            <path id="Path_7148" d="M130.68 252.15a.741.741 0 0 1-.737-.671l-.731-7.676a.741.741 0 0 1 1.475-.14l.731 7.676a.741.741 0 0 1-.667.808c-.023.002-.051.003-.071.003z" class="cls-1" transform="translate(-125.763 -230.737)"/>
            <path id="Path_7149" d="M293.022 247.811h-.074a.741.741 0 0 1-.664-.81l.329-3.334a.741.741 0 0 1 1.475.146l-.329 3.334a.741.741 0 0 1-.737.664z" class="cls-1" transform="translate(-280.611 -230.74)"/>
            <path id="Path_7150" d="M352.547 246.782h-.059a.74.74 0 0 1-.652-1.087l.193-2.029a.741.741 0 0 1 1.475.14l-.22 2.306a.741.741 0 0 1-.737.67z" class="cls-1" transform="translate(-337.08 -230.74)"/>
            <path id="Path_7151" d="M314.917 353.3a.741.741 0 0 1-.524-1.265l3.8-3.8a.741.741 0 0 1 1.048 1.048l-3.8 3.8a.739.739 0 0 1-.524.217z" class="cls-1" transform="translate(-301.402 -330.472)"/>
            <path id="Path_7152" d="M318.711 353.3a.739.739 0 0 1-.524-.217l-3.8-3.8a.741.741 0 1 1 1.048-1.048l3.8 3.8a.741.741 0 0 1-.524 1.265z" class="cls-1" transform="translate(-301.401 -330.472)"/>
        </g>
        <path id="Rectangle_7638" fill="#f4b2b0" d="M0 0H18.141V4.029H0z" transform="translate(34.591 5.112)"/>
        <g id="Group_8247" transform="translate(33.85 4.371)">
            <path id="Path_7153" d="M52.732 92.187H34.591a.741.741 0 0 1-.741-.741v-4.029a.741.741 0 0 1 .741-.741h18.141a.741.741 0 0 1 .741.741v4.029a.741.741 0 0 1-.741.741zm-17.4-1.482h16.659v-2.547H35.332z" class="cls-1" transform="translate(-33.85 -86.676)"/>
            <path id="Path_7154" d="M214.441 250.552a.741.741 0 0 1-.741-.741v-7.761a.741.741 0 1 1 1.482 0v7.761a.741.741 0 0 1-.741.741z" class="cls-1" transform="translate(-204.63 -233.51)"/>
        </g>
    </g>
</svg>
