<svg xmlns="http://www.w3.org/2000/svg" width="20.196" height="12.821" viewBox="0 0 20.196 12.821">
  <g id="AC" transform="translate(-89 -149.988)">
    <g id="Group_7983" data-name="Group 7983" transform="translate(89 149.988)">
      <path id="Path_6803" data-name="Path 6803" d="M108.592,158.03H89.6a.6.6,0,0,1-.6-.6v-6.833a.6.6,0,0,1,.6-.6h18.987a.6.6,0,0,1,.6.6v6.833A.6.6,0,0,1,108.592,158.03Zm-18.382-1.209h17.778V151.2H90.209Z" transform="translate(-89 -149.988)" fill="#6e6d7a"/>
    </g>
    <g id="Group_7984" data-name="Group 7984" transform="translate(91.237 154.301)">
      <path id="Path_6804" data-name="Path 6804" d="M141.281,225.037H126.606a.6.6,0,0,1-.579-.778l.756-2.52a.6.6,0,0,1,.579-.431h13a.6.6,0,0,1,.568.4l.9,2.484a.6.6,0,0,1-.554.848Zm-13.862-1.209h13l-.477-1.311H127.812Z" transform="translate(-126.001 -221.307)" fill="#6e6d7a"/>
    </g>
    <g id="Group_7985" data-name="Group 7985" transform="translate(90.955 151.721)">
      <path id="Path_6805" data-name="Path 6805" d="M122.947,179.864h-1.008a.6.6,0,0,1,0-1.209h1.008a.6.6,0,1,1,0,1.209Z" transform="translate(-121.334 -178.655)" fill="#6e6d7a"/>
    </g>
    <g id="Group_7986" data-name="Group 7986" transform="translate(92.648 158.896)">
      <path id="Path_6806" data-name="Path 6806" d="M149.939,301.211a.6.6,0,0,1-.6-.6v-2.7a.6.6,0,0,1,1.209,0v2.7A.6.6,0,0,1,149.939,301.211Z" transform="translate(-149.334 -297.298)" fill="#6e6d7a"/>
    </g>
    <g id="Group_7987" data-name="Group 7987" transform="translate(97.848 158.896)">
      <path id="Path_6807" data-name="Path 6807" d="M235.939,301.211a.6.6,0,0,1-.6-.6v-2.7a.6.6,0,0,1,1.209,0v2.7A.6.6,0,0,1,235.939,301.211Z" transform="translate(-235.334 -297.298)" fill="#6e6d7a"/>
    </g>
    <g id="Group_7988" data-name="Group 7988" transform="translate(103.049 158.896)">
      <path id="Path_6808" data-name="Path 6808" d="M321.939,301.211a.6.6,0,0,1-.6-.6v-2.7a.6.6,0,1,1,1.209,0v2.7A.6.6,0,0,1,321.939,301.211Z" transform="translate(-321.334 -297.298)" fill="#6e6d7a"/>
    </g>
  </g>
</svg>
