<svg id="iconfinder_Calendar_728916" xmlns="http://www.w3.org/2000/svg" width="16.205" height="17.285">
    <defs>
        <style>
            .cls-1{fill:#9ba0a5}
        </style>
    </defs>
    <g id="Group_8" data-name="Group 8">
        <g id="Group_7" data-name="Group 7">
            <path id="Path_15" data-name="Path 15" class="cls-1" d="M18.044 1.08h-1.08V.54a.54.54 0 0 0-1.08 0v.54H14.8V.54a.54.54 0 0 0-1.08 0v.54h-1.08V.54a.54.54 0 1 0-1.08 0v.54h-1.08V.54a.54.54 0 0 0-1.08 0v.54H8.321V.54a.54.54 0 1 0-1.08 0v.54h-1.08A2.161 2.161 0 0 0 4 3.241v11.883a2.161 2.161 0 0 0 2.161 2.161h11.883a2.161 2.161 0 0 0 2.156-2.161V3.241a2.161 2.161 0 0 0-2.156-2.161zm1.08 14.044a1.081 1.081 0 0 1-1.08 1.08H6.161a1.081 1.081 0 0 1-1.08-1.08V3.241a1.081 1.081 0 0 1 1.08-1.08h1.08V2.7a.54.54 0 1 0 1.08 0v-.54H9.4v.54a.54.54 0 0 0 1.08 0v-.54h1.08v.54a.54.54 0 1 0 1.08 0v-.54h1.08v.54a.54.54 0 0 0 1.08 0v-.54h1.08v.54a.54.54 0 0 0 1.08 0v-.54h1.08a1.081 1.081 0 0 1 1.08 1.08z" transform="translate(-4)"/>
        </g>
    </g>
    <path id="Path_16" data-name="Path 16" class="cls-1" d="M20 40v9.581h11.711V40zm8.517 1.065v1.065h-1.065v-1.065zm-4.258 3.194h-1.065v-1.065h1.065zm1.065-1.065h1.065v1.065h-1.066zm-1.065 2.129v1.065h-1.065v-1.065zm1.065 0h1.065v1.065h-1.066zm2.129 0h1.065v1.065h-1.066zm0-1.065v-1.064h1.065v1.065zm-1.065-3.194v1.065h-1.065v-1.064zm-2.129 0v1.065h-1.065v-1.064zm-3.194 0h1.065v1.065h-1.065zm0 2.129h1.065v1.065h-1.065zm0 2.129h1.065v1.065h-1.065zm0 3.194v-1.064h1.065v1.065zm2.129 0v-1.064h1.065v1.065zm2.129 0v-1.064h1.065v1.065zm2.129 0v-1.064h1.065v1.065zm3.194 0h-1.065v-1.064h1.065zm0-2.129h-1.065v-1.064h1.065zm0-2.129h-1.065v-1.064h1.065zm0-2.129h-1.065v-1.064h1.065z" transform="translate(-17.753 -34.613)"/>
</svg>
