<svg xmlns="http://www.w3.org/2000/svg" width="24" height="24" viewBox="0 0 24 24">
  <g id="caution" transform="translate(-0.322 -0.322)">
    <g id="Layer_2" data-name="Layer 2" transform="translate(2.299 3.079)">
      <path id="Path_6798" data-name="Path 6798" d="M18.169,22.483H7.849a4.813,4.813,0,0,1-4.213-2.426,4.736,4.736,0,0,1,0-4.79L8.819,6.4a4.852,4.852,0,0,1,8.379,0l5.168,8.864h0a4.736,4.736,0,0,1,0,4.79,4.813,4.813,0,0,1-4.2,2.426ZM13.009,5.54a3.265,3.265,0,0,0-2.857,1.633L4.984,16.044a3.2,3.2,0,0,0,0,3.242,3.258,3.258,0,0,0,2.865,1.656h10.32a3.258,3.258,0,0,0,2.873-1.656,3.2,3.2,0,0,0,0-3.242L15.866,7.172A3.265,3.265,0,0,0,13.009,5.54Z" transform="translate(-2.986 -3.997)" fill="#6e6d7a"/>
      <path id="Path_6799" data-name="Path 6799" d="M15.871,12a.416.416,0,0,0-.339.169.4.4,0,0,0-.077.37l.416,1.679.416-1.679a.4.4,0,0,0-.077-.37A.416.416,0,0,0,15.871,12Z" transform="translate(-5.848 -5.837)" fill="none"/>
      <path id="Path_6800" data-name="Path 6800" d="M16.956,10.779a1.972,1.972,0,0,0-3.081,0,1.925,1.925,0,0,0-.354,1.687l1.124,4.659a.77.77,0,0,0,1.494,0L17.3,12.458A1.925,1.925,0,0,0,16.956,10.779Zm-1.124,1.309-.416,1.679L15,12.088a.4.4,0,0,1,.077-.37.424.424,0,0,1,.678,0,.4.4,0,0,1,.077.37Z" transform="translate(-5.393 -5.386)" fill="#6e6d7a"/>
      <circle id="Ellipse_317" data-name="Ellipse 317" cx="1.155" cy="1.155" r="1.155" transform="translate(8.868 13.094)" fill="#6e6d7a"/>
    </g>
    <g id="frame">
      <rect id="Rectangle_7359" data-name="Rectangle 7359" width="24" height="24" transform="translate(0.322 0.322)" fill="none"/>
    </g>
  </g>
</svg>
