<svg xmlns="http://www.w3.org/2000/svg" width="18.962" height="16.804" viewBox="0 0 18.962 16.804">
    <defs>
        <style>
            .cls-1{fill:#acacac}
        </style>
    </defs>
    <g id="chat_bot-256" transform="translate(-.5 247.242)">
        <path id="Path_7064" d="M6.487-159.741a1.68 1.68 0 0 0 .221 3.13c.41.116.473.179.62.6a3.889 3.889 0 0 1 .158.557 7.324 7.324 0 0 1-1.523.084 6.043 6.043 0 0 0-1.922.158 2.341 2.341 0 0 0-1.366 2.342l-.053.861-.483.221a2.824 2.824 0 0 0-1.355 1.25 1.927 1.927 0 0 0-.284 1.26 2.121 2.121 0 0 0 .315 1.355 2.819 2.819 0 0 0 1.485 1.291c.347.126.357.137.357.767a2.438 2.438 0 0 0 1.313 2.521l.546.273 5.609-.031 5.609-.032.441-.294a2.721 2.721 0 0 0 .735-.735 2.223 2.223 0 0 0 .326-1.4l.042-.966.389-.116a2.82 2.82 0 0 0 .84-.5 2.776 2.776 0 0 0-.746-4.653l-.5-.221v-.788a2.337 2.337 0 0 0-1.281-2.363c-.336-.168-.62-.2-1.985-.2-1.313 0-1.576-.021-1.534-.147.032-.084.116-.336.179-.557.116-.368.179-.431.567-.536a1.619 1.619 0 0 0 1.187-1.912 1.422 1.422 0 0 0-.872-1.155 1.53 1.53 0 0 0-1.5 0 1.658 1.658 0 0 0-.6 2.426l.3.452-.231.714-.231.725-1.281-.032-1.281-.032-.242-.7-.252-.7.3-.389a1.325 1.325 0 0 0 .294-1 1.493 1.493 0 0 0-.7-1.387 1.945 1.945 0 0 0-1.611-.141zm1.082 1.134a.646.646 0 0 1 .126.4.467.467 0 0 1-.525.525.467.467 0 0 1-.525-.525.467.467 0 0 1 .525-.525.646.646 0 0 1 .399.125zm5.651.137c.158.242.158.284 0 .525a.532.532 0 1 1-.924-.525.4.4 0 0 1 .441-.263.537.537 0 0 1 .483.263zm2.573 4.548l.3.336v8.739l-.3.3-.3.3h-5.434c-5.882 0-5.861 0-6.124-.578a29.138 29.138 0 0 1-.126-4.422c0-3.561.021-4.191.168-4.464.315-.62.315-.62 6.166-.588l5.347.021zm2.174 3.634a1.484 1.484 0 0 1 .273 1.618c-.158.41-.672.966-.893.966a6.474 6.474 0 0 1-.095-1.576c0-1.513.011-1.576.2-1.481a3.133 3.133 0 0 1 .516.473zm-15.314 1.061a9.724 9.724 0 0 1-.063 1.527 1.7 1.7 0 0 1-.357-.21 1.809 1.809 0 0 1-.473-2.1c.158-.294.63-.735.8-.735a6.2 6.2 0 0 1 .093 1.518z" class="cls-1" transform="translate(0 -87.367)"/>
        <path id="Path_7065" d="M54.478-90.715a2.026 2.026 0 0 0-1.145 1.344 1.7 1.7 0 0 0 1.6 1.9 1.562 1.562 0 0 0 1.691-1.565A1.476 1.476 0 0 0 55.7-90.6a1.325 1.325 0 0 0-1.222-.115zm.966 1.3a.532.532 0 0 1-.746.746.507.507 0 0 1-.084-.819.5.5 0 0 1 .831.075z" class="cls-1" transform="translate(-47.266 -149.177)"/>
        <path id="Path_7066" d="M97.265-90.432a1.383 1.383 0 0 0-.935.84 1.656 1.656 0 0 0 1.492 2.374 1.664 1.664 0 0 0 1.45-2.458 1.661 1.661 0 0 0-2.007-.756zm.882 1.113a.553.553 0 0 1-.063.9c-.242.158-.284.158-.525 0a.54.54 0 0 1 .242-1.008 1.14 1.14 0 0 1 .346.109z" class="cls-1" transform="translate(-85.609 -149.429)"/>
        <path id="Path_7067" d="M59.193-41.748c-.263.5-.011.8 1.155 1.355a3.306 3.306 0 0 0 1.765.42 4.649 4.649 0 0 0 2.962-.725c.525-.336.63-.452.63-.7 0-.62-.452-.714-1.229-.231a3.939 3.939 0 0 1-4.2-.042c-.476-.329-.925-.36-1.083-.077z" class="cls-1" transform="translate(-52.443 -192.913)"/>
    </g>
</svg>
