<svg xmlns="http://www.w3.org/2000/svg" width="18.68" height="18.674" viewBox="0 0 18.68 18.674">
  <g id="Create" transform="translate(-21.066 490.719)">
    <path id="Path_6636" data-name="Path 6636" d="M21.692-490.682a1,1,0,0,0-.33.2c-.322.286-.3-.306-.29,7.487l.012,6.918.087.163a.827.827,0,0,0,.481.414c.1.032,2.258.04,7.149.032l7-.012.155-.107a1.207,1.207,0,0,0,.254-.258l.1-.147.012-7c.008-4.891,0-7.046-.032-7.149a.826.826,0,0,0-.414-.481l-.163-.088-6.938-.008C24.292-490.722,21.787-490.71,21.692-490.682Zm12.962,7.594-.012,5.936-5.932.012-5.936.008V-489.02H34.662Z" fill="#6e6d7a"/>
    <path id="Path_6637" data-name="Path 6637" d="M121.9-391.549v1.451H119v1.71h2.9v2.9h1.71v-2.9h2.9v-1.71h-2.9V-393H121.9Z" transform="translate(-94.04 -93.833)" fill="#6e6d7a"/>
    <path id="Path_6638" data-name="Path 6638" d="M119.724-404.165v.835h.835v11.889H108.67v-.835H107v.934a3.886,3.886,0,0,0,.06,1.085.81.81,0,0,0,.4.417l.159.087,6.918.012c7.8.012,7.2.032,7.491-.294a.827.827,0,0,0,.2-.386c.032-.147.04-2.151.032-7.085l-.012-6.879-.087-.159a.81.81,0,0,0-.417-.4,3.885,3.885,0,0,0-1.085-.06h-.934Z" transform="translate(-82.517 -82.31)" fill="#6e6d7a"/>
  </g>
</svg>
