<svg xmlns="http://www.w3.org/2000/svg" width="17.01" height="17.01" viewBox="0 0 17.01 17.01">
    <defs>
        <style>
            .cls-1{fill:#26009c;fill-rule:evenodd}
        </style>
    </defs>
    <g id="iconfinder_Icon_select_apps_outline_6637732" transform="translate(-3 -3)">
        <path id="Path_5781" d="M5 16a2 2 0 0 1 2-2h3a2 2 0 0 1 2 2v3a2 2 0 0 1-2 2H7a2 2 0 0 1-2-2zm5 0H7v3h3z" class="cls-1" transform="translate(.001 -.994)"/>
        <path id="Path_5782" d="M3 5a2 2 0 0 1 2-2h5a2 2 0 0 1 2 2v5a2 2 0 0 1-2 2H5a2 2 0 0 1-2-2zm7 0H5v5h5z" class="cls-1"/>
        <path id="Path_5783" d="M14 16a2 2 0 0 1 2-2h3a2 2 0 0 1 2 2v3a2 2 0 0 1-2 2h-3a2 2 0 0 1-2-2zm5 0h-3v3h3z" class="cls-1" transform="translate(-.994 -.994)"/>
        <path id="Path_5784" d="M14 7a2 2 0 0 1 2-2h3a2 2 0 0 1 2 2v3a2 2 0 0 1-2 2h-3a2 2 0 0 1-2-2zm5 0h-3v3h3z" class="cls-1" transform="translate(-.994 .001)"/>
    </g>
</svg>
