<svg xmlns="http://www.w3.org/2000/svg" width="17.63" height="17.217" viewBox="0 0 17.63 17.217">
  <defs>
    <style>
      .cls-1, .cls-2 {
        fill: #acacac;
      }

      .cls-2 {
        fill-rule: evenodd;
      }
    </style>
  </defs>
  <g id="date-expired" transform="translate(0)">
    <path id="Path_7259" data-name="Path 7259" class="cls-1" d="M10.127.59A.662.662,0,0,1,10.844,0a.661.661,0,0,1,.718.59V3.165a.663.663,0,0,1-.718.59.661.661,0,0,1-.718-.59ZM2.09,11.329H3.731a.192.192,0,0,1,.191.191v1.216a.192.192,0,0,1-.191.191H2.085a.191.191,0,0,1-.189-.191V11.52a.191.191,0,0,1,.189-.191Zm6.3-3.466h1.646a.194.194,0,0,1,.131.052,5.884,5.884,0,0,0-1.65,1.547H8.389A.191.191,0,0,1,8.2,9.271V8.054a.191.191,0,0,1,.189-.191Zm-3.157,0H6.889a.191.191,0,0,1,.191.189V9.27a.192.192,0,0,1-.191.191H5.237a.189.189,0,0,1-.189-.189V8.053a.191.191,0,0,1,.189-.189Zm-3.157,0H3.731a.191.191,0,0,1,.191.189V9.27a.192.192,0,0,1-.191.191H2.085A.191.191,0,0,1,1.9,9.271V8.053a.191.191,0,0,1,.189-.189Zm3.157,3.466H6.889a.192.192,0,0,1,.191.191v1.216a.192.192,0,0,1-.191.191H5.237a.191.191,0,0,1-.189-.191V11.52a.189.189,0,0,1,.189-.191ZM3.677.59A.662.662,0,0,1,4.395,0a.661.661,0,0,1,.718.59V3.165a.664.664,0,0,1-.718.59.662.662,0,0,1-.718-.59V.59ZM.791,5.63H14.467V2.667a.356.356,0,0,0-.106-.255.36.36,0,0,0-.255-.106h-1.31a.4.4,0,0,1,0-.8h1.31a1.158,1.158,0,0,1,1.16,1.16V7.377a6.008,6.008,0,0,0-.807-.217V6.425H.791v7.68a.359.359,0,0,0,.106.255.363.363,0,0,0,.251.106h6.5a6.107,6.107,0,0,0,.278.8H1.16A1.158,1.158,0,0,1,0,14.111V2.669A1.161,1.161,0,0,1,1.16,1.51h1.4a.4.4,0,1,1,0,.8H1.16A.356.356,0,0,0,.9,2.411.369.369,0,0,0,.8,2.667V5.632h0ZM6.26,2.3a.4.4,0,0,1,0-.8H8.93a.4.4,0,1,1,0,.8Z" transform="translate(0 0)"/>
    <path id="Path_7260" data-name="Path 7260" class="cls-2" d="M66.372,59.12A4.366,4.366,0,1,1,63.281,60.4,4.366,4.366,0,0,1,66.372,59.12ZM65.9,65.23h.931v.825H65.9Zm.931-.574H65.9c-.093-1.132-.287-1.851-.287-2.984a.756.756,0,0,1,1.511,0c0,1.131-.2,1.851-.287,2.984Z" transform="translate(-53.102 -50.635)"/>
  </g>
</svg>
