<svg xmlns="http://www.w3.org/2000/svg" width="14.251" height="13.136">
    <defs>
        <style>
            .cls-1{fill:#0d0c22}
        </style>
    </defs>
    <g id="Group_8335" data-name="Group 8335" transform="rotate(180 111.096 528.597)">
        <g id="Group_7974" data-name="Group 7974" transform="rotate(180 292.492 517.88)">
            <path id="iconfinder_right_arrow_next_forward_navigation_3994400" class="cls-1" d="m30.92 17.721-5.438-5.473a.8.8 0 0 0-1.277.14 1.257 1.257 0 0 0 .116 1.542l4.6 4.631-4.6 4.631a1.257 1.257 0 0 0-.116 1.542.8.8 0 0 0 1.277.14L30.92 19.4a1.249 1.249 0 0 0 0-1.682z" transform="translate(345.797 -33.427)"/>
        </g>
        <g id="Group_7975" data-name="Group 7975" transform="rotate(180 295.992 517.88)">
            <path id="iconfinder_right_arrow_next_forward_navigation_3994400-2" data-name="iconfinder_right_arrow_next_forward_navigation_3994400" class="cls-1" d="m30.92 17.721-5.438-5.473a.8.8 0 0 0-1.277.14 1.257 1.257 0 0 0 .116 1.542l4.6 4.631-4.6 4.631a1.257 1.257 0 0 0-.116 1.542.8.8 0 0 0 1.277.14L30.92 19.4a1.249 1.249 0 0 0 0-1.682z" transform="translate(345.797 -33.427)"/>
        </g>
    </g>
</svg>
