<svg xmlns="http://www.w3.org/2000/svg" width="140.102" height="142.292">
    <defs>
        <style>
            .cls-1{fill:#ebebeb}.cls-2{fill:#dbdbdb}.cls-3{fill:#fff}.cls-4{fill:#c7c7c7}.cls-5{fill:#b0bec5}.cls-12,.cls-6{opacity:.1}.cls-7{opacity:.2}.cls-9{fill:#263238}.cls-10{fill:#455a64}.cls-11{fill:#d3766a}.cls-12{fill:#030402}
        </style>
    </defs>
    <g id="Empty-cuate_1_" data-name="Empty-cuate (1)" transform="translate(-41.45 -38.333)">
        <g id="freepik--background-complete--inject-11" transform="translate(43.002 41.244)">
            <path id="Rectangle_8150" data-name="Rectangle 8150" class="cls-1" transform="rotate(180 65.972 47.761)" d="M0 0h8.895v3.759H0z"/>
            <path id="Path_8968" data-name="Path 8968" class="cls-1" d="m426.974 337.707 4.484-.094 2.21-.037c.736-.017 1.468 0 2.2-.02l-.151.151v-3.759l.168.168-4.447-.02c-1.481 0-2.966-.04-4.447-.057l.091-.091c0 .615-.027 1.233-.044 1.858zm0 0-.06-1.844c-.017-.625-.04-1.26-.044-1.9v-.118h.094c1.481-.02 2.966-.054 4.447-.057l4.447-.02h.168v.168l-.02 3.759v.151h-.148c-.749 0-1.5 0-2.25-.017l-2.237-.037z" transform="translate(-298.961 -237.445)"/>
            <path id="Path_8969" data-name="Path 8969" class="cls-1" d="m231.961 227.79 4.488-.094 2.207-.037c.736-.017 1.468 0 2.2-.017l-.151.148-.017-3.759.168.168-4.447-.02c-1.481 0-2.966-.037-4.447-.057l.091-.091c0 .615-.027 1.233-.044 1.861zm0 0-.047-1.874c-.017-.625-.037-1.26-.044-1.9v-.091h.094c1.481-.017 2.966-.054 4.447-.057l4.447-.02h.168v.168l-.017 3.759v.155h-.148c-.749 0-1.5 0-2.247-.02l-2.24-.037z" transform="translate(-169.46 -164.447)"/>
            <path id="Rectangle_8151" data-name="Rectangle 8151" class="cls-1" transform="rotate(180 38.178 34.041)" d="M0 0h8.895v3.759H0z"/>
            <path id="Path_8970" data-name="Path 8970" class="cls-1" d="m216.961 241.927 4.488-.094 2.21-.037c.736-.017 1.465 0 2.2-.017l-.148.148-.02-3.759.168.168-4.447-.02c-1.481 0-2.963-.037-4.447-.057l.094-.091c0 .615-.03 1.233-.044 1.861zm0 0-.047-1.861c0-.625-.037-1.26-.044-1.9v-.091h.091c1.485 0 2.966-.054 4.447-.057l4.447-.02h.171v.168l-.017 3.759v.151h-.151c-.749 0-1.5 0-2.247-.02l-2.237-.037z" transform="translate(-159.499 -173.844)"/>
            <path id="Rectangle_8152" data-name="Rectangle 8152" class="cls-1" transform="rotate(180 42.544 10.238)" d="M0 0h8.895v3.759H0z"/>
            <path id="Path_8971" data-name="Path 8971" class="cls-1" d="m46.161 337.707 4.488-.094 2.21-.037c.732-.017 1.465 0 2.2-.02l-.148.151-.02-3.759.168.168-4.447-.02c-1.481 0-2.966-.04-4.447-.057l.091-.091c0 .615-.027 1.233-.044 1.858zm0 0-.047-1.844c-.017-.625-.037-1.26-.044-1.9v-.118h.091c1.481-.02 2.966-.054 4.447-.057l4.447-.02h.168v4.078h-.151c-.749 0-1.5 0-2.247-.017l-2.237-.037z" transform="translate(-46.07 -237.445)"/>
            <path id="Path_8972" data-name="Path 8972" class="cls-1" d="m60.951 54.437 4.488-.094 2.21-.037c.736-.017 1.465 0 2.2-.02l-.148.151-.02-3.762.168.168-4.447-.02c-1.481 0-2.963-.04-4.447-.057l.094-.091c0 .615-.03 1.233-.047 1.861zm0 0-.037-1.861c0-.625-.037-1.26-.044-1.9v-.091h.091c1.485-.017 2.966-.054 4.447-.057l4.447-.02h.171v.165l-.044 3.762v.151h-.151c-.749 0-1.5 0-2.247-.02l-2.237-.037z" transform="translate(-55.899 -49.331)"/>
            <path id="Rectangle_8153" data-name="Rectangle 8153" class="cls-1" transform="rotate(180 4.492 4.923)" d="M0 0h8.895v3.759H0z"/>
            <path id="Path_8973" data-name="Path 8973" class="cls-1" d="m426.974 54.437 4.484-.094 2.21-.037c.736-.017 1.468 0 2.2-.02l-.151.151v-3.759l.168.168-4.447-.02c-1.481 0-2.966-.04-4.447-.057l.091-.091c0 .615-.027 1.233-.044 1.861zm0 0-.06-1.861c-.017-.625-.04-1.26-.044-1.9v-.091h.094c1.481-.017 2.966-.054 4.447-.057l4.447-.02h.168v.165l-.01 3.762v.151h-.148c-.749 0-1.5 0-2.25-.02l-2.237-.037z" transform="translate(-298.961 -49.331)"/>
            <path id="Rectangle_8154" data-name="Rectangle 8154" class="cls-1" transform="translate(17.215 112.448)" d="M0 0h24.168v26.761H0z"/>
            <path id="Rectangle_8155" data-name="Rectangle 8155" class="cls-2" transform="rotate(180 8.609 69.606)" d="M0 0h12.479v26.764H0z"/>
            <path id="Path_8974" data-name="Path 8974" class="cls-1" d="M62.73 410.35q1.391-2.855 2.748-5.71l2.717-5.787 2.687-5.781q1.344-2.9 2.633-5.811-1.391 2.855-2.748 5.727l-2.707 5.757-2.687 5.781q-1.34 2.898-2.643 5.824z" transform="translate(-57.134 -272.968)"/>
            <path id="Path_8975" data-name="Path 8975" class="cls-1" d="M62.73 387.26q1.3 2.919 2.633 5.811l2.687 5.781 2.707 5.757q1.36 2.872 2.748 5.71-1.3-2.916-2.633-5.811l-2.687-5.781-2.707-5.757q-1.361-2.855-2.748-5.71z" transform="translate(-57.134 -272.968)"/>
            <path id="Rectangle_8156" data-name="Rectangle 8156" class="cls-1" transform="translate(17.215 72.03)" d="M0 0h24.168v24.917H0z"/>
            <path id="Rectangle_8157" data-name="Rectangle 8157" class="cls-2" transform="rotate(180 8.609 48.475)" d="M0 0h12.479v24.92H0z"/>
            <path id="Path_8976" data-name="Path 8976" class="cls-2" d="M127.19 267.224h.9l.218-.447.309.447.417-.917.4.917h1.646l.188-.611.175.611h.336v-5.784h-4.589z" transform="translate(-99.942 -189.41)"/>
            <path id="Path_8977" data-name="Path 8977" class="cls-1" d="M62.73 288.391q1.391-2.654 2.748-5.341l2.707-5.374 2.687-5.374q1.344-2.687 2.633-5.411-1.391 2.66-2.748 5.334l-2.707 5.358-2.687 5.374q-1.33 2.716-2.633 5.434z" transform="translate(-57.134 -193.03)"/>
            <path id="Path_8978" data-name="Path 8978" class="cls-1" d="M62.73 266.93q1.3 2.711 2.633 5.4l2.687 5.374 2.707 5.374q1.36 2.687 2.748 5.334Q72.2 285.7 70.872 283l-2.687-5.374-2.707-5.358q-1.361-2.678-2.748-5.338z" transform="translate(-57.134 -193.056)"/>
            <path id="Rectangle_8158" data-name="Rectangle 8158" class="cls-3" transform="rotate(180 10.745 47.7)" d="M0 0h2.684v2.684H0z"/>
            <path id="Rectangle_8159" data-name="Rectangle 8159" class="cls-2" transform="translate(15.606 96.95)" d="M0 0h24.168v15.498H0z"/>
            <path id="Rectangle_8160" data-name="Rectangle 8160" class="cls-4" transform="rotate(180 7.803 56.224)" d="M0 0h12.479v15.498H0z"/>
            <path id="Path_8979" data-name="Path 8979" class="cls-3" d="M122.4 341.414h.9l.218-.447.309.447.417-.917.4.917h1.646l.185-.611.178.611h.336v-5.784H122.4z" transform="translate(-96.761 -238.68)"/>
            <path id="Path_8980" data-name="Path 8980" class="cls-2" d="M57.94 352q1.387-1.679 2.748-3.389l2.707-3.406 2.687-3.423q1.323-1.713 2.63-3.44-1.384 1.679-2.748 3.389l-2.707 3.409-2.687 3.419q-1.327 1.722-2.63 3.441z" transform="translate(-53.953 -240.48)"/>
            <path id="Path_8981" data-name="Path 8981" class="cls-2" d="M57.94 338.37q1.307 1.727 2.633 3.44l2.687 3.423 2.707 3.406q1.344 1.7 2.741 3.379-1.3-1.727-2.63-3.44l-2.687-3.419-2.707-3.409q-1.357-1.687-2.744-3.38z" transform="translate(-53.953 -240.5)"/>
            <path id="Rectangle_8161" data-name="Rectangle 8161" class="cls-2" transform="translate(109.704 115.8)" d="M0 0h24.168v23.412H0z"/>
            <path id="Rectangle_8162" data-name="Rectangle 8162" class="cls-4" transform="rotate(180 54.853 69.606)" d="M0 0h12.479v23.412H0z"/>
            <path id="Path_8982" data-name="Path 8982" class="cls-3" d="M402.54 397.534h.9l.218-.447.309.447.417-.917.4.917h1.646l.188-.615.175.615h.336v-5.784h-4.589z" transform="translate(-282.803 -275.95)"/>
            <path id="Path_8983" data-name="Path 8983" class="cls-2" d="M338.08 416.524q1.387-2.55 2.748-5.119l2.707-5.146 2.687-5.166q1.344-2.59 2.63-5.193-1.384 2.549-2.748 5.119l-2.707 5.143-2.67 5.169q-1.327 2.59-2.647 5.193z" transform="translate(-239.995 -278.706)"/>
            <path id="Path_8984" data-name="Path 8984" class="cls-2" d="M338.08 395.9q1.307 2.6 2.633 5.193l2.67 5.166 2.707 5.146q1.36 2.57 2.748 5.119-1.3-2.607-2.63-5.193l-2.687-5.169-2.707-5.143q-1.347-2.57-2.734-5.119z" transform="translate(-239.995 -278.706)"/>
            <path id="Path_8985" data-name="Path 8985" class="cls-1" d="M319.52 47v57.136h39.32V47zm37.869 55.668h-36.418V48.434h36.418z" transform="translate(-227.669 -47)"/>
            <path id="Rectangle_8163" data-name="Rectangle 8163" class="cls-3" transform="translate(93.302 1.434)" d="M0 0h36.418v54.234H0z"/>
            <path id="Rectangle_8164" data-name="Rectangle 8164" class="cls-1" transform="rotate(180 64.86 15.478)" d="M0 0h36.418v1.451H0z"/>
            <path id="Rectangle_8165" data-name="Rectangle 8165" class="cls-2" transform="rotate(180 66.92 30.64)" d="M0 0h44.664v4.165H0z"/>
            <path id="Path_8986" data-name="Path 8986" class="cls-1" d="m315.09 231.106 42.3.887v-2.553h-42.3z" transform="translate(-224.727 -168.159)"/>
            <path id="Path_8987" data-name="Path 8987" class="cls-2" d="M323.84 51.27h36.418v37.261H323.84zm35.074 1.344h-33.73v34.573h33.731z" transform="translate(-230.538 -49.836)"/>
            <path id="Rectangle_8166" data-name="Rectangle 8166" class="cls-2" transform="translate(117.372 1.434)" d="M0 0h.726v35.917H0z"/>
            <path id="Rectangle_8167" data-name="Rectangle 8167" class="cls-2" transform="translate(104.924 1.434)" d="M0 0h.726v35.917H0z"/>
            <path id="Path_8988" data-name="Path 8988" class="cls-1" d="M63.42 47v57.136h39.32V47zm37.869 55.668H64.871V48.434h36.418z" transform="translate(-57.592 -47)"/>
            <path id="Rectangle_8168" data-name="Rectangle 8168" class="cls-3" transform="translate(7.279 1.434)" d="M0 0h36.418v54.234H0z"/>
            <path id="Rectangle_8169" data-name="Rectangle 8169" class="cls-1" transform="rotate(180 21.849 15.478)" d="M0 0h36.418v1.451H0z"/>
            <path id="Rectangle_8170" data-name="Rectangle 8170" class="cls-2" transform="rotate(180 23.909 30.64)" d="M0 0h44.664v4.165H0z"/>
            <path id="Path_8989" data-name="Path 8989" class="cls-1" d="m58.99 231.106 42.3.887v-2.553h-42.3z" transform="translate(-54.65 -168.159)"/>
            <path id="Path_8990" data-name="Path 8990" class="cls-2" d="M67.74 51.27h36.418v37.261H67.74zm35.074 1.344h-33.73v34.573h33.731z" transform="translate(-60.461 -49.836)"/>
            <path id="Rectangle_8171" data-name="Rectangle 8171" class="cls-2" transform="translate(31.349 1.434)" d="M0 0h.726v35.917H0z"/>
            <path id="Rectangle_8172" data-name="Rectangle 8172" class="cls-2" transform="translate(18.901 1.434)" d="M0 0h.726v35.917H0z"/>
        </g>
        <g id="freepik--Boxes--inject-11" transform="translate(107.816 125.117)">
            <path id="Rectangle_8173" data-name="Rectangle 8173" class="cls-5" transform="translate(0 27.661)" d="M0 0h33.482v27.664H0z"/>
            <path id="Rectangle_8174" data-name="Rectangle 8174" class="cls-6" transform="translate(0 27.661)" d="M0 0h33.482v27.664H0z"/>
            <path id="Rectangle_8175" data-name="Rectangle 8175" class="cls-5" transform="translate(33.482 27.664)" d="M0 0h13.268v27.664H0z"/>
            <path id="Rectangle_8176" data-name="Rectangle 8176" class="cls-7" transform="translate(33.482 27.664)" d="M0 0h13.268v27.664H0z"/>
            <path id="Path_8991" data-name="Path 8991" class="cls-5" d="M352.867 408.582q-1.471-2.949-2.919-5.918l-2.879-5.952-2.842-5.976q-1.411-2.993-2.8-6.006 1.478 2.953 2.922 5.919l2.875 5.952 2.842 5.976q1.421 2.992 2.801 6.005z" transform="translate(-307.034 -355.161)"/>
            <path id="Path_8992" data-name="Path 8992" class="cls-5" d="M352.867 384.73q-1.384 3.023-2.8 6.006l-2.842 5.976-2.875 5.952q-1.448 2.966-2.922 5.918 1.387-3.023 2.8-6.006l2.842-5.976 2.879-5.949q1.451-2.972 2.918-5.921z" transform="translate(-307.034 -355.161)"/>
            <path id="Path_8993" data-name="Path 8993" class="cls-3" d="M286.556 385.036h-.927l-.225-.46-.319.46-.433-.947-.406.947h-1.7l-.195-.631-.181.631h-.346v-5.976h4.736z" transform="translate(-267.447 -351.396)"/>
            <path id="Rectangle_8177" data-name="Rectangle 8177" class="cls-5" transform="translate(10.52)" d="M0 0h24.981v27.661H0z"/>
            <path id="Rectangle_8178" data-name="Rectangle 8178" class="cls-5" transform="translate(35.501)" d="M0 0h12.898v27.664H0z"/>
            <path id="Rectangle_8179" data-name="Rectangle 8179" class="cls-6" transform="translate(35.501)" d="M0 0h12.898v27.664H0z"/>
            <g id="Group_8438" data-name="Group 8438" transform="translate(12.301 1.891)" style="opacity:.1">
                <path id="Path_8994" data-name="Path 8994" d="M297.02 326.2q-2.751-2.953-5.455-5.918l-5.384-5.966-5.3-5.976q-2.64-2.993-5.227-6.006 2.754 2.953 5.455 5.922l5.374 5.949 5.3 5.976q2.65 3.001 5.237 6.019z" transform="translate(-275.65 -302.33)"/>
                <path id="Path_8995" data-name="Path 8995" d="M297.04 302.37q-2.59 3.023-5.227 6.006l-5.3 5.962-5.374 5.952q-2.687 2.966-5.455 5.919 2.59-3.023 5.227-6.006l5.294-5.962 5.374-5.949q2.706-2.973 5.461-5.922z" transform="translate(-275.67 -302.357)"/>
            </g>
            <path id="Rectangle_8180" data-name="Rectangle 8180" class="cls-3" transform="translate(44.325 22.982)" d="M0 0h2.261v3.191H0z"/>
        </g>
        <g id="freepik--Floor--inject-11" transform="translate(41.45 180.288)">
            <path id="Path_8996" data-name="Path 8996" class="cls-9" d="m41.45 461.118 17.514-.084 17.514-.027 35.024-.057 35.024.057 17.514.027 17.514.084-17.514.081-17.514.03-35.024.057-35.024-.057-17.514-.03z" transform="translate(-41.45 -460.95)"/>
        </g>
        <g id="freepik--Fly--inject-11" transform="translate(111.055 84.608)">
            <path id="Path_8997" data-name="Path 8997" class="cls-9" d="M288.6 176.671q-.282-.181-.564-.353l.131-.218.571.359z" transform="translate(-274.816 -176.1)"/>
            <path id="Path_8998" data-name="Path 8998" class="cls-9" d="M264.822 212.586h-.242v-.252a11.257 11.257 0 0 0 1.344-.05l.027.252c-.367.026-.751.05-1.129.05zm2.492-.275-.054-.245a9.013 9.013 0 0 0 1.283-.393l.091.235a9.27 9.27 0 0 1-1.32.4zm2.563-1.008-.124-.218a8.34 8.34 0 0 0 1.1-.766l.161.191a8.281 8.281 0 0 1-1.135.8zm2.123-1.747-.185-.171a9.367 9.367 0 0 0 .83-1.055l.208.141a9.524 9.524 0 0 1-.853 1.092zm1.538-2.281-.228-.107a7.775 7.775 0 0 0 .467-1.256l.242.067a7.959 7.959 0 0 1-.48 1.3zm.726-2.66-.252-.02c0-.181.023-.366.023-.544a6.833 6.833 0 0 0-.035-.751 6.865 6.865 0 0 1-.779-.1l.044-.249a7.187 7.187 0 0 0 1.243.114h.087v.252h-.343a6.633 6.633 0 0 1 .04.732c0 .181-.007.373-.02.561zm1.7-1.458-.057-.245a5.6 5.6 0 0 0 1.246-.457l.114.225a5.875 5.875 0 0 1-1.3.48zm-4.091-.312a8.7 8.7 0 0 1-1.26-.571l.124-.218a8.339 8.339 0 0 0 1.219.551zm1.807-.887a5.98 5.98 0 0 0-.578-1.2l.212-.134a6.046 6.046 0 0 1 .6 1.25zm4.743-.054-.161-.191a6.812 6.812 0 0 0 .93-.957l.195.158a6.921 6.921 0 0 1-.964 1zm-8.948-.4-.071-.067a3.043 3.043 0 0 1-.776-1.058l.235-.094a2.772 2.772 0 0 0 .712.967l.067.06zm10.692-1.716-.215-.131c.235-.39.453-.789.645-1.182l.228.111c-.189.396-.411.802-.653 1.199zm-7.9-.05a5.99 5.99 0 0 0-1.008-.786l-.05-.034.131-.215.054.034a6.181 6.181 0 0 1 1.038.823zm-3.335-.648-.208-.141A1.535 1.535 0 0 1 270 198.3v.252a1.307 1.307 0 0 0-1.061.534zm12.428-1.77-.235-.087a12.906 12.906 0 0 0 .4-1.286l.242.06a11.615 11.615 0 0 1-.4 1.313zm.672-2.664-.252-.034a11.938 11.938 0 0 0 .1-1.344h.252a12.421 12.421 0 0 1-.095 1.374zm-.195-2.721a13 13 0 0 0-.191-1.344l.249-.05a13.64 13.64 0 0 1 .195 1.36zm-.521-2.64a14.05 14.05 0 0 0-.453-1.273l.235-.094a12.934 12.934 0 0 1 .46 1.293zm-1.008-2.5c-.2-.393-.427-.789-.672-1.179l.215-.131c.242.393.47.8.672 1.2zm-1.414-2.3a19.265 19.265 0 0 0-.826-1.072l.195-.161c.292.353.574.719.836 1.085zm-1.72-2.089a17.276 17.276 0 0 0-.957-.957l.171-.185c.336.316.672.642.967.971zm-1.972-1.858c-.336-.286-.7-.568-1.061-.836l.148-.2c.366.269.729.554 1.075.846z" transform="translate(-259.236 -178.358)"/>
            <path id="Path_8999" data-name="Path 8999" class="cls-9" d="M259.062 276.916a6.272 6.272 0 0 1-.672-.121l.06-.245s.242.06.645.118z" transform="translate(-255.125 -242.809)"/>
            <path id="Path_9000" data-name="Path 9000" class="cls-9" d="M250.287 274.169c-.158 1.344 2.586 2.1 2.795.336s-2.637-1.689-2.795-.336z" transform="translate(-249.74 -240.563)"/>
            <path id="Path_9001" data-name="Path 9001" class="cls-1" d="M253.741 279.058c-.255.507-1.159.578-2.093-.074a6.266 6.266 0 0 1-1.579-1.77 6.224 6.224 0 0 1 2.351.2c1.106.378 1.59 1.13 1.321 1.644z" transform="translate(-249.6 -243.228)"/>
            <path id="Path_9002" data-name="Path 9002" class="cls-9" d="M250.1 277.28c.531.239 1.051.5 1.572.752s1.035.527 1.542.81c-.531-.238-1.051-.5-1.572-.752s-1.035-.528-1.542-.81z" transform="translate(-249.62 -243.294)"/>
            <path id="Path_9003" data-name="Path 9003" class="cls-9" d="M256.151 280.934a4.655 4.655 0 0 1-.336-.44 4.449 4.449 0 0 1-.275-.474 4.654 4.654 0 0 1 .336.44 4.143 4.143 0 0 1 .275.474z" transform="translate(-253.233 -245.114)"/>
            <path id="Path_9004" data-name="Path 9004" class="cls-9" d="M254 278.9a5.35 5.35 0 0 1 .561-.114 5.451 5.451 0 0 1 .574-.05 5.738 5.738 0 0 1-1.135.164z" transform="translate(-252.21 -244.264)"/>
            <path id="Path_9005" data-name="Path 9005" class="cls-9" d="M252.652 278.92a1.26 1.26 0 0 1-.242-.49 1.26 1.26 0 0 1 .242.49z" transform="translate(-251.154 -244.058)"/>
            <path id="Path_9006" data-name="Path 9006" class="cls-1" d="M254.417 271.085c-.131-.554-.991-.83-2.049-.413a6.269 6.269 0 0 0-1.948 1.36 6.242 6.242 0 0 0 2.351.336c1.129-.094 1.781-.712 1.646-1.283z" transform="translate(-249.833 -238.772)"/>
            <path id="Path_9007" data-name="Path 9007" class="cls-9" d="M250.42 273.533c.571-.107 1.139-.242 1.7-.373s1.129-.272 1.679-.43c-.568.107-1.135.242-1.7.373s-1.118.272-1.679.43z" transform="translate(-249.833 -240.272)"/>
            <path id="Path_9008" data-name="Path 9008" class="cls-9" d="M257.169 271.48a4.761 4.761 0 0 0-.42.336 5.3 5.3 0 0 0-.38.4 3.825 3.825 0 0 0 .42-.336 4.707 4.707 0 0 0 .38-.4z" transform="translate(-253.784 -239.442)"/>
            <path id="Path_9009" data-name="Path 9009" class="cls-9" d="M254.65 274.12a5.459 5.459 0 0 0 1.068.42 5.245 5.245 0 0 0-1.068-.42z" transform="translate(-252.642 -241.195)"/>
            <path id="Path_9010" data-name="Path 9010" class="cls-9" d="M253.309 273.28a1.172 1.172 0 0 0-.2.188 1.378 1.378 0 0 0-.151.232 1.188 1.188 0 0 0 .2-.191.963.963 0 0 0 .151-.229z" transform="translate(-251.519 -240.638)"/>
            <path id="Path_9011" data-name="Path 9011" class="cls-10" d="M249.218 276.144a.49.49 0 1 1-.544.433.49.49 0 0 1 .544-.433z" transform="translate(-248.671 -242.538)"/>
            <path id="Path_9012" data-name="Path 9012" class="cls-10" d="M249.554 273.233a.492.492 0 1 1-.546.432.492.492 0 0 1 .546-.432z" transform="translate(-248.893 -240.604)"/>
        </g>
        <g id="freepik--Character--inject-11" transform="translate(71.726 49.12)">
            <path id="Path_9013" data-name="Path 9013" class="cls-11" d="M143.44 370.31s-7.161 14.339-7.165 14.339c-.591 2.959-1.055 5.569-1.172 6.94a.054.054 0 0 0 0 .024 2.09 2.09 0 0 0 .037.957.053.053 0 0 0 0 .023c.762.773 24.3 6.191 25.192 6.1s.705-2.617-.04-3.554-8.831-7.054-8.831-7.054l7-14.363z" transform="translate(-133.895 -269.588)"/>
            <path id="Path_9014" data-name="Path 9014" class="cls-1" d="M160 420.293c-.883.087-24.064-5.334-24.823-6.1a.083.083 0 0 1 0-.024 2.075 2.075 0 0 1-.04-.957.034.034 0 0 1 0-.024c.114-1.37.581-3.98 1.169-6.943l1.713-3.433 14.85 4.071-1.369 2.817s7.726 6.1 8.475 7.054.91 3.455.025 3.539z" transform="translate(-133.917 -291.171)"/>
            <path id="Path_9015" data-name="Path 9015" class="cls-9" d="M160.156 424.367c-.9.067-24.487-5.945-25.239-6.745-.289-.3.386-3.789 1.323-7.981l.03-.131 15.263 3.712-.071.255s8 6.342 8.733 7.309.854 3.514-.039 3.581z" transform="translate(-133.752 -295.621)"/>
            <path id="Path_9016" data-name="Path 9016" class="cls-3" d="M162.608 438.909c-3.95-1.108-19.993-5.22-23.983-6.019-.034 0-.04.017 0 .027 3.893 1.186 19.969 5.166 23.976 6.046.078.03.091-.03.007-.054z" transform="translate(-136.241 -311.147)"/>
            <path id="Path_9017" data-name="Path 9017" class="cls-3" d="M178.257 421.171a5.7 5.7 0 0 0-4.944-.128c-.057.03 0 .111.04.108a22.724 22.724 0 0 1 4.847.215.1.1 0 0 0 .057-.195z" transform="translate(-159.28 -302.942)"/>
            <path id="Path_9018" data-name="Path 9018" class="cls-3" d="M181.1 424.056a5.726 5.726 0 0 0-4.944-.128c-.057.03 0 .111.044.111a22.5 22.5 0 0 1 4.847.215.1.1 0 0 0 .054-.2z" transform="translate(-161.166 -304.859)"/>
            <path id="Path_9019" data-name="Path 9019" class="cls-3" d="M183.947 426.94a5.715 5.715 0 0 0-4.944-.131c-.057.034 0 .114.044.111a22.7 22.7 0 0 1 4.844.215.1.1 0 0 0 .057-.195z" transform="translate(-163.059 -306.773)"/>
            <path id="Path_9020" data-name="Path 9020" class="cls-5" d="M158.562 438c.38.269-.074 1.663-.406 1.7s-26.025-6.634-26.432-6.846.151-1.737.672-1.68S158.562 438 158.562 438z" transform="translate(-131.584 -310.009)"/>
            <path id="Path_9021" data-name="Path 9021" class="cls-3" d="M143.655 419.582a1.538 1.538 0 0 0-2.015 2.321 1.538 1.538 0 0 0 2.015-2.321z" transform="translate(-137.916 -302.058)"/>
            <path id="Path_9022" data-name="Path 9022" class="cls-10" d="m143.92 254.413 17.211 4.34s16.042-28.951 15.683-36.31c-.494-10.151-12.411-41.362-12.411-41.362h-14.269s9.469 33.741 9.6 39.417c.057 2.969-15.814 33.915-15.814 33.915z" transform="translate(-139.776 -143.919)"/>
            <path id="Path_9023" data-name="Path 9023" class="cls-9" d="M167.207 393.951c-.917-.366-9.109-2.731-15.223-4.031a.034.034 0 0 0 0 .064c1.925.672 14.071 3.873 15.209 4.031.028.01.054-.037.014-.064z" transform="translate(-145.116 -282.611)"/>
            <path id="Path_9024" data-name="Path 9024" class="cls-9" d="M170.639 217.218q-1.7-7.145-3.628-14.232c-1.276-4.719-2.644-9.482-4.145-14.165-.181-.574-.373-1.142-.558-1.713a.072.072 0 1 0-.138.04c1.344 4.666 2.687 9.321 3.96 14s2.486 9.378 3.628 14.108c.286 1.169.564 2.334.836 3.507a31.353 31.353 0 0 1 .732 3.651 9.455 9.455 0 0 1-.238 3.513 19.726 19.726 0 0 1-1.266 3.272q-3.087 6.7-6.17 13.406c-2.056 4.481-2.388 5.5-4.367 10.02-.245.561-.49 1.122-.726 1.679 0 .037.037.071.057.03 2.251-4.427 2.6-5.492 4.7-10s4.2-9.069 6.288-13.607c.941-2.049 2.046-4.138 2.187-6.429.144-2.388-.608-4.786-1.152-7.08z" transform="translate(-149.499 -147.888)"/>
            <path id="Path_9025" data-name="Path 9025" class="cls-11" d="m196.84 387.117.551 15.787c.091 3.023.222 5.667.42 7.027a.057.057 0 0 0 0 .024 2.115 2.115 0 0 0 .249.924l.02.02c.917.581 25.065.568 25.908.282s.1-2.7-.84-3.453-10.188-4.877-10.188-4.877l-.7-15.77z" transform="translate(-174.921 -280.725)"/>
            <path id="Path_9026" data-name="Path 9026" class="cls-1" d="m198.14 424.371.114 3.241c.091 3.023.222 5.667.42 7.027a.057.057 0 0 0 0 .023 4.03 4.03 0 0 0 .249.924l.02.02c.917.581 25.065.568 25.908.282s.1-2.7-.84-3.453-10.188-4.877-10.188-4.877l-.071-3.289z" transform="translate(-175.784 -305.423)"/>
            <path id="Path_9027" data-name="Path 9027" class="cls-9" d="M224.957 441.175c-.853.272-25.192-.1-26.113-.709-.336-.225-.5-3.772-.564-8.062v-.134l15.707.067v.269s9.254 4.31 10.191 5.079 1.635 3.228.779 3.49z" transform="translate(-175.877 -310.736)"/>
            <path id="Path_9028" data-name="Path 9028" class="cls-3" d="M227.989 455.342c-4.1-.165-20.661-.44-24.729-.289-.034 0-.034.023 0 .023 4.061.252 20.624.4 24.729.336.084-.019.087-.07 0-.07z" transform="translate(-179.168 -325.837)"/>
            <path id="Path_9029" data-name="Path 9029" class="cls-3" d="M239.33 433.167a5.722 5.722 0 0 0-4.84 1.008c-.05.044 0 .111.067.1a22.922 22.922 0 0 1 4.763-.917.1.1 0 0 0 .01-.188z" transform="translate(-199.91 -311.237)"/>
            <path id="Path_9030" data-name="Path 9030" class="cls-3" d="M242.77 435.309a5.682 5.682 0 0 0-4.84 1.024c-.05.044 0 .111.064.094a22.723 22.723 0 0 1 4.766-.914.1.1 0 0 0 .01-.2z" transform="translate(-202.195 -312.66)"/>
            <path id="Path_9031" data-name="Path 9031" class="cls-3" d="M246.2 437.457a5.726 5.726 0 0 0-4.84 1.008c-.047.044 0 .111.067.1a22.955 22.955 0 0 1 4.763-.917.1.1 0 0 0 .01-.188z" transform="translate(-204.475 -314.086)"/>
            <path id="Path_9032" data-name="Path 9032" class="cls-5" d="M224.381 455.045c.433.175.316 1.636 0 1.747s-26.872-.417-27.305-.524-.259-1.723.269-1.8 27.036.577 27.036.577z" transform="translate(-174.915 -325.473)"/>
            <path id="Path_9033" data-name="Path 9033" class="cls-3" d="M205.738 440.187a1.534 1.534 0 0 0-1.414 2.721 1.534 1.534 0 0 0 1.414-2.721z" transform="translate(-179.358 -315.871)"/>
            <path id="Path_9034" data-name="Path 9034" class="cls-10" d="M163.72 180.973c-.064.292-3.621 14.356-4.064 14.618-.5.3 12.925 18.367 14.517 27.238 1.008 5.673 3.359 38.742 3.359 38.742h-17.124s-1.679-28.084-2.237-37.338c-.218-3.591-13.688-20.191-14.968-31.258-.4-3.487 2.1-12.015 2.1-12.015z" transform="translate(-139.271 -143.84)"/>
            <path id="Path_9035" data-name="Path 9035" class="cls-9" d="M189.906 337.9c-.2-4.652-.386-9.314-.726-13.96-.191-2.633-.568-5.183-.83-7.806 0-.138-.124-.171-.121-.03.121 4.672.507 9.294.756 13.963s.487 5.757.752 10.413c.148 2.633.279 5.267.484 7.9a.034.034 0 0 0 .064 0c.015-4.68-.174-5.814-.379-10.48z" transform="translate(-169.203 -233.527)"/>
            <path id="Path_9036" data-name="Path 9036" class="cls-9" d="M206.652 252.043a24.853 24.853 0 0 0-.712-3.638 18.612 18.612 0 0 0-1.387-3.342c-1.166-2.237-2.492-4.4-3.772-6.574s-2.613-4.393-3.964-6.563q-1.139-1.827-2.287-3.651c-.779-1.226-1.6-2.429-2.405-3.638a.045.045 0 1 0-.077.047c1.31 2.2 2.607 4.4 3.917 6.594s2.6 4.4 3.89 6.6 2.543 4.34 3.759 6.543a22.988 22.988 0 0 1 1.542 3.265 20.043 20.043 0 0 1 .863 3.591c.457 2.845.83 5.71 1.4 8.528a.034.034 0 0 0 .064 0c-.183-2.589-.489-5.186-.831-7.762z" transform="translate(-171.733 -172.831)"/>
            <path id="Path_9037" data-name="Path 9037" class="cls-9" d="M211.921 411.745c-.977-.128-8.438-.386-14.679-.118-.04 0-.037.06 0 .064 2.032.178 13.523.259 14.669.124.031-.003.044-.063.01-.07z" transform="translate(-175.169 -296.949)"/>
            <path id="Path_9038" data-name="Path 9038" class="cls-9" d="M188.892 221.635a31.908 31.908 0 0 0-5.038 2.351.057.057 0 1 0 .047.1c1.7-.732 3.436-1.431 5.1-2.254a.113.113 0 1 0-.1-.2z" transform="translate(-166.274 -170.844)"/>
            <path id="Path_9039" data-name="Path 9039" class="cls-9" d="M193.586 186.905c0-.057-.107-.071-.107 0a56.561 56.561 0 0 1-.287 5.693c-.08.867-.785 5.7-2.3 5.364-.255-.06-.383-.309-.423-.7a5.94 5.94 0 0 1 .2-1.485c.168-1.008.3-2.015.39-3.053A27.691 27.691 0 0 0 191 187a.05.05 0 0 0-.1 0 52.711 52.711 0 0 1-.464 7.907c-.191 1.26-.826 3.157.494 3.359s2.21-2.979 2.371-3.849a29.035 29.035 0 0 0 .285-7.512z" transform="translate(-170.454 -147.756)"/>
            <path id="Path_9040" data-name="Path 9040" class="cls-9" d="M191.6 220.013a7.857 7.857 0 0 0-.336 1.008 2.308 2.308 0 0 0-.141.823.057.057 0 0 0 .1.024 2.821 2.821 0 0 0 .353-.8c.118-.312.238-.618.336-.934a.168.168 0 1 0-.316-.118z" transform="translate(-171.122 -169.702)"/>
            <path id="Path_9041" data-name="Path 9041" class="cls-9" d="M162.6 238.328c-.161-2.392-.151-4.914-1.169-7.131a23.786 23.786 0 0 0-1.861-3.1q-1.041-1.592-2.056-3.2c-2.687-4.289-5.28-8.666-7.642-13.15a29.324 29.324 0 0 1-2.758-6.775 21.666 21.666 0 0 1-.312-7.645c.081-.635.168-1.266.272-1.9a.037.037 0 0 0-.071-.017 25.028 25.028 0 0 0-.561 7.39 20.617 20.617 0 0 0 1.972 6.815c1.041 2.254 2.281 4.424 3.5 6.584q1.891 3.359 3.893 6.621c1.344 2.17 2.727 4.3 4.115 6.432a12.238 12.238 0 0 1 1.636 3.288 17.942 17.942 0 0 1 .524 3.735c.336 5.287 1.679 22.865 2.156 28.125q.086 1.008.181 2.015a.047.047 0 1 0 .091 0c-.201-5.283-1.569-22.815-1.91-28.087z" transform="translate(-141.405 -153.42)"/>
            <path id="Path_9042" data-name="Path 9042" class="cls-9" d="M159.365 194.755c0-.037-.06-.024-.06 0a12.278 12.278 0 0 1-.574 4.367 5.979 5.979 0 0 1-2.724 2.835 20.785 20.785 0 0 1-2.093 1.024c-.05.024-.03.1.027.087a11.733 11.733 0 0 0 3.856-1.8 5.034 5.034 0 0 0 1.787-3.88 12.513 12.513 0 0 0-.219-2.633z" transform="translate(-146.394 -152.986)"/>
            <path id="Path_9043" data-name="Path 9043" class="cls-11" d="M191.94 117.016c1.921 5.9 7.111 15.945 8.965 17.158 1.643 1.072 9.372-.124 12.764-.941 1.263-.306-1.579-9.932-2.926-9.58-1.616.423-6.429 1.508-6.778 1.239s-5.2-6.248-8.643-9.768c-3.13-3.187-4.108-.339-3.382 1.892z" transform="translate(-171.515 -99.173)"/>
            <path id="Path_9044" data-name="Path 9044" class="cls-11" d="M249.677 146.946c.648-.081 6.133-.336 8.649-1.7 1.344-.729 4.773-3.141 4.43-4.007-.312-.789-1.414-.359-1.414-.359s1.515-1.1 1.072-2.193-2.274-.272-2.274-.272 1.475-1.243.954-2.3-2.22.074-2.22.074 1.4-1.072.6-1.763c-.961-.833-3.322 1.438-4.918 1.968-.363.121-7.511 1.928-7.511 1.928z" transform="translate(-208.265 -112.812)"/>
            <path id="Path_9045" data-name="Path 9045" class="cls-9" d="M271.893 139.868a8.463 8.463 0 0 1-5.116 2.56c-.044 0-.04.081 0 .074 2.318-.252 3.712-.6 5.193-2.553.081-.098.004-.162-.077-.081z" transform="translate(-221.346 -116.526)"/>
            <path id="Path_9046" data-name="Path 9046" class="cls-9" d="M274.954 146.493a12.673 12.673 0 0 1-5.492 2.714c-.034 0-.02.071.017.064 2.4-.464 3.789-.84 5.539-2.667.082-.081.027-.182-.064-.111z" transform="translate(-223.136 -120.934)"/>
            <path id="Path_9047" data-name="Path 9047" class="cls-9" d="M278.013 154a11.418 11.418 0 0 1-5.64 2.311.044.044 0 0 0 0 .087 8.067 8.067 0 0 0 5.667-2.331c.121-.095.098-.152-.027-.067z" transform="translate(-225.054 -125.908)"/>
            <path id="Path_9048" data-name="Path 9048" class="cls-11" d="M241.47 138.147a29.66 29.66 0 0 1 3.094-3.06c1.1-.8 6.281-2.277 6.664-1.176.494 1.424-2.331 2.865-3.806 3.389 0 0 1.145 3.292-.672 4.763s-5.28-3.916-5.28-3.916z" transform="translate(-204.56 -112.333)"/>
            <path id="Path_9049" data-name="Path 9049" class="cls-9" d="M261.874 136c-.487 1.622-2.469 2.187-3.863 2.8a.144.144 0 0 0-.054.225c.39 1.411.524 3.513-.464 4.7-.027.034.017.081.05.05 1.233-1.129 1.266-3.208.742-4.726 1.441-.608 3.4-1.263 3.6-3.047.005-.002-.008-.002-.011-.002z" transform="translate(-215.195 -113.982)"/>
            <path id="Path_9050" data-name="Path 9050" class="cls-5" d="m212.405 134.5-2.533-11.535-6.268 1.139c-2.472-2.832-7.413-8.491-9.405-10.191-2.351-2-3.89-.5-3.023 2.526 1.958 6.909 7.685 17.053 9.183 18.011 2.174 1.397 12.046.05 12.046.05z" transform="translate(-170.997 -98.713)"/>
            <path id="Path_9051" data-name="Path 9051" class="cls-12" d="M204.872 133.951a4.9 4.9 0 0 0 .944.111.818.818 0 0 1 .356 1.458 2.412 2.412 0 0 1-2.163.185 1.577 1.577 0 0 1-1.1-1.679.84.84 0 0 1 1.344-.517 3.124 3.124 0 0 0 .619.442zm-1.733-2.744c-.242 1.142 1.525 2.123 2.429 1.515a.608.608 0 0 0 .024-.951c-.265-.215-.487-.249-.722-.443a1.076 1.076 0 0 1-.215-.225 1.609 1.609 0 0 0-.5-.45.736.736 0 0 0-1.014.554zm-2.818.06a1.43 1.43 0 0 0 .228 1.616 1.458 1.458 0 0 0 1.32.642.49.49 0 0 0 .249-.86 1.558 1.558 0 0 1-.47-.584c-.158-.356-.262-.816-.672-.971a.574.574 0 0 0-.655.157zm7.44 7.47c-.474.957.967 2.046 1.841 1.857.292-.064.574-.447.316-.722-.208-.222-.457-.4-.652-.632-.238-.286-.369-.652-.742-.8a.591.591 0 0 0-.763.298zM194.231 127a1.283 1.283 0 0 0-.336-.406q.282.722.595 1.448a1.982 1.982 0 0 0-.259-1.042zm1.871-1.008a3.98 3.98 0 0 0-.927-2.254c-.4-.521-1.1-1.344-1.841-1.166a.383.383 0 0 0-.269.369c-.047.568.6 1.176.887 1.629.336.571.6 1.2.964 1.77a.645.645 0 0 0 1.186-.353zm-.218 3.611a.615.615 0 0 0 .564-.464 1.515 1.515 0 0 0-.05-.783 1.313 1.313 0 0 0-.336-.638.477.477 0 0 0-.786.232 2.178 2.178 0 0 0 0 .591v.255a1.575 1.575 0 0 0 .04.376.594.594 0 0 0 .568.427z" transform="translate(-172.412 -105.047)"/>
            <path id="Path_9052" data-name="Path 9052" class="cls-9" d="M244.219 156.3c-.289-.672-1.008-3.655-1.166-4.4s-.742-3.745-.914-4.508c0-.044.047-.067.057-.027.181.752.991 3.715 1.169 4.454s.846 3.718.893 4.467a.021.021 0 0 1-.04.01z" transform="translate(-205.004 -121.518)"/>
            <path id="Path_9053" data-name="Path 9053" class="cls-6" d="M204.347 135.294a8.853 8.853 0 0 1-4.031-.628c-1.508-.974-7.235-11.085-9.207-18.007-.5-1.733-.2-2.969.588-3.329z" transform="translate(-170.953 -98.926)"/>
            <path id="Path_9054" data-name="Path 9054" class="cls-5" d="M146.373 136.449c.044.064 21 2.751 21.229 2.556a15.2 15.2 0 0 0 .252-1.767s-1.921-22.821-2.916-24.161a5.113 5.113 0 0 0-5.307-1.253c-3.772 1.6-12.8 21.988-12.707 22.841a13.754 13.754 0 0 0-.551 1.784z" transform="translate(-141.403 -97.733)"/>
            <path id="Path_9055" data-name="Path 9055" class="cls-12" d="M158.526 140.7a5.681 5.681 0 0 0 1.008.376.917.917 0 0 1 0 1.679 2.727 2.727 0 0 1-2.418-.386 1.765 1.765 0 0 1-.742-2.123.947.947 0 0 1 1.606-.2c.187.22.301.509.546.654zm-1.149-3.47c-.574 1.186 1.088 2.734 2.24 2.314a.672.672 0 0 0 .282-1.035c-.228-.306-.464-.4-.672-.672a1.189 1.189 0 0 1-.171-.306 1.918 1.918 0 0 0-.427-.625.819.819 0 0 0-1.251.327zm-1.941-1.263c-.628.235-.789 1.082-.742 1.679a1.642 1.642 0 0 0 .88 1.4.551.551 0 0 0 .749-.672 1.713 1.713 0 0 1-.107-.846c.057-.43.228-.934-.057-1.32a.648.648 0 0 0-.722-.242zm6.886 4a.625.625 0 0 0-.672.534.732.732 0 0 0 .521.776 1.125 1.125 0 0 0 .705 0 .524.524 0 0 0 .272-.245.544.544 0 0 0 .077-.363.588.588 0 0 0-.46-.484.383.383 0 0 0-.074-.074.7.7 0 0 0-.369-.144zm-5.149-8.105a1.748 1.748 0 0 0 .309 2.334.6.6 0 0 0 .954-.393 2.689 2.689 0 0 0 0-.4 1.853 1.853 0 0 1 0-.336 3.154 3.154 0 0 0 .03-.87.739.739 0 0 0-1.293-.336zm-3.644 8.357c-.776.92.5 2.5 1.508 2.529.336 0 .749-.336.541-.705-.168-.3-.393-.558-.541-.863-.181-.376-.225-.816-.595-1.072a.672.672 0 0 0-.914.111zm18.531-.292a.645.645 0 0 0-.531.484 2.15 2.15 0 0 1-.4 1.008 4.6 4.6 0 0 0-.806.816.494.494 0 0 0 .45.719 2.321 2.321 0 0 0 1.5-.82c-.067-.638-.134-1.387-.212-2.22zm-1.679-2.771c-.188.457-.155.974-.312 1.451a11.373 11.373 0 0 1-.494 1.283c-.141.3.141.779.507.618a2.529 2.529 0 0 0 1.364-1.246 2.75 2.75 0 0 0 .292-1.975c-.245-.561-1.078-.806-1.364-.144zm-1.915 4.578a3.023 3.023 0 0 1-1.045.857.719.719 0 1 0 .588 1.3 2.586 2.586 0 0 0 1.458-1.632.6.6 0 0 0-1.008-.537zm-3.07-16.459a.742.742 0 0 0 .873-.544c.188-.722-.457-1.465-.967-1.915a2.089 2.089 0 0 0-1.945-.628.588.588 0 0 0-.238.971c.312.39.746.672 1.078 1.055s.608.951 1.192 1.048zm2.576 2.852a1.444 1.444 0 0 0-.138-1.394 1.233 1.233 0 0 0-.48-.511.625.625 0 0 0-.86.185.823.823 0 0 0-.04.611 1.681 1.681 0 0 0 .114.306v.057a2.046 2.046 0 0 0 .4.88.638.638 0 0 0 1.008-.134zm1.733-2.405a3.981 3.981 0 0 0-.927-2.254c-.4-.521-1.1-1.344-1.841-1.166a.383.383 0 0 0-.269.369c-.047.568.6 1.176.887 1.629.336.571.6 1.2.964 1.77a.645.645 0 0 0 1.169-.366zm-2.536 5.751a.874.874 0 0 0 .373 0 .766.766 0 0 0 .44-.353 1.239 1.239 0 0 0 .131-.581 1.193 1.193 0 0 0-.151-.544l-.111-.138-.148-.107a.692.692 0 0 0-.988.443 3.621 3.621 0 0 0-.118.6l.03.185a.578.578 0 0 0 .134.249.719.719 0 0 0 .39.232zm2.318-2.14a.615.615 0 0 0 .564-.464 1.515 1.515 0 0 0-.05-.783 1.313 1.313 0 0 0-.336-.638.477.477 0 0 0-.786.232 2.176 2.176 0 0 0 0 .591v.255a1.575 1.575 0 0 0 .04.376.594.594 0 0 0 .551.413z" transform="translate(-145.999 -104.765)"/>
            <path id="Path_9056" data-name="Path 9056" class="cls-11" d="M191.61 108.185c-1.28-.118-2.919-2.852-3.231-4.588-.02-.121.49-1.132 1.051-2.388.336-.762.7-1.622.967-2.429l4.649 2.926a13.576 13.576 0 0 0-1.528 2.936 1.9 1.9 0 0 0-.074.336.457.457 0 0 1 0 .057c-.117.671-.594 3.265-1.834 3.15z" transform="translate(-169.301 -89.264)"/>
            <path id="Path_9057" data-name="Path 9057" class="cls-9" d="M197.752 105.376a.517.517 0 0 1 0 .057 3.693 3.693 0 0 1-.527-.144c-2.909-1.048-2.395-4.864-2.19-5.918l1.159.732 3.174 2.015a13.473 13.473 0 0 0-1.525 2.936 1.834 1.834 0 0 0-.091.322z" transform="translate(-173.609 -89.656)"/>
            <path id="Path_9058" data-name="Path 9058" class="cls-11" d="M194.27 78.479c-.961 1.73-1.129 7.286-.064 8.76 1.538 2.136 4.629 2.969 6.587 1.008 1.9-1.921 1.985-9.167.749-10.564a4.709 4.709 0 0 0-7.272.796z" transform="translate(-172.687 -74.348)"/>
            <path id="Path_9059" data-name="Path 9059" class="cls-9" d="M208.237 96.12a.031.031 0 0 0-.03.034c0 .383-.067.82-.417.934v.024c.427-.048.51-.629.447-.992z" transform="translate(-182.193 -87.497)"/>
            <path id="Path_9060" data-name="Path 9060" class="cls-9" d="M207.129 94.895c-.615-.067-.705 1.162-.138 1.226s.652-1.169.138-1.226z" transform="translate(-181.411 -86.682)"/>
            <path id="Path_9061" data-name="Path 9061" class="cls-9" d="M215.577 96.51s.027.02.027.037c-.044.38-.027.823.306.974v.024c-.42-.094-.434-.682-.333-1.035z" transform="translate(-187.329 -87.756)"/>
            <path id="Path_9062" data-name="Path 9062" class="cls-9" d="M215.988 95.41c.615 0 .564 1.233 0 1.233s-.518-1.236 0-1.233z" transform="translate(-187.367 -87.026)"/>
            <path id="Path_9063" data-name="Path 9063" class="cls-9" d="M207.365 92.912c-.171.037-.336.04-.5.06a.82.82 0 0 1-.524-.037.262.262 0 0 1-.1-.3.648.648 0 0 1 .558-.336.927.927 0 0 1 .672.128.275.275 0 0 1-.1.487z" transform="translate(-181.149 -84.947)"/>
            <path id="Path_9064" data-name="Path 9064" class="cls-9" d="M216.5 90.28a4.489 4.489 0 0 1-.48-.165.813.813 0 0 1-.457-.259.259.259 0 0 1 .037-.316.638.638 0 0 1 .652-.074.957.957 0 0 1 .551.4.279.279 0 0 1-.3.41z" transform="translate(-187.332 -83.041)"/>
            <path id="Path_9065" data-name="Path 9065" class="cls-9" d="M207.993 95.871a3.231 3.231 0 0 1 1.5 0c.044 0 .087-.087.1-.128l.027-.806c.1.06.628.336.628.188a19.173 19.173 0 0 0-.238-3.917.037.037 0 0 0-.071 0c-.054 1.213.1 2.422.064 3.641a2.231 2.231 0 0 0-.591-.225 7.332 7.332 0 0 0 0 .984 1.874 1.874 0 0 0-1.411.077c-.172.115-.243.26-.008.186z" transform="translate(-182.228 -84.218)"/>
            <path id="Path_9066" data-name="Path 9066" class="cls-9" d="M205.23 107.507c.084.094.168.222.3.242a.974.974 0 0 0 .413-.071s.024 0 0 .02a.5.5 0 0 1-.49.175.4.4 0 0 1-.275-.336c.009-.037.039-.043.052-.03z" transform="translate(-180.459 -95.055)"/>
            <path id="Path_9067" data-name="Path 9067" d="M195.9 77.5c-.05.863-.255 3.54-.672 4.085a9.672 9.672 0 0 1-1.748 2.015 11.738 11.738 0 0 1 .8-4.367 4.558 4.558 0 0 1 1.62-1.733z" transform="translate(-172.689 -75.132)" style="fill:#263238;opacity:.2"/>
            <path id="Path_9068" data-name="Path 9068" class="cls-9" d="M208.35 83.752a1.962 1.962 0 0 1-1.837.537 1.992 1.992 0 0 1-1.454-1.307c0-.02-.037 0-.03 0a1.972 1.972 0 0 0 1.444 1.448 2.015 2.015 0 0 0 1.911-.672c.016.004-.007-.027-.034-.006z" transform="translate(-180.358 -78.766)"/>
            <path id="Path_9069" data-name="Path 9069" class="cls-9" d="M203.934 70.456a3.084 3.084 0 0 0-2.687 1.243 2.207 2.207 0 0 0-.316 1.417h.044a2.408 2.408 0 0 1 1.293-2.1 3.124 3.124 0 0 1 2.775-.138 1.989 1.989 0 0 1 1.008.924c.02.044.107.024.091-.02a2.426 2.426 0 0 0-2.208-1.326z" transform="translate(-177.627 -70.449)"/>
            <path id="Path_9070" data-name="Path 9070" class="cls-9" d="M222.3 75.5a2.486 2.486 0 0 0-.967-1.407 3.454 3.454 0 0 0-2.244-.447c-.024 0-.02.034 0 .03a3.487 3.487 0 0 1 1.941.359 2.465 2.465 0 0 1 1.051 1.28 2.4 2.4 0 0 1-1.206 2.909 2.439 2.439 0 0 1-1.935.06c-.024 0-.044.024-.02.037a2.455 2.455 0 0 0 3.38-2.821z" transform="translate(-189.577 -72.568)"/>
            <path id="Path_9071" data-name="Path 9071" class="cls-9" d="M194.062 76.483s-.927-2.113.064-3.221c.561-.625 2.247-.41 2.247-.41a3.07 3.07 0 0 1 2.049-1.149 5.525 5.525 0 0 1 3.084.749 2.832 2.832 0 0 1 2.61.144 2.626 2.626 0 0 1-.574 4.528c-1.29.514-2.9-.715-2.9-.715a2.515 2.515 0 0 1-3.047-.692s-1.088.83-1.958.124a1.485 1.485 0 0 1-1.575.642z" transform="translate(-172.814 -71.26)"/>
            <path id="Path_9072" data-name="Path 9072" class="cls-11" d="M192.064 93.071s-.88-1.972-1.75-1.679-.447 2.973.413 3.5a.954.954 0 0 0 1.344-.262z" transform="translate(-170.269 -84.337)"/>
            <path id="Path_9073" data-name="Path 9073" class="cls-9" d="M191.68 93.71v.024a2.411 2.411 0 0 1 .941 1.723.527.527 0 0 0-.749-.289c-.02 0 0 .037 0 .037a.584.584 0 0 1 .6.336 2.641 2.641 0 0 1 .208.571c0 .064.128.054.121 0a2.17 2.17 0 0 0-1.121-2.402z" transform="translate(-171.494 -85.897)"/>
            <path id="Rectangle_8181" data-name="Rectangle 8181" class="cls-5" transform="rotate(-17.03 95.323 -95.636)" d="M0 0h37.822v22.263H0z"/>
            <path id="Rectangle_8182" data-name="Rectangle 8182" class="cls-7" transform="rotate(-17.03 95.323 -95.636)" d="M0 0h37.822v22.263H0z"/>
            <path id="Rectangle_8183" data-name="Rectangle 8183" class="cls-7" transform="rotate(-17.03 82.768 -179.494)" d="M0 0h12.71v22.263H0z"/>
            <path id="Path_9074" data-name="Path 9074" class="cls-5" d="M324.421 111.33q-.615 2.828-1.2 5.656l-1.145 5.67-1.108 5.693q-.544 2.842-1.061 5.693.615-2.825 1.2-5.656l1.145-5.67 1.108-5.68q.54-2.854 1.061-5.706z" transform="translate(-256.652 -97.598)"/>
            <path id="Path_9075" data-name="Path 9075" class="cls-5" d="M318.589 137.141q-2.015-2.069-4.068-4.121l-4.1-4.085-4.125-4.054q-2.069-2.015-4.158-4.031 2.015 2.073 4.068 4.121l4.1 4.085 4.125 4.054q2.069 2.036 4.158 4.031z" transform="translate(-244.851 -103.921)"/>
            <path id="Rectangle_8184" data-name="Rectangle 8184" class="cls-9" transform="rotate(162.97 17.69 16.148)" d="M0 0h.208v2.926H0z"/>
            <path id="Rectangle_8185" data-name="Rectangle 8185" class="cls-9" transform="rotate(162.97 17.444 16.183)" d="M0 0h.208v2.926H0z"/>
            <path id="Rectangle_8186" data-name="Rectangle 8186" class="cls-9" transform="rotate(162.97 17.193 16.223)" d="M0 0h.208v2.926H0z"/>
            <path id="Rectangle_8187" data-name="Rectangle 8187" class="cls-9" transform="rotate(162.98 16.948 16.255)" d="M0 0h.208v2.926H0z"/>
            <path id="Rectangle_8188" data-name="Rectangle 8188" class="cls-9" transform="rotate(162.97 16.697 16.295)" d="M0 0h.208v2.926H0z"/>
            <path id="Rectangle_8189" data-name="Rectangle 8189" class="cls-9" transform="rotate(162.97 16.45 16.33)" d="M0 0h.208v2.926H0z"/>
            <path id="Rectangle_8190" data-name="Rectangle 8190" class="cls-9" transform="rotate(162.97 16.198 16.373)" d="M0 0h.208v2.926H0z"/>
            <path id="Rectangle_8191" data-name="Rectangle 8191" class="cls-9" transform="rotate(162.96 15.95 16.41)" d="M0 0h.208v2.926H0z"/>
            <path id="Rectangle_8192" data-name="Rectangle 8192" class="cls-9" transform="rotate(162.97 15.7 16.448)" d="M0 0h.208v2.926H0z"/>
            <path id="Path_9076" data-name="Path 9076" class="cls-9" d="m250.5 138.534-.826.02 1.79-.554-.7.45.316 1.028c.568-.1.951.376 1.239 1.317l-1.79.564c-.289-.937-.238-1.545.286-1.784z" transform="translate(-210.005 -115.31)"/>
            <path id="Path_9077" data-name="Path 9077" class="cls-9" d="m257.49 138 .467-.144-.42-1.37 1.2-.366.42 1.37.47-.144-.631 1.753z" transform="translate(-215.198 -114.061)"/>
            <path id="Path_9078" data-name="Path 9078" class="cls-6" d="m227.42 126.543.534 1.747 25-4.125-1.525-4.975z" transform="translate(-195.229 -102.818)"/>
            <path id="Path_9079" data-name="Path 9079" class="cls-5" d="m335.142 173.885-12.156 3.722-4.686-2.407 12.156-3.725z" transform="translate(-255.583 -137.537)"/>
            <path id="Path_9080" data-name="Path 9080" class="cls-7" d="m335.142 173.885-12.156 3.722-4.686-2.407 12.156-3.725z" transform="translate(-255.583 -137.537)"/>
            <path id="Path_9081" data-name="Path 9081" class="cls-5" d="m239.29 201.717 12.156-3.725 2.529-4.622-12.156 3.722z" transform="translate(-203.112 -152.081)"/>
            <path id="Path_9082" data-name="Path 9082" class="cls-6" d="m239.29 201.717 12.156-3.725 2.529-4.622-12.156 3.722z" transform="translate(-203.112 -152.081)"/>
            <path id="Path_9083" data-name="Path 9083" class="cls-11" d="M179.344 124.8c1.777 5.942 6.718 16.123 8.552 17.366 1.616 1.112 9.372.1 12.764-.635 1.27-.272-1.344-9.966-2.687-9.647-1.626.386-6.466 1.344-6.809 1.078s-5.038-6.382-8.4-9.969c-3.047-3.269-4.091-.444-3.42 1.807z" transform="translate(-163.172 -104.356)"/>
            <path id="Path_9084" data-name="Path 9084" class="cls-11" d="M233.11 143.269a26.81 26.81 0 0 1 4.39-4 13.671 13.671 0 0 1 6.295-1.8c2.388-.094 8.229 1.323 8.112 3.077-.1 1.589-6-.165-6-.165s6.3.8 5.828 2.687-7.205-.537-7.205-.537 6.459.961 5.673 2.838c-.6 1.414-6.822-.44-6.822-.44s5.549.867 4.988 2.351c-.618 1.636-6.466.286-6.466.286a8.9 8.9 0 0 1-6.264 4.746c-.446.08-2.529-9.043-2.529-9.043z" transform="translate(-199.008 -114.956)"/>
            <path id="Path_9085" data-name="Path 9085" class="cls-9" d="M264.733 144.91c.742.067 1.5.131 2.234.262s1.465.292 2.187.494a12.819 12.819 0 0 1 2.728 1.045 28.15 28.15 0 0 0-4.958-1.344c-.736-.138-1.465-.3-2.2-.433-.018.006-.012-.024.009-.024z" transform="translate(-219.996 -119.899)"/>
            <path id="Path_9086" data-name="Path 9086" class="cls-9" d="M263.17 152.8c.944.124 1.891.215 2.832.383s1.81.41 2.734.642c.07.017.037.05-.034.034-.934-.195-1.807-.3-2.741-.484s-1.861-.4-2.8-.554c-.011-.001-.007-.021.009-.021z" transform="translate(-218.961 -125.138)"/>
            <path id="Path_9087" data-name="Path 9087" class="cls-9" d="M260.584 159.32a21.238 21.238 0 0 1 4.286.92c.071.02.024.057-.05.04-1.417-.336-2.529-.6-4.239-.91-.027-.003-.027-.054.003-.05z" transform="translate(-217.238 -129.468)"/>
            <path id="Path_9088" data-name="Path 9088" class="cls-5" d="m199.358 142.785-2.257-11.6-6.291.988c-2.405-2.889-7.208-8.666-9.17-10.413-2.3-2.052-3.876-.588-3.087 2.452 1.807 6.95 7.289 17.215 8.774 18.222 2.129 1.45 12.031.351 12.031.351z" transform="translate(-162.639 -103.895)"/>
            <path id="Path_9089" data-name="Path 9089" class="cls-12" d="M197.525 133.642a4.9 4.9 0 0 0 .944.111.818.818 0 0 1 .356 1.458 2.412 2.412 0 0 1-2.163.185 1.577 1.577 0 0 1-1.1-1.679.84.84 0 0 1 1.344-.517 3.125 3.125 0 0 0 .619.442zm-.672-1.189a1.458 1.458 0 0 0 1.344-.04.5.5 0 0 0 .175-.2zm-3.268.511a1.344 1.344 0 0 0 .927.252.49.49 0 0 0 .423-.464zm7.121 5.176a.584.584 0 0 0-.3.289c-.282.568.111 1.179.672 1.545zm-10.117 2.23a2.15 2.15 0 0 1-.4 1.008 4.6 4.6 0 0 0-.8.83.494.494 0 0 0 .45.719 2.351 2.351 0 0 0 2.061-2.427.672.672 0 0 0-1.3-.131zm-1.159-3.255c-.188.457-.155.974-.312 1.451a11.369 11.369 0 0 1-.494 1.283c-.141.3.141.779.507.618a2.529 2.529 0 0 0 1.364-1.246 2.751 2.751 0 0 0 .292-1.975c-.245-.561-1.061-.793-1.347-.131zm-4.985-11.881a.742.742 0 0 0 .873-.544c.188-.722-.457-1.465-.967-1.915a2.089 2.089 0 0 0-1.945-.628.588.588 0 0 0-.238.971c.312.39.746.672 1.078 1.055s.625.964 1.209 1.061zm2.593 2.865a1.444 1.444 0 0 0-.138-1.394 1.233 1.233 0 0 0-.48-.511.625.625 0 0 0-.86.185.823.823 0 0 0-.04.611 1.68 1.68 0 0 0 .114.306v.057a2.046 2.046 0 0 0 .4.88.638.638 0 0 0 1.008-.134zm-.8 3.359a.873.873 0 0 0 .373 0 .766.766 0 0 0 .44-.353 1.239 1.239 0 0 0 .131-.581 1.192 1.192 0 0 0-.151-.544l-.111-.138-.148-.107a.692.692 0 0 0-.988.443 3.621 3.621 0 0 0-.118.6l.03.185a.578.578 0 0 0 .134.249.719.719 0 0 0 .39.218zm2.818-3.409-.672-.756a.44.44 0 0 0-.48.336 2.176 2.176 0 0 0 0 .591v.255a1.575 1.575 0 0 0 .04.376.6.6 0 0 0 .595.43.615.615 0 0 0 .564-.464 1.525 1.525 0 0 0-.049-.768z" transform="translate(-165.065 -104.738)"/>
            <path id="Path_9090" data-name="Path 9090" class="cls-9" d="M230.754 165.264c-.272-.689-.91-3.678-1.061-4.427s-.652-3.759-.8-4.528c0-.04.047-.067.057-.023.161.756.9 3.735 1.061 4.481s.759 3.735.786 4.488a.021.021 0 0 1-.04.01z" transform="translate(-196.205 -127.439)"/>
            <path id="Path_9091" data-name="Path 9091" class="cls-9" d="M197.572 156.4c-1.031.06-2.062.084-3.094.077a25.11 25.11 0 0 1-3.1-.178 4.957 4.957 0 0 1-1.525-.4 4.548 4.548 0 0 1-1.115-1.125 22.9 22.9 0 0 1-1.649-2.637c-1.008-1.81-1.874-3.695-2.721-5.569s-1.616-3.8-2.321-5.744c.857 1.878 1.7 3.759 2.583 5.623s1.77 3.722 2.731 5.539a27.761 27.761 0 0 0 1.585 2.633 4.29 4.29 0 0 0 1.008 1.1 4.766 4.766 0 0 0 1.448.406 40.976 40.976 0 0 0 6.17.275z" transform="translate(-165.098 -117.183)"/>
            <path id="Path_9092" data-name="Path 9092" class="cls-9" d="M182.751 143.761a3.185 3.185 0 0 1-.373-.453 1.834 1.834 0 0 1-.259-.527 2.788 2.788 0 0 0 .165.242l.165.239a4.939 4.939 0 0 1 .302.499z" transform="translate(-165.145 -118.484)"/>
            <path id="Path_9093" data-name="Path 9093" class="cls-9" d="M199.79 136.43c.85.853 1.612 1.79 2.4 2.687s1.545 1.844 2.351 2.738l.3.336c.054.05.1.107.155.155l.074.064h.037a7.646 7.646 0 0 0 .867-.094l1.787-.265c1.189-.175 2.382-.356 3.574-.517l.047.3-.071-.292h.017c-1.179.252-2.351.477-3.547.7-.595.107-1.189.2-1.787.292a8.311 8.311 0 0 1-.924.107.288.288 0 0 1-.074 0 .275.275 0 0 1-.091-.047 1.262 1.262 0 0 1-.1-.084l-.165-.161a10.775 10.775 0 0 1-.309-.336 101.35 101.35 0 0 1-2.308-2.785L200.9 137.8c-.368-.436-.7-.92-1.11-1.37z" transform="translate(-176.88 -114.267)"/>
            <path id="Path_9094" data-name="Path 9094" class="cls-9" d="M201.1 136.73a3.376 3.376 0 0 1 .336.5 1.884 1.884 0 0 1 .2.554c-.04-.091-.091-.171-.138-.259l-.138-.259a5.492 5.492 0 0 1-.26-.536z" transform="translate(-177.75 -114.466)"/>
        </g>
        <g id="freepik--Plant--inject-11" transform="translate(41.45 119.988)">
            <path id="Path_9095" data-name="Path 9095" class="cls-5" d="M81.024 320.658a88.283 88.283 0 0 1 .131-9.429 119.854 119.854 0 0 1 2.953-19.2c.823-3.554 1.837-7.054 2.9-10.54.03-.1.2-.074.171.034-3.268 12.307-5.952 25.011-5.767 37.8.054 3.581.467 7.1.806 10.655 0 .1-.148.134-.168.037a53.8 53.8 0 0 1-1.026-9.357z" transform="translate(-67.685 -281.428)"/>
            <path id="Path_9096" data-name="Path 9096" class="cls-5" d="M88.051 281.67s4.949 12.569 3.842 15.522a5.672 5.672 0 0 1-3.4 3.584s3.023 4.326.914 8.4-6.819 3.863-7.134 8.465c.004-.017-.258-19.25 5.778-35.971z" transform="translate(-68.562 -281.589)"/>
            <path id="Path_9097" data-name="Path 9097" class="cls-9" d="M83.452 314.92a.094.094 0 0 1 0-.067 115.212 115.212 0 0 1 4.807-25.283c0-.023.047-.017.04 0q-1.471 5.512-2.6 11.085a5.469 5.469 0 0 1 2.351-1.317s.024 0 0 .023a6.288 6.288 0 0 0-2.439 1.633q-.215 1.088-.42 2.187a10.136 10.136 0 0 1 4.175-2.435c.02 0 .034.027 0 .034a10.089 10.089 0 0 0-4.276 2.869q-.571 3.127-1.008 6.278a5.963 5.963 0 0 1 2.953-1.679c.034 0 .054.044 0 .054a6.244 6.244 0 0 0-2.993 1.918h-.02q-.148 1.108-.279 2.22a7.512 7.512 0 0 1 2.133-1.236c.02 0 .03.024 0 .03a7.191 7.191 0 0 0-2.052 1.374H83.8c-.081.7-.165 1.407-.235 2.113a10.077 10.077 0 0 1 4.2-3 .027.027 0 0 1 .02.05 10.943 10.943 0 0 0-4.138 3.184.091.091 0 0 1-.1.034c-.107 1.082-.2 2.167-.282 3.251h-.035c.054-1.1.131-2.212.222-3.32z" transform="translate(-69.196 -286.825)"/>
            <path id="Path_9098" data-name="Path 9098" class="cls-9" d="M95.7 313.167a6.174 6.174 0 0 1 2.976-.927.018.018 0 1 1 0 .037 11.708 11.708 0 0 0-2.942.961.04.04 0 0 1-.034-.07z" transform="translate(-77.469 -301.891)"/>
            <path id="Path_9099" data-name="Path 9099" class="cls-9" d="M93.913 353.1a6.254 6.254 0 0 1 2.234-.762.02.02 0 1 1 0 .04 8.484 8.484 0 0 0-2.214.776c-.023.016-.05-.035-.02-.054z" transform="translate(-76.282 -328.521)"/>
            <path id="Path_9100" data-name="Path 9100" class="cls-5" d="M42.037 328.444a33.661 33.661 0 0 1 5.73 5.012 20.546 20.546 0 0 1 4.031 6.815 51.056 51.056 0 0 1 2.993 16.3 39.454 39.454 0 0 1-.883 9.167.087.087 0 0 1-.171-.03 51.392 51.392 0 0 0-.081-16.026c-.853-5.2-2.187-10.856-5.492-15.082a44.352 44.352 0 0 0-6.264-5.986c-.132-.093.016-.254.137-.17z" transform="translate(-41.714 -312.636)"/>
            <path id="Path_9101" data-name="Path 9101" class="cls-5" d="M53.787 352.351a30.778 30.778 0 0 0-4.175-5.341c-2.479-2.476-4.565-4.236-4.887-5.875s2.482-2.842 2.482-2.842-3.43.615-4.367-.826-1.39-9.767-1.39-9.767 6.231 4.467 9.143 10.692 3.194 13.959 3.194 13.959z" transform="translate(-41.45 -312.158)"/>
            <path id="Path_9102" data-name="Path 9102" class="cls-9" d="M47.721 334c2.627 2.576 5.267 5.321 6.812 8.706a33.985 33.985 0 0 1 1.377 3.591c.081.245.161.494.235.739a.064.064 0 0 1 0 .04 70.985 70.985 0 0 1 1.774 7.7c0 .017-.024.027-.027 0-.269-1.3-.564-2.61-.9-3.92h-.037a5.43 5.43 0 0 0-1.622-.417c-.037 0-.034-.067 0-.067a6.175 6.175 0 0 1 1.619.3 57.51 57.51 0 0 0-1.008-3.517 17.571 17.571 0 0 0-3.695-.484v-.02a14.04 14.04 0 0 1 3.634.309c-.064-.2-.131-.4-.195-.595a19.224 19.224 0 0 0-2.462-.416c-.017 0 0-.027 0-.027a12.091 12.091 0 0 1 2.412.292q-.511-1.508-1.115-2.956a17.9 17.9 0 0 0-1.176-2.287 14.955 14.955 0 0 0-2-.356c-.02 0-.017-.03 0-.034a5.394 5.394 0 0 1 1.868.185q-.494-.8-1.041-1.552a10.764 10.764 0 0 0-4.249-.336.023.023 0 0 1 0-.044 8.961 8.961 0 0 1 4.068.114c-.148-.195-.3-.39-.453-.581a9.158 9.158 0 0 0-2.613-.413v-.027a6.768 6.768 0 0 1 2.435.215c-1.155-1.438-2.432-2.785-3.695-4.118-.053-.048-.006-.092.054-.024z" transform="translate(-45.565 -316.317)"/>
            <path id="Path_9103" data-name="Path 9103" class="cls-9" d="M48.042 350.887a5.67 5.67 0 0 1 1.239-.04c.05 0 .047.087 0 .087-.41 0-.82-.02-1.233 0-.033-.007-.033-.047-.006-.047z" transform="translate(-45.815 -327.518)"/>
            <path id="Path_9104" data-name="Path 9104" class="cls-9" d="M61.359 375a5.568 5.568 0 0 1 1.925.386v.027c-.635-.151-1.276-.215-1.918-.319-.066 0-.06-.094-.007-.094z" transform="translate(-54.645 -343.57)"/>
            <path id="Path_9105" data-name="Path 9105" class="cls-9" d="M65.387 366.71a4.166 4.166 0 0 1 .816.074c.027 0 .024.05 0 .05a4.127 4.127 0 0 1-.816-.04.044.044 0 0 1 0-.084z" transform="translate(-57.326 -338.064)"/>
            <path id="Path_9106" data-name="Path 9106" class="cls-5" d="M96.6 354.808a28.352 28.352 0 0 0-5.794 2.728 17.409 17.409 0 0 0-4.82 4.588 43 43 0 0 0-6.191 12.5 33.433 33.433 0 0 0-1.4 7.622.074.074 0 1 0 .148 0 43.257 43.257 0 0 1 3.752-12.935c1.891-4.011 4.279-8.28 7.931-10.933a35.05 35.05 0 0 1 6.449-3.393c.125-.053.058-.218-.075-.177z" transform="translate(-65.982 -330.156)"/>
            <path id="Path_9107" data-name="Path 9107" class="cls-5" d="M86.88 371.471a25.845 25.845 0 0 1 4.612-3.359c2.58-1.431 4.672-2.375 5.314-3.624s-1.344-2.875-1.344-2.875 2.63 1.29 3.722.336 3.382-7.588 3.382-7.588-6.073 2.163-9.869 6.543a35.325 35.325 0 0 0-5.817 10.567z" transform="translate(-71.62 -329.863)"/>
            <path id="Path_9108" data-name="Path 9108" class="cls-9" d="M87.8 373.009c3.023-5.71 7.094-10.863 12.65-14.269a28.115 28.115 0 0 0-4.064 3.184 6.425 6.425 0 0 1 3.265.672c.024 0 0 .04 0 .034a8.961 8.961 0 0 0-3.359-.568.083.083 0 0 1-.04 0c-.195.185-.39.376-.584.568a10.2 10.2 0 0 1 1.747.232v.024a8.953 8.953 0 0 0-1.844-.151 37.245 37.245 0 0 0-2.865 3.255 2.876 2.876 0 0 1 1.219.087.024.024 0 0 1 0 .047 6.506 6.506 0 0 0-1.3-.02c-.165.212-.336.423-.5.638a11.668 11.668 0 0 1 3.695.359v.027a14.748 14.748 0 0 0-3.786-.245c-.155.2-.3.417-.453.625a7.932 7.932 0 0 1 2.193.252c.03 0 .02.05 0 .044a8.34 8.34 0 0 0-2.274-.178q-.977 1.344-1.881 2.754a2.035 2.035 0 0 1 .964.057v.027a4.181 4.181 0 0 0-1.045.047q-.813 1.263-1.565 2.549c-.11.08-.211.026-.173-.051z" transform="translate(-72.227 -332.771)"/>
            <path id="Path_9109" data-name="Path 9109" class="cls-9" d="M101.837 387.117a4.675 4.675 0 0 1 1.763.215v.027a13.96 13.96 0 0 0-1.757-.181.03.03 0 0 1-.007-.06z" transform="translate(-81.535 -351.609)"/>
            <path id="Path_9110" data-name="Path 9110" class="cls-9" d="M117.627 366.424a3.144 3.144 0 0 1 .813.047.027.027 0 0 1 0 .05c-.265-.03-.531-.02-.8-.027a.037.037 0 0 1-.013-.071z" transform="translate(-92.025 -337.869)"/>
            <path id="Path_9111" data-name="Path 9111" class="cls-10" d="M63.55 425.867h13.711l-1.955-14.326-.5-3.671h-8.8l-.5 3.671z" transform="translate(-56.127 -365.399)"/>
            <path id="Path_9112" data-name="Path 9112" class="cls-9" d="M69.37 411.541h9.8l-.5-3.671h-8.8z" transform="translate(-59.992 -365.399)"/>
            <path id="Rectangle_8193" data-name="Rectangle 8193" class="cls-10" transform="rotate(180 9.97 22.152)" d="M0 0h11.323v3.11H0z"/>
        </g>
        <g id="freepik--speech-bubble--inject-11" transform="translate(106.11 38.332)">
            <path id="Path_9113" data-name="Path 9113" class="cls-3" d="M250.225 46.009A7.46 7.46 0 0 1 238.318 52l-3.658.934 1.522-3.4a7.464 7.464 0 1 1 14.044-3.52z" transform="translate(-234.422 -38.472)"/>
            <path id="Path_9114" data-name="Path 9114" class="cls-9" d="M249.754 45.866a7.544 7.544 0 0 1-1.1 3.923 8.627 8.627 0 0 1-.578.86 8.339 8.339 0 0 1-.715.746 7.306 7.306 0 0 1-1.68 1.186 7.39 7.39 0 0 1-1.948.672 7.092 7.092 0 0 1-1.031.128 6.3 6.3 0 0 1-1.038 0 7.568 7.568 0 0 1-3.87-1.428l.1.02-3.648.961-.3.077.124-.282 1.508-3.409v.141a7.548 7.548 0 0 1-.235-6.674 7.525 7.525 0 0 1 11.562-2.822 7.507 7.507 0 0 1 2.845 5.9zm0 0a7.375 7.375 0 0 0-9.254-7.141 7.3 7.3 0 0 0-2.932 1.532 7.7 7.7 0 0 0-1.962 2.667 7.329 7.329 0 0 0-.611 3.235 7.487 7.487 0 0 0 .86 3.147l.037.071-.034.071-1.535 3.4-.171-.2 3.665-.907h.057l.044.034a7.339 7.339 0 0 0 3.739 1.461 6.865 6.865 0 0 0 1.008 0 7.168 7.168 0 0 0 2.953-.749 6.953 6.953 0 0 0 1.68-1.149 8.221 8.221 0 0 0 .715-.736 8.993 8.993 0 0 0 .594-.836 7.517 7.517 0 0 0 1.149-3.9z" transform="translate(-233.95 -38.332)"/>
            <path id="Path_9115" data-name="Path 9115" class="cls-5" d="M254.4 52.8v.823a.6.6 0 0 1-.621.621.618.618 0 0 1-.618-.621v-1.36a.638.638 0 0 1 .618-.621 1.417 1.417 0 1 0 0-2.832 1.4 1.4 0 0 0-1.213.7.628.628 0 0 1-.86.228.618.618 0 0 1-.215-.85A2.657 2.657 0 1 1 254.4 52.8zm0 2.771v.229a.6.6 0 0 1-.621.618.618.618 0 0 1-.618-.618v-.228a.628.628 0 0 1 .618-.621.615.615 0 0 1 .621.621z" transform="translate(-245.544 -44.461)"/>
        </g>
    </g>
</svg>
