<svg xmlns="http://www.w3.org/2000/svg" width="35.072" height="28.348" viewBox="0 0 35.072 28.348">
    <defs>
        <style>
            .cls-1{fill:#26009c}
        </style>
    </defs>
    <g id="_314013" transform="translate(0 -49.077)">
        <g id="Group_8145" transform="translate(31.034 55.146)">
            <g id="Group_8144">
                <path id="Path_7044" d="M454.817 137.676h-1.235a.521.521 0 0 0 0 1.042h1.235a.521.521 0 0 0 0-1.042z" class="cls-1" transform="translate(-453.062 -137.676)"/>
            </g>
        </g>
        <g id="Group_8147" transform="translate(0 49.67)">
            <g id="Group_8146">
                <path id="Path_7045" d="M34.551 57.749h-9.918a.521.521 0 0 0-.474.142L4.886 77.165H.521a.521.521 0 0 0-.521.52v7.287a.521.521 0 0 0 .521.521h9.509a.521.521 0 0 0 .368-.152l19.276-19.276h4.877a.521.521 0 0 0 .521-.521V58.27a.521.521 0 0 0-.521-.521zm-24.032 26v-.676h.676zm2.423-2.423v-.676h.676zm2.422-2.426v-.676h.676zm2.423-2.423V75.8h.676zm2.423-2.423v-.674h.676zm2.423-2.423v-.676h.676zm2.423-2.423v-.722h.722zm2.423-2.423v-.722h.721zm6.552-3.6v1.838h-7.075a.521.521 0 0 0-.521.521v1.9h-1.9a.521.521 0 0 0-.521.521v1.948h-1.9a.521.521 0 0 0-.521.521v1.9h-1.9a.521.521 0 0 0-.521.521v1.9h-1.9a.521.521 0 0 0-.521.521v1.9h-1.9a.521.521 0 0 0-.521.521v1.9h-1.9a.521.521 0 0 0-.521.521v1.9H10a.521.521 0 0 0-.521.521v1.9H1.042v-3.873H5.1a.521.521 0 0 0 .368-.153l19.265-19.262h9.3v2.034zm0-3.076h-9.4a.521.521 0 0 0-.474.142L4.886 79.524H1.042v-1.318H5.1a.521.521 0 0 0 .368-.153l19.265-19.262h9.3v1.318z" class="cls-1" transform="translate(0 -57.739)"/>
            </g>
        </g>
        <g id="Group_8149" transform="translate(1.811 74.578)">
            <g id="Group_8148">
                <path id="Path_7046" d="M28.189 421.37h-1.235a.521.521 0 0 0 0 1.042h1.235a.521.521 0 0 0 0-1.042z" class="cls-1" transform="translate(-26.433 -421.37)"/>
            </g>
        </g>
        <g id="Group_8151" transform="translate(11.43 49.077)">
            <g id="Group_8150">
                <path id="Path_7047" d="M172.73 49.229a.52.52 0 0 0-.434-.148l-4.276.54a.521.521 0 0 0-.3.885l.9.9-1.6 1.6a.521.521 0 0 0 0 .737l1.2 1.2a.521.521 0 0 0 .737 0l1.6-1.6.9.9a.521.521 0 0 0 .885-.3l.54-4.276a.521.521 0 0 0-.152-.438zm-1.292 3.524l-.514-.514a.521.521 0 0 0-.737 0l-1.6 1.6-.467-.467 1.6-1.6a.521.521 0 0 0 0-.737l-.514-.514 2.555-.323z" class="cls-1" transform="translate(-166.862 -49.077)"/>
            </g>
        </g>
        <g id="Group_8153" transform="translate(4.968 55.539)">
            <g id="Group_8152">
                <path id="Path_7048" d="M78.543 145.14a.521.521 0 0 0-.152-.368l-1.2-1.2a.521.521 0 0 0-.737 0l-1.6 1.6-.9-.9a.521.521 0 0 0-.885.3l-.54 4.276a.521.521 0 0 0 .517.586.508.508 0 0 0 .065 0l4.276-.54a.521.521 0 0 0 .3-.885l-.9-.9 1.6-1.6a.521.521 0 0 0 .156-.369zm-2.858 1.6a.521.521 0 0 0 0 .737l.514.514-2.555.323.323-2.555.514.514a.521.521 0 0 0 .737 0l1.6-1.6.467.467z" class="cls-1" transform="translate(-72.523 -143.415)"/>
            </g>
        </g>
    </g>
</svg>
