<svg xmlns="http://www.w3.org/2000/svg" width="14.943" height="15.028" viewBox="0 0 14.943 15.028">
  <g id="Group_7527" data-name="Group 7527" transform="translate(382.341 172.426) rotate(180)">
    <path id="iconfinder_maximize_134215" d="M3.061,2H6.245a1.061,1.061,0,0,1,0,2.123H5.609L8.961,7.561a1,1,0,0,1,.318.742A1.053,1.053,0,0,1,8.218,9.364a.978.978,0,0,1-.743-.318L4.123,5.609v.637A1.061,1.061,0,0,1,2,6.245V3.061A1.062,1.062,0,0,1,3.061,2Z" transform="translate(365.397 155.397)" fill="#1f009e"/>
    <path id="iconfinder_maximize_134215-2" data-name="iconfinder_maximize_134215" d="M8.218,9.364H5.034a1.061,1.061,0,1,1,0-2.123h.637L2.318,3.8A1,1,0,0,1,2,3.061,1.053,1.053,0,0,1,3.061,2a.978.978,0,0,1,.743.318L7.157,5.756V5.119a1.061,1.061,0,0,1,2.123,0V8.3A1.062,1.062,0,0,1,8.218,9.364Z" transform="translate(373.061 163.061)" fill="#1f009e"/>
  </g>
</svg>
