<svg xmlns="http://www.w3.org/2000/svg" width="197.121" height="146.878">
    <defs>
        <style>
            .cls-1{fill:#ebebeb}.cls-2{fill:#e6e6e6}.cls-3{fill:#f5f5f5}.cls-4{fill:#fff}.cls-5{fill:#f0f0f0}.cls-6{fill:#e0e0e0}.cls-7{fill:#fafafa}.cls-8{fill:#ffb573}.cls-9{fill:#263238}.cls-10{opacity:.2}.cls-11{fill:#b0bec5}
        </style>
    </defs>
    <g id="Filing_system-rafiki_1_" data-name="Filing system-rafiki (1)" transform="translate(0 -55)">
        <g id="freepik--background-complete--inject-19" transform="translate(0 55)">
            <path id="Rectangle_7770" data-name="Rectangle 7770" class="cls-1" transform="translate(0 129.075)" d="M0 0h197.121v.099H0z"/>
            <path id="Rectangle_7771" data-name="Rectangle 7771" class="cls-1" transform="translate(161.942 132.828)" d="M0 0h13.057v.099H0z"/>
            <path id="Rectangle_7772" data-name="Rectangle 7772" class="cls-1" transform="translate(51.831 134.164)" d="M0 0h19.657v.099H0z"/>
            <path id="Rectangle_7773" data-name="Rectangle 7773" class="cls-1" transform="translate(149.906 136.49)" d="M0 0h11.642v.099H0z"/>
            <path id="Rectangle_7774" data-name="Rectangle 7774" class="cls-1" transform="translate(20.682 135.828)" d="M0 0h8.516v.099H0z"/>
            <path id="Rectangle_7775" data-name="Rectangle 7775" class="cls-1" transform="translate(32.706 135.828)" d="M0 0h15.127v.099H0z"/>
            <path id="Rectangle_7776" data-name="Rectangle 7776" class="cls-1" transform="translate(93.648 131.759)" d="M0 0h36.933v.099H0z"/>
            <path id="Path_7261" data-name="Path 7261" class="cls-1" d="M116.581 166.491H40.457a2.251 2.251 0 0 1-2.247-2.251V57.231A2.251 2.251 0 0 1 40.457 55h76.124a2.251 2.251 0 0 1 2.251 2.251V164.24a2.251 2.251 0 0 1-2.251 2.251zM40.457 55.079a2.153 2.153 0 0 0-2.149 2.153V164.24a2.153 2.153 0 0 0 2.149 2.153h76.124a2.157 2.157 0 0 0 2.153-2.153V57.231a2.157 2.157 0 0 0-2.153-2.153z" transform="translate(-23.146 -55)"/>
            <path id="Path_7262" data-name="Path 7262" class="cls-1" d="M332.879 166.491h-76.128a2.255 2.255 0 0 1-2.251-2.251V57.231A2.255 2.255 0 0 1 256.751 55h76.128a2.251 2.251 0 0 1 2.243 2.231V164.24a2.251 2.251 0 0 1-2.243 2.251zM256.751 55.079a2.156 2.156 0 0 0-2.153 2.153V164.24a2.156 2.156 0 0 0 2.153 2.153h76.128a2.157 2.157 0 0 0 2.153-2.153V57.231a2.156 2.156 0 0 0-2.153-2.153z" transform="translate(-154.166 -55)"/>
            <path id="Rectangle_7777" data-name="Rectangle 7777" class="cls-2" transform="rotate(180 58.578 36.107)" d="M0 0h43.094v61.375H0z"/>
            <path id="Rectangle_7778" data-name="Rectangle 7778" class="cls-3" transform="rotate(180 57.755 36.106)" d="M0 0h43.094v61.375H0z"/>
            <path id="Rectangle_7779" data-name="Rectangle 7779" class="cls-4" transform="rotate(90 49.474 63.075)" d="M0 0h55.848v37.173H0z"/>
            <path id="Rectangle_7780" data-name="Rectangle 7780" class="cls-2" transform="rotate(90 31.514 45.111)" d="M0 0h55.848v1.246H0z"/>
            <path id="Rectangle_7781" data-name="Rectangle 7781" class="cls-3" transform="rotate(180 57.144 28.287)" d="M0 0h40.646v3.71H0z"/>
            <path id="Rectangle_7782" data-name="Rectangle 7782" class="cls-3" transform="rotate(180 57.144 11.09)" d="M0 0h40.646v3.71H0z"/>
            <path id="Rectangle_7783" data-name="Rectangle 7783" class="cls-2" transform="rotate(180 32.334 36.106)" d="M0 0h43.094v61.375H0z"/>
            <path id="Rectangle_7784" data-name="Rectangle 7784" class="cls-3" transform="rotate(180 31.51 36.106)" d="M0 0h43.094v61.375H0z"/>
            <path id="Rectangle_7785" data-name="Rectangle 7785" class="cls-4" transform="rotate(90 23.231 36.828)" d="M0 0h55.848v37.173H0z"/>
            <path id="Rectangle_7786" data-name="Rectangle 7786" class="cls-2" transform="rotate(90 5.265 18.866)" d="M0 0h55.848v1.246H0z"/>
            <path id="Rectangle_7787" data-name="Rectangle 7787" class="cls-3" transform="rotate(180 30.896 28.287)" d="M0 0h40.646v3.71H0z"/>
            <path id="Rectangle_7788" data-name="Rectangle 7788" class="cls-3" transform="rotate(180 30.896 11.09)" d="M0 0h40.646v3.71H0z"/>
            <path id="Path_7263" data-name="Path 7263" class="cls-2" d="M351.544 213.3c2.216-1.317 3.852-3.548 3.568-8.673-.481-8.567-7.033-9.564-8.516-13.274a7.016 7.016 0 0 0 1.277-2.058c2.18-5.03-2.594-6.876-.162-9.612 1.471-1.656.394-3.868-1.34-4.971s-2.72-1.384-1.861-3.126c.919-1.869-1.21-5.713-4.451-5.4-3.627.355-3.659-2.133-6.075-1.163s.375 3.418-3.221 4.81a2.685 2.685 0 0 0-1.577 1.36 7.876 7.876 0 0 0-7.491.343c-5.949 3.745-8.153-.516-11.48 3.245s3.6 5.563-1.4 11.07c-3.335 3.678-.855 7.2 2.72 9.087-3.942.2-5.791 5.169-4.364 7.234 1.333 1.932.237 2.429-1.672 4.069s-2.76 4.459-.721 6.178c3.39 2.839-1.971 5.89 1.506 11.516 4.936 7.948 12.714-5.732 16.558 8.082.5 1.8-.339 6.446 1 6.785 2.488 3.217 8.851 2.066 11.961.461.347-.166-.193-2.685.118-2.91a13.5 13.5 0 0 0 3.193-2.969c3.375-1.743 5.815 4.049 10.049-.982 3.548-4.195-.513-7.333 2.606-9.257 1.884-1.183 1.5-3.584.142-5.145s-2.208-2.105-.887-3.548a2.432 2.432 0 0 0 .516-1.155z" transform="translate(-183.912 -121.51)"/>
            <path id="Path_7264" data-name="Path 7264" class="cls-5" d="M344.28 345.66s.284 14.484 11.362 14.484S367 345.66 367 345.66z" transform="translate(-208.551 -231.07)"/>
            <path id="Rectangle_7789" data-name="Rectangle 7789" class="cls-5" transform="rotate(90 -9.27 68.703)" d="M0 0h51.102v31.835H0z"/>
            <path id="Rectangle_7790" data-name="Rectangle 7790" class="cls-2" transform="rotate(90 -10.787 68.468)" d="M0 0h15.044v28.338H0z"/>
            <path id="Rectangle_7791" data-name="Rectangle 7791" class="cls-2" transform="rotate(90 -18.983 76.664)" d="M0 0h15.044v28.338H0z"/>
            <path id="Rectangle_7792" data-name="Rectangle 7792" class="cls-2" transform="rotate(90 -27.179 84.86)" d="M0 0h15.044v28.338H0z"/>
            <path id="Rectangle_7793" data-name="Rectangle 7793" class="cls-6" transform="rotate(90 -19.383 59.872)" d="M0 0h15.044v11.145H0z"/>
            <path id="Rectangle_7794" data-name="Rectangle 7794" class="cls-6" transform="rotate(90 -27.579 68.068)" d="M0 0h15.044v11.145H0z"/>
            <path id="Rectangle_7795" data-name="Rectangle 7795" class="cls-5" transform="rotate(180 26.601 55.346)" d="M0 0h7.723v6.008H0z"/>
            <path id="Rectangle_7796" data-name="Rectangle 7796" class="cls-6" transform="translate(53.203 104.679)" d="M0 0h3.26v6.008H0z"/>
            <path id="Rectangle_7797" data-name="Rectangle 7797" class="cls-5" transform="rotate(180 20.364 55.346)" d="M0 0h7.723v6.008H0z"/>
            <path id="Rectangle_7798" data-name="Rectangle 7798" class="cls-6" transform="translate(40.729 104.679)" d="M0 0h3.26v6.008H0z"/>
            <path id="Rectangle_7799" data-name="Rectangle 7799" class="cls-6" transform="rotate(90 -35.775 76.264)" d="M0 0h15.044v11.145H0z"/>
            <path id="Rectangle_7800" data-name="Rectangle 7800" class="cls-3" transform="rotate(90 -4.95 73.023)" d="M0 0h51.102v8.646H0z"/>
            <path id="Rectangle_7801" data-name="Rectangle 7801" class="cls-5" transform="rotate(180 27.14 63.542)" d="M0 0h17.41v12.876H0z"/>
            <path id="Rectangle_7802" data-name="Rectangle 7802" class="cls-6" transform="translate(54.279 114.208)" d="M0 0h3.406v12.876H0z"/>
            <path id="Rectangle_7803" data-name="Rectangle 7803" class="cls-7" transform="rotate(180 27.137 47.148)" d="M0 0h23.012v12.876H0z"/>
            <path id="Rectangle_7804" data-name="Rectangle 7804" class="cls-5" transform="translate(54.279 81.423)" d="M0 0h3.406v12.876H0z"/>
            <path id="Rectangle_7805" data-name="Rectangle 7805" class="cls-5" transform="rotate(90 7.83 85.799)" d="M0 0h51.102v31.835H0z"/>
            <path id="Rectangle_7806" data-name="Rectangle 7806" class="cls-2" transform="rotate(90 6.312 85.566)" d="M0 0h15.044v28.338H0z"/>
            <path id="Rectangle_7807" data-name="Rectangle 7807" class="cls-2" transform="rotate(90 -1.885 93.763)" d="M0 0h15.044v28.338H0z"/>
            <path id="Rectangle_7808" data-name="Rectangle 7808" class="cls-2" transform="rotate(90 -10.08 101.959)" d="M0 0h15.044v28.338H0z"/>
            <path id="Rectangle_7809" data-name="Rectangle 7809" class="cls-6" transform="rotate(90 -2.283 76.972)" d="M0 0h15.044v11.145H0z"/>
            <path id="Rectangle_7810" data-name="Rectangle 7810" class="cls-6" transform="rotate(90 -10.479 85.168)" d="M0 0h15.044v11.145H0z"/>
            <path id="Rectangle_7811" data-name="Rectangle 7811" class="cls-5" transform="rotate(180 37.757 47.15)" d="M0 0h7.723v6.008H0z"/>
            <path id="Rectangle_7812" data-name="Rectangle 7812" class="cls-6" transform="translate(75.513 88.286)" d="M0 0h3.26v6.008H0z"/>
            <path id="Rectangle_7813" data-name="Rectangle 7813" class="cls-5" transform="rotate(180 43.53 47.148)" d="M0 0h9.915v7.719H0z"/>
            <path id="Rectangle_7814" data-name="Rectangle 7814" class="cls-6" transform="translate(87.06 86.579)" d="M0 0h4.187v7.719H0z"/>
            <path id="Rectangle_7815" data-name="Rectangle 7815" class="cls-6" transform="rotate(90 -18.675 93.364)" d="M0 0h15.044v11.145H0z"/>
            <path id="Rectangle_7816" data-name="Rectangle 7816" class="cls-3" transform="rotate(90 12.148 90.122)" d="M0 0h51.102v8.646H0z"/>
            <path id="Rectangle_7817" data-name="Rectangle 7817" class="cls-5" transform="rotate(180 43.883 63.54)" d="M0 0h21.049v3.292H0z"/>
            <path id="Rectangle_7818" data-name="Rectangle 7818" class="cls-6" transform="translate(87.766 123.792)" d="M0 0h4.116v3.292H0z"/>
            <path id="Rectangle_7819" data-name="Rectangle 7819" class="cls-7" transform="rotate(180 44.557 55.346)" d="M0 0h18.703v10.463H0z"/>
            <path id="Rectangle_7820" data-name="Rectangle 7820" class="cls-5" transform="translate(89.114 100.224)" d="M0 0h2.768v10.463H0z"/>
        </g>
        <g id="freepik--Shadow--inject-19" transform="translate(22.121 192.953)">
            <ellipse id="freepik--path--inject-19" class="cls-3" cx="76.439" cy="4.463" rx="76.439" ry="4.463"/>
        </g>
        <g id="freepik--Character--inject-19" transform="translate(99.803 81.28)">
            <path id="Path_7265" data-name="Path 7265" class="cls-8" d="m274.946 386.054-2.846-.844 1.191-6.82 2.85.84z" transform="translate(-264.63 -277.177)"/>
            <path id="Path_7266" data-name="Path 7266" class="cls-8" d="M336.354 397.97h-2.973l-.741-6.879h2.973z" transform="translate(-301.302 -284.87)"/>
            <path id="Path_7267" data-name="Path 7267" class="cls-9" d="M325.448 407.67h3.623a.252.252 0 0 1 .252.2l.587 2.641a.434.434 0 0 1-.434.528c-1.183-.02-2.019-.087-3.485-.087-.9 0-3.627.095-4.873.095s-1.411-1.234-.9-1.344a11.621 11.621 0 0 0 4.751-1.853.714.714 0 0 1 .481-.181z" transform="translate(-293.614 -294.913)"/>
            <path id="Path_7268" data-name="Path 7268" class="cls-9" d="m260.736 394.818 3.115.923a.26.26 0 0 1 .185.264l-.189 2.7a.434.434 0 0 1-.56.394c-1.116-.351-2.716-.9-4.128-1.313-1.652-.489-3.1-.82-5.038-1.392-1.183-.347-1.143-1.624-.623-1.577 2.365.173 4.211.658 6.489.039a1.384 1.384 0 0 1 .749-.038z" transform="translate(-253.151 -287.107)"/>
            <path id="Path_7269" data-name="Path 7269" class="cls-8" d="M293.558 172.77c-1.526 1.084-3.055 2.078-4.636 3.047s-3.182 1.881-4.849 2.736l-.627.319-.173.087-.288.134a4.834 4.834 0 0 1-.6.2 4.73 4.73 0 0 1-2.267 0 8.132 8.132 0 0 1-3.067-1.577 17.916 17.916 0 0 1-3.891-4.419l1.723-1.415a25.692 25.692 0 0 0 4.1 2.965 5.124 5.124 0 0 0 1.865.67.713.713 0 0 0 .438-.071.152.152 0 0 0 .039-.031l.02-.02.122-.075.564-.351c1.5-.942 3-1.924 4.486-2.917L291 169.08z" transform="translate(-265.272 -150.385)"/>
            <path id="Path_7270" data-name="Path 7270" class="cls-9" d="m303.27 171.15 3.233 6.978c14.307-4.728 9.897-15.728-3.233-6.978z" transform="translate(-283.511 -149.652)"/>
            <path id="Path_7271" data-name="Path 7271" class="cls-10" d="M316.525 177.09a15 15 0 0 0-3.915 6.466 17.654 17.654 0 0 0 6.371-3.584z" transform="translate(-289.169 -155.237)"/>
            <path id="Path_7272" data-name="Path 7272" class="cls-8" d="m272.858 173.248-1.053-2.988-2.515 2.365a3.2 3.2 0 0 0 1.924 1.758z" transform="translate(-262.927 -151.1)"/>
            <path id="Path_7273" data-name="Path 7273" class="cls-8" d="m268.339 168.23-1.959 2.17 1.147.99 2.515-2.362z" transform="translate(-261.165 -149.87)"/>
            <path id="Path_7274" data-name="Path 7274" class="cls-10" d="m274.175 378.39-.615 3.517 2.85.844.615-3.517z" transform="translate(-265.514 -277.177)"/>
            <path id="Path_7275" data-name="Path 7275" class="cls-10" d="M335.613 391.09h-2.973l.382 3.548H336z" transform="translate(-301.302 -284.87)"/>
            <path id="Path_7276" data-name="Path 7276" class="cls-9" d="M328.838 170.513a1.735 1.735 0 0 1 1.029 2.255 70.888 70.888 0 0 0-2.448 7.845 98.034 98.034 0 0 0-1.36 6.375c-.828 4.6-1.183 8.149-1.459 9.328l-15.6-3.079c2.913-23.177 5.145-25.168 5.145-25.168a30.654 30.654 0 0 1 3.824 0q.394.024.816.071a58.265 58.265 0 0 1 6.631 1.3c.394.1.832.217 1.238.339.8.253 1.557.509 2.184.734z" transform="translate(-286.982 -149.736)"/>
            <path id="Path_7277" data-name="Path 7277" class="cls-10" d="M351.962 185.48a12.5 12.5 0 0 0 1.092 7.061c.1-.445.209-.891.319-1.34a72.338 72.338 0 0 1 1.506-5.184z" transform="translate(-312.936 -160.32)"/>
            <path id="Path_7278" data-name="Path 7278" class="cls-8" d="m340.473 152.43-4.758 2.673c.091 1.739-.2 3.513-2.689 3.611-.548.631-1.1 2.117.7 3.438l-.394 1.226a8.107 8.107 0 0 0 6.308-3.355c-1.197-1.723-.006-5.543.833-7.593z" transform="translate(-301.215 -140.299)"/>
            <path id="Path_7279" data-name="Path 7279" class="cls-4" d="M322.871 199.751a.1.1 0 0 1-.083-.11 128.663 128.663 0 0 1 4.96-22.763.106.106 0 0 1 .126-.063.1.1 0 0 1 .063.126 128.091 128.091 0 0 0-4.956 22.724.095.095 0 0 1-.11.087z" transform="translate(-295.334 -155.068)"/>
            <path id="Path_7280" data-name="Path 7280" class="cls-4" d="M329.54 172.755a11.909 11.909 0 0 1 2.314-1.147 5.446 5.446 0 0 1-.359-3.568h-.788s-1.807.643-1.167 4.715z" transform="translate(-299.342 -149.755)"/>
            <path id="Path_7281" data-name="Path 7281" class="cls-4" d="M340.641 175.378a3.878 3.878 0 0 0-1.281-1.66c1.281-.394 3.473-1.49 4.218-3.438.3.248.788.6.788.6s.766 2.92-3.725 4.498z" transform="translate(-305.373 -151.112)"/>
            <path id="Path_7282" data-name="Path 7282" class="cls-4" d="M335.92 181.905c-.051.244-.213.442-.359.442s-.229-.2-.181-.446.209-.442.359-.442.228.214.181.446z" transform="translate(-302.954 -157.884)"/>
            <path id="Path_7283" data-name="Path 7283" class="cls-10" d="m343.442 155.2-2.815 1.577A6.93 6.93 0 0 1 340.6 158a3.008 3.008 0 0 0 2.665-1.636 3.288 3.288 0 0 0 .177-1.164z" transform="translate(-306.124 -141.977)"/>
            <path id="Path_7284" data-name="Path 7284" class="cls-9" d="M337.567 129.565c-2.034.493-3 4.66-.457 6.071 4.971-1.119 6.19-7.463.457-6.071z" transform="translate(-303.083 -126.328)"/>
            <path id="Path_7285" data-name="Path 7285" class="cls-8" d="M343.045 135.919c-.84 2.827-1.183 4.522-2.977 5.661a3.92 3.92 0 0 1-5.949-3.442c-.02-2.72 1.356-6.887 4.427-7.38a4.025 4.025 0 0 1 4.5 5.161z" transform="translate(-302.199 -127.139)"/>
            <path id="Path_7286" data-name="Path 7286" class="cls-9" d="M354.014 133.915c-2.89-.7-3.757 5.377-1.214 6.789 5.87-1.329 4.257-6.068 1.214-6.789z" transform="translate(-312.603 -129.05)"/>
            <path id="Path_7287" data-name="Path 7287" class="cls-9" d="M345.423 124.814a9.229 9.229 0 0 1-5.125-3.154s-2.653 2.05-1.9 3.643 4.313 3.387 6.02 3.454c0 0-.788 3.753 2.59 1.64 4.533-2.819 1.403-5.023-1.585-5.583z" transform="translate(-304.71 -121.66)"/>
            <path id="Path_7288" data-name="Path 7288" class="cls-9" d="M363.21 139.517a3.844 3.844 0 0 1 1.746 2c.244-2.217-1.289-2.059-1.746-2z" transform="translate(-319.82 -132.46)"/>
            <path id="Path_7289" data-name="Path 7289" class="cls-9" d="M339.057 130.917a6.308 6.308 0 0 1-3.477-2.657c.32 3.647 2.76 2.89 3.477 2.657z" transform="translate(-303.083 -125.658)"/>
            <path id="Path_7290" data-name="Path 7290" class="cls-9" d="M340.752 149.916a2.184 2.184 0 0 0 1.944-.453.079.079 0 0 0 0-.106.075.075 0 0 0-.107 0 2.046 2.046 0 0 1-1.8.414.079.079 0 0 0-.035.15z" transform="translate(-306.189 -138.424)"/>
            <path id="Path_7291" data-name="Path 7291" class="cls-8" d="M353.7 148.458a2.547 2.547 0 0 1-1.676.816c-.808.043-.938-.788-.485-1.494.394-.647 1.325-1.443 2.026-1.147s.697 1.222.135 1.825z" transform="translate(-312.596 -136.749)"/>
            <path id="Path_7292" data-name="Path 7292" class="cls-11" d="m271.34 292.256 4.829 1.427S281 277.243 284 267.052c.789-2.7 2.011-6.5 3.458-10.53 1.825-5.078 4-10.542 5.76-14.816 1.849-4.5 3.229-7.68 3.229-7.68L286.187 232s-8.61 23.536-10.514 32.407c-1.973 9.229-4.333 27.849-4.333 27.849z" transform="translate(-264.169 -188.499)"/>
            <path id="Path_7293" data-name="Path 7293" class="cls-10" d="M312.22 267.674c1.825-5.078 4-10.542 5.76-14.816l-.789-2.448c-2.945 2.728-4.821 12.06-4.971 17.264z" transform="translate(-288.933 -199.651)"/>
            <path id="Path_7294" data-name="Path 7294" class="cls-11" d="M319.82 234.78s-2.062 25.464-2.07 34.173c0 9.533 4.865 30.313 4.865 30.313h5.444s-2.129-18.387-2.172-27.739c-.047-10.589 4-34.76 4-34.76z" transform="translate(-292.282 -190.183)"/>
            <path id="Path_7295" data-name="Path 7295" class="cls-9" d="M327.317 395.508h6.41V393.6l-7.167-.126z" transform="translate(-297.619 -286.311)"/>
            <path id="Path_7296" data-name="Path 7296" class="cls-9" d="m270.49 381.665 5.448 1.612.824-1.873-6.209-1.845z" transform="translate(-263.654 -277.885)"/>
            <path id="Path_7297" data-name="Path 7297" class="cls-9" d="M344.375 142.657c-.051.233-.221.394-.375.359s-.233-.252-.177-.485.221-.394.375-.359.232.253.177.485z" transform="translate(-308.066 -134.083)"/>
            <path id="Path_7298" data-name="Path 7298" class="cls-9" d="M337.685 141.107c-.055.237-.221.394-.375.359s-.233-.252-.177-.485.221-.394.371-.359.232.253.181.485z" transform="translate(-304.013 -133.144)"/>
            <path id="Path_7299" data-name="Path 7299" d="M338.2 142.65a8.561 8.561 0 0 1-1.577 1.739 1.348 1.348 0 0 0 1.112.418z" transform="translate(-303.713 -134.375)" style="fill:#ed893e"/>
            <path id="Path_7300" data-name="Path 7300" class="cls-9" d="M346.252 140.152a.15.15 0 0 1-.122-.083 1.108 1.108 0 0 0-.788-.662.142.142 0 0 1 .047-.28 1.407 1.407 0 0 1 .986.824.146.146 0 0 1-.071.189.2.2 0 0 1-.052.012z" transform="translate(-308.926 -132.24)"/>
            <path id="Path_7301" data-name="Path 7301" class="cls-9" d="M336.014 137.7a.173.173 0 0 1-.083-.028.146.146 0 0 1-.02-.2 1.4 1.4 0 0 1 1.183-.544.142.142 0 1 1-.028.28 1.116 1.116 0 0 0-.915.442.142.142 0 0 1-.138.051z" transform="translate(-303.265 -130.907)"/>
            <path id="Path_7302" data-name="Path 7302" class="cls-11" d="M330.3 407.839a.888.888 0 0 1-.572-.154.418.418 0 0 1-.146-.371.229.229 0 0 1 .118-.2c.331-.169 1.289.422 1.4.489a.067.067 0 0 1 .032.071.071.071 0 0 1-.051.059 3.627 3.627 0 0 1-.781.106zm-.442-.615a.2.2 0 0 0-.091 0 .087.087 0 0 0-.047.083.3.3 0 0 0 .1.256 1.435 1.435 0 0 0 1.053.051 2.833 2.833 0 0 0-1.013-.394z" transform="translate(-299.45 -294.557)"/>
            <path id="Path_7303" data-name="Path 7303" class="cls-11" d="M331.988 406.667h-.036c-.307-.166-.9-.82-.84-1.151a.233.233 0 0 1 .225-.181.367.367 0 0 1 .3.091c.347.28.418 1.139.422 1.183a.071.071 0 0 1-.071.075zm-.6-1.206h-.032c-.095 0-.1.051-.1.071-.039.2.339.686.647.919a1.711 1.711 0 0 0-.351-.93.268.268 0 0 0-.162-.059z" transform="translate(-300.374 -293.496)"/>
            <path id="Path_7304" data-name="Path 7304" class="cls-11" d="M268.872 394.034c-.485-.043-1.336-.173-1.577-.544a.394.394 0 0 1-.032-.363.221.221 0 0 1 .166-.146c.394-.087 1.376.828 1.486.93a.075.075 0 0 1 0 .083.063.063 0 0 1-.043.04zm-1.392-.919h-.02a.087.087 0 0 0-.063.059.256.256 0 0 0 0 .244 1.928 1.928 0 0 0 1.25.453c-.374-.354-.934-.779-1.166-.756z" transform="translate(-261.682 -286.012)"/>
            <path id="Path_7305" data-name="Path 7305" class="cls-11" d="M270.275 393.35a.067.067 0 0 1-.051 0c-.3-.256-.788-1.072-.651-1.38.035-.075.118-.15.308-.114a.5.5 0 0 1 .339.225 1.988 1.988 0 0 1 .118 1.23.063.063 0 0 1-.043.051zm-.5-1.38a.087.087 0 0 0-.075.043c-.087.185.233.789.52 1.12a1.632 1.632 0 0 0-.114-.99.394.394 0 0 0-.248-.166.353.353 0 0 0-.084-.007z" transform="translate(-263.085 -285.328)"/>
            <path id="Path_7306" data-name="Path 7306" class="cls-8" d="M356.154 176.4c.229.229.394.394.568.587s.343.394.509.576c.331.394.654.788.966 1.183a27.728 27.728 0 0 1 1.731 2.507 23.748 23.748 0 0 1 1.439 2.74 17.52 17.52 0 0 1 1.033 3l.095.394.091.461c.039.3.079.607.091.9a10.693 10.693 0 0 1-.059 1.715 14.815 14.815 0 0 1-.714 3.1 21.685 21.685 0 0 1-2.76 5.366l-1.971-1.076.426-1.269c.142-.43.26-.867.394-1.3a26.353 26.353 0 0 0 .587-2.582 13.986 13.986 0 0 0 .225-2.472 6.637 6.637 0 0 0-.095-1.112 4.685 4.685 0 0 0-.1-.5l-.067-.229-.095-.28a20.036 20.036 0 0 0-2.291-4.475c-.481-.718-1-1.423-1.537-2.109q-.394-.52-.828-1.017l-.394-.489-.394-.445z" transform="translate(-313.635 -154.819)"/>
            <path id="Path_7307" data-name="Path 7307" class="cls-9" d="M349.46 179.394a15.127 15.127 0 0 0 3.528 6.063l5.7-5.437c-5.211-10.182-10.643-4.611-9.228-.626z" transform="translate(-311.353 -153.512)"/>
            <path id="Path_7308" data-name="Path 7308" class="cls-8" d="m361.128 229.64-2.227 2.034 3.493 1.482s1.514-2.153.461-3.083z" transform="translate(-317.21 -187.07)"/>
            <path id="Path_7309" data-name="Path 7309" class="cls-8" d="m357.81 237.244 2.945 1.088.978-2.05-3.493-1.482z" transform="translate(-316.549 -190.196)"/>
        </g>
        <g id="freepik--filing-system--inject-19" transform="translate(38.268 70.678)">
            <path id="Path_7310" data-name="Path 7310" class="cls-11" d="m147.077 94.8-23.106 5.677-1.514-3.217a.647.647 0 0 0-.741-.355l-14.316 3.512a.651.651 0 0 0-.493.658l.15 3.548-9.233 2.271a1 1 0 0 0-.733 1.214l7.617 30.991a1 1 0 0 0 1.214.737l49.241-12.1a1 1 0 0 0 .737-1.214l-7.613-30.991a1 1 0 0 0-1.21-.731z" transform="translate(-97.066 -94.766)"/>
            <path id="Path_7311" data-name="Path 7311" d="m147.077 94.8-23.106 5.677-1.514-3.217a.647.647 0 0 0-.741-.355l-14.316 3.512a.651.651 0 0 0-.493.658l.15 3.548-9.233 2.271a1 1 0 0 0-.733 1.214l7.617 30.991a1 1 0 0 0 1.214.737l49.241-12.1a1 1 0 0 0 .737-1.214l-7.613-30.991a1 1 0 0 0-1.21-.731z" transform="translate(-97.066 -94.766)" style="opacity:.5;fill:#fff"/>
            <path id="Rectangle_7821" data-name="Rectangle 7821" class="cls-4" transform="rotate(-13.83 32.749 -45.516)" d="M0 0h12.253v1.628H0z"/>
            <path id="Path_7312" data-name="Path 7312" class="cls-11" d="M148.84 120.952 124 127.055l-1.514-3.217a.647.647 0 0 0-.741-.355L107.437 127a.647.647 0 0 0-.493.654l.15 3.548-7.494 1.841a1 1 0 0 0-.737 1.214l7.617 30.991a1 1 0 0 0 1.214.737l49.245-12.1a1 1 0 0 0 .733-1.214l-7.613-30.991a1 1 0 0 0-1.219-.728z" transform="translate(-98.139 -110.609)"/>
            <path id="Path_7313" data-name="Path 7313" d="M148.84 120.952 124 127.055l-1.514-3.217a.647.647 0 0 0-.741-.355L107.437 127a.647.647 0 0 0-.493.654l.15 3.548-7.494 1.841a1 1 0 0 0-.737 1.214l7.617 30.991a1 1 0 0 0 1.214.737l49.245-12.1a1 1 0 0 0 .733-1.214l-7.613-30.991a1 1 0 0 0-1.219-.728z" transform="translate(-98.139 -110.609)" style="opacity:.4;fill:#fff"/>
            <path id="Rectangle_7822" data-name="Rectangle 7822" class="cls-4" transform="rotate(-13.83 76.451 -35.857)" d="M0 0h12.253v1.628H0z"/>
            <path id="Path_7314" data-name="Path 7314" class="cls-11" d="M150.588 147.027 124 153.556l-1.514-3.217a.647.647 0 0 0-.741-.355l-14.3 3.517a.647.647 0 0 0-.493.658l.15 3.548-5.76 1.415a1 1 0 0 0-.737 1.214l7.629 31a1 1 0 0 0 1.214.737l49.249-12.1a1 1 0 0 0 .737-1.214l-7.617-30.991a1 1 0 0 0-1.23-.733z" transform="translate(-99.193 -126.403)"/>
            <path id="Path_7315" data-name="Path 7315" d="M150.588 147.027 124 153.556l-1.514-3.217a.647.647 0 0 0-.741-.355l-14.3 3.517a.647.647 0 0 0-.493.658l.15 3.548-5.76 1.415a1 1 0 0 0-.737 1.214l7.629 31a1 1 0 0 0 1.214.737l49.249-12.1a1 1 0 0 0 .737-1.214l-7.617-30.991a1 1 0 0 0-1.23-.733z" transform="translate(-99.193 -126.403)" style="opacity:.3;fill:#fff"/>
            <path id="Rectangle_7823" data-name="Rectangle 7823" class="cls-4" transform="rotate(-13.83 120.135 -26.214)" d="M0 0h12.253v1.628H0z"/>
            <path id="Path_7316" data-name="Path 7316" class="cls-11" d="m198.312 171.475-29.107 1.478-.879-3.446a.65.65 0 0 0-.662-.489l-14.717.749a.65.65 0 0 0-.611.552l-.524 3.517-4.14.213a1 1 0 0 0-.954 1.053l1.624 31.87a1 1 0 0 0 1.053.954l50.656-2.574A1 1 0 0 0 201 204.3l-1.624-31.874a1 1 0 0 0-1.068-.95z" transform="translate(-127.142 -139.745)"/>
            <path id="Path_7317" data-name="Path 7317" d="m198.312 171.475-29.107 1.478-.879-3.446a.65.65 0 0 0-.662-.489l-14.717.749a.65.65 0 0 0-.611.552l-.524 3.517-4.14.213a1 1 0 0 0-.954 1.053l1.624 31.87a1 1 0 0 0 1.053.954l50.656-2.574A1 1 0 0 0 201 204.3l-1.624-31.874a1 1 0 0 0-1.068-.95z" transform="translate(-127.142 -139.745)" style="opacity:.2;fill:#fff"/>
            <path id="Rectangle_7824" data-name="Rectangle 7824" class="cls-4" transform="rotate(-2.91 626.858 -517.906)" d="M0 0h12.253v1.628H0z"/>
            <path id="Path_7318" data-name="Path 7318" class="cls-11" d="m154.08 199.27-30.037 7.368-1.51-3.217a.654.654 0 0 0-.757-.331l-14.311 3.517a.647.647 0 0 0-.493.658l.15 3.548-2.3.556a1 1 0 0 0-.737 1.214l7.617 30.991a1.009 1.009 0 0 0 1.218.737l49.241-12.1a1 1 0 0 0 .733-1.214l-7.609-30.987a1.009 1.009 0 0 0-1.205-.74z" transform="translate(-101.301 -158.054)"/>
            <path id="Path_7319" data-name="Path 7319" d="m154.08 199.27-30.037 7.368-1.51-3.217a.654.654 0 0 0-.757-.331l-14.311 3.517a.647.647 0 0 0-.493.658l.15 3.548-2.3.556a1 1 0 0 0-.737 1.214l7.617 30.991a1.009 1.009 0 0 0 1.218.737l49.241-12.1a1 1 0 0 0 .733-1.214l-7.609-30.987a1.009 1.009 0 0 0-1.205-.74z" transform="translate(-101.301 -158.054)" style="opacity:.1;fill:#fff"/>
            <path id="Rectangle_7825" data-name="Rectangle 7825" class="cls-4" transform="rotate(-13.83 207.54 -6.897)" d="M0 0h12.253v1.628H0z"/>
            <rect id="Rectangle_7826" data-name="Rectangle 7826" class="cls-11" width="52.714" height="33.921" rx="2.55" transform="rotate(-13.83 264.926 18.51)"/>
            <path id="Path_7320" data-name="Path 7320" class="cls-11" d="m125.532 240.717-15.71 3.86a.65.65 0 0 1-.788-.6l-.154-3.647a.647.647 0 0 1 .493-.658l14.311-3.517a.654.654 0 0 1 .745.355l1.553 3.3a.654.654 0 0 1-.449.911z" transform="translate(-104.222 -180.401)"/>
            <path id="Rectangle_7827" data-name="Rectangle 7827" class="cls-4" transform="rotate(-13.83 251.226 2.76)" d="M0 0h12.253v1.628H0z"/>
        </g>
    </g>
</svg>
