<svg xmlns="http://www.w3.org/2000/svg" width="36.241" height="36.26" viewBox="0 0 36.241 36.26">
  <defs>
    <style>
      .cls-1, .cls-2 {
        fill: #0d0c22;
      }

      .cls-1 {
        opacity: 0.1;
      }
    </style>
  </defs>
  <g id="Group_8480" data-name="Group 8480" transform="translate(-880 -381.24)">
    <path id="Path_7015" data-name="Path 7015" class="cls-1" d="M14.792,6.132c9.123,14.737,14.792.474,14.792,8.643A14.792,14.792,0,0,1,0,14.775C0,6.606,5.669-8.6,14.792,6.132Z" transform="matrix(0.966, 0.259, -0.259, 0.966, 887.652, 381.283)"/>
    <path id="Path_9163" data-name="Path 9163" class="cls-2" d="M20.946,8H7.868A1.868,1.868,0,0,0,6,9.868v11.21a1.868,1.868,0,0,0,1.868,1.868H20.946a1.874,1.874,0,0,0,1.868-1.868V9.868A1.868,1.868,0,0,0,20.946,8Zm0,13.078H7.868V11.737H20.946Z" transform="translate(885.845 382.767)"/>
  </g>
</svg>
