<svg xmlns="http://www.w3.org/2000/svg" width="121" height="121" viewBox="0 0 121 121">
    <defs>
        <filter id="6lbqnxhj2a" width="121" height="121" x="0" y="0" filterUnits="userSpaceOnUse">
            <feOffset dy="3"/>
            <feGaussianBlur result="blur" stdDeviation="18"/>
            <feFlood flood-color="#0a6dfb" flood-opacity=".18"/>
            <feComposite in2="blur" operator="in"/>
            <feComposite in="SourceGraphic"/>
        </filter>
    </defs>
    <g>
        <path fill="#202333" d="M26.231 23.828A.829.829 0 0 0 25.4 23h-4.364a.829.829 0 0 0-.832.829v12.448h6.026zm-2.162 8.085a.427.427 0 0 1-.427.427h-.854a.427.427 0 0 1-.424-.427v-6.171a.427.427 0 0 1 .424-.427h.854a.427.427 0 0 1 .427.427zm9.968-8.085a.829.829 0 0 0-.846-.828h-4.369a.829.829 0 0 0-.832.829v12.448h6.032zm-2.176 8.085a.427.427 0 0 1-.424.427h-.854a.427.427 0 0 1-.427-.427v-6.171a.427.427 0 0 1 .427-.427h.854a.427.427 0 0 1 .424.427zm4.366 5.411v1.054H18v-1.053z" transform="translate(-1695 -165) translate(1719 198)"/>
        <g filter="url(#6lbqnxhj2a)" transform="translate(-1695 -165) matrix(1, 0, 0, 1, 1695, 165)">
            <circle cx="6.5" cy="6.5" r="6.5" fill="#00ba53" opacity="0.8" transform="translate(54 51)"/>
        </g>
    </g>
</svg>
