<svg xmlns="http://www.w3.org/2000/svg" width="36.241" height="36.26">
    <g data-name="Group 8362">
        <path data-name="Path 7242" d="M14.792 6.132c9.123 14.737 14.792.474 14.792 8.643a14.792 14.792 0 0 1-29.584 0C0 6.606 5.669-8.6 14.792 6.132z" transform="rotate(14.98 3.65 29.07)" style="fill:#9e9ea7;opacity:.1"/>
        <g data-name="392531_account_friend_human_man_member_icon">
            <path data-name="Path 9126" d="M13.347 10.584a4.561 4.561 0 1 0-.975.821 6.814 6.814 0 0 1 4.395 5.816l-6.8-2.371c-4.339-1.163-5.828-1.035-4.483-2.208a.569.569 0 1 0-.747-.858A7.964 7.964 0 0 0 2 17.79a.569.569 0 0 0 .569.569h14.79a.568.568 0 0 0 .569-.569 7.949 7.949 0 0 0-4.581-7.206zM9.035 7.551c0-1.882-.954-3.413.929-3.413a3.413 3.413 0 0 1 0 6.826c-1.882 0-.929-1.531-.929-3.413z" style="fill:#92919b" transform="translate(9.241 5.793)"/>
        </g>
    </g>
</svg>
