<svg xmlns="http://www.w3.org/2000/svg" width="74" height="74" viewBox="0 0 74 74">
    <defs>
        <filter id="Rectangle_7697" width="74" height="74" x="0" y="0" filterUnits="userSpaceOnUse">
            <feOffset dy="3"/>
            <feGaussianBlur result="blur" stdDeviation="3"/>
            <feFlood flood-color="#456af8" flood-opacity=".18"/>
            <feComposite in2="blur" operator="in"/>
            <feComposite in="SourceGraphic"/>
        </filter>
        <style>
            .cls-2{fill:#ffdc00}.cls-3,.cls-4{stroke:none}.cls-4{fill:#000}
        </style>
    </defs>
    <g id="Group_8322" transform="translate(-905 -391)">
        <g filter="url(#Rectangle_7697)" transform="translate(905 391)">
            <rect id="Rectangle_7697-2" width="56" height="56" fill="#ffdc00" opacity="0.1" rx="4" transform="translate(9 6)"/>
        </g>
        <g id="_1015595" transform="translate(932.146 415.146)">
            <g id="Group_8079" transform="translate(5.846 3.523)">
                <g id="Group_8078">
                    <g id="Path_6980" class="cls-2">
                        <path d="M152.74 103.274c-.017 0-.033-.006-.048-.016-.031-.022-.042-.066-.024-.101l2.023-4.047.258-.515-.547-.183-2.849-.95c-.027-.008-.046-.03-.053-.058-.006-.026.002-.055.022-.075l5.807-5.807c.02-.02.041-.023.056-.023.013 0 .03.002.05.016.03.022.04.065.023.1l-2.023 4.047-.258.516.547.182 2.849.95c.027.009.047.03.053.058.006.026-.002.056-.022.075l-5.807 5.807c-.02.02-.041.024-.057.024z" class="cls-3" transform="translate(-150.998 -90.999)"/>
                        <path d="M155.855 93.703l-3.5 3.5 2.206.735 1.093.365-.515 1.03-.868 1.736 3.5-3.5-2.205-.735-1.094-.364.516-1.031.867-1.736m1.53-2.704c.119 0 .238.036.34.11.231.166.307.475.18.73l-2.023 4.047 2.849.95c.191.063.335.22.382.417.046.196-.013.401-.155.544l-5.807 5.807c-.113.112-.261.17-.41.17-.119 0-.238-.036-.34-.11-.231-.166-.307-.476-.18-.73l2.023-4.047-2.849-.95c-.19-.064-.335-.221-.381-.418-.046-.195.012-.401.154-.543l5.807-5.807c.112-.113.26-.17.41-.17z" class="cls-4" transform="translate(-150.998 -90.999)"/>
                    </g>
                </g>
            </g>
            <g id="Group_8081" transform="translate(1.161)">
                <g id="Group_8080">
                    <g id="Path_6981" class="cls-2">
                        <path d="M48.079 9.991c-.045 0-.08-.036-.08-.08 0-2.457-.967-4.776-2.72-6.53-1.755-1.754-4.073-2.72-6.53-2.72-2.922 0-5.711 1.421-7.46 3.801l-.634.862 1.067-.066 1.177-.074c.039 0 .082.03.085.076.002.028-.01.047-.02.058-.01.012-.028.026-.056.027l-2.318.144h-.005c-.038-.016-.085-.044-.085-.08V2.942c0-.044.036-.08.08-.08.045 0 .081.036.081.08v2.013l.883-1.051C32.42 2.862 33.532 2 34.762 1.413 36.012.816 37.392.5 38.749.5c2.5 0 4.858.983 6.643 2.767 1.785 1.785 2.767 4.144 2.767 6.643 0 .045-.036.081-.08.081zm-17.68-3.536c-.179-.07-.342-.285-.293-.547.043-.228.244-.4.47-.404l-.177.951z" class="cls-3" transform="translate(-30)"/>
                        <path d="M38.749 0c5.443 0 9.91 4.467 9.91 9.91 0 .321-.26.581-.58.581-.321 0-.58-.26-.58-.58 0-4.804-3.947-8.75-8.75-8.75-2.791 0-5.428 1.38-7.058 3.598l1.177-.074h.031c.303 0 .565.235.584.544.02.32-.223.596-.544.615l-2.323.145h-.035c.022.01.021.014.004.014-.086 0-.585-.131-.585-.594V2.942c0-.32.26-.58.58-.58.322 0 .581.26.581.58v.64C33.018 1.371 35.801 0 38.75 0z" class="cls-4" transform="translate(-30)"/>
                    </g>
                </g>
            </g>
            <g id="Group_8083" transform="translate(0 9.33)">
                <g id="Group_8082">
                    <g id="Path_6982" class="cls-2">
                        <path d="M9.91 250.991c-2.499 0-4.858-.983-6.643-2.767C1.483 246.439.5 244.08.5 241.58c0-.045.036-.081.08-.081.045 0 .081.036.081.08 0 2.457.966 4.776 2.72 6.53 1.754 1.754 4.073 2.72 6.53 2.72 2.921 0 5.71-1.421 7.46-3.801l.634-.862-1.068.067-1.176.073c-.04 0-.083-.035-.086-.076-.001-.027.01-.047.02-.058.01-.012.028-.026.056-.027l2.323-.144c.03 0 .085.055.085.08v2.467c0 .044-.036.08-.08.08-.045 0-.08-.036-.08-.08v-2.013l-.884 1.052c-.875 1.042-1.987 1.903-3.217 2.49-1.251.597-2.63.913-3.988.913z" class="cls-3" transform="translate(0 -241)"/>
                        <path d="M.58 241c.322 0 .581.26.581.58 0 4.804 3.946 8.75 8.75 8.75 2.79 0 5.428-1.38 7.057-3.597l-1.176.073h-.036c-.295 0-.56-.236-.58-.544-.02-.32.224-.596.544-.615l2.323-.144.028-.001c.3 0 .588.27.588.58v2.467c0 .32-.26.58-.58.58-.321 0-.58-.26-.58-.58v-.64c-1.858 2.211-4.641 3.582-7.589 3.582-5.443 0-9.91-4.467-9.91-9.91 0-.321.26-.581.58-.581z" class="cls-4" transform="translate(0 -241)"/>
                    </g>
                </g>
            </g>
        </g>
    </g>
</svg>
