<svg xmlns="http://www.w3.org/2000/svg" width="36.241" height="36.26" viewBox="0 0 36.241 36.26">
  <defs>
    <style>
      .cls-1 {
        fill: #b70076;
        opacity: 0.1;
      }

      .cls-2 {
        fill: #91527a;
      }

      .cls-3 {
        fill: #ff4e4e;
      }
    </style>
  </defs>
  <g id="Group_8229" data-name="Group 8229" transform="translate(-650.88 -795.848)">
    <path id="Path_7016" data-name="Path 7016" class="cls-1" d="M14.792,6.132c9.123,14.737,14.792.474,14.792,8.643A14.792,14.792,0,0,1,0,14.775C0,6.606,5.669-8.6,14.792,6.132Z" transform="matrix(0.966, 0.259, -0.259, 0.966, 658.532, 795.891)"/>
    <g id="Notification" transform="translate(652.36 799.813)">
      <path id="Path_8059" data-name="Path 8059" class="cls-2" d="M24.628,16.99a7.093,7.093,0,0,1-.885-3.4V10.912a4.7,4.7,0,0,0-3.491-4.375V5.728a1.913,1.913,0,0,0-3.808,0v.808a4.7,4.7,0,0,0-3.491,4.376v2.675a7.016,7.016,0,0,1-.224,1.749,7.272,7.272,0,0,1-.662,1.656.53.53,0,0,0,.03.559.652.652,0,0,0,.539.272H15.51a2.77,2.77,0,0,0,2.837,2.3,2.77,2.77,0,0,0,2.837-2.3H24.06a.652.652,0,0,0,.54-.273A.53.53,0,0,0,24.628,16.99ZM17.712,5.728A.579.579,0,0,1,18.1,5.2a.684.684,0,0,1,.691.121.557.557,0,0,1,.189.411v.585c-.106-.006-.212-.009-.317-.009H18.03q-.159,0-.317.009Zm.635,13.247a1.56,1.56,0,0,1-1.555-1.152H19.9a1.56,1.56,0,0,1-1.555,1.152Zm2.222-2.3H13.6a8.016,8.016,0,0,0,.619-3.084V10.912a3.572,3.572,0,0,1,2.99-3.377,4.257,4.257,0,0,1,.818-.079h.635a4.254,4.254,0,0,1,.817.079,3.573,3.573,0,0,1,2.991,3.377v2.675a8.094,8.094,0,0,0,.619,3.084Z"/>
    </g>
    <circle id="Ellipse_907" data-name="Ellipse 907" class="cls-3" cx="4" cy="4" r="4" transform="translate(671.88 804)"/>
  </g>
</svg>
