<svg xmlns="http://www.w3.org/2000/svg" width="74" height="74" viewBox="0 0 74 74">
    <defs>
        <filter id="Rectangle_7698" width="74" height="74" x="0" y="0" filterUnits="userSpaceOnUse">
            <feOffset dy="3"/>
            <feGaussianBlur result="blur" stdDeviation="3"/>
            <feFlood flood-color="#456af8" flood-opacity=".18"/>
            <feComposite in2="blur" operator="in"/>
            <feComposite in="SourceGraphic"/>
        </filter>
        <style>
            .cls-2{fill:#3be3f8}
        </style>
    </defs>
    <g id="Group_8321" transform="translate(-1129 -391)">
        <g filter="url(#Rectangle_7698)" transform="translate(1129 391)">
            <rect id="Rectangle_7698-2" width="56" height="56" fill="#3be3f8" opacity="0.1" rx="4" transform="translate(9 6)"/>
        </g>
        <g id="_2936730" transform="translate(1151.883 919.87)">
            <path id="Path_7189" d="M253.985-508.776a1.412 1.412 0 0 0-.63.664 11.734 11.734 0 0 0-.355 1.846 1.343 1.343 0 0 0 .884 1.154 1.623 1.623 0 0 0 1.019-.045c.411-.214.557-.433.861-1.306a2.591 2.591 0 0 0 .265-1.188 1.084 1.084 0 0 0-.681-1.024 1.772 1.772 0 0 0-1.363-.101zm.884.8a.387.387 0 0 1 .326.417 6.945 6.945 0 0 1-.546 1.565c-.22.248-.8.034-.8-.287a6.876 6.876 0 0 1 .377-1.649c.097-.115.333-.132.643-.047z" class="cls-2" transform="translate(-238.648)"/>
            <path id="Path_7190" d="M8.121-496.686a2.207 2.207 0 0 0-.957.619c-.118.135-.979 1.576-1.919 3.2l-1.706 2.955-.743.022a1.957 1.957 0 0 0-1.064.174 1.7 1.7 0 0 0-.788.788c-.118.214-.129.326-.146 1.317a4.773 4.773 0 0 0 .068 1.385 1.662 1.662 0 0 0 1.379 1.171l.332.062-.079.225a10.119 10.119 0 0 0 .002 2.678c.045.107.084.208.084.214a5.207 5.207 0 0 1-.63.039 1.683 1.683 0 0 0-.918.169 1.761 1.761 0 0 0-.766.777c-.124.236-.135.326-.152 1.334-.023 1.244.028 1.52.355 1.948a1.458 1.458 0 0 0 .58.445l.377.186-.1.281a8.5 8.5 0 0 0-.011 2.589c.045.124.1.265.113.31s-.045.124-.174.2a1.866 1.866 0 0 0-.782.951 4.189 4.189 0 0 0-.079 1.4c.017.963.028 1.115.135 1.345a1.776 1.776 0 0 0 .833.816l.287.135h14.136l.281-.135a1.8 1.8 0 0 0 .715-.585l.084-.124.467.2a8.579 8.579 0 0 0 2.01.569 10.268 10.268 0 0 0 3.006-.084 8.4 8.4 0 0 0 6.445-6.648 10.452 10.452 0 0 0-.023-3.135 8.664 8.664 0 0 0-1.9-3.833c-.27-.3-.349-.349-.512-.349a.4.4 0 0 0-.417.388c0 .113.107.287.388.625a7.478 7.478 0 0 1 1.013 8.021 7.54 7.54 0 0 1-5.511 4.165 9.6 9.6 0 0 1-2.477 0 7.532 7.532 0 0 1-6.192-6.456 7.526 7.526 0 0 1 5.7-8.207 7.564 7.564 0 0 1 5.6.872 2.551 2.551 0 0 0 .636.31.513.513 0 0 0 .4-.394c0-.2-.1-.326-.439-.546a9.1 9.1 0 0 0-2.747-1.115 8.213 8.213 0 0 0-3.135-.045c-.591.09-.6.09-.732-.023a1.338 1.338 0 0 0-.839-.338.867.867 0 0 1-.326-.068 2.3 2.3 0 0 1 .084-.259 9.577 9.577 0 0 0 0-2.6 1.8 1.8 0 0 0-.839-.963c-.276-.146-.321-.152-1.413-.169l-1.126-.022-1.719-3.001c-1.852-3.22-1.97-3.383-2.572-3.676a1.73 1.73 0 0 0-.833-.174 2.4 2.4 0 0 0-.744.064zm1.193.872a1.556 1.556 0 0 1 .4.293c.208.22 3.777 6.383 3.9 6.721a1.345 1.345 0 0 1-.692 1.565c-.191.107-.338.124-1.041.141-.732.017-.827.034-.94.141l-.129.113v6.834l-.129.191c-.22.321-.259.332-1.914.332-1.621 0-1.751-.023-1.908-.3a28.982 28.982 0 0 1-.1-3.6l-.028-3.484-.135-.107c-.113-.09-.225-.107-.822-.107a5.7 5.7 0 0 1-.979-.068c-.242-.051-.3-.051-.422.034a.411.411 0 0 0-.152.518c.1.214.411.315 1.092.349l.608.028-.017.174-.017.174H4.04c-1.779 0-1.846-.006-2-.118a1.466 1.466 0 0 1-.281-.3c-.124-.174-.129-.242-.129-1.137 0-1.07.045-1.244.36-1.469a1.019 1.019 0 0 1 .625-.141l.45-.023v.591c0 .681.073.827.405.827.315 0 .411-.152.411-.647a1.982 1.982 0 0 1 .079-.608c.118-.287 3.631-6.349 3.8-6.569a1.369 1.369 0 0 1 1.555-.347zm6.935 6.907c.31.225.355.405.355 1.447 0 1.081-.045 1.25-.388 1.458-.2.13-.231.13-2.381.146l-2.184.017v-.4h.439a2.331 2.331 0 0 0 1.8-.681 2.188 2.188 0 0 0 .591-1.824l-.056-.315.833.017c.742.017.851.029.991.135zm-10.34 5.483v1.576H4.9c-1.1 0-1.193-.022-1.464-.31-.141-.146-.141-.169-.158-1.21-.023-1.188.011-1.317.343-1.52.163-.1.287-.113 1.238-.113h1.05zm11.027-1.317a10.383 10.383 0 0 0-1.008.574 10.447 10.447 0 0 0-2 1.919l-.281.394h-1l-1 .006V-485h5.82zM5.909-480.4a1.568 1.568 0 0 0 .146.9 1.786 1.786 0 0 0 .372.484c.405.349.552.372 2.375.372 1.6 0 1.644-.006 1.919-.135a1.6 1.6 0 0 0 .771-.732 1.921 1.921 0 0 0 .146-.867l.028-.63h.721a6.191 6.191 0 0 1 .726.023c0 .011-.1.276-.231.591a8.765 8.765 0 0 0-.529 1.948 4.438 4.438 0 0 1-.062.462l-.023.129h-10.8l-.191-.169c-.3-.265-.332-.383-.31-1.48.017-.895.028-1 .135-1.148.259-.348.281-.348 2.657-.348h2.15zm6.389 3.822a9.292 9.292 0 0 0 .675 2.674c.039.1-.225.1-5.1.1-4.785 0-5.156-.006-5.336-.1-.394-.2-.428-.293-.445-1.424-.017-.946-.011-1.019.1-1.221a.735.735 0 0 1 .563-.411c.109-.019 2.293-.04 4.845-.04l4.655-.006zm1.492 4.087a10.2 10.2 0 0 0 1.869 1.925 2.465 2.465 0 0 1 .439.366.854.854 0 0 1-.2.22l-.2.174-7-.011-7-.017-.18-.166c-.253-.242-.293-.45-.27-1.5s.056-1.154.445-1.351c.18-.1.58-.1 5.989-.1l5.8.006z" class="cls-2" transform="translate(0 -11.438)"/>
            <path id="Path_7191" d="M325.821-463.827a1.616 1.616 0 0 0-.338.158 9.851 9.851 0 0 0-1.351 1.542 1.455 1.455 0 0 0 .017 1.1 1.375 1.375 0 0 0 1.458.749c.326-.079.518-.208 1.244-.856s.884-1.019.72-1.6a1.992 1.992 0 0 0-1.075-1.075 1.068 1.068 0 0 0-.675-.018zm.687.991c.428.388.388.546-.321 1.16-.692.6-.766.636-.979.546a.488.488 0 0 1-.332-.473c0-.135.107-.293.5-.743.665-.778.766-.823 1.132-.49z" class="cls-2" transform="translate(-305.682 -42.461)"/>
            <path id="Path_7192" d="M366.458-382.672c-.388.135-.777.281-.873.332a1.311 1.311 0 0 0-.315 2.015 1.2 1.2 0 0 0 .918.445 8.83 8.83 0 0 0 1.03-.146c.918-.18 1.2-.332 1.43-.777a1.585 1.585 0 0 0-.63-2c-.372-.179-.738-.151-1.56.131zm1.238.653a.923.923 0 0 1 .22.8c-.079.18-.208.231-.946.372-.788.158-.929.152-1.07-.028a.557.557 0 0 1-.039-.614 6.1 6.1 0 0 1 1.57-.585.616.616 0 0 1 .269.055z" class="cls-2" transform="translate(-344.281 -118.865)"/>
            <path id="Path_7193" d="M267.195-252.821a5.67 5.67 0 0 0-.844.225 5.805 5.805 0 0 0-3.721 4 4.215 4.215 0 0 0-.129 1.43 4.573 4.573 0 0 0 .563 2.561 5.717 5.717 0 0 0 3.963 3.1 5.725 5.725 0 0 0 5.252-1.576 5.773 5.773 0 0 0 1.486-2.533 3.889 3.889 0 0 0 .158-1.492 4.546 4.546 0 0 0-.557-2.561 5.721 5.721 0 0 0-5.229-3.231 6.075 6.075 0 0 0-.942.077zm2.285.923a4.964 4.964 0 0 1 3.411 3.265 5.378 5.378 0 0 1 .146 2.4 5 5 0 0 1-3.631 3.861 5.605 5.605 0 0 1-2.37 0 4.934 4.934 0 0 1-2.409-1.435 4.7 4.7 0 0 1-1.086-1.829 3.4 3.4 0 0 1-.214-1.283 4.766 4.766 0 0 1 .073-1.21 4.944 4.944 0 0 1 3.8-3.828 5.569 5.569 0 0 1 2.28.057z" class="cls-2" transform="translate(-247.613 -241.557)"/>
            <path id="Path_7194" d="M325.421-222.835a.654.654 0 0 0-.135.405l-.017.276-.259.062a1.7 1.7 0 0 0-1.334 1.554 1 1 0 0 0 .141.67 1.687 1.687 0 0 0 1.008.822l.445.191.017 1.193.011 1.193-.293-.039a2.9 2.9 0 0 1-.659-.2 1.735 1.735 0 0 0-.478-.169.422.422 0 0 0-.372.585c.09.236.839.557 1.464.63l.338.039v.3c0 .253.023.315.146.411a.324.324 0 0 0 .433.056c.18-.079.265-.276.265-.58 0-.236.006-.248.214-.276a2.245 2.245 0 0 0 1.486-1.148 1.588 1.588 0 0 0-.343-1.948 2.321 2.321 0 0 0-.963-.518l-.366-.124-.017-.94-.011-.946.152.034a2.74 2.74 0 0 1 .428.174c.36.186.563.18.709-.006.236-.3.129-.535-.349-.76a3.772 3.772 0 0 0-.636-.225l-.293-.068-.028-.281a.5.5 0 0 0-.152-.388.4.4 0 0 0-.552.021zm-.124 2.3a2.024 2.024 0 0 1-.056.732 1.688 1.688 0 0 1-.675-.388.774.774 0 0 1 .394-.968c.34-.184.34-.184.34.621zm1.267 2.111a1.087 1.087 0 0 1 .6.574 1.153 1.153 0 0 1-.889 1.283l-.129.034v-2.038l.129.039a2.4 2.4 0 0 1 .289.104z" class="cls-2" transform="translate(-305.147 -269.82)"/>
        </g>
    </g>
</svg>
