<svg xmlns="http://www.w3.org/2000/svg" width="10.031" height="17.378" viewBox="0 0 10.031 17.378">
    <g fill-rule="evenodd">
        <path fill="#adcfff" d="M5.015 17.378a5.028 5.028 0 0 1-2.682-9.272V2.624A2.651 2.651 0 0 1 4.957 0a2.651 2.651 0 0 1 2.624 2.624v5.365A5.071 5.071 0 0 1 10.03 12.3a4.991 4.991 0 0 1-5.015 5.078zm1.575-8.4l-.117-6.062c0-.7-.816-1.225-1.516-1.225A1.409 1.409 0 0 0 3.5 2.916v6.123a3.71 3.71 0 0 0-2.1 3.324 3.674 3.674 0 1 0 5.19-3.382zM5.015 15.1a2.738 2.738 0 0 1-2.741-2.741A2.779 2.779 0 0 1 4.082 9.8V4.665h1.75V9.8a2.694 2.694 0 0 1 1.924 2.566A2.738 2.738 0 0 1 5.015 15.1z" transform="translate(-990.926 -213.8) translate(990.925 213.8)"/>
        <path fill="#2800a0" d="M4.861 14.787a2.738 2.738 0 0 1-2.741-2.74 2.779 2.779 0 0 1 1.808-2.566V4.349h1.749v5.132A2.694 2.694 0 0 1 7.6 12.047a2.738 2.738 0 0 1-2.739 2.74z" transform="translate(-990.926 -213.8) translate(991.08 214.116)"/>
    </g>
</svg>
