<svg xmlns="http://www.w3.org/2000/svg" width="36.241" height="36.26" viewBox="0 0 36.241 36.26">
  <defs>
    <style>
      .cls-1, .cls-2 {
        fill: #0d0c22;
      }

      .cls-1 {
        opacity: 0.1;
      }
    </style>
  </defs>
  <g id="Group_8479" data-name="Group 8479" transform="translate(-880 -381.24)">
    <path id="Path_7015" data-name="Path 7015" class="cls-1" d="M14.792,6.132c9.123,14.737,14.792.474,14.792,8.643A14.792,14.792,0,0,1,0,14.775C0,6.606,5.669-8.6,14.792,6.132Z" transform="matrix(0.966, 0.259, -0.259, 0.966, 887.652, 381.283)"/>
    <g id="_216130_area_chart_icon" data-name="216130_area_chart_icon" transform="translate(889 385.24)">
      <g id="Group_8482" data-name="Group 8482">
        <g id="Group_8481" data-name="Group 8481">
          <path id="Path_9159" data-name="Path 9159" class="cls-2" d="M20,17H4a1,1,0,0,1-1-1V13a3,3,0,0,1,.658-1.874l4-5A3.066,3.066,0,0,1,11.8,5.6l1.674,1.254L15.66,4.127A3,3,0,0,1,21,6V16A1,1,0,0,1,20,17ZM5,15H19V6a1,1,0,0,0-1.781-.624L14.43,8.861a1,1,0,0,1-1.381.176L10.6,7.2a1.021,1.021,0,0,0-1.381.176l-4,5A.993.993,0,0,0,5,13Z"/>
        </g>
      </g>
      <g id="Group_8483" data-name="Group 8483">
        <path id="Path_9160" data-name="Path 9160" class="cls-2" d="M20,21H4a1,1,0,0,1,0-2H20a1,1,0,0,1,0,2Z"/>
      </g>
    </g>
  </g>
</svg>
