<svg xmlns="http://www.w3.org/2000/svg" width="40" height="40" viewBox="0 0 40 40">
    <defs>
        <style>
            .cls-3{stroke:none}
        </style>
    </defs>
    <g id="Group_8311" transform="translate(-616 -254)">
        <g id="Ellipse_757" fill="#fff" stroke="#f3f3f4" transform="translate(616 254)">
            <circle cx="20" cy="20" r="20" class="cls-3"/>
            <circle cx="20" cy="20" r="19.5" fill="none"/>
        </g>
        <g id="Union_21" fill="none" stroke-linecap="round" stroke-linejoin="round">
            <path fill="#0d0c22" d="M-6676.001-4478.001V-4484h6.001-6.001v-6V-4478.001m0-5.999H-6682h5.999m0 6.999c-.552 0-1-.448-1-1V-4483H-6682c-.552 0-1-.448-1-1s.448-1 1-1h4.999v-5c0-.553.448-1 1-1s1 .447 1 1v5h5.001c.552 0 1 .448 1 1s-.448 1-1 1h-5.001v4.999c0 .552-.448 1-1 1z" transform="translate(7312.5 4758.5)"/>
        </g>
    </g>
</svg>
