<svg xmlns="http://www.w3.org/2000/svg" width="74" height="74" viewBox="0 0 74 74">
    <defs>
        <filter id="Rectangle_7699" width="74" height="74" x="0" y="0" filterUnits="userSpaceOnUse">
            <feOffset dy="3"/>
            <feGaussianBlur result="blur" stdDeviation="3"/>
            <feFlood flood-color="#456af8" flood-opacity=".18"/>
            <feComposite in2="blur" operator="in"/>
            <feComposite in="SourceGraphic"/>
        </filter>
        <style>
            .cls-2{fill:#00bc0e}
        </style>
    </defs>
    <g id="Group_8320" transform="translate(-1353 -391)">
        <g filter="url(#Rectangle_7699)" transform="translate(1353 391)">
            <rect id="Rectangle_7699-2" width="56" height="56" fill="#00bc0e" opacity="0.1" rx="4" transform="translate(9 6)"/>
        </g>
        <g id="Outline" transform="translate(1358.068 394.08)">
            <path id="Path_7195" d="M121.008 193.008H132.1V203.6h1.008v-11.1a.5.5 0 0 0-.5-.5H120.5a.5.5 0 0 0-.5.5v8.57h1.008z" class="cls-2" transform="translate(-97.446 -165.585)"/>
            <path id="Path_7196" d="M175.058 236.033h-1.008v-1.512a.5.5 0 0 0-.5-.5h-1.512V232.5a.5.5 0 0 0-.5-.5h-2.017a.5.5 0 0 0-.5.5v3.529H168v1.008h7.058zm-2.017-1.008v1.008h-1.008v-1.008zm-3.025-2.017h1.008v3.025h-1.008z" class="cls-2" transform="translate(-142.421 -203.064)"/>
            <path id="Path_7197" d="M37.553 346.576a1.8 1.8 0 0 0-1.414 0l-3.259 1.384a1.765 1.765 0 0 0-1.755-1.946h-3.911a2.562 2.562 0 0 1-1.139-.269 11.838 11.838 0 0 0-5.267-1.243h-1.279a.5.5 0 0 0-.5-.5H16v1.008h2.521v6.05H16v1.008h3.025a.5.5 0 0 0 .5-.5v-.192l3.764 1.563a8.724 8.724 0 0 0 6.416.071l7.788-2.97a1.834 1.834 0 0 0 1.03-.981 1.866 1.866 0 0 0 .03-1.447 1.835 1.835 0 0 0-1-1.036zm.051 2.069a.833.833 0 0 1-.466.447l-7.788 2.97a7.716 7.716 0 0 1-5.674-.062l-4.147-1.722v-4.766h1.278a10.825 10.825 0 0 1 4.816 1.137 3.575 3.575 0 0 0 1.59.375h3.911a.756.756 0 1 1 .03 1.511h-6.08v1.008H31.224a3.116 3.116 0 0 0 1.089-.246l4.214-1.79a.8.8 0 0 1 .63 0 .834.834 0 0 1 .455.469.865.865 0 0 1-.012.67z" class="cls-2" transform="translate(0 -308.006)"/>
            <path id="Path_7198" d="M309.058 26.716l-3.375-5.485v-1.706l1.412-1.882a.5.5 0 0 0 .1-.3 2.062 2.062 0 0 0-2.984-1.844l-1.553.777-1.558-.776a2.062 2.062 0 0 0-2.984 1.844.5.5 0 0 0 .1.3l1.412 1.882v1.706l-2.446 3.975.859.528 2.373-3.856h4.486l3.3 5.367a3.425 3.425 0 0 1-2.917 5.22h-5.145v1.008h5.145a4.433 4.433 0 0 0 3.776-6.757zm-9.43-10.272a1.047 1.047 0 0 1 1.025-.046l1.779.889a.5.5 0 0 0 .451 0l1.779-.889a1.054 1.054 0 0 1 1.514.789l-1.249 1.666h-4.537l-1.249-1.666a1.046 1.046 0 0 1 .489-.743zm5.046 4.425h-4.033v-1.008h4.033z" class="cls-2" transform="translate(-263.467)"/>
            <path id="Path_7199" d="M360 164.033v.074a1.442 1.442 0 0 0 1.008 1.373v.57h1.008v-.57a1.439 1.439 0 0 0 .213-2.66l-.983-.492a.431.431 0 0 1 .192-.816h.147a.431.431 0 0 1 .431.431v.074h1.008v-.074a1.442 1.442 0 0 0-1.008-1.373V160h-1.008v.57a1.439 1.439 0 0 0-.213 2.66l.983.492a.431.431 0 0 1-.192.816h-.147a.431.431 0 0 1-.431-.431v-.074z" class="cls-2" transform="translate(-322.322 -135.601)"/>
            <path id="Rectangle_7598" d="M0 0H1.008V1.008H0z" class="cls-2" transform="translate(41.711 26.919)"/>
            <path id="Rectangle_7599" d="M0 0H1.008V1.008H0z" class="cls-2" transform="translate(25.075 35.49)"/>
            <path id="Rectangle_7600" d="M0 0H6.05V1.008H0z" class="cls-2" transform="translate(27.091 35.49)"/>
            <path id="Path_7200" d="M184.659 26.7l-.619 1.856.957.319.957-2.87a.5.5 0 0 0-.319-.638l-2.87-.957-.319.957 1.563.521a10.676 10.676 0 0 0-5.43 5.882l.945.353a9.658 9.658 0 0 1 5.135-5.423z" class="cls-2" transform="translate(-152.335 -8.556)"/>
            <path id="Path_7201" d="M171.069 158.261l-.976-.251a10.574 10.574 0 0 0-.215 1.059l1 .15a9.587 9.587 0 0 1 .191-.958z" class="cls-2" transform="translate(-144.18 -133.737)"/>
            <path id="Path_7202" d="M342.408 316.2l.2.988a10.576 10.576 0 0 0 4.886-2.435l-.667-.756a9.567 9.567 0 0 1-4.419 2.203z" class="cls-2" transform="translate(-305.839 -279.897)"/>
        </g>
    </g>
</svg>
