<svg xmlns="http://www.w3.org/2000/svg" width="24" height="24" viewBox="0 0 24 24">
    <g transform="translate(-1787 -501)">
        <circle cx="12" cy="12" r="12" fill="#00ba57" transform="translate(1787 501)"/>
        <g fill="none" stroke-linecap="round" stroke-linejoin="round">
            <path fill="#fff" d="M-8568-3890v5-5m-5.001 5h5.001-5.001m5.001 0h5-5m0 0v5-5m0-6c.553 0 1 .447 1 1v4h4c.553 0 1 .447 1 1 0 .552-.447 1-1 1h-4v4c0 .552-.447 1-1 1-.553 0-1-.448-1-1v-4h-4.001c-.553 0-1-.448-1-1 0-.553.447-1 1-1h4.001v-4c0-.553.447-1 1-1z" transform="translate(10367 4398)"/>
        </g>
    </g>
</svg>
