<svg xmlns="http://www.w3.org/2000/svg" width="36.241" height="36.26" viewBox="0 0 36.241 36.26">
    <g>
        <path fill="#9e9ea7" d="M14.792 6.132c9.123 14.737 14.792.474 14.792 8.643a14.792 14.792 0 0 1-29.584 0C0 6.606 5.669-8.6 14.792 6.132z" opacity="0.1" transform="translate(-1621.88 -166.848) rotate(14.98 178.486 6268.199)"/>
        <path fill="#92919b" d="M26.231 23.828A.829.829 0 0 0 25.4 23h-4.364a.829.829 0 0 0-.832.829v12.448h6.026zm-2.162 8.085a.427.427 0 0 1-.427.427h-.854a.427.427 0 0 1-.424-.427v-6.171a.427.427 0 0 1 .424-.427h.854a.427.427 0 0 1 .427.427zm9.968-8.085a.829.829 0 0 0-.846-.828h-4.369a.829.829 0 0 0-.832.829v12.448h6.032zm-2.176 8.085a.427.427 0 0 1-.424.427h-.854a.427.427 0 0 1-.427-.427v-6.171a.427.427 0 0 1 .427-.427h.854a.427.427 0 0 1 .424.427zm4.366 5.411v1.054H18v-1.053z" transform="translate(-1621.88 -166.848) translate(1613 153)"/>
    </g>
</svg>
