<svg xmlns="http://www.w3.org/2000/svg" width="24" height="22.447">
    <path d="M2.978 8.358 0 5.74 8.707 1l3.341 2.345L15.258 1 24 5.639l-3.014 2.68.014.008 3 4.115-2.758 1.551v4.2L11.9 23.447 2.668 18.2v-4.321L4 14.627V17.6l7.236 3.732-.131-7.8L9 17.345l-9-4.893zm9.632 5.169.185 7.8L20 17.6v-2.979l-5 2.724-2.39-3.818zm-10-1.418 6.1 3.128 1.1-1.872-5.97-2.88-1.235 1.624zm11.448 1.109 1.467 2.193 6.405-3.243-1.491-2.107-6.381 3.157zM4.846 9.194l7.2-4.365 7.373 4.06-7.369 3.676zM2.385 5.848l1.948 1.935 6.295-3.9-1.921-1.411zm11.007-1.7 6.375 3.24 2.159-1.543-6.338-3.373z" transform="translate(0 -1)" style="fill:black;fill-rule:evenodd;opacity:.6"/>
</svg>
