<svg xmlns="http://www.w3.org/2000/svg" id="iconfinder_Calendar_728916" width="10.02" height="10.688" viewBox="0 0 10.02 10.688">
    <defs>
        <style>
            .cls-1{fill:#c2bedf}
        </style>
    </defs>
    <g id="Group_8">
        <g id="Group_7">
            <path id="Path_15" d="M12.684.668h-.668V.334a.334.334 0 1 0-.668 0v.334h-.668V.334a.334.334 0 0 0-.668 0v.334h-.668V.334a.334.334 0 1 0-.668 0v.334h-.668V.334a.334.334 0 0 0-.668 0v.334h-.668V.334a.334.334 0 1 0-.672 0v.334h-.664A1.336 1.336 0 0 0 4 2v7.352a1.336 1.336 0 0 0 1.336 1.336h7.348a1.336 1.336 0 0 0 1.336-1.336V2A1.336 1.336 0 0 0 12.684.668zm.668 8.684a.669.669 0 0 1-.668.668H5.336a.669.669 0 0 1-.668-.668V2a.668.668 0 0 1 .668-.668H6v.338a.334.334 0 1 0 .668 0v-.334h.672v.334a.334.334 0 0 0 .668 0v-.334h.668v.334a.334.334 0 1 0 .668 0v-.334h.668v.334a.334.334 0 0 0 .668 0v-.334h.668v.334a.334.334 0 1 0 .668 0v-.334h.668a.669.669 0 0 1 .668.664z" class="cls-1" transform="translate(-4)"/>
        </g>
    </g>
    <path id="Path_16" d="M20 40v6.012h7.348V40zm5.344.668v.668h-.668v-.668zm-2.672 2H22V42h.668zM23.34 42h.668v.668h-.668zm-.668 1.336v.668H22v-.664zm.668 0h.668v.668h-.668zm1.336 0h.668v.668h-.668zm0-.668V42h.668v.668zm-.668-2v.668h-.668v-.668zm-1.336 0v.668H22v-.668zm-2 0h.668v.668h-.668zm0 1.336h.668v.668h-.668zm0 1.336h.668v.668h-.668zm0 2v-.668h.668v.668zm1.336 0v-.668h.668v.668zm1.336 0v-.668h.668v.668zm1.336 0v-.668h.668v.668zm2 0h-.668v-.668h.668zm0-1.336h-.668v-.664h.668zm0-1.336h-.668V42h.668zm0-1.336h-.668v-.668h.668z" class="cls-1" transform="translate(-18.664 -36.66)"/>
</svg>
