<svg xmlns="http://www.w3.org/2000/svg" width="24.001" height="24">
    <path d="M21.62 20.2a4.966 4.966 0 0 0 .38-7.188V6.066L11 0 0 6v12.131L11 24l5.468-2.917a4.883 4.883 0 0 0 4.336-.309L23.2 24l.8-.6-2.38-3.2zM10.5 21.9l-8.9-4.783V8.859l8.9 4.562zm2-.306v-8.562l4.067-2.608.029.015.021-.04L21 8.143v4.039a5.013 5.013 0 0 0-5.579 8.325zm5.833-1.149a4.025 4.025 0 1 1 4.025-4.026 4.031 4.031 0 0 1-4.025 4.026zm-.364-3.333-1.307-1.142-.66.751 2.029 1.779L21 15.383l-.725-.689-2.3 2.423zM2.165 6.673 6.417 4.44l8.17 4.117-4.087 1.882-8.335-3.766zm9.165-4.46 7.682 4.133L16 7.789 8.035 3.841l3.295-1.628z" transform="translate(.001)" style="fill:#acacac;fill-rule:evenodd"/>
</svg>
