<svg xmlns="http://www.w3.org/2000/svg" width="9.317" height="17.441" viewBox="0 0 9.317 17.441">
    <defs>
        <style>
            .cls-1{fill:#68666e}
        </style>
    </defs>
    <g id="Icons" transform="translate(-19.341 -18.241)">
        <g id="Group_7651">
            <ellipse id="Ellipse_189" cx="2.933" cy=".943" class="cls-1" rx="2.933" ry=".943" transform="translate(21.067 33.796)"/>
            <g id="Group_7650" transform="translate(2.146 5.922)">
                <path id="Path_6264" d="M21.857 12.318A4.659 4.659 0 0 0 17.2 16.98c0 .1.007.192.014.288a4.325 4.325 0 0 0 .212 1.136 4.151 4.151 0 0 0 .486 1.027c.014.021.144.205.342.507l.007.007c.89 1.342 3.238 4.854 3.252 4.874a.416.416 0 0 0 .692 0 .149.149 0 0 1 .027-.034c.048-.075 3.5-5.244 3.608-5.4.027-.048.062-.1.089-.144a4.124 4.124 0 0 0 .418-1 4.669 4.669 0 0 0-4.484-5.922zm.116 7.024a1.863 1.863 0 1 1 1.739-1.978 1.872 1.872 0 0 1-1.739 1.978z" class="cls-1"/>
                <path id="Path_6265" d="M18.553 16.724s1.553-3.765 5.447-3.489c0 0 1.152-.006 1.151.548 0 .654-1.151.456-1.151.456a6.154 6.154 0 0 0-5.447 2.485z" class="cls-1"/>
            </g>
        </g>
    </g>
</svg>
