<svg xmlns="http://www.w3.org/2000/svg" width="18.227" height="15.379" viewBox="0 0 18.227 15.379">
    <path fill="#202333" d="M26.231 23.828A.829.829 0 0 0 25.4 23h-4.364a.829.829 0 0 0-.832.829v12.448h6.026zm-2.162 8.085a.427.427 0 0 1-.427.427h-.854a.427.427 0 0 1-.424-.427v-6.171a.427.427 0 0 1 .424-.427h.854a.427.427 0 0 1 .427.427zm9.968-8.085a.829.829 0 0 0-.846-.828h-4.369a.829.829 0 0 0-.832.829v12.448h6.032zm-2.176 8.085a.427.427 0 0 1-.424.427h-.854a.427.427 0 0 1-.427-.427v-6.171a.427.427 0 0 1 .427-.427h.854a.427.427 0 0 1 .424.427zm4.366 5.411v1.054H18v-1.053z" transform="translate(-18 -22.999)"/>
</svg>
