<svg xmlns="http://www.w3.org/2000/svg" width="18" height="18" viewBox="0 0 18 18">
    <defs>
        <style>
            .cls-1{fill:#9e9ea7;fill-rule:evenodd}
        </style>
    </defs>
    <g id="iconfinder_Icon_filter_hor_outline_6637739_2_" transform="rotate(-90 9 12)">
        <path id="Path_6848" d="M16 5a1 1 0 1 0 1 1 1 1 0 0 0-1-1zm-3 1a3 3 0 1 1 3 3 3 3 0 0 1-3-3z" class="cls-1"/>
        <path id="Path_6849" d="M8 11a1 1 0 1 0 1 1 1 1 0 0 0-1-1zm-3 1a3 3 0 1 1 3 3 3 3 0 0 1-3-3z" class="cls-1"/>
        <path id="Path_6850" d="M16 17a1 1 0 1 0 1 1 1 1 0 0 0-1-1zm-3 1a3 3 0 1 1 3 3 3 3 0 0 1-3-3z" class="cls-1"/>
        <path id="Path_6851" d="M3 6a1 1 0 0 1 1-1h10a1 1 0 0 1 0 2H4a1 1 0 0 1-1-1z" class="cls-1"/>
        <path id="Path_6852" d="M9 12a1 1 0 0 1 1-1h10a1 1 0 0 1 0 2H10a1 1 0 0 1-1-1z" class="cls-1"/>
        <path id="Path_6853" d="M3 12a1 1 0 0 1 1-1h2a1 1 0 0 1 0 2H4a1 1 0 0 1-1-1z" class="cls-1"/>
        <path id="Path_6854" d="M17 6a1 1 0 0 1 1-1h2a1 1 0 0 1 0 2h-2a1 1 0 0 1-1-1z" class="cls-1"/>
        <path id="Path_6855" d="M17 18a1 1 0 0 1 1-1h2a1 1 0 0 1 0 2h-2a1 1 0 0 1-1-1z" class="cls-1"/>
        <path id="Path_6856" d="M3 18a1 1 0 0 1 1-1h10a1 1 0 0 1 0 2H4a1 1 0 0 1-1-1z" class="cls-1"/>
    </g>
</svg>
