<svg xmlns="http://www.w3.org/2000/svg" width="33.639" height="33.49" viewBox="0 0 33.639 33.49">
    <defs>
        <style>
            .cls-1{fill:#394550}
        </style>
    </defs>
    <g id="_3320987" transform="translate(0 -1.13)">
        <path id="Path_7039" d="M27.411 118.839h-3.17V93.832a1.484 1.484 0 0 0-1.483-1.483H5.4a1.484 1.484 0 0 0-1.483 1.483v25.007H2.076a1.089 1.089 0 0 1-1.087-1.087V96.018a.494.494 0 1 0-.988 0v21.733a2.078 2.078 0 0 0 2.076 2.076h25.334a.494.494 0 0 0 0-.988zm-4.158-25.007v25.007h-8.682v-25.5h8.188a.5.5 0 0 1 .494.493zm-18.352 0a.5.5 0 0 1 .494-.494h8.187v25.5H4.9z" class="cls-1" transform="translate(0 -85.208)"/>
        <path id="Path_7040" d="M31.563 1.13H2.076A2.078 2.078 0 0 0 0 3.206V8.5a.494.494 0 1 0 .988 0V3.2a1.089 1.089 0 0 1 1.088-1.082h29.487a1.089 1.089 0 0 1 1.087 1.088v29.338a1.089 1.089 0 0 1-1.087 1.087h-1.846a.494.494 0 1 0 0 .988h1.846a2.078 2.078 0 0 0 2.076-2.076V3.206a2.078 2.078 0 0 0-2.076-2.076z" class="cls-1"/>
        <path id="Path_7041" d="M122.046 31.417a.825.825 0 0 0 .824-.824V28.83a.825.825 0 0 0-.824-.824h-12.128a.825.825 0 0 0-.824.824v1.764a.825.825 0 0 0 .824.824zm-11.963-2.423h11.8v1.434h-11.8z" class="cls-1" transform="translate(-101.905 -25.105)"/>
        <path id="Path_7042" d="M399.92 198.8h3.052a.732.732 0 0 0 .634-1.1l-1.526-2.643a.732.732 0 0 0-1.268 0l-1.526 2.643a.732.732 0 0 0 .634 1.1zm1.526-2.863l1.082 1.875h-2.165z" class="cls-1" transform="translate(-372.882 -180.805)"/>
        <path id="Path_7043" d="M403.606 293.705a.734.734 0 0 0-.634-.366h-3.052a.732.732 0 0 0-.634 1.1l1.526 2.643a.732.732 0 0 0 1.268 0l1.526-2.643a.734.734 0 0 0 0-.734zm-2.16 2.5l-1.082-1.875h2.165z" class="cls-1" transform="translate(-372.882 -272.953)"/>
    </g>
</svg>
