<svg xmlns="http://www.w3.org/2000/svg" id="_1483336" width="16" height="16" viewBox="0 0 16 16">
    <defs>
        <style>
            .cls-2{fill:#c2bedf}
        </style>
    </defs>
    <g id="Group_8123" opacity="0.2" transform="translate(0 10.721)">
        <g id="Group_8121" transform="translate(0 0.705)">
            <path id="Path_6563" d="M8 361.689a18.64 18.64 0 0 1-5.476-.732C.438 360.288 0 359.43 0 358.828c0-.785.742-1.335 1.365-1.658a.483.483 0 0 1 .637.175.431.431 0 0 1-.185.6c-.558.29-.879.611-.879.882 0 .331.5.844 1.888 1.29A17.642 17.642 0 0 0 8 360.8a17.642 17.642 0 0 0 5.175-.685c1.392-.447 1.888-.96 1.888-1.29 0-.27-.32-.592-.879-.882a.431.431 0 0 1-.185-.6.483.483 0 0 1 .637-.175c.623.323 1.365.873 1.365 1.658 0 .6-.438 1.46-2.524 2.129a18.64 18.64 0 0 1-5.477.734z" class="cls-2" transform="translate(0 -357.115)"/>
            <path id="Path_6564" d="M262.267 357.171a.443.443 0 1 0-.427.776c.528.29.83.611.83.882 0 .331-.469.844-1.784 1.29a15.817 15.817 0 0 1-4.89.685v.886a16.713 16.713 0 0 0 5.175-.732c1.971-.67 2.385-1.528 2.385-2.129a2.107 2.107 0 0 0-1.289-1.658z" class="cls-2" transform="translate(-247.557 -357.116)"/>
        </g>
        <g id="Group_8122" transform="translate(2.997)">
            <path id="Path_6565" d="M91.613 336.7a12.836 12.836 0 0 1-3.345-.394c-1.1-.311-1.658-.761-1.658-1.337s.558-1.026 1.658-1.337a14.395 14.395 0 0 1 6.689 0c1.1.311 1.658.761 1.658 1.337s-.558 1.026-1.658 1.337a12.837 12.837 0 0 1-3.344.394zm-4.113-1.728a2.262 2.262 0 0 0 1.166.528 13.8 13.8 0 0 0 5.886 0 2.262 2.262 0 0 0 1.166-.528 2.262 2.262 0 0 0-1.166-.528 13.8 13.8 0 0 0-5.886 0 2.263 2.263 0 0 0-1.166.528zm8.228.018z" class="cls-2" transform="translate(-86.61 -333.241)"/>
            <path id="Path_6566" d="M259.341 333.634a12.836 12.836 0 0 0-3.341-.394v.886a12.432 12.432 0 0 1 2.943.317 2.262 2.262 0 0 1 1.166.528 2.261 2.261 0 0 1-1.166.528 12.432 12.432 0 0 1-2.943.317v.886a12.836 12.836 0 0 0 3.345-.394c1.1-.311 1.658-.761 1.658-1.337s-.562-1.026-1.662-1.337z" class="cls-2" transform="translate(-250.993 -333.24)"/>
        </g>
    </g>
    <g id="Group_8124" transform="translate(3.882)">
        <path id="Path_6567" d="M120.678 0a4.123 4.123 0 0 0-4.118 4.118c0 1.414 1.718 4.523 3.16 6.881a1.123 1.123 0 0 0 1.917 0c1.442-2.358 3.16-5.467 3.16-6.881A4.123 4.123 0 0 0 120.678 0zm0 5.491a1.655 1.655 0 1 1 1.655-1.655 1.657 1.657 0 0 1-1.655 1.655z" class="cls-2" transform="translate(-116.56)"/>
        <path id="Path_6568" d="M256 0v2.18a1.655 1.655 0 1 1 0 3.31v6.046a1.115 1.115 0 0 0 .958-.538c1.442-2.358 3.16-5.467 3.16-6.881A4.123 4.123 0 0 0 256 0z" class="cls-2" transform="translate(-251.878)"/>
    </g>
</svg>
