<svg xmlns="http://www.w3.org/2000/svg" width="143" height="88">
    <defs>
        <clipPath id="clip-path"/>
        <filter id="Rectangle_7943" x="-24" y="-18" width="191" height="136" filterUnits="userSpaceOnUse">
            <feOffset dy="6"/>
            <feGaussianBlur stdDeviation="8" result="blur"/>
            <feFlood flood-opacity=".122"/>
            <feComposite operator="in" in2="blur"/>
            <feComposite in="SourceGraphic"/>
        </filter>
        <style>
            .cls-1,.cls-13{fill:#fff}.cls-3{fill:#ebebeb}.cls-4{fill:#dbdbdb}.cls-5{fill:#263238}.cls-6{fill:#c7c7c7}.cls-7{fill:#37474f}.cls-8{fill:#455a64}.cls-9{fill:#b0bec5}.cls-11,.cls-12,.cls-17{opacity:.1}.cls-13{opacity:.4}.cls-14,.cls-15{opacity:.2}.cls-16{fill:#d3766a}.cls-17{fill:#020100}
        </style>
    </defs>
    <g id="Mask_Group_55" data-name="Mask Group 55" transform="translate(-.959 .186)" style="clip-path:url(#clip-path)">
        <g id="Asset_selection-cuate" data-name="Asset selection-cuate" transform="translate(.256 .223)">
            <g id="freepik--background-complete--inject-5" transform="translate(1.466 2.04)">
                <path id="Rectangle_7864" data-name="Rectangle 7864" class="cls-3" transform="rotate(180 5.087 2.83)" d="M0 0h5.82v2.459H0z"/>
                <path id="Path_7466" data-name="Path 7466" class="cls-3" d="m209.22 146.015 2.884-.062 1.466-.024c.488 0 .98 0 1.47-.013h.1v2.668h-.11l-2.91-.013c-.969 0-1.941-.026-2.91-.037h-.062v-.059c0-.418.018-.833.029-1.242zm0 0 .031 1.242c0 .411.024.815.029 1.218l-.059-.059c.969 0 1.941-.035 2.91-.037l2.91-.013-.11.11.011-2.459.1.1c-.479 0-.958 0-1.44-.013l-1.444-.024z" transform="translate(-201.62 -145.916)"/>
                <path id="Path_7467" data-name="Path 7467" class="cls-3" d="m138.387 146.015 2.888-.062 1.464-.024c.49 0 .982 0 1.473-.013h.1v.1l.013 2.459v.11h-.11l-2.914-.013c-.971 0-1.941-.026-2.91-.037h-.062v-.059c0-.418.02-.833.029-1.242zm0 0 .031 1.242c0 .411.024.815.029 1.218l-.059-.059c.969 0 1.939-.035 2.91-.037l2.91-.013-.11.11v-2.459l.1.1c-.481 0-.958 0-1.44-.013l-1.446-.024z" transform="translate(-137.279 -145.916)"/>
                <path id="Path_7468" data-name="Path 7468" class="cls-3" d="m1496.893 689.923 2.884-.062 1.464-.024c.49 0 .983 0 1.472-.013h.1v.1l.013 2.459v.11h-.11l-2.91-.013c-.969 0-1.941-.026-2.91-.037h-.061v-.059c0-.418.017-.833.029-1.244zm0 0 .031 1.242c0 .411.024.815.029 1.218l-.059-.059c.97-.013 1.941-.035 2.91-.037l2.91-.013-.109.11v-2.459l.1.1c-.479 0-.958 0-1.44-.011l-1.446-.024z" transform="translate(-1371.497 -640.062)"/>
                <path id="Rectangle_7865" data-name="Rectangle 7865" class="cls-3" transform="rotate(180 67.231 24.61)" d="M0 0h5.82v2.459H0z"/>
                <path id="Path_7469" data-name="Path 7469" class="cls-3" d="m1461.411 656.026 2.884-.062 1.464-.024c.49-.011.982 0 1.473-.013h.1v.1l.013 2.459v.11h-.11l-2.91-.013c-.971 0-1.941-.026-2.91-.037h-.061v-.059c0-.418.02-.833.031-1.242zm0 0 .031 1.242c0 .411.024.815.029 1.218l-.06-.059c.969-.013 1.939-.035 2.91-.037l2.91-.013-.11.11v-2.459l.1.1c-.479 0-.958 0-1.44-.011l-1.446-.024z" transform="translate(-1339.261 -609.267)"/>
                <path id="Path_7470" data-name="Path 7470" class="cls-3" d="m1569.609 170.6 2.886-.062 1.464-.024h1.567v.1l.011 2.459v.11h-.11l-2.908-.026c-.969 0-1.941-.026-2.91-.037h-.059v-.059c0-.418.018-.833.029-1.242zm0 0 .031 1.242c0 .411.026.815.028 1.218l-.059-.059c.969-.011 1.941-.035 2.91-.037l2.91-.013-.11.11.013-2.459.1.1c-.479 0-.958 0-1.438-.013l-1.442-.024z" transform="translate(-1437.562 -168.265)"/>
                <path id="Path_7471" data-name="Path 7471" class="cls-3" d="m593.1 499.935 2.884-.059 1.464-.026h1.569v.1l.013 2.459v.112h-.11l-2.91-.013c-.971 0-1.941-.024-2.91-.035h-.062v-.059c0-.415.018-.831.029-1.242zm0 0 .031 1.244c.011.409.024.813.029 1.215l-.059-.059c.969 0 1.938-.035 2.91-.035l2.91-.013-.11.108.011-2.459.1.1h-1.44l-1.446-.026z" transform="translate(-550.387 -467.468)"/>
                <path id="Path_7472" data-name="Path 7472" class="cls-3" d="m177.413 974.127 2.884-.062 1.466-.024h1.567v2.668h-.11l-2.91-.013c-.969 0-1.941-.024-2.91-.037h-.062v-.081c0-.418.018-.831.029-1.242zm0 0 .031 1.244c0 .409.024.813.029 1.215l-.059-.059c.969 0 1.941-.035 2.91-.035l2.91-.015-.11.11v-2.459l.1.1c-.479 0-.958 0-1.44-.013l-1.444-.024z" transform="translate(-172.723 -898.277)"/>
                <path id="Rectangle_7866" data-name="Rectangle 7866" class="cls-3" transform="rotate(180 3.632 37.605)" d="M0 0h5.82v2.459H0z"/>
                <path id="Rectangle_7867" data-name="Rectangle 7867" class="cls-3" transform="rotate(180 70.258 39.154)" d="M0 0h5.82v2.459H0z"/>
                <path id="Path_7473" data-name="Path 7473" class="cls-4" d="m1321.752 825.858 23.152 4.87 2.514-16.185-23.155-4.868z" transform="translate(-1212.434 -748.948)"/>
                <path id="Path_7474" data-name="Path 7474" class="cls-4" d="m1508.469 825.77 8.18 1.721-.26 1.675-8.651-1.818z" transform="translate(-1381.405 -763.571)"/>
                <path id="Path_7475" data-name="Path 7475" class="cls-3" d="m1321.944 840.747 23.152 4.87 4.954-14.691-23.152-4.868z" transform="translate(-1212.609 -763.833)"/>
                <path id="Path_7476" data-name="Path 7476" class="cls-3" d="m1535.579 843.836 8.182 1.721-.514 1.521-8.651-1.818z" transform="translate(-1405.806 -779.984)"/>
                <path id="Path_7477" data-name="Path 7477" class="cls-1" d="m1446.982 368.349-15.9-6.161 7.906-20.412 11.807 4.572 2.589 5.477z" transform="translate(-1311.761 -323.858)"/>
                <path id="Path_7478" data-name="Path 7478" class="cls-4" d="m1445.906 367.354-.411-.158.059-.154.411.16zm.182-.244-.154-.059.158-.411.154.061zm-1-.073-.411-.158.059-.154.411.158zm-.82-.319-.411-.158.059-.154.411.161zm-.82-.316-.411-.158.059-.154.411.158zm2.958-.112-.154-.059.161-.411.154.062zm-3.781-.2-.411-.16.059-.154.411.16zm-.82-.319-.411-.158.059-.154.411.158zm4.917-.3-.154-.059.158-.411.154.062zm-5.736-.02-.411-.16.059-.152.411.158zm-.82-.319-.411-.158.059-.154.411.158zm-.818-.308-.411-.158.059-.154.411.158zm7.692-.165-.154-.059.161-.411.154.061zm-8.512-.154-.411-.158.059-.154.411.158zm-.82-.316-.411-.158.059-.154.411.158zm-.82-.319-.417-.167.059-.154.411.158zm10.471-.031-.154-.059.158-.411.154.062zm-11.29-.286-.411-.158.059-.154.411.158zm-.82-.319-.411-.158.059-.154.411.161zm12.426-.22-.154-.059.161-.411.154.062zm-13.246-.1-.411-.158.059-.154.411.158zm-.815-.321-.411-.16.059-.154.411.16zm-.82-.319-.411-.158.059-.154.411.158zm15.2-.083-.154-.059.158-.411.154.061zm-16.029-.224-.411-.16.059-.154.411.16zm-.82-.319-.411-.158.059-.154.411.158zm17.161-.268-.154-.059.16-.411.152.062zm-17.981-.048-.4-.156.062-.163.154.059.248.1zm-.028-.659-.154-.059.161-.411.154.059zm18.328-.1-.154-.059.158-.411.154.062zm-18.009-.717-.154-.059.158-.411.154.059zm18.326-.1-.154-.059.158-.411.154.062zm-18.009-.716-.154-.059.16-.411.152.059zm18.328-.1-.154-.059.158-.411.154.059zm-18.009-.717-.154-.059.158-.411.154.059zm18.326-.1-.154-.059.158-.411.154.059zm-18.009-.716-.154-.059.158-.411.154.059zm18.328-.1-.154-.059.158-.411.154.059zm-18.01-.716-.154-.059.158-.411.154.059zm18.326-.1-.154-.059.158-.411.154.059zm-18.009-.716-.154-.059.158-.411.154.059zm18.326-.1-.151-.059.156-.437.154.059zm-18.007-.716-.154-.059.158-.411.154.059zm18.326-.1-.154-.059.158-.411.154.059zm-18.009-.717-.154-.059.158-.411.154.059zm18.326-.1-.154-.059.161-.411.154.059zm-18.009-.716-.152-.059.158-.411.154.059zm18.328-.1-.154-.059.158-.411.154.062zm-18.009-.716-.154-.059.158-.411.154.059zm18.326-.1-.154-.059.16-.411.154.062zm-18.009-.734-.154-.059.161-.411.154.059zm18.328-.1-.154-.059.158-.411.154.062zm-18.01-.716-.154-.059.158-.411.154.059zm18.115-.1-.187-.4.147-.07.189.4zm-17.8-.723-.154-.059.161-.411.154.059zm17.422-.07-.187-.4.147-.07.189.4zm-17.1-.75-.154-.059.158-.411.154.059zm16.728-.046-.187-.4.147-.07.189.4zm-16.411-.774-.154-.059.16-.411.154.059zm16.044-.02-.187-.4.15-.07.187.4zm-.376-.8-.187-.4.149-.07.187.4zm-15.341 0-.154-.059.158-.411.154.059zm14.965-.791-.187-.4.149-.07.187.4zm-14.649-.029-.154-.059.158-.411.154.059zm14.273-.765-.187-.4.15-.07.187.4zm-13.954-.055-.154-.059.158-.411.154.059zm13.537-.6-.411-.158.059-.154.411.158zm-13.22-.22-.154-.059.158-.411.154.059zm12.4-.1-.411-.158.062-.154.409.16zm-.82-.316-.411-.158.059-.154.411.158zm-.82-.317-.411-.16.062-.154.409.16zm-10.442-.084-.154-.059.158-.411.154.059zm9.622-.235-.411-.158.059-.154.411.158zm-.82-.316-.411-.16.059-.154.411.16zm-8.486-.268-.154-.059.158-.411.154.059zm7.666-.051-.411-.158.059-.154.411.158zm-.824-.323-.411-.16.059-.152.411.158zm-.82-.319-.411-.158.059-.154.411.158zm-5.715-.134-.152-.059.158-.411.154.059zm4.89-.182-.411-.158.059-.154.411.158zm-.82-.319-.411-.158.059-.154.411.158zm-.82-.316-.411-.158.059-.154.411.158zm-2.932 0-.154-.059.158-.411.154.059zm2.112-.316-.411-.158.059-.154.411.158zm-.824-.312-.411-.158.059-.154.411.158zm-.976-.187-.152-.059.123-.321.244.1-.059.152-.09-.033z" transform="translate(-1310.713 -322.788)"/>
                <path id="Path_7479" data-name="Path 7479" class="cls-4" d="m1631.594 391.745 2.589 5.477-4.095-1.587z" transform="translate(-1492.562 -369.254)"/>
                <path id="Path_7480" data-name="Path 7480" class="cls-3" d="m129.958 348.379 23.352-4.306-3.068-15.341-23.352 4.306z" transform="translate(-126.89 -312.007)"/>
                <path id="Path_7481" data-name="Path 7481" class="cls-1" d="m142.262 358.507 21.414-3.95-2.688-13.429-21.414 3.95z" transform="translate(-138.414 -323.268)"/>
                <path id="Path_7482" data-name="Path 7482" class="cls-4" d="M169.51 398.689a2.393 2.393 0 0 0 2.785 1.859 2.31 2.31 0 0 0 1.875-2.719 2.391 2.391 0 0 0-2.785-1.864 2.312 2.312 0 0 0-1.875 2.723z" transform="translate(-165.572 -373.051)"/>
                <path id="Path_7483" data-name="Path 7483" class="cls-3" d="m241.673 406.889 14.75-2.721-9.328-8.46z" transform="translate(-231.171 -372.855)"/>
                <path id="Path_7484" data-name="Path 7484" class="cls-4" d="m178.492 454.949 12.176-2.246-7.361-5.273z" transform="translate(-173.771 -419.845)"/>
                <path id="Path_7485" data-name="Path 7485" class="cls-3" d="m210.442 580.29 17.963 2.147 1.235-11.853-17.963-2.15z" transform="translate(-202.798 -529.779)"/>
                <path id="Path_7486" data-name="Path 7486" class="cls-1" d="m219.427 587.87 16.473 1.969 1.081-10.378-16.473-1.969z" transform="translate(-210.961 -538.007)"/>
                <path id="Path_7487" data-name="Path 7487" class="cls-4" d="M243.8 599.219a1.822 1.822 0 0 0 1.607 1.978 1.758 1.758 0 0 0 1.978-1.554 1.822 1.822 0 0 0-1.607-1.978 1.758 1.758 0 0 0-1.978 1.554z" transform="translate(-233.101 -556.321)"/>
                <path id="Path_7488" data-name="Path 7488" class="cls-3" d="m275.329 629.179 11.345 1.356-4.873-8.264z" transform="translate(-261.748 -578.689)"/>
                <path id="Path_7489" data-name="Path 7489" class="cls-4" d="m226.706 648.512 9.367 1.119-4.163-5.5z" transform="translate(-217.574 -598.55)"/>
            </g>
            <g id="freepik--Floor--inject-5" transform="translate(0 87.053)">
                <path id="Path_7490" data-name="Path 7490" class="cls-5" d="m110.867 1075.24 18.069-.053 18.069-.02 36.139-.037 36.137.037 18.071.02 18.069.053-18.069.055-18.071.02-36.137.035-36.144-.037-18.069-.018z" transform="translate(-110.867 -1075.13)"/>
            </g>
            <g id="freepik--Device--inject-5" transform="translate(18.708)">
                <path id="Rectangle_7868" data-name="Rectangle 7868" class="cls-6" transform="translate(32.691 83.785)" d="M0 0h41.753v3.488H0z"/>
                <path id="Path_7491" data-name="Path 7491" class="cls-4" d="M758.821 909.026h-31.81l.809-6.055.04-.286.075-.569.037-.286.079-.567.009-.088.026-.2.079-.569.037-.283.565-4.231h28.3l.534 3.989.026.193.088.661.024.191.033.246.057.415.024.193.088.664.026.189z" transform="translate(-689.349 -825.239)"/>
                <path id="Path_7492" data-name="Path 7492" class="cls-6" d="m769.6 901.175-29.57-1.051.565-4.231h28.3z" transform="translate(-701.178 -825.239)"/>
                <path id="Rectangle_7869" data-name="Rectangle 7869" class="cls-5" d="M0 0h107.135v72.85H0z"/>
                <path id="Rectangle_7870" data-name="Rectangle 7870" class="cls-4" transform="translate(0 62.103)" d="M0 0h107.135v10.745H0z"/>
                <path id="Path_7493" data-name="Path 7493" class="cls-7" d="M884.647 835.64a1.776 1.776 0 1 1-1.774-1.774 1.776 1.776 0 0 1 1.774 1.774z" transform="translate(-829.336 -768.886)"/>
                <path id="Rectangle_7871" data-name="Rectangle 7871" class="cls-1" transform="translate(4.945 4.736)" d="M0 0h97.247v52.313H0z"/>
                <path id="Rectangle_7872" data-name="Rectangle 7872" class="cls-1" transform="translate(4.945 4.736)" d="M0 0h97.247v52.313H0z"/>
                <path id="Rectangle_7873" data-name="Rectangle 7873" class="cls-8" transform="translate(4.945 4.736)" d="M0 0h97.247v2.367H0z"/>
                <path id="Path_7494" data-name="Path 7494" class="cls-6" d="M380.461 184.347a.4.4 0 1 1-.4-.4.4.4 0 0 1 .4.4z" transform="translate(-373.778 -178.426)"/>
                <path id="Path_7495" data-name="Path 7495" class="cls-1" d="M398.291 184.347a.4.4 0 1 1-.4-.4.4.4 0 0 1 .4.4z" transform="translate(-389.972 -178.426)"/>
                <path id="Path_7496" data-name="Path 7496" class="cls-9" d="M416.184 184.347a.4.4 0 1 1-.116-.284.4.4 0 0 1 .116.284z" transform="translate(-406.232 -178.426)"/>
                <path id="Rectangle_7874" data-name="Rectangle 7874" class="cls-3" transform="translate(54.575 9.464)" d="M0 0h42.869v20.574H0z"/>
                <path id="Rectangle_7875" data-name="Rectangle 7875" class="cls-4" transform="translate(100.466 7.103)" d="M0 0h1.725v49.946H0z"/>
                <path id="Path_7497" data-name="Path 7497" d="M1418.524 225.266a.439.439 0 0 1-.439-.44v-19.277a.439.439 0 0 1 .439-.44.44.44 0 0 1 .44.44v19.271a.44.44 0 0 1-.44.446z" transform="translate(-1317.196 -197.654)" style="fill:#a6a6a6"/>
                <path id="Rectangle_7876" data-name="Rectangle 7876" class="cls-9" transform="translate(4.945 7.103)" d="M0 0h23.025v49.946H0z"/>
                <path id="Rectangle_7877" data-name="Rectangle 7877" class="cls-1" transform="translate(8.607 9.464)" d="M0 0h17.864v2.446H0z"/>
                <path id="Path_7498" data-name="Path 7498" class="cls-1" d="M386.965 234.358a.611.611 0 1 1-.178-.433.613.613 0 0 1 .178.433z" transform="translate(-379.299 -223.67)"/>
                <path id="Rectangle_7878" data-name="Rectangle 7878" class="cls-11" transform="translate(8.607 13.655)" d="M0 0h17.864v2.446H0z"/>
                <path id="Path_7499" data-name="Path 7499" class="cls-11" d="M385.918 280.443a.659.659 0 1 1 .659-.659.659.659 0 0 1-.659.659zm0-1.224a.558.558 0 1 0 .556.556.558.558 0 0 0-.556-.556z" transform="translate(-378.863 -264.898)"/>
                <path id="Path_7500" data-name="Path 7500" class="cls-11" d="M389.125 282.569a.371.371 0 1 1-.369-.369.372.372 0 0 1 .369.369z" transform="translate(-381.7 -267.691)"/>
                <path id="Rectangle_7879" data-name="Rectangle 7879" class="cls-1" transform="translate(8.607 17.844)" d="M0 0h17.864v2.446H0z"/>
                <path id="Path_7501" data-name="Path 7501" class="cls-1" d="M386.965 325.958a.613.613 0 1 1-.611-.613.613.613 0 0 1 .611.613z" transform="translate(-379.299 -306.89)"/>
                <path id="Rectangle_7880" data-name="Rectangle 7880" class="cls-11" transform="translate(8.607 22.036)" d="M0 0h17.864v2.446H0z"/>
                <path id="Path_7502" data-name="Path 7502" class="cls-11" d="M385.918 372.043a.659.659 0 1 1 .659-.659.659.659 0 0 1-.659.659zm0-1.224a.558.558 0 1 0 .556.558.558.558 0 0 0-.556-.558z" transform="translate(-378.863 -348.118)"/>
                <path id="Path_7503" data-name="Path 7503" class="cls-11" d="M389.124 374.171a.371.371 0 1 1-.369-.371.372.372 0 0 1 .369.371z" transform="translate(-381.7 -350.911)"/>
                <path id="Rectangle_7881" data-name="Rectangle 7881" class="cls-1" transform="translate(8.607 26.225)" d="M0 0h17.864v2.446H0z"/>
                <path id="Path_7504" data-name="Path 7504" class="cls-1" d="M386.965 417.58a.613.613 0 1 1-.611-.611.613.613 0 0 1 .611.611z" transform="translate(-379.299 -390.131)"/>
                <path id="Rectangle_7882" data-name="Rectangle 7882" class="cls-1" transform="translate(8.607 30.416)" d="M0 0h17.864v2.446H0z"/>
                <path id="Path_7505" data-name="Path 7505" class="cls-1" d="M386.965 463.371a.611.611 0 1 1-.178-.433.613.613 0 0 1 .178.433z" transform="translate(-379.299 -431.73)"/>
                <path id="Rectangle_7883" data-name="Rectangle 7883" class="cls-11" transform="translate(8.607 34.608)" d="M0 0h17.864v2.446H0z"/>
                <path id="Path_7506" data-name="Path 7506" class="cls-11" d="M385.918 509.456a.659.659 0 1 1 .659-.659.659.659 0 0 1-.659.659zm0-1.224a.551.551 0 1 1 0 .011z" transform="translate(-378.863 -472.958)"/>
                <path id="Path_7507" data-name="Path 7507" class="cls-11" d="M389.125 511.581a.371.371 0 1 1-.369-.369.371.371 0 0 1 .369.369z" transform="translate(-381.7 -475.751)"/>
                <path id="Rectangle_7884" data-name="Rectangle 7884" class="cls-1" transform="translate(8.607 38.797)" d="M0 0h17.864v2.446H0z"/>
                <path id="Path_7508" data-name="Path 7508" class="cls-1" d="M386.965 554.97a.611.611 0 1 1-.178-.433.613.613 0 0 1 .178.433z" transform="translate(-379.299 -514.95)"/>
                <path id="Rectangle_7885" data-name="Rectangle 7885" class="cls-11" transform="translate(8.607 42.988)" d="M0 0h17.864v2.446H0z"/>
                <path id="Path_7509" data-name="Path 7509" class="cls-11" d="M385.918 601.056a.659.659 0 1 1 .659-.659.659.659 0 0 1-.659.659zm0-1.224a.558.558 0 1 0 .556.556.558.558 0 0 0-.556-.556z" transform="translate(-378.863 -556.178)"/>
                <path id="Path_7510" data-name="Path 7510" class="cls-11" d="M389.125 603.181a.371.371 0 1 1-.369-.369.372.372 0 0 1 .369.369z" transform="translate(-381.7 -558.971)"/>
                <path id="Rectangle_7886" data-name="Rectangle 7886" class="cls-11" transform="translate(8.607 47.177)" d="M0 0h17.864v2.446H0z"/>
                <path id="Path_7511" data-name="Path 7511" class="cls-11" d="M385.918 646.844a.659.659 0 1 1 .659-.659.66.66 0 0 1-.659.659zm0-1.224a.558.558 0 1 0 .556.558.558.558 0 0 0-.556-.558z" transform="translate(-378.863 -597.777)"/>
                <path id="Path_7512" data-name="Path 7512" class="cls-11" d="M389.125 648.993a.371.371 0 1 1-.369-.369.371.371 0 0 1 .369.369z" transform="translate(-381.7 -600.592)"/>
                <path id="Path_7513" data-name="Path 7513" class="cls-3" d="M671.346 246.616h-1v-.22h.769v-.088h.22zm-1.868 0h-.878v-.22h.879zm-1.758 0h-.879v-.22h.879zm-1.758 0h-.879v-.22h.879zm-1.758 0h-.879v-.22h.879zm-1.758 0h-.879v-.22h.879zm-1.758 0h-.879v-.22h.879zm-1.758 0h-.879v-.22h.879zm-1.758 0h-.879v-.22h.879zm-1.758 0h-.879v-.22h.879zm-1.758 0h-.879v-.22h.879zm-1.758 0h-.879v-.22h.879zm-1.393-.358h-.22v-.879h.22zm20.844-.822h-.22v-.879h.22zM650.5 244.5h-.22v-.879h.22zm20.844-.822h-.22v-.878h.22zm-20.844-.936h-.22v-.879h.22zm20.844-.822h-.22v-.879h.22zm-20.844-.936h-.22v-.884h.22zm20.844-.822h-.22v-.879h.22zm-20.844-.936h-.22v-.879h.22zm20.844-.822h-.22v-.879h.22zm-20.844-.936h-.22v-.879h.22zm20.844-.822h-.22v-.879h.22zm-20.844-.936h-.22v-.879h.22zm20.844-.822h-.22v-.879h.22zm-20.844-.936h-.22v-.879h.22zm20.844-.822h-.22v-.879h.22zm-20.844-.936h-.22v-.879h.22zm20.844-.822h-.22v-.879h.22zm-20.844-.936h-.22v-.879h.22zm20.844-.822h-.22v-.879h.22zm-20.844-.936h-.22v-.878h.22zm20.844-.822h-.22v-.879h.22zm-20.844-.936h-.22v-.879h.22zm20.844-.822h-.22v-.057h-.613v-.22h.833zm-1.712-.057h-.879v-.22h.879zm-1.758 0H667v-.22h.879zm-1.758 0h-.879v-.22h.879zm-1.758 0h-.879v-.22h.879zm-1.758 0h-.879v-.22h.879zm-1.758 0h-.879v-.22h.879zm-1.758 0h-.884v-.22h.879zm-1.758 0h-.879v-.22h.879zm-1.758 0h-.879v-.22h.879zm-1.758 0h-.879v-.22h.879zm-1.758 0h-.879v-.22h.879z" transform="translate(-619.639 -216.468)"/>
                <path id="Path_7514" data-name="Path 7514" class="cls-3" d="M1151.623 487.258h-.22v-.549h.549v.22h-.33z" transform="translate(-1074.914 -453.49)"/>
                <path id="Path_7515" data-name="Path 7515" class="cls-3" d="M1185.13 486.928h-.879v-.22h.879zm-1.736 0h-.868v-.22h.868zm-1.736 0h-.868v-.22h.868zm-1.736 0h-.879v-.22h.879zm-1.736 0h-.879v-.22h.879zm-1.736 0h-.879v-.22h.879zm-1.736 0h-.868v-.22h.868zm-1.736 0h-.868v-.22h.868zm-1.736 0h-.868v-.22h.868zm-1.736 0h-.868v-.22h.868zm-1.736 0h-.868v-.22h.868z" transform="translate(-1088.991 -453.49)"/>
                <path id="Path_7516" data-name="Path 7516" class="cls-3" d="M1376.209 487.258h-.22v-.33h-.33v-.22h.549z" transform="translate(-1278.653 -453.49)"/>
                <path id="Path_7517" data-name="Path 7517" class="cls-3" d="M1379.483 520.064h-.22v-.855h.22zm0-1.712h-.22v-.857h.22zm0-1.712h-.22v-.857h.22zm0-1.714h-.22v-.855h.22zm0-1.712h-.22v-.855h.22zm0-1.712h-.22v-.846h.22zm0-1.712h-.22v-.857h.22zm0-1.712h-.22v-.857h.22zm0-1.712h-.22v-.857h.22zm0-1.714h-.22v-.852h.22zm0-1.712h-.22v-.855h.22z" transform="translate(-1281.926 -467.458)"/>
                <path id="Path_7518" data-name="Path 7518" class="cls-3" d="M1376.209 708.535h-.549v-.22h.33v-.33h.22z" transform="translate(-1278.653 -654.522)"/>
                <path id="Path_7519" data-name="Path 7519" class="cls-3" d="M1185.13 711.808h-.879v-.22h.879zm-1.736 0h-.868v-.22h.868zm-1.736 0h-.868v-.22h.868zm-1.736 0h-.879v-.22h.879zm-1.736 0h-.879v-.22h.879zm-1.736 0h-.879v-.22h.879zm-1.736 0h-.868v-.22h.868zm-1.736 0h-.868v-.22h.868zm-1.736 0h-.868v-.22h.868zm-1.736 0h-.868v-.22h.868zm-1.736 0h-.868v-.22h.868z" transform="translate(-1088.991 -657.796)"/>
                <path id="Path_7520" data-name="Path 7520" class="cls-3" d="M1151.953 708.535h-.549v-.549h.22v.33h.33z" transform="translate(-1074.914 -654.522)"/>
                <path id="Path_7521" data-name="Path 7521" class="cls-3" d="M1151.623 520.064h-.22v-.855h.22zm0-1.712h-.22v-.857h.22zm0-1.712h-.22v-.857h.22zm0-1.714h-.22v-.855h.22zm0-1.712h-.22v-.855h.22zm0-1.712h-.22v-.846h.22zm0-1.712h-.22v-.857h.22zm0-1.712h-.22v-.857h.22zm0-1.712h-.22v-.857h.22zm0-1.714h-.22v-.852h.22zm0-1.712h-.22v-.855h.22z" transform="translate(-1074.914 -467.458)"/>
                <path id="Rectangle_7887" data-name="Rectangle 7887" class="cls-3" transform="rotate(180 36.812 26.952)" d="M0 0h42.869v20.574H0z"/>
                <path id="Path_7522" data-name="Path 7522" class="cls-9" d="M654.508 525.008h-13.139l.009-16.866h9.754l3.382 3.215z" transform="translate(-611.542 -472.958)"/>
                <path id="Path_7523" data-name="Path 7523" class="cls-9" d="m748.058 508.185 3.383 3.216h-3.385z" transform="translate(-708.468 -473.001)"/>
                <path id="Path_7524" data-name="Path 7524" class="cls-11" d="m748.058 508.185 3.383 3.216h-3.385z" transform="translate(-708.468 -473.001)"/>
                <g id="Group_8345" data-name="Group 8345" class="cls-12" transform="translate(31.106 38.015)">
                    <path id="Rectangle_7888" data-name="Rectangle 7888" transform="rotate(-179.98 3.655 .217)" d="M0 0h7.303v.433H0z"/>
                    <path id="Rectangle_7889" data-name="Rectangle 7889" transform="rotate(-179.98 3.656 .764)" d="M0 0h7.303v.433H0z"/>
                    <path id="Rectangle_7890" data-name="Rectangle 7890" transform="rotate(-179.98 3.655 1.31)" d="M0 0h7.303v.433H0z"/>
                    <path id="Rectangle_7891" data-name="Rectangle 7891" transform="rotate(-179.98 5.353 1.858)" d="M0 0h10.701v.433H0z"/>
                    <path id="Rectangle_7892" data-name="Rectangle 7892" transform="rotate(-179.98 5.354 2.405)" d="M0 0h10.701v.433H0z"/>
                    <path id="Rectangle_7893" data-name="Rectangle 7893" transform="rotate(-179.98 5.354 2.95)" d="M0 0h10.701v.433H0z"/>
                    <path id="Rectangle_7894" data-name="Rectangle 7894" transform="rotate(-179.98 5.353 3.497)" d="M0 0h10.701v.433H0z"/>
                    <path id="Rectangle_7895" data-name="Rectangle 7895" transform="rotate(-179.98 5.353 4.045)" d="M0 0h10.701v.433H0z"/>
                    <path id="Rectangle_7896" data-name="Rectangle 7896" transform="rotate(-179.98 5.353 4.59)" d="M0 0h10.701v.433H0z"/>
                    <path id="Rectangle_7897" data-name="Rectangle 7897" transform="rotate(-179.98 5.352 5.137)" d="M0 0h10.701v.433H0z"/>
                    <path id="Rectangle_7898" data-name="Rectangle 7898" transform="rotate(-179.98 5.352 5.684)" d="M0 0h10.701v.433H0z"/>
                    <path id="Rectangle_7899" data-name="Rectangle 7899" transform="rotate(-179.98 5.352 6.23)" d="M0 0h10.701v.433H0z"/>
                </g>
                <path id="Path_7525" data-name="Path 7525" class="cls-9" d="M999.648 525.008h-13.139l.007-16.866h9.756l3.38 3.215z" transform="translate(-925.105 -472.958)"/>
                <path id="Path_7526" data-name="Path 7526" class="cls-9" d="m1093.2 508.185 3.38 3.216h-3.383z" transform="translate(-1022.031 -473.001)"/>
                <path id="Path_7527" data-name="Path 7527" class="cls-11" d="m1093.2 508.185 3.38 3.216h-3.383z" transform="translate(-1022.031 -473.001)"/>
                <g id="Group_8346" data-name="Group 8346" class="cls-12" transform="translate(62.682 38.017)">
                    <path id="Rectangle_7900" data-name="Rectangle 7900" transform="rotate(-179.98 3.656 .217)" d="M0 0h7.303v.433H0z"/>
                    <path id="Rectangle_7901" data-name="Rectangle 7901" transform="rotate(-179.98 3.655 .764)" d="M0 0h7.303v.433H0z"/>
                    <path id="Rectangle_7902" data-name="Rectangle 7902" transform="rotate(-179.98 3.655 1.31)" d="M0 0h7.303v.433H0z"/>
                    <path id="Rectangle_7903" data-name="Rectangle 7903" transform="rotate(-179.98 5.354 1.858)" d="M0 0h10.701v.433H0z"/>
                    <path id="Rectangle_7904" data-name="Rectangle 7904" transform="rotate(-179.98 5.353 2.405)" d="M0 0h10.701v.433H0z"/>
                    <path id="Rectangle_7905" data-name="Rectangle 7905" transform="rotate(-179.98 5.353 2.95)" d="M0 0h10.701v.433H0z"/>
                    <path id="Rectangle_7906" data-name="Rectangle 7906" transform="rotate(-179.98 5.353 3.497)" d="M0 0h10.701v.433H0z"/>
                    <path id="Rectangle_7907" data-name="Rectangle 7907" transform="rotate(-179.98 5.353 4.045)" d="M0 0h10.701v.433H0z"/>
                    <path id="Rectangle_7908" data-name="Rectangle 7908" transform="rotate(-179.98 5.353 4.59)" d="M0 0h10.701v.433H0z"/>
                    <path id="Rectangle_7909" data-name="Rectangle 7909" transform="rotate(-179.98 5.352 5.137)" d="M0 0h10.701v.433H0z"/>
                    <path id="Rectangle_7910" data-name="Rectangle 7910" transform="rotate(-179.98 5.351 5.684)" d="M0 0h10.701v.433H0z"/>
                    <path id="Rectangle_7911" data-name="Rectangle 7911" transform="rotate(-179.98 5.352 6.23)" d="M0 0h10.701v.433H0z"/>
                </g>
                <path id="Path_7528" data-name="Path 7528" class="cls-8" d="M827.088 525.008h-13.137l.007-16.866h9.754l3.383 3.215z" transform="translate(-768.335 -472.958)"/>
                <path id="Path_7529" data-name="Path 7529" class="cls-7" d="m920.638 508.185 3.383 3.216h-3.383z" transform="translate(-865.26 -473.001)"/>
                <path id="Rectangle_7912" data-name="Rectangle 7912" class="cls-7" transform="rotate(-179.98 27.105 19.22)" d="M0 0h7.303v.433H0z"/>
                <path id="Rectangle_7913" data-name="Rectangle 7913" class="cls-7" transform="rotate(-179.98 27.105 19.768)" d="M0 0h7.303v.433H0z"/>
                <path id="Rectangle_7914" data-name="Rectangle 7914" class="cls-7" transform="rotate(-179.98 27.106 20.314)" d="M0 0h7.303v.433H0z"/>
                <path id="Rectangle_7915" data-name="Rectangle 7915" class="cls-7" transform="rotate(-179.98 28.804 20.861)" d="M0 0h10.701v.433H0z"/>
                <path id="Rectangle_7916" data-name="Rectangle 7916" class="cls-7" transform="rotate(-179.98 28.803 21.408)" d="M0 0h10.701v.433H0z"/>
                <path id="Rectangle_7917" data-name="Rectangle 7917" class="cls-7" transform="rotate(-179.98 28.804 21.954)" d="M0 0h10.701v.433H0z"/>
                <path id="Rectangle_7918" data-name="Rectangle 7918" class="cls-7" transform="rotate(-179.98 28.803 22.501)" d="M0 0h10.701v.433H0z"/>
                <path id="Rectangle_7919" data-name="Rectangle 7919" class="cls-7" transform="rotate(-179.98 28.803 23.048)" d="M0 0h10.701v.433H0z"/>
                <path id="Rectangle_7920" data-name="Rectangle 7920" class="cls-7" transform="rotate(-179.98 28.803 23.593)" d="M0 0h10.701v.433H0z"/>
                <path id="Rectangle_7921" data-name="Rectangle 7921" class="cls-7" transform="rotate(-179.98 28.802 24.14)" d="M0 0h10.701v.433H0z"/>
                <path id="Rectangle_7922" data-name="Rectangle 7922" class="cls-7" transform="rotate(-179.98 28.803 24.688)" d="M0 0h10.701v.433H0z"/>
                <path id="Rectangle_7923" data-name="Rectangle 7923" class="cls-7" transform="rotate(-179.98 28.803 25.233)" d="M0 0h10.701v.433H0z"/>
                <path id="Rectangle_7924" data-name="Rectangle 7924" class="cls-9" transform="translate(33.528 14.743)" d="M0 0h15.416v11.174H0z"/>
                <path id="Path_7530" data-name="Path 7530" class="cls-9" d="M687.272 272.11h-5.448v1.158h5.761z" transform="translate(-648.296 -258.525)"/>
                <path id="Rectangle_7925" data-name="Rectangle 7925" class="cls-1" transform="translate(34.065 14.038)" d="M0 0h4.455v.673H0z"/>
                <path id="Path_7531" data-name="Path 7531" class="cls-9" d="M696.127 302.819h-15.416l-.112-10.482h15.416z" transform="translate(-647.183 -276.902)"/>
                <path id="Path_7532" data-name="Path 7532" class="cls-13" d="M696.127 302.819h-15.416l-.112-10.482h15.416z" transform="translate(-647.183 -276.902)"/>
                <path id="Path_7533" data-name="Path 7533" class="cls-9" d="M685.925 280.734h-5.446l.011 1.062h5.761z" transform="translate(-647.073 -266.36)"/>
                <path id="Path_7534" data-name="Path 7534" class="cls-13" d="M685.925 280.734h-5.446l.011 1.062h5.761z" transform="translate(-647.073 -266.36)"/>
                <path id="Rectangle_7926" data-name="Rectangle 7926" class="cls-9" transform="translate(83.813 36.524)" d="M0 0h15.416v11.174H0z"/>
                <path id="Path_7535" data-name="Path 7535" class="cls-9" d="M1236.895 510.179h-5.446v1.156h5.761z" transform="translate(-1147.635 -474.813)"/>
                <path id="Rectangle_7927" data-name="Rectangle 7927" class="cls-1" transform="translate(84.35 35.819)" d="M0 0h4.455v.673H0z"/>
                <path id="Path_7536" data-name="Path 7536" class="cls-9" d="M1245.751 540.888h-15.416l-.112-10.482h15.416z" transform="translate(-1146.522 -493.19)"/>
                <path id="Path_7537" data-name="Path 7537" class="cls-13" d="M1245.751 540.888h-15.416l-.112-10.482h15.416z" transform="translate(-1146.522 -493.19)"/>
                <path id="Path_7538" data-name="Path 7538" class="cls-9" d="M1235.55 518.8h-5.45l.011 1.062h5.761z" transform="translate(-1146.413 -482.648)"/>
                <path id="Path_7539" data-name="Path 7539" class="cls-13" d="M1235.55 518.8h-5.45l.011 1.062h5.761z" transform="translate(-1146.413 -482.648)"/>
                <path id="Rectangle_7928" data-name="Rectangle 7928" class="cls-1" transform="rotate(180 37.041 12.992)" d="M0 0h13.781v13.781H0z"/>
                <path id="Rectangle_7929" data-name="Rectangle 7929" class="cls-8" transform="rotate(180 36.705 12.654)" d="M0 0h12.431v12.431H0z"/>
                <path id="Path_7540" data-name="Path 7540" class="cls-7" d="M1003.531 287.41a1.174 1.174 0 1 0 .921-.921 1.174 1.174 0 0 0-.921.921z" transform="translate(-940.549 -271.568)"/>
                <path id="Path_7541" data-name="Path 7541" class="cls-7" d="M1019.541 314.938h8.985l-4.492-5.04z" transform="translate(-955.115 -292.856)"/>
                <path id="Path_7542" data-name="Path 7542" class="cls-5" d="M981.849 332.4h7.418l-3.708-3.281z" transform="translate(-920.871 -310.316)"/>
                <path id="Rectangle_7930" data-name="Rectangle 7930" class="cls-5" transform="translate(60.98 22.082)" d="M0 0h12.431v3.226H0z"/>
                <path id="Rectangle_7931" data-name="Rectangle 7931" class="cls-1" transform="rotate(180 46.748 12.992)" d="M0 0h13.781v13.781H0z"/>
                <path id="Rectangle_7932" data-name="Rectangle 7932" class="cls-8" transform="rotate(180 46.411 12.654)" d="M0 0h12.431v12.431H0z"/>
                <path id="Path_7543" data-name="Path 7543" class="cls-7" d="M1215.679 287.41a1.174 1.174 0 1 0 .921-.921 1.174 1.174 0 0 0-.921.921z" transform="translate(-1133.288 -271.568)"/>
                <path id="Path_7544" data-name="Path 7544" class="cls-7" d="M1231.713 314.938h8.985l-4.495-5.04z" transform="translate(-1147.875 -292.856)"/>
                <path id="Path_7545" data-name="Path 7545" class="cls-5" d="M1194.021 332.4h7.418l-3.708-3.281z" transform="translate(-1113.632 -310.316)"/>
                <path id="Rectangle_7933" data-name="Rectangle 7933" class="cls-5" transform="translate(80.389 22.082)" d="M0 0h12.431v3.226H0z"/>
                <path id="Rectangle_7934" data-name="Rectangle 7934" class="cls-1" transform="rotate(180 35.723 14.087)" d="M0 0h13.781v13.781H0z"/>
                <path id="Rectangle_7935" data-name="Rectangle 7935" class="cls-9" transform="rotate(180 35.386 13.75)" d="M0 0h12.431v12.431H0z"/>
                <path id="Path_7546" data-name="Path 7546" class="cls-11" d="M974.679 311.385a1.174 1.174 0 1 0 .921-.921 1.174 1.174 0 0 0-.921.921z" transform="translate(-914.337 -293.349)"/>
                <path id="Path_7547" data-name="Path 7547" class="cls-11" d="M990.689 338.911h8.985l-4.492-5.037z" transform="translate(-928.903 -314.638)"/>
                <path id="Path_7548" data-name="Path 7548" class="cls-9" d="M953.021 356.371h7.418l-3.71-3.279z" transform="translate(-894.681 -332.098)"/>
                <g id="Group_8347" data-name="Group 8347" class="cls-14" transform="translate(58.34 20.994)">
                    <path id="Path_7549" data-name="Path 7549" d="M953.021 356.371h7.418l-3.71-3.279z" transform="translate(-953.021 -353.092)"/>
                </g>
                <path id="Rectangle_7936" data-name="Rectangle 7936" class="cls-9" transform="translate(58.34 24.273)" d="M0 0h12.431v3.226H0z"/>
                <path id="Rectangle_7937" data-name="Rectangle 7937" class="cls-15" transform="translate(58.34 24.273)" d="M0 0h12.431v3.226H0z"/>
            </g>
            <g id="freepik--Plant--inject-5" transform="translate(.006 56.252)">
                <path id="Path_7550" data-name="Path 7550" class="cls-9" d="M138.513 744.137a10.022 10.022 0 0 1-.2 3.853 10.773 10.773 0 0 1-.589 1.7 4.31 4.31 0 0 0-.549 2.163c.073.051-.182.042-.191-.033-2.059-1.174-4.7-1.389-6.288-3.3a6.682 6.682 0 0 1-1.319-3.213 9.717 9.717 0 0 1 .075-3.877 3.931 3.931 0 0 1 1.866-2.567 4.811 4.811 0 0 1 3.418-.161c2.306.722 3.451 3.198 3.777 5.435z" transform="translate(-127.549 -738.473)"/>
                <path id="Path_7551" data-name="Path 7551" class="cls-5" d="M156.877 781.82a394.49 394.49 0 0 0-.851-2.809 128.665 128.665 0 0 0-1.8-5.462q-.585-1.618-1.233-3.209a19.778 19.778 0 0 1 .246-1.991c.171-.8.422-1.571.659-2.354.015-.046-.064-.073-.084-.026a10.481 10.481 0 0 0-1.081 3.736c-.5-1.2-1.04-2.383-1.62-3.545a15.106 15.106 0 0 1 .081-2.958.036.036 0 0 0-.07-.013 10.535 10.535 0 0 0-.2 2.607q-.659-1.319-1.407-2.589c-.044-.077-.149 0-.11.077.78 1.486 1.5 3.024 2.174 4.563a9.893 9.893 0 0 0-3.242-1.877c-.051-.02-.088.055-.037.077a11.752 11.752 0 0 1 3.495 2.314q.73 1.694 1.387 3.415a10.732 10.732 0 0 0-4.763-2.541c-.057-.015-.073.073-.018.09a13.053 13.053 0 0 1 5.013 3.06q.262.7.514 1.4.952 2.637 1.818 5.33.415 1.281.818 2.572c.288.925.514 1.9.879 2.793.037.083.189.064.169-.037a26.1 26.1 0 0 0-.737-2.623z" transform="translate(-144.856 -760.901)"/>
                <path id="Path_7552" data-name="Path 7552" class="cls-5" d="M197.588 780.442a5.156 5.156 0 0 0-.743 1.851c0 .018.024.026.031.011a15.569 15.569 0 0 1 .8-1.815.052.052 0 1 0-.088-.047z" transform="translate(-188.985 -776.574)"/>
                <path id="Path_7553" data-name="Path 7553" class="cls-5" d="M146.245 821.42a5.425 5.425 0 0 0-1.848-.622c-.018 0-.029.022 0 .029.3.123.611.209.912.325s.6.257.9.363a.053.053 0 0 0 .035-.094z" transform="translate(-141.319 -813.266)"/>
                <path id="Path_7554" data-name="Path 7554" class="cls-5" d="M147.126 767.475a3.474 3.474 0 0 0-.6-.367.031.031 0 0 0-.033.051 3.565 3.565 0 0 0 .585.382c.043.022.085-.041.048-.066z" transform="translate(-143.235 -764.486)"/>
                <path id="Path_7555" data-name="Path 7555" class="cls-9" d="M243.268 765.025c-1.486.44-2.976.846-4.46 1.284-.13.037-2.637-4.769-1.732-7.253a8.072 8.072 0 0 1 5.055-4.787 6.868 6.868 0 0 1 3.484-.415 2.9 2.9 0 0 1 2.022 1.978 8.328 8.328 0 0 1 .053 4.088 7.159 7.159 0 0 1-1.47 3.347 5.771 5.771 0 0 1-2.952 1.758z" transform="translate(-225.357 -752.365)"/>
                <path id="Path_7556" data-name="Path 7556" class="cls-5" d="M242.768 789.892a19.935 19.935 0 0 1-2.91 1.145 12.048 12.048 0 0 0-1.943.7 65.185 65.185 0 0 1 2.044-4.121 6.683 6.683 0 0 0 2.69-1.389.042.042 0 0 0-.053-.064 13.442 13.442 0 0 1-2.538 1.272c.2-.365.4-.73.6-1.1.057-.1-.084-.2-.152-.1a31.243 31.243 0 0 0-2.108 3.543 16.178 16.178 0 0 1-.154-3.246.022.022 0 1 0-.042 0 10.782 10.782 0 0 0 .035 3.565c-.521 1.04-.993 2.1-1.42 3.18-.169-.646-.389-1.284-.536-1.936a8.932 8.932 0 0 1-.22-2.857.022.022 0 0 0-.044 0 10.075 10.075 0 0 0 .624 5.246c-.248.648-.486 1.3-.7 1.952a38.9 38.9 0 0 0-1.978 10.3.064.064 0 0 0 .125.011 51.157 51.157 0 0 1 2.213-10.178c.44-1.295.925-2.549 1.468-3.782.879-.259 1.758-.611 2.611-.91a8.458 8.458 0 0 0 2.418-1.178.031.031 0 0 0-.029-.051z" transform="translate(-222.705 -781.797)"/>
                <path id="Path_7557" data-name="Path 7557" class="cls-5" d="M318.558 811.65c-.908.323-1.758.776-2.677 1.1-.042.015-.018.081.026.073a6.108 6.108 0 0 0 2.684-1.123c.031-.021-.002-.061-.033-.05z" transform="translate(-297.111 -804.953)"/>
                <path id="Path_7558" data-name="Path 7558" class="cls-5" d="M260.587 789.844c0-.048-.059-.075-.075-.026a4.64 4.64 0 0 0-.178 2.58c.011.033.061.035.064 0a15.819 15.819 0 0 1 .189-2.554z" transform="translate(-246.56 -785.097)"/>
                <path id="Path_7559" data-name="Path 7559" class="cls-5" d="M301.35 768.949a2.2 2.2 0 0 0-.4 1.422c0 .033.053.051.062.013.112-.479.3-.914.44-1.38a.062.062 0 0 0-.105-.055z" transform="translate(-283.564 -766.143)"/>
                <path id="Path_7560" data-name="Path 7560" class="cls-9" d="M111.185 870.488c.44 1.38 1.47 3.3 3.108 3.3 1.062.011 2.13-.114 3.193-.13a45.298 45.298 0 0 1 3.418.053 6.373 6.373 0 0 0-2.875-5.077 8.277 8.277 0 0 0-2.576-.8 12.02 12.02 0 0 0-3.042-.316c-.631.026-1.154.158-1.376.8a3.769 3.769 0 0 0 .15 2.17z" transform="translate(-110.93 -855.704)"/>
                <path id="Path_7561" data-name="Path 7561" class="cls-5" d="M125.77 874.713c.659.171 1.338.369 2 .58a6.687 6.687 0 0 0-.552-.536c-.286-.237-.6-.428-.91-.637-.024-.018 0-.066.024-.055a3.763 3.763 0 0 1 1.613 1.286c.833.268 1.657.565 2.451.89a9.246 9.246 0 0 1 1.569.827 6.444 6.444 0 0 0-.567-.991 5.543 5.543 0 0 0-1.332-1.068.042.042 0 0 1 .044-.073 3.9 3.9 0 0 1 2.134 2.314 9.188 9.188 0 0 1 1.554 1.411 12.011 12.011 0 0 1 3.244 7.591c0 .066-.108.086-.119.015a15.478 15.478 0 0 0-3.457-7.422 8.7 8.7 0 0 0-.4-.439 12.542 12.542 0 0 0-1.5-.11c-.582 0-1.16.086-1.741.132a5.056 5.056 0 0 1-2.877-.391c-.037-.022 0-.088.031-.073 1.923.7 3.939-.187 5.866.22a8.991 8.991 0 0 0-2.844-1.815l-.176-.073a8.586 8.586 0 0 1-3.736.07.03.03 0 0 1 .015-.057 11.229 11.229 0 0 0 3.42-.134c-1.248-.486-2.519-.879-3.769-1.354-.095-.039-.097-.136.015-.108z" transform="translate(-124.336 -861.658)"/>
                <path id="Path_7562" data-name="Path 7562" class="cls-5" d="M120.33 894.449a16.911 16.911 0 0 0 1.8.136.012.012 0 0 1 0 .024 3.736 3.736 0 0 1-1.811-.114c-.04-.008-.019-.05.011-.046z" transform="translate(-119.439 -880.179)"/>
                <path id="Path_7563" data-name="Path 7563" class="cls-5" d="M164.246 881.477a2.95 2.95 0 0 1 .879.618.037.037 0 0 1-.044.059 6.3 6.3 0 0 0-.464-.314 4.483 4.483 0 0 1-.44-.275c-.023-.033.023-.105.069-.088z" transform="translate(-159.3 -868.391)"/>
                <path id="Path_7564" data-name="Path 7564" class="cls-9" d="M270.632 886.491c-.02.046.046.088.073.039a.059.059 0 0 0 .042.029 27.16 27.16 0 0 0 3.345.582 4.268 4.268 0 0 0 2.743-.393 3.43 3.43 0 0 0 1.2-3.827c-.688-1.437-2.758-.659-3.8-.145a7.615 7.615 0 0 0-3.603 3.715z" transform="translate(-256.018 -868.959)"/>
                <path id="Path_7565" data-name="Path 7565" class="cls-5" d="M228.62 895.5a10.718 10.718 0 0 1 2-1.521 6.85 6.85 0 0 1 2.026-2.064c.037-.026.072.035.035.064a9.036 9.036 0 0 0-1.706 1.8 18.844 18.844 0 0 1 2.506-1.141 3.33 3.33 0 0 1 1.345-1.349c.011 0 .026.011.015.02a5.477 5.477 0 0 0-1.215 1.275 41.096 41.096 0 0 1 1.538-.536c.046-.015.064.055.02.07-.914.358-1.851.736-2.756 1.169a10.63 10.63 0 0 0 3.339 0c.031 0 .044.04.013.048a6.62 6.62 0 0 1-3.543.053 16.529 16.529 0 0 0-1.681.941 4.2 4.2 0 0 1 1.358.11 10.288 10.288 0 0 0 2.387.27.027.027 0 0 1 0 .055c-1.385.237-2.695-.391-4.066-.22a10.574 10.574 0 0 0-1.431 1.169 10.735 10.735 0 0 0-2.084 2.941c-.578 1.176-.89 2.418-1.358 3.635a.044.044 0 1 1-.086-.022 12.957 12.957 0 0 1 3.344-6.767z" transform="translate(-214.812 -877.301)"/>
                <path id="Path_7566" data-name="Path 7566" class="cls-5" d="M307.5 894.069a1.6 1.6 0 0 1 .354-.44 1.419 1.419 0 0 1 .409-.305c.015 0 .022.013.013.022-.112.13-.27.22-.393.347s-.22.27-.349.391a.02.02 0 0 1-.033-.015z" transform="translate(-289.512 -879.156)"/>
                <path id="Path_7567" data-name="Path 7567" class="cls-5" d="M332.26 906.843c.2-.051.422-.048.631-.09a5.938 5.938 0 0 0 .613-.185.025.025 0 0 1 .018.046 2.032 2.032 0 0 1-1.262.292.033.033 0 0 1 0-.064z" transform="translate(-311.989 -891.188)"/>
                <path id="Path_7568" data-name="Path 7568" class="cls-7" d="m199.536 978.822.182 2.064.618 6.967h5.457l.769-6.967.229-2.064z" transform="translate(-191.429 -956.832)"/>
                <path id="Path_7569" data-name="Path 7569" class="cls-5" d="m199.536 978.822.182 2.064h6.844l.229-2.064z" transform="translate(-191.429 -956.832)"/>
                <path id="Rectangle_7938" data-name="Rectangle 7938" class="cls-7" transform="rotate(180 7.951 11.55)" d="M0 0h8.334v1.675H0z"/>
            </g>
            <g id="freepik--Character--inject-5" transform="translate(46.113 9.194)">
                <path id="Path_7570" data-name="Path 7570" class="cls-5" d="M821.85 224.694a4.4 4.4 0 0 0-4.128-.079c-1.965 1.171-2.945 4.132-2.659 6.638s-1.782 4.114-2.037 5.967.947 2.734 1.339 3.714c.44 1.125-1.5 5.055 3.253 6.06 5.947 1.262 8.3-2.367 7.75-5.416-.27-1.492-1.1-2.565-1.048-3.767s.906-2.145.49-3.679-1.007-1.338-1.2-3.736.346-5.247-1.76-5.702z" transform="translate(-794.867 -224.114)"/>
                <path id="Path_7571" data-name="Path 7571" class="cls-5" d="M814.247 229.046a7.389 7.389 0 0 0-2.886 3.343 6.886 6.886 0 0 0-.547 2.163 8.937 8.937 0 0 1-.33 2.833c-.609 1.506-1.8 2.749-1.774 4.442a4.176 4.176 0 0 0 .677 2.218 25.744 25.744 0 0 1 1.642 2.215c.015.035.07 0 .053-.029a13.093 13.093 0 0 0-1.391-1.958 4.241 4.241 0 0 1-.833-2.675c.077-1.6 1.246-2.818 1.811-4.273a5.16 5.16 0 0 0 .275-1.982 7.255 7.255 0 0 1 .354-2.418 7.829 7.829 0 0 1 2.967-3.855s-.004-.033-.018-.024z" transform="translate(-790.979 -228.593)"/>
                <path id="Path_7572" data-name="Path 7572" class="cls-5" d="M838.022 427.972z" transform="translate(-817.609 -409.321)"/>
                <path id="Path_7573" data-name="Path 7573" class="cls-5" d="M927.571 281.4c-.138-.721-.5-1.378-.637-2.1a6.461 6.461 0 0 1 .25-2.563 5.439 5.439 0 0 0-.259-3.49 19.574 19.574 0 0 1-.978-2.213 9.129 9.129 0 0 1-.409-2.6.015.015 0 0 0-.031 0 8.282 8.282 0 0 0 .73 3.717 11.463 11.463 0 0 1 .879 2.066 6.1 6.1 0 0 1-.066 2.613 9.961 9.961 0 0 0-.255 1.78 4.992 4.992 0 0 0 .389 1.758 6.187 6.187 0 0 1-.112 4.554c0 .024.035.044.046.02a5.879 5.879 0 0 0 .453-3.543z" transform="translate(-897.084 -264.363)"/>
                <path id="Path_7574" data-name="Path 7574" class="cls-5" d="M810.328 304.543c.077-1.319 1.015-2.2 1.6-3.341a4.717 4.717 0 0 0 .622-2.734c0-.018-.031-.013-.031 0a6.3 6.3 0 0 1-1.345 3.769 4.393 4.393 0 0 0-.978 2.418 4.112 4.112 0 0 0 .829 2.437 5.168 5.168 0 0 1 .855 1.684 6.692 6.692 0 0 1 .053 1.932c0 .033.053.033.055 0a4.738 4.738 0 0 0-.343-2.857c-.594-1.128-1.397-1.974-1.317-3.308z" transform="translate(-792.325 -291.655)"/>
                <path id="Path_7575" data-name="Path 7575" class="cls-5" d="M924.882 364.872a8.211 8.211 0 0 0-.736-1.294 2.628 2.628 0 0 1-.38-2.24.018.018 0 0 0-.033 0 2.113 2.113 0 0 0 .092 2 6.738 6.738 0 0 1 1.262 2.928 4.976 4.976 0 0 1-2.8 4.783c-.026.013 0 .048.022.037a4.932 4.932 0 0 0 2.884-3.655 4.757 4.757 0 0 0-.311-2.559z" transform="translate(-894.149 -348.773)"/>
                <path id="Path_7576" data-name="Path 7576" class="cls-16" d="M889.3 934.568c-.5.167-14.792.125-15.337-.22-.2-.13-.321-2.213-.389-4.732q-.024-.818-.035-1.677c-.011-.675-.02-1.36-.024-2.024-.015-2.985.024-5.613.024-5.613h9.3v7.638l-.048 1.677s5.464 2.464 6.02 2.908.989 1.882.489 2.043z" transform="translate(-849.853 -856.608)"/>
                <path id="Path_7577" data-name="Path 7577" class="cls-1" d="M889.338 990.309c-.5.167-14.792.125-15.337-.22-.2-.13-.321-2.213-.389-4.732q-.024-.817-.035-1.677c-.011-.675-.02-1.36-.024-2.024h9.323v2.024l-.048 1.677s5.464 2.464 6.02 2.908.989 1.884.49 2.044z" transform="translate(-849.888 -912.349)"/>
                <path id="Path_7578" data-name="Path 7578" class="cls-9" d="M889.054 1010.3c-.328.108-6.413.13-10.846.037a127.31 127.31 0 0 1-2.719-.084 9.147 9.147 0 0 1-1.857-.176c-.251-.163-.371-3.22-.44-6.444h9.35l-.048 1.686s5.495 2.477 6.055 2.923 1.004 1.892.505 2.058z" transform="translate(-849.561 -932.319)"/>
                <path id="Path_7579" data-name="Path 7579" class="cls-5" d="M900.115 1069.58c-2.407-.066-12.13-.105-14.506.013-.02 0-.02.013 0 .015 2.385.117 12.106.077 14.506.011.063.001.063-.036 0-.039z" transform="translate(-860.828 -992.172)"/>
                <path id="Path_7580" data-name="Path 7580" class="cls-5" d="M950.482 1015.468a3.362 3.362 0 0 0-2.835.635c-.026.026.011.066.042.057a13.38 13.38 0 0 1 2.789-.574.059.059 0 1 0 0-.119z" transform="translate(-917.195 -943.003)"/>
                <path id="Path_7581" data-name="Path 7581" class="cls-5" d="M957.926 1020.054a3.349 3.349 0 0 0-2.833.635c-.029.026 0 .066.042.055a13.191 13.191 0 0 1 2.789-.571.059.059 0 1 0 0-.119z" transform="translate(-923.958 -947.168)"/>
                <path id="Path_7582" data-name="Path 7582" class="cls-5" d="M965.4 1024.573a3.356 3.356 0 0 0-2.833.635c-.029.026 0 .066.04.057a13.275 13.275 0 0 1 2.789-.572.062.062 0 0 0 0-.121z" transform="translate(-930.745 -951.275)"/>
                <path id="Path_7583" data-name="Path 7583" class="cls-5" d="M972.867 1029.11a3.347 3.347 0 0 0-2.833.635c-.029.026 0 .066.04.055a13.39 13.39 0 0 1 2.789-.571.059.059 0 0 0 0-.119z" transform="translate(-937.532 -955.396)"/>
                <path id="Path_7584" data-name="Path 7584" class="cls-5" d="M968.832 989.321c-.371-.514-1.066-.286-1.462.046a5.055 5.055 0 0 0-1.466 2.167.024.024 0 0 0 .022.033.118.118 0 0 0 .147.121 8.448 8.448 0 0 0 2.33-1.018c.397-.303.781-.863.429-1.349zm-1.659 1.688c-.38.149-.767.281-1.145.44a15.024 15.024 0 0 1 .879-1.246 5.1 5.1 0 0 1 .5-.543c.284-.255 1.4-.8 1.231.242-.085.579-1.008.927-1.465 1.107z" transform="translate(-933.79 -919.038)"/>
                <path id="Path_7585" data-name="Path 7585" class="cls-5" d="M931.571 997.18a8.411 8.411 0 0 0 2.51.4.117.117 0 0 0 .112-.152.026.026 0 0 0 .016-.017.026.026 0 0 0 0-.023 5.039 5.039 0 0 0-1.961-1.732c-.466-.22-1.2-.27-1.426.321s.294 1.003.749 1.203zm-.426-.677c-.424-.965.793-.717 1.132-.541a5.8 5.8 0 0 1 .624.4c.415.3.783.66 1.167.987-.407-.066-.813-.095-1.222-.145-.486-.066-1.466-.172-1.7-.7z" transform="translate(-901.865 -924.935)"/>
                <path id="Path_7586" data-name="Path 7586" class="cls-7" d="M839.92 486.975s2.514 24.869 2.571 25.183c0 .042.026.521.051 1.3.136 4.281.47 17.629.47 17.629h10.26s-.67-15.811-1.055-19.5c-.49-4.706-3.576-24.616-3.576-24.616z" transform="translate(-819.333 -462.924)"/>
                <path id="Path_7587" data-name="Path 7587" class="cls-5" d="M854.669 521.686q-.475-8.084-1.427-16.128c-.36-3.02-.793-6.031-1.224-9.044 0-.026-.046-.024-.042 0 .793 5.361 1.356 10.77 1.84 16.159s.822 10.792 1.044 16.2c.125 3.064.22 6.13.319 9.194a.057.057 0 0 0 .112 0c-.145-5.456-.301-10.926-.622-16.381z" transform="translate(-830.286 -471.575)"/>
                <path id="Path_7588" data-name="Path 7588" class="cls-5" d="M887.457 949.937c-.268-.035-.56-.024-.833-.035-.308 0-.615-.013-.923-.024q-.892-.033-1.782-.048c-1.2-.018-2.4-.011-3.6.026l-.989.035c-.349.013-.7.044-1.053.044-.026 0-.026.031 0 .031.6 0 1.213.053 1.818.075a82.918 82.918 0 0 0 5.376.002c.33-.013.659-.017.989-.028.176 0 .352-.015.528-.022s.312 0 .468-.015a.02.02 0 0 0 0-.04z" transform="translate(-854.166 -883.426)"/>
                <path id="Path_7589" data-name="Path 7589" class="cls-5" d="M839.92 487s2.514 24.869 2.571 25.183c0 .042.026.521.051 1.3L847.377 487z" transform="translate(-819.333 -462.946)"/>
                <path id="Path_7590" data-name="Path 7590" class="cls-16" d="M629.292 879.784c-.525-.055-13.523-5.989-13.877-6.53-.134-.2.62-2.147 1.6-4.471.209-.5.409-1.029.659-1.538.314-.646.635-1.286.954-1.9a128.001 128.001 0 0 1 2.638-4.859l8.233 3.736-2.382 4.859-.982 2-.734 1.508s3.956 4.5 4.284 5.13.13 2.119-.393 2.065z" transform="translate(-615.353 -802.263)"/>
                <path id="Path_7591" data-name="Path 7591" class="cls-1" d="M629.292 928.039c-.525-.055-13.523-5.989-13.877-6.53-.134-.2.62-2.147 1.6-4.47.209-.5.409-1.029.659-1.539.314-.646.635-1.286.954-1.9a1020.32 1020.32 0 0 0 8.488 3.736l-.982 2-.734 1.508s3.956 4.5 4.284 5.13.131 2.12-.392 2.065z" transform="translate(-615.353 -850.518)"/>
                <path id="Path_7592" data-name="Path 7592" class="cls-9" d="M628.865 946.582c-.525-.055-13.6-6.022-13.954-6.565-.163-.251.989-3.077 2.268-6.046l8.517 3.857-.739 1.516s3.983 4.523 4.308 5.161.128 2.134-.4 2.077z" transform="translate(-614.896 -869.026)"/>
                <path id="Path_7593" data-name="Path 7593" class="cls-5" d="M636.641 1005.8c-2.167-1.053-11.007-5.1-13.229-5.978-.018 0-.024 0 0 .016 2.125 1.1 10.989 5.066 13.218 6 .041.015.063-.02.011-.038z" transform="translate(-622.618 -928.849)"/>
                <path id="Path_7594" data-name="Path 7594" class="cls-5" d="M702.234 981.9a3.355 3.355 0 0 0-2.842-.591c-.037.013-.02.064.013.068a13.391 13.391 0 0 1 2.776.628.059.059 0 0 0 .053-.106z" transform="translate(-691.643 -911.923)"/>
                <path id="Path_7595" data-name="Path 7595" class="cls-5" d="M707.161 989.094a3.353 3.353 0 0 0-2.844-.591c-.037.013-.02.064.013.068a13.371 13.371 0 0 1 2.785.629.059.059 0 0 0 .046-.105z" transform="translate(-696.117 -918.461)"/>
                <path id="Path_7596" data-name="Path 7596" class="cls-5" d="M712.1 996.3a3.351 3.351 0 0 0-2.844-.591c-.035.013-.018.064.013.068a13.4 13.4 0 0 1 2.774.629.06.06 0 0 0 .057-.105z" transform="translate(-700.607 -925.009)"/>
                <path id="Path_7597" data-name="Path 7597" class="cls-5" d="M717.033 1003.505a3.353 3.353 0 0 0-2.842-.589c-.037.013-.02.064.013.068a13.263 13.263 0 0 1 2.776.628.061.061 0 0 0 .053-.108z" transform="translate(-705.087 -931.556)"/>
                <path id="Path_7598" data-name="Path 7598" class="cls-5" d="M722.34 968.927c-.125-.622-.853-.7-1.35-.56a5.038 5.038 0 0 0-2.231 1.369.024.024 0 0 0 0 .039.117.117 0 0 0 .086.169 8.419 8.419 0 0 0 2.541.035c.49-.116 1.073-.465.954-1.052zm-2.2.853c-.411-.02-.818-.061-1.229-.066.44-.266.859-.55 1.319-.771a5.389 5.389 0 0 1 .681-.284c.363-.117 1.607-.15 1.022.725-.328.484-1.314.42-1.8.4z" transform="translate(-709.245 -900.222)"/>
                <path id="Path_7599" data-name="Path 7599" class="cls-5" d="M691.9 954.616a8.4 8.4 0 0 0 2.119 1.4.114.114 0 0 0 .165-.09.027.027 0 0 0 .022-.008.026.026 0 0 0 .007-.023 5.053 5.053 0 0 0-1.07-2.38c-.334-.4-.978-.739-1.433-.3s-.144 1.032.19 1.401zm-.11-.793c.011-1.053 1.02-.325 1.255-.024a5.723 5.723 0 0 1 .4.62 15.229 15.229 0 0 1 .659 1.38c-.343-.22-.7-.422-1.053-.637-.42-.257-1.27-.765-1.264-1.341z" transform="translate(-684.476 -886.326)"/>
                <path id="Path_7600" data-name="Path 7600" class="cls-7" d="M672.384 486.866s-.387 3.591-2.893 5.42c0 0-4.615 18.491-5.334 20.612-1.237 3.655-7.888 16.031-7.888 16.031l-10.264-4.4s7.829-13.792 8.675-14.853c.561-.705 4.776-15.7 4.726-16.082-.618-4.6 1.563-6.745 1.563-6.745z" transform="translate(-643.159 -462.815)"/>
                <path id="Path_7601" data-name="Path 7601" class="cls-5" d="M820.5 500.982a3.424 3.424 0 0 1-1.255 1.8 4.243 4.243 0 0 1-2.279.782.11.11 0 0 0 0 .22 3.51 3.51 0 0 0 3.607-2.794c-.002-.037-.065-.046-.073-.008z" transform="translate(-798.378 -475.63)"/>
                <path id="Path_7602" data-name="Path 7602" class="cls-5" d="M886.53 533.794a9.237 9.237 0 0 0-1.728.917c-.574.356-1.1.771-1.659 1.156-.022.013 0 .048.02.035.582-.334 1.187-.624 1.758-.969a11.008 11.008 0 0 0 1.631-1.1.026.026 0 0 0-.022-.04z" transform="translate(-858.593 -505.461)"/>
                <path id="Path_7603" data-name="Path 7603" class="cls-5" d="M901.123 495.528c-.09.385-.2.763-.3 1.143s-.169.721-.281 1.073a1.845 1.845 0 0 1-.545.879c-.147.125-.31.235-.466.347-.083.062-.173.121-.261.182.013-.051.024-.1.035-.154.033-.145.064-.292.1-.44a83.3 83.3 0 0 0 .2-.969c.128-.637.248-1.281.411-1.91a.021.021 0 1 0-.04-.011c-.189.62-.393 1.235-.563 1.864-.081.308-.4 1.833-.411 1.941s-.031.22-.039.336a1.3 1.3 0 0 0-.015.345c0 .029.037.024.051 0a1.453 1.453 0 0 0 .121-.3c.033-.11.064-.22.088-.33a.8.8 0 0 1 .024-.121 4.652 4.652 0 0 0 .44-.3c.136-.1.319-.2.468-.319a1.739 1.739 0 0 0 .591-.837 6.39 6.39 0 0 0 .231-1.1c.068-.44.123-.879.2-1.3.005-.032-.033-.047-.039-.019z" transform="translate(-872.951 -470.684)"/>
                <path id="Path_7604" data-name="Path 7604" class="cls-5" d="M674.1 887.34c-.231-.139-2.659-1.271-3.2-1.519-1.088-.5-4.849-2.04-5.2-2.169-.116-.042-.125.022-.033.066.556.27 2.732 1.268 3.273 1.514 1.088.5 5 2.1 5.15 2.147.018.007.029-.024.01-.039z" transform="translate(-660.958 -823.298)"/>
                <path id="Path_7605" data-name="Path 7605" class="cls-5" d="M685.156 491.609a8.5 8.5 0 0 0-1.42 4.574 7.248 7.248 0 0 0 .1 1.22c.018.1.029.2.053.3l.031.149a.463.463 0 0 1 .018.127c-.024.185-.072.387-.116.58a95.588 95.588 0 0 1-.6 2.341 520.564 520.564 0 0 1-2.574 9.323l-.659 2.321c-.117.387-.231.771-.354 1.154-.062.189-.123.385-.2.56a4.981 4.981 0 0 1-.268.53c-.758 1.418-1.58 2.807-2.371 4.209 0 0-4.046 6.8-4.879 8.365-.04.073-.02.119.055.022.723-.943 3.358-5.508 5-8.282.822-1.389 1.633-2.78 2.418-4.2.1-.176.187-.363.279-.547a4.236 4.236 0 0 0 .207-.58c.125-.385.244-.771.361-1.158.231-.772.459-1.539.679-2.321.868-3.108 1.725-6.218 2.51-9.345.2-.782.389-1.565.563-2.356.042-.2.088-.389.112-.6a.518.518 0 0 0-.024-.171l-.031-.145c-.024-.1-.037-.2-.057-.295a8.021 8.021 0 0 1-.108-1.193 8.54 8.54 0 0 1 1.275-4.582z" transform="translate(-666.685 -467.136)"/>
                <path id="Path_7606" data-name="Path 7606" class="cls-16" d="M874.834 329.029c.835 2.721 5.136 9.671 7.93 10.255 2.246.475 8.383-.064 10.007-.358.545-.1-.413-6.5-1.055-6.5-1.512 0-6.306 1.723-7.6 1.251a84.379 84.379 0 0 1-7.123-5.8c-1.393-1.196-2.656-.477-2.159 1.152z" transform="translate(-850.952 -317.844)"/>
                <path id="Path_7607" data-name="Path 7607" class="cls-16" d="M1048.785 375a32.355 32.355 0 0 0 5.082-.958c.916-.365 3.477-1.6 3.27-2.33s-.987-.44-.987-.44 1-.695.723-1.411-1.47-.2-1.47-.2.974-.787.646-1.481-1.442.02-1.442.02.923-.679.415-1.138c-.613-.552-2.176.879-3.218 1.218-.235.073-4.9 1.156-4.9 1.156z" transform="translate(-1007.379 -353.864)"/>
                <path id="Path_7608" data-name="Path 7608" class="cls-5" d="M1098.657 379.951a5.515 5.515 0 0 1-3.352 1.6c-.031 0-.029.051 0 .048a4.06 4.06 0 0 0 3.4-1.593c.055-.064.007-.114-.048-.055z" transform="translate(-1051.333 -365.67)"/>
                <path id="Path_7609" data-name="Path 7609" class="cls-5" d="M1104.886 395.746a8.227 8.227 0 0 1-3.6 1.692.022.022 0 0 0 0 .042 5.593 5.593 0 0 0 3.631-1.662c.061-.052.026-.118-.031-.072z" transform="translate(-1056.772 -380.029)"/>
                <path id="Path_7610" data-name="Path 7610" class="cls-5" d="M1110.175 414.411a7.346 7.346 0 0 1-3.69 1.429.029.029 0 0 0 0 .057 5.247 5.247 0 0 0 3.71-1.442c.075-.066.062-.098-.02-.044z" transform="translate(-1061.484 -396.976)"/>
                <path id="Rectangle_7939" data-name="Rectangle 7939" class="cls-1" transform="rotate(180 28.361 10.144)" d="M0 0h13.781v13.781H0z"/>
                <path id="Rectangle_7940" data-name="Rectangle 7940" class="cls-9" transform="rotate(180 28.024 9.807)" d="M0 0h12.431v12.431H0z"/>
                <path id="Path_7611" data-name="Path 7611" class="cls-11" d="M1113.3 325.658a1.171 1.171 0 1 0 .921-.921 1.171 1.171 0 0 0-.921.921z" transform="translate(-1067.677 -315.511)"/>
                <path id="Path_7612" data-name="Path 7612" class="cls-11" d="M1129.3 353.2h8.985l-4.492-5.038z" transform="translate(-1082.24 -336.817)"/>
                <path id="Path_7613" data-name="Path 7613" class="cls-9" d="M1091.61 370.643h7.418l-3.708-3.281z" transform="translate(-1047.996 -354.256)"/>
                <g id="Group_8348" data-name="Group 8348" class="cls-14" transform="translate(43.614 13.106)">
                    <path id="Path_7614" data-name="Path 7614" d="M1091.61 370.643h7.418l-3.708-3.281z" transform="translate(-1091.61 -367.361)"/>
                </g>
                <path id="Rectangle_7941" data-name="Rectangle 7941" class="cls-9" transform="translate(43.614 16.387)" d="M0 0h12.431v3.226H0z"/>
                <path id="Rectangle_7942" data-name="Rectangle 7942" class="cls-15" transform="translate(43.614 16.387)" d="M0 0h12.431v3.226H0z"/>
                <path id="Path_7615" data-name="Path 7615" class="cls-16" d="M1036.285 361.66a19.484 19.484 0 0 1 1.84-2.147c.666-.578 3.945-1.807 4.251-1.114.4.895-1.356 1.978-2.284 2.4 0 0 .917 2.068-.171 3.119s-3.636-2.258-3.636-2.258z" transform="translate(-997.732 -345.926)"/>
                <path id="Path_7616" data-name="Path 7616" class="cls-5" d="M1079.064 363.518c-.22 1.075-1.482 1.538-2.349 2.02a.09.09 0 0 0-.022.147 3.643 3.643 0 0 1-.05 3.066c-.018.024.015.053.035.031a2.954 2.954 0 0 0 .22-3.1c.9-.473 2.134-1 2.169-2.165z" transform="translate(-1034.393 -350.764)"/>
                <path id="Path_7617" data-name="Path 7617" class="cls-9" d="m886.665 329.4-.042 7.912s-4.8-.136-6.969-.9-6.154-6.429-7.319-9.011-.543-4.848 2.532-2.4 6.545 5.389 6.648 5.446 5.15-1.047 5.15-1.047z" transform="translate(-848.284 -314.814)"/>
                <path id="Path_7618" data-name="Path 7618" class="cls-17" d="M879.033 329.926a.185.185 0 1 1-.185-.185.185.185 0 0 1 .185.185zm-.185 3.989a.185.185 0 1 0 .185.185.185.185 0 0 0-.185-.185zm2.868 0a.185.185 0 1 0 .185.185.185.185 0 0 0-.185-.185zm2.7.1a.182.182 0 0 0 .163.268.18.18 0 0 0 .112-.037c-.09-.075-.182-.149-.275-.231zm-7.007-2.18a.185.185 0 1 0 .185.185.185.185 0 0 0-.181-.186zm2.868 0a.185.185 0 1 0 .182.185.182.182 0 0 0-.18-.185zm1.433 6.255a.185.185 0 1 0 .185.185.182.182 0 0 0-.182-.185zm2.857 0a.179.179 0 1 0 .011 0zm2.857 0a.185.185 0 1 0 .177.085.185.185 0 0 0-.173-.086zm2.857 0a.185.185 0 1 0 .182.185.182.182 0 0 0-.152-.185zm-10.033-2.081a.185.185 0 1 0 .183.185.183.183 0 0 0-.152-.185zm2.857 0a.166.166 0 1 0 .04 0zm2.857 0a.162.162 0 1 0 .048 0zm2.857 0a.185.185 0 1 0 .185.185.182.182 0 0 0-.127-.185zm2.684.182a.171.171 0 0 0 .035.108v-.22a.185.185 0 0 0 .022.112zm-1.248 6.073a.182.182 0 0 0-.185.182.194.194 0 0 0 .011.062l.336.022a.173.173 0 0 0 .02-.083.184.184 0 0 0-.125-.182zm-7.167-2.084a.185.185 0 1 0 .185.185.187.187 0 0 0-.127-.185zm2.857 0a.185.185 0 1 0 .185.185.187.187 0 0 0-.119-.185zm2.857 0a.152.152 0 1 0 .075 0zm2.684.185a.219.219 0 0 0 .011.068v-.138a.2.2 0 0 0 .064.07z" transform="translate(-853.227 -320.077)"/>
                <path id="Path_7619" data-name="Path 7619" class="cls-5" d="M1017.031 394.4c0-.567.026-2.824.079-3.378 0-.015.024-.011.024 0 .055.561.075 2.831.072 3.4 0 1.134 0 2.275-.077 3.4 0 .024-.031.026-.033 0-.08-1.132-.065-2.282-.065-3.422z" transform="translate(-980.239 -375.742)"/>
                <path id="Path_7620" data-name="Path 7620" class="cls-11" d="M883.556 337.166a18.545 18.545 0 0 1-3.875-.7c-2.169-.765-6.154-6.431-7.319-9.011-.989-2.2-.686-4.176 1.341-3.185z" transform="translate(-848.311 -314.871)"/>
                <path id="Path_7621" data-name="Path 7621" class="cls-9" d="m814.366 334.4.851 6.167-2.4.011-.684-1.251-.956 1.253c-3.09 0-7.055-.02-8.5-.132 0 0 2.116-11.5 4.818-14.394 1.35-1.446 2.923-1.319 3.919-.3.253.259 3.253 4.284 3.561 5.816a4.676 4.676 0 0 1-.609 2.83z" transform="translate(-785.504 -315.747)"/>
                <path id="Path_7622" data-name="Path 7622" class="cls-9" d="M802.684 340.42c1.442.112 5.409.134 8.5.132l.956-1.251.681 1.248 2.4-.011-.853-6.167a4.709 4.709 0 0 0 .615-2.831 14.806 14.806 0 0 0-2.037-3.736c-.013-.015-.024-.035-.037-.051-.719-1.055-1.371-1.912-1.486-2.026a2.51 2.51 0 0 0-3.758.136.246.246 0 0 0-.035.033 3.04 3.04 0 0 0-.125.128 7.389 7.389 0 0 0-1.059 1.6l-.046.088a30.007 30.007 0 0 0-1.782 4.721.2.2 0 0 1-.02.062c-1.171 3.89-1.914 7.925-1.914 7.925z" transform="translate(-785.504 -315.723)"/>
                <path id="Path_7623" data-name="Path 7623" class="cls-17" d="M818.9 329.926a.185.185 0 1 1-.185-.185.187.187 0 0 1 .185.185zm2.6-.167a.185.185 0 1 0 .257.209 2.547 2.547 0 0 0-.257-.209zM816.007 334c-.033.09-.068.18-.1.273a.187.187 0 0 0 .13-.176A.206.206 0 0 0 816 334zm2.708-.088a.185.185 0 1 0 .13.053.185.185 0 0 0-.13-.053zm2.857 0a.185.185 0 1 0 .185.185.185.185 0 0 0-.185-.182zm2.958.024a.178.178 0 0 0-.09-.024.175.175 0 1 0 .182.185zm-7.253-2.106a.18.18 0 1 0 .009 0zm2.857 0a.18.18 0 1 0 .009 0zm2.868 0a.185.185 0 1 0 .182.185.182.182 0 0 0-.171-.185zm-7.167 6.255a.179.179 0 1 0 .011 0zm2.857 0a.175.175 0 1 0 .02 0zm2.857 0a.185.185 0 1 0 .185.185.182.182 0 0 0-.156-.185zm2.868 0a.185.185 0 1 0 .185.185.182.182 0 0 0-.156-.185zm-7.132-2.081a.185.185 0 1 0 .185.185.185.185 0 0 0-.184-.182zm2.857 0a.185.185 0 1 0 .177.086.185.185 0 0 0-.176-.083zm2.868 0a.185.185 0 1 0 .182.185.183.183 0 0 0-.18-.185zm-7.167 6.253a.185.185 0 1 0 .185.185.187.187 0 0 0-.182-.185zm2.857 0a.185.185 0 1 0 .185.185.187.187 0 0 0-.174-.185zm2.857 0a.175.175 0 1 0 .02 0zm2.868 0a.175.175 0 1 0 .02 0zm-10.033-2.081a.175.175 0 1 0 .02 0zm2.857 0a.185.185 0 1 0 .185.185.187.187 0 0 0-.15-.185zm2.857 0a.185.185 0 1 0 .185.185.185.185 0 0 0-.183-.182zm2.868 0a.185.185 0 1 0 .185.185.185.185 0 0 0-.183-.182zm-8.6 4.176a.159.159 0 1 0 .037 0zm2.857 0a.185.185 0 1 0 .185.185.187.187 0 0 0-.132-.187zm2.857 0a.185.185 0 1 0 .185.185.187.187 0 0 0-.132-.187zm2.868 0h-.037l.167.31a.18.18 0 0 0 .055-.13.187.187 0 0 0-.13-.183z" transform="translate(-795.958 -320.077)"/>
                <path id="Path_7624" data-name="Path 7624" class="cls-5" d="M921.87 373.274c-.108-.563-.189-1-.277-1.572s-.189-1.132-.27-1.7v-.037l.024-.035a4.3 4.3 0 0 0 .578-1.426 3.086 3.086 0 0 0 .073-.765 2.586 2.586 0 0 0-.116-.756 9.056 9.056 0 0 0-.618-1.446c-.244-.468-.44-.862-.716-1.319-.046-.07-.018-.088.024-.031a14.671 14.671 0 0 1 .8 1.286 7.908 7.908 0 0 1 .7 1.448 2.674 2.674 0 0 1 .141.809 3.261 3.261 0 0 1-.07.815 4.225 4.225 0 0 1-.628 1.5l.018-.075c.075.569.136 1.139.2 1.71.059.512.127 1.064.171 1.578-.004.062.001.218-.034.016z" transform="translate(-892.562 -351.342)"/>
                <path id="Path_7625" data-name="Path 7625" class="cls-5" d="M926.091 369.548a2.652 2.652 0 0 1 .275.532 2.4 2.4 0 0 1 .09.286 1.134 1.134 0 0 1 .044.3 7.447 7.447 0 0 1-.239-.545 3.288 3.288 0 0 1-.17-.573z" transform="translate(-897.62 -356.242)"/>
                <path id="Path_7626" data-name="Path 7626" class="cls-5" d="M890.068 425.888a11.162 11.162 0 0 1 1.626.037c.268.029.534.073.8.119.134.024.266.044.4.061a1.7 1.7 0 0 0 .422.02v.02a3.036 3.036 0 0 1-.4.048 2.881 2.881 0 0 1-.387-.018c-.273-.029-.543-.068-.815-.1-.547-.062-1.1-.123-1.648-.143a.024.024 0 0 1 0-.046z" transform="translate(-864.876 -407.415)"/>
                <path id="Path_7627" data-name="Path 7627" class="cls-5" d="M876.4 430.223a11.093 11.093 0 0 1 1.319-.251c.22-.031.44-.046.659-.055h.321a3.168 3.168 0 0 0 .354 0s.013.02 0 .02a2.862 2.862 0 0 0-.332.044l-.332.037-.659.079c-.44.046-.879.1-1.33.163a.02.02 0 0 1 0-.037z" transform="translate(-852.463 -411.089)"/>
                <path id="Path_7628" data-name="Path 7628" class="cls-16" d="M796.942 333.335c-2.308 3.121-6.712 10.51-5.233 12.137 2.417 2.677 8.262 4.985 10.075 5.424.791.189 3.438-5.523 2.69-5.969-.9-.538-7.159-2.453-7.141-2.987.011-.3.659-2.835 1.2-6.086.623-3.771-.492-4.006-1.591-2.519z" transform="translate(-775.263 -322.568)"/>
                <path id="Path_7629" data-name="Path 7629" class="cls-16" d="M902.777 449.125s2.358-.756 3.925-1.178a9.944 9.944 0 0 1 3.128-.382c1.077.18 5.47 1.622 5.145 2.7-.3.969-3.914-.749-3.914-.749s3.8 1.413 3.233 2.517-4.4-1.382-4.4-1.382 3.875 1.538 3.106 2.585c-.583.789-4.176-1.268-4.176-1.268s3.321 1.347 2.758 2.185c-.622.925-4.059-.765-4.059-.765a5.456 5.456 0 0 1-4.585 2.04c-.282-.028-.161-6.303-.161-6.303z" transform="translate(-876.416 -427.094)"/>
                <path id="Path_7630" data-name="Path 7630" class="cls-5" d="M979.389 462.894c.453.149.912.3 1.35.486a14.218 14.218 0 0 1 1.288.624 8.153 8.153 0 0 1 1.538 1.048 17.628 17.628 0 0 0-2.888-1.554c-.44-.189-.864-.4-1.3-.589-.008-.009.001-.02.012-.015z" transform="translate(-946.028 -441.047)"/>
                <path id="Path_7631" data-name="Path 7631" class="cls-5" d="M971.6 480.03a15.129 15.129 0 0 1 3.31 1.448c.042.022.018.035-.026.015-.55-.255-2.8-1.189-3.3-1.451z" transform="translate(-938.957 -456.616)"/>
                <path id="Path_7632" data-name="Path 7632" class="cls-5" d="M962.221 493.546a10.406 10.406 0 0 1 2.4 1.1c.04.022 0 .037-.037.018-.78-.365-1.33-.585-2.378-1.088-.012-.006-.006-.037.015-.03z" transform="translate(-930.426 -468.895)"/>
                <path id="Path_7633" data-name="Path 7633" class="cls-9" d="m800.46 343.23-3.372 7.543s-6.473-4.057-7.646-6.266c-1.053-1.978 4-10.066 5.174-11.649s2.339-1.846 2.209.789a63.47 63.47 0 0 1-1.22 7.49c-.005.075 4.855 2.093 4.855 2.093z" transform="translate(-773.343 -321.825)"/>
                <path id="Path_7634" data-name="Path 7634" class="cls-17" d="M804.948 331.78a.185.185 0 0 1-.363.015.576.576 0 0 1 .363-.015zm-3.048 3.967a.185.185 0 1 0 .185.185.185.185 0 0 0-.185-.185zm2.857 0a.18.18 0 1 0 .009 0zm-1.418-2.081a.185.185 0 1 0 .185.185.185.185 0 0 0-.184-.186zM799.184 340c-.042.095-.088.191-.132.286a.182.182 0 0 0 .132-.286zm2.716-.079a.185.185 0 1 0 .185.185.185.185 0 0 0-.185-.186zm-1.433-2.081a.185.185 0 1 0 .185.185.183.183 0 0 0-.185-.185zm2.857 0a.177.177 0 1 0 .015 0zm-4.3 6.253a.185.185 0 1 0 .185.185.185.185 0 0 0-.184-.186zm2.857 0a.185.185 0 1 0 .185.185.187.187 0 0 0-.167-.185zm2.857 0a.185.185 0 1 0 .185.185.187.187 0 0 0-.158-.185zm2.857 0a.168.168 0 1 0 .035 0zm-7.165-2.081a.168.168 0 1 0 .035 0zm2.857 0a.185.185 0 1 0 .185.185.187.187 0 0 0-.134-.185zm3.046.152-.281-.119a.185.185 0 0 0 .1.336.187.187 0 0 0 .185-.185.09.09 0 0 0 .039-.033zm-1.613 6.1a.185.185 0 1 0 .185.185.187.187 0 0 0-.141-.185zm-4.3-2.081a.164.164 0 1 0 .044 0zm2.857 0a.185.185 0 1 0 .185.185.187.187 0 0 0-.125-.185zm2.857 0a.185.185 0 1 0 .185.185.187.187 0 0 0-.125-.185z" transform="translate(-782.012 -321.909)"/>
                <path id="Path_7635" data-name="Path 7635" class="cls-5" d="M862.831 456.594c.246-.571 1.253-2.833 1.554-3.365 0-.015.031 0 .026.015-.182.591-1.145 2.89-1.391 3.459-.495 1.141-.978 2.3-1.56 3.394a.022.022 0 0 1-.04-.015c.406-1.176.921-2.328 1.411-3.488z" transform="translate(-838.865 -432.262)"/>
                <path id="Path_7636" data-name="Path 7636" class="cls-5" d="M857.791 373.218c.189-1 .358-2.009.53-3.015a.018.018 0 0 1 .033 0 29.46 29.46 0 0 1-.193 1.7c.092-.29.176-.585.255-.879 0-.022.037-.011.033 0a5.959 5.959 0 0 1-.327 1.136c-.053.343-.108.686-.169 1.026-.088.5-.534 2.69-.6 2.936.842.288 1.589.646 2.418.985q.607.248 1.207.508a10.618 10.618 0 0 1 1.226.532c.022.013-.051.116-.077.169s-.051.02-.042 0a.441.441 0 0 0 .02-.073c-.2-.053-1-.391-1.207-.475l-1.209-.5c-.82-.336-2.519-1.035-2.519-1.048.016-.22.524-2.494.621-3.002z" transform="translate(-835.003 -356.826)"/>
                <path id="Path_7637" data-name="Path 7637" class="cls-16" d="M871.366 288.973c.026.244.971 1.912 2.057 1.978.354.026.576-1.9.576-1.9l.048-.138.684-1.934-2.158-1.78-.314-.237s-.152.541-.334 1.218l-.026.1a6.812 6.812 0 0 0-.114.418c-.026.108-.04.154-.06.237l-.059.246a13.419 13.419 0 0 0-.3 1.792z" transform="translate(-847.902 -279.395)"/>
                <path id="Path_7638" data-name="Path 7638" class="cls-5" d="M877.468 286.3a4.112 4.112 0 0 0 2.123 2.734l.684-1.934-2.158-1.78-.314-.237s-.152.54-.335 1.217z" transform="translate(-853.446 -279.504)"/>
                <path id="Path_7639" data-name="Path 7639" class="cls-16" d="M875.255 232.971c.64 3.545-1.413 4.328-2.178 4.466-.695.123-3.077.459-4.075-3s.44-4.879 2.015-5.246 3.599.235 4.238 3.78z" transform="translate(-845.455 -228.639)"/>
                <path id="Path_7640" data-name="Path 7640" class="cls-5" d="M928.585 262.245a1.873 1.873 0 0 1-.248-.013.388.388 0 0 1-.251-.062.123.123 0 0 1-.024-.154.316.316 0 0 1 .3-.123.475.475 0 0 1 .316.119.136.136 0 0 1-.09.233z" transform="translate(-899.395 -258.434)"/>
                <path id="Path_7641" data-name="Path 7641" class="cls-5" d="M905.548 265.567c.081-.024.154-.059.233-.09a.409.409 0 0 0 .22-.134.13.13 0 0 0-.024-.156.321.321 0 0 0-.321-.024.464.464 0 0 0-.264.209.136.136 0 0 0 .156.2z" transform="translate(-878.8 -261.378)"/>
                <path id="Path_7642" data-name="Path 7642" class="cls-5" d="M913.458 278.476s-.015.013-.013.024c.051.24.07.523-.134.644v.011c.264-.086.235-.461.147-.679z" transform="translate(-886.009 -273.502)"/>
                <path id="Path_7643" data-name="Path 7643" class="cls-5" d="M909.606 276.247c-.393.04-.281.824.083.787s.249-.834-.083-.787z" transform="translate(-882.419 -271.475)"/>
                <path id="Path_7644" data-name="Path 7644" class="cls-5" d="M905.871 276.762c-.062.055-.119.143-.2.163s-.178-.048-.251-.119h-.013c.02.149.1.3.264.3s.235-.149.253-.306c0-.02-.031-.057-.053-.038z" transform="translate(-878.828 -271.941)"/>
                <path id="Path_7645" data-name="Path 7645" class="cls-5" d="M929.657 275.809s.022 0 .022.02c.024.244.095.519.325.571v.013c-.281-.001-.371-.368-.347-.604z" transform="translate(-900.857 -271.08)"/>
                <path id="Path_7646" data-name="Path 7646" class="cls-5" d="M929.765 272.672c.387-.083.521.7.163.774s-.489-.706-.163-.774z" transform="translate(-900.788 -268.224)"/>
                <path id="Path_7647" data-name="Path 7647" class="cls-5" d="M933.156 271.905c.068.031.143.095.22.088s.134-.105.174-.2h.015a.306.306 0 0 1-.132.365c-.132.053-.244-.061-.305-.2-.014-.02-.001-.066.028-.053z" transform="translate(-904.007 -267.435)"/>
                <path id="Path_7648" data-name="Path 7648" class="cls-5" d="M917.4 300.157c.064.051.13.123.22.123a.684.684 0 0 0 .257-.086h.011a.334.334 0 0 1-.3.163.257.257 0 0 1-.22-.2.014.014 0 1 1 .029 0z" transform="translate(-889.697 -293.188)"/>
                <path id="Path_7649" data-name="Path 7649" class="cls-5" d="M919.308 265.662s.105.354.132.525c0 .015-.037.031-.095.042a.824.824 0 0 1-.835-.182c-.015-.015 0-.035.022-.029a1.224 1.224 0 0 0 .774.1c0-.048-.2-.6-.176-.607a1.523 1.523 0 0 1 .4.029c-.2-.745-.514-1.453-.7-2.2a.023.023 0 0 1 .042-.018 12.4 12.4 0 0 1 .857 2.334c.019.099-.346.024-.421.006z" transform="translate(-890.727 -259.724)"/>
                <path id="Path_7650" data-name="Path 7650" class="cls-5" d="M864.8 232.438c.675 0 .659-1.538.659-1.538s2.78-.829 2.739-3.169a3.941 3.941 0 0 0 2.233 1.9s-.409-2.521-2.477-2.767c0 0-2.6-.6-3.763 1.539s.15 4.033.609 4.035z" transform="translate(-840.955 -226.539)"/>
                <path id="Path_7651" data-name="Path 7651" class="cls-5" d="M890.952 235.21a2.547 2.547 0 0 1 0 1.07 2.637 2.637 0 0 1-.422 1 1.975 1.975 0 0 1-.169.22l-.086.106-.1.094c-.068.062-.132.125-.2.182s-.145.105-.22.158l-.112.075-.119.064-.239.128c-.165.068-.334.127-.5.185.154-.09.314-.165.466-.255l.22-.143.11-.072.1-.081.2-.165c.064-.059.123-.123.185-.182l.09-.092.081-.1a2.027 2.027 0 0 0 .156-.2 3.059 3.059 0 0 0 .44-.936 3.37 3.37 0 0 0 .1-.514 3.239 3.239 0 0 0 .019-.542z" transform="translate(-863.725 -234.195)"/>
                <path id="Path_7652" data-name="Path 7652" class="cls-16" d="M864.536 280.749a.715.715 0 0 0 .169.029.591.591 0 0 0 .169 0 .5.5 0 0 0 .2-.086.648.648 0 0 0 .125-.116.69.69 0 0 0 .116-.22l-.286-.941s-.879-1.046-1.369-.721.259 1.89.876 2.055z" transform="translate(-840.76 -273.644)"/>
                <path id="Path_7653" data-name="Path 7653" class="cls-5" d="M867.667 284.1v.018a1.521 1.521 0 0 1 .879.879.334.334 0 0 0-.508-.046.013.013 0 0 0 .013.022.371.371 0 0 1 .422.092 1.78 1.78 0 0 1 .22.314c.024.035.09 0 .07-.033-.037-.539-.518-1.246-1.096-1.246z" transform="translate(-844.541 -278.609)"/>
                <path id="Path_7654" data-name="Path 7654" class="cls-1" d="M875.063 297.855a.167.167 0 1 0 .112-.22.169.169 0 0 0-.112.22z" transform="translate(-851.251 -290.903)"/>
                <path id="Path_7655" data-name="Path 7655" class="cls-1" d="M871.142 296.3a.121.121 0 0 0 .147.079.115.115 0 1 0-.147-.079z" transform="translate(-847.695 -289.564)"/>
            </g>
        </g>
    </g>
</svg>
