<svg xmlns="http://www.w3.org/2000/svg" width="18.314" height="18.12">
    <defs>
        <style>
            .cls-1,.cls-2{fill:#26009c}.cls-1{opacity:.5}
        </style>
    </defs>
    <g id="_3159168" data-name="3159168" transform="translate(0 -2.715)">
        <g id="Group_7879" data-name="Group 7879" transform="translate(.358 3.073)">
            <path id="Path_6374" data-name="Path 6374" class="cls-1" d="M17.214 315.339h-6.333a.881.881 0 0 0-.881.881v.934h8.1v-.934a.881.881 0 0 0-.886-.881z" transform="translate(-10 -304.514)"/>
            <path id="Path_6375" data-name="Path 6375" class="cls-1" d="M150.94 13.6a.881.881 0 0 0-.881-.881h-6.334a.881.881 0 0 0-.881.881v.934h8.1z" transform="translate(-138.093 -12.716)"/>
            <path id="Path_6377" data-name="Path 6377" class="cls-1" d="M282.9 315.339h-6.333a.881.881 0 0 0-.881.881v.934h8.1v-.934a.881.881 0 0 0-.886-.881z" transform="translate(-266.185 -304.514)"/>
            <circle id="Ellipse_248" data-name="Ellipse 248" class="cls-2" cx=".673" cy=".673" r=".673" transform="translate(8.126 7.786)"/>
        </g>
        <g id="Group_7880" data-name="Group 7880" transform="translate(0 2.715)">
            <path id="Path_6380" data-name="Path 6380" class="cls-2" d="M17.075 13.54h-2.809v-1.177a1.189 1.189 0 0 0-1.188-1.188h-2.954a1.036 1.036 0 0 0-.609-.609v-.556h2.809a1.24 1.24 0 0 0 1.238-1.238V3.953a1.24 1.24 0 0 0-1.238-1.238H5.99a1.24 1.24 0 0 0-1.238 1.238v4.819A1.24 1.24 0 0 0 5.99 10.01H8.8v.556a1.036 1.036 0 0 0-.609.609H5.236a1.189 1.189 0 0 0-1.188 1.188v1.177h-2.81A1.24 1.24 0 0 0 0 14.778V19.6a1.24 1.24 0 0 0 1.238 1.238h6.334A1.24 1.24 0 0 0 8.81 19.6v-4.822a1.24 1.24 0 0 0-1.238-1.238H4.763v-1.177a.473.473 0 0 1 .473-.473H8.19a1.031 1.031 0 0 0 1.934 0h2.955a.473.473 0 0 1 .473.473v1.177h-2.81A1.24 1.24 0 0 0 9.5 14.778V19.6a1.24 1.24 0 0 0 1.238 1.238h6.333a1.24 1.24 0 0 0 1.243-1.238v-4.822a1.24 1.24 0 0 0-1.238-1.238zM8.1 19.6a.524.524 0 0 1-.523.523H1.238a.524.524 0 0 1-.523-.523v-3.53H8.1zm-.523-5.341a.524.524 0 0 1 .523.523v.577H.715v-.577a.524.524 0 0 1 .523-.523zM5.99 9.295a.524.524 0 0 1-.523-.523V5.245h.32a.358.358 0 1 0 0-.715h-.32v-.577a.524.524 0 0 1 .523-.523h6.333a.524.524 0 0 1 .523.523v.577h-4.2a.358.358 0 1 0 0 .715h4.2v3.527a.524.524 0 0 1-.523.523H5.99zm3.167 2.553a.316.316 0 1 1 .315-.315.316.316 0 0 1-.315.315zM17.6 19.6a.524.524 0 0 1-.523.523h-6.335a.524.524 0 0 1-.523-.523v-3.53H17.6zm0-4.242h-7.38v-.577a.524.524 0 0 1 .523-.523h6.333a.524.524 0 0 1 .523.523z" transform="translate(0 -2.715)"/>
            <path id="Path_6381" data-name="Path 6381" class="cls-2" d="M210.681 82a1.681 1.681 0 1 0 1.681 1.681A1.683 1.683 0 0 0 210.681 82z" transform="translate(-201.524 -79.164)"/>
            <path id="Path_6382" data-name="Path 6382" class="cls-2" d="M68.774 388.267h3.2a.358.358 0 0 0 .3-.554l-1.6-2.432a.358.358 0 0 0-.6 0l-1.6 2.432a.358.358 0 0 0 .3.554z" transform="translate(-65.969 -371.441)"/>
            <path id="Path_6383" data-name="Path 6383" class="cls-2" d="M345.28 392.142h2.427a.358.358 0 0 0 .358-.358v-2.427a.358.358 0 0 0-.358-.358h-2.427a.358.358 0 0 0-.358.358v2.427a.358.358 0 0 0 .358.358z" transform="translate(-332.584 -375.183)"/>
            <path id="Path_6384" data-name="Path 6384" class="cls-2" d="M192.163 53.457a.358.358 0 1 0 .359.358.357.357 0 0 0-.36-.358z" transform="translate(-184.944 -51.642)"/>
        </g>
    </g>
</svg>
