<svg xmlns="http://www.w3.org/2000/svg" width="25.313" height="21.845" viewBox="0 0 25.313 21.845">
  <g id="Models_top" transform="translate(0 476.841)">
    <path id="Path_6420" data-name="Path 6420" d="M12.409-476.789c-.094.025-2.408.648-5.142,1.379s-5.048,1.374-5.142,1.424a.728.728,0,0,0-.282.3l-.114.213v16.844H0V-455H25.313v-1.632h-1.73v-7.124c0-7.93.025-7.322-.336-7.6l-.173-.133-5.147-.015c-2.833-.01-5.241,0-5.359.015a.9.9,0,0,0-.653.559c-.03.119-.049,2.62-.049,7.238v7.06H3.312v-8.034c0-4.42.01-8.034.02-8.034s1.923-.514,4.247-1.137,4.242-1.137,4.257-1.137a7.438,7.438,0,0,1,.03.915v.915H13.5v-1.473c0-.811-.025-1.547-.049-1.641a.906.906,0,0,0-.549-.544A.671.671,0,0,0,12.409-476.789Zm7.218,9.8v.766H15.771v-1.533h3.856Zm0,3.708v.766H15.771v-1.533h3.856Zm0,3.683v.791H15.771v-1.582h3.856Z" fill="#fff"/>
    <path id="Path_6421" data-name="Path 6421" d="M115-367.209v.791h3.856V-368H115Z" transform="translate(-109.314 -103.46)" fill="#fff"/>
    <path id="Path_6422" data-name="Path 6422" d="M115-293.184v.816h3.856V-294H115Z" transform="translate(-109.314 -173.801)" fill="#fff"/>
    <path id="Path_6423" data-name="Path 6423" d="M115-218.184v.816h3.856V-219H115Z" transform="translate(-109.314 -245.093)" fill="#fff"/>
    <path id="Path_6424" data-name="Path 6424" d="M115-143.209v.791h3.856V-144H115Z" transform="translate(-109.314 -316.385)" fill="#fff"/>
  </g>
</svg>
