<svg xmlns="http://www.w3.org/2000/svg" width="19.835" height="19.916" viewBox="0 0 19.835 19.916">
  <g id="notification" transform="translate(-7.139 26.958)">
    <g id="Group_7989" data-name="Group 7989" transform="translate(7.139 -26.958)">
      <path id="Path_6809" data-name="Path 6809" d="M17.319,5.533a2.072,2.072,0,0,1-2.964-2.9l-.876-.857,0,0L11.7.042.139,11.871,1.912,13.6l.9.875a2.053,2.053,0,1,1,2.937,2.87l.9.877,1.774,1.732,11.56-11.83Zm-3.157,6.176L8.386,17.621l-.919-.9a3.28,3.28,0,0,0-4.073-3.98l-.919-.9L8.25,5.934,9.431,7.089,10.3,6.2,9.116,5.048l2.6-2.66.928.908a3.278,3.278,0,0,0,4.062,3.969l.92.9-2.6,2.659L13.893,9.714l-.867.888Z" transform="translate(-0.139 -0.042)" fill="#6e6d7a"/>
      <rect id="Rectangle_7360" data-name="Rectangle 7360" width="2.496" height="1.24" transform="translate(11.958 9.653) rotate(-135.669)" fill="#6e6d7a"/>
    </g>
  </g>
</svg>
