<svg xmlns="http://www.w3.org/2000/svg" width="20.259" height="16.173" viewBox="0 0 20.259 16.173">
    <defs>
        <style>
            .cls-1{fill:#aaabad}
        </style>
    </defs>
    <g id="_515034" transform="translate(0 -51.636)">
        <g id="Group_7882" transform="translate(0 51.636)">
            <g id="Group_7881">
                <path id="Path_6385" d="M18.911 56.5h-6.243l-1.219-3.613a1.321 1.321 0 0 0-2.639 0L7.591 56.5H1.348A1.35 1.35 0 0 0 0 57.853v8.607a1.35 1.35 0 0 0 1.348 1.348h1.441a.367.367 0 0 0 0-.734H1.348a.615.615 0 0 1-.614-.614v-8.607a.615.615 0 0 1 .614-.614h17.563a.615.615 0 0 1 .614.614v8.607a.615.615 0 0 1-.614.614H3.964a.367.367 0 0 0 0 .734h14.947a1.35 1.35 0 0 0 1.348-1.348v-8.607a1.35 1.35 0 0 0-1.348-1.353zm-8.782-4.13a.587.587 0 1 1-.587.587.588.588 0 0 1 .587-.587zM8.365 56.5l.87-2.576a1.318 1.318 0 0 0 1.789 0l.87 2.576z" class="cls-1" transform="translate(0 -51.636)"/>
                <g id="_515034-2" transform="translate(8.81)">
                    <g id="Group_7882-2">
                        <g id="Group_7881-2">
                            <path id="Path_6385-2" d="M10.042 53.928a1.87 1.87 0 0 0 .425-1.036 1.321 1.321 0 0 0-2.639 0 2.88 2.88 0 0 0 .146.652c.107.256 1.326.989 2.068.384zm-.894-1.558a.587.587 0 1 1 0 1.174c-.324 0-.529-.035-.587-.587s.263-.587.587-.587zm-1.174 1.174a1.322 1.322 0 0 0 2.068.384l-1.275-.384z" class="cls-1" transform="translate(-7.828 -51.636)"/>
                        </g>
                    </g>
                </g>
            </g>
        </g>
        <g id="Group_7884" transform="translate(10.109 60.001)">
            <g id="Group_7883">
                <path id="Path_6386" d="M258.146 263.051a.367.367 0 0 0-.367.367v2.331l-1.632-2.53a.367.367 0 0 0-.675.2v3.577a.367.367 0 0 0 .734 0v-2.331l1.632 2.529a.367.367 0 0 0 .675-.2v-3.577a.367.367 0 0 0-.367-.366z" class="cls-1" transform="translate(-255.472 -263.051)"/>
            </g>
        </g>
        <g id="Group_7886" transform="translate(2.93 60.001)">
            <g id="Group_7885">
                <path id="Path_6387" d="M75.747 265.552a1.31 1.31 0 0 0-.55-2.5h-.78a.367.367 0 0 0-.367.367V267a.367.367 0 1 0 .734 0v-1.323h.194l.811 1.5a.367.367 0 1 0 .646-.349zm-.549-.613h-.414v-1.153h.416a.576.576 0 0 1 0 1.153z" class="cls-1" transform="translate(-74.05 -263.053)"/>
            </g>
        </g>
        <g id="Group_7888" transform="translate(6.648 60.001)">
            <g id="Group_7887">
                <path id="Path_6388" d="M170.08 265.583a.367.367 0 1 0 0-.734h-1.335v-1.064h1.335a.367.367 0 1 0 0-.734h-1.7a.367.367 0 0 0-.367.367v3.577a.367.367 0 0 0 .367.367h1.7a.367.367 0 1 0 0-.734h-1.335v-1.045h1.335z" class="cls-1" transform="translate(-168.011 -263.051)"/>
            </g>
        </g>
        <g id="Group_7890" transform="translate(15.271 62.94)">
            <g id="Group_7889">
                <path id="Path_6389" d="M386.311 337.319a.367.367 0 0 0-.367.367v.638a.367.367 0 0 0 .734 0v-.638a.367.367 0 0 0-.367-.367z" class="cls-1" transform="translate(-385.944 -337.319)"/>
            </g>
        </g>
        <g id="Group_7892" transform="translate(13.947 60.001)">
            <g id="Group_7891">
                <path id="Path_6390" d="M355.5 263.051h-2.647a.367.367 0 1 0 0 .734h.957v1.593a.367.367 0 0 0 .734 0v-1.593h.957a.367.367 0 1 0 0-.734z" class="cls-1" transform="translate(-352.49 -263.051)"/>
            </g>
        </g>
    </g>
</svg>
