<svg xmlns="http://www.w3.org/2000/svg" width="77.66" height="56.5" viewBox="0 0 77.66 56.5">
  <g id="technician" transform="translate(-0.01 0)">
    <path id="Path_6707" data-name="Path 6707" d="M140.213,172.013c-1.924,3.969-5.831,6.624-9.88,8.374a36.452,36.452,0,0,1-10.172,2.714q-1.007.12-2.02.185a39.177,39.177,0,0,1-5.183-.006q-1.557-.1-3.1-.331a39.14,39.14,0,0,1-10.376-3.021q-1.43-.644-2.8-1.406A35.838,35.838,0,0,1,92.3,175.66q-.461-.352-.91-.719l-.123-.1c-.235-.194-.469-.393-.705-.585a10.254,10.254,0,0,0-1.25-.9l-.09-.051c-.081-.047-.164-.091-.248-.133a5.671,5.671,0,0,0-.532-.235,6.962,6.962,0,0,0-2.641-.415c-.151,0-.3.01-.453.02h0c-.211.014-.424.036-.635.064l-.078.011a14.4,14.4,0,0,0-1.994.428c-1.01.29-2,.652-3,.978h0c-.424.14-.848.273-1.276.393l-.094.026a13.968,13.968,0,0,1-1.855.388,10.335,10.335,0,0,1-4.245-.342l-.048-.014-.088-.026-.121-.038q-.3-.1-.6-.209l-.121-.046q-.29-.112-.567-.24l-.121-.055q-.29-.135-.567-.285c-.067-.035-.133-.072-.2-.108q-.3-.165-.579-.346-.3-.192-.59-.4-.133-.1-.264-.2a11.685,11.685,0,0,1-1.4-1.265c-.024-.024-.046-.049-.069-.072-.115-.125-.228-.251-.337-.381-.041-.048-.081-.1-.121-.145q-.195-.238-.376-.486l-.053-.072a10.471,10.471,0,0,1-1.222-2.209c-.01-.024-.02-.049-.028-.072q-.145-.373-.264-.758c-.033-.107-.064-.217-.091-.324-.009-.032-.018-.064-.026-.1a19.59,19.59,0,0,1-.445-4.836v-.569a55.3,55.3,0,0,1,.44-7.9.329.329,0,0,1,.008-.054,24.678,24.678,0,0,1,.529-2.594,19.136,19.136,0,0,1,.892-2.629,24.423,24.423,0,0,1,3.633-5.783,32.6,32.6,0,0,1,5.948-5.721q.478-.35.969-.679l.151-.1c.053-.035.106-.072.159-.1h0c.109-.072.217-.141.327-.209l.123-.077.235-.145.072-.041.125-.072.124-.072q.217-.128.44-.251.949-.529,1.944-.968.293-.13.59-.25a20.812,20.812,0,0,1,2.763-.906q.521-.132,1.049-.232.623-.12,1.252-.2a19.867,19.867,0,0,1,2.012-.15,20.592,20.592,0,0,1,13.216,4.376,32.526,32.526,0,0,0,4.464,3.47,5.547,5.547,0,0,0,4.7.492,7.312,7.312,0,0,1,3.556-.687,29.807,29.807,0,0,1,8.713,1.822c.113.041.226.084.338.127a30.5,30.5,0,0,1,16.822,15.46q.129.282.251.569C141.656,162.27,142.357,167.59,140.213,172.013Z" transform="translate(-63.858 -126.871)" fill="#6c63ff" opacity="0.1"/>
    <path id="Path_6708" data-name="Path 6708" d="M78.336,298.928v27.46l-.094.026a13.971,13.971,0,0,1-1.855.388,10.335,10.335,0,0,1-4.245-.342l-.048-.014-.088-.026-.121-.038q-.3-.1-.6-.209l-.121-.046q-.29-.112-.567-.24l-.121-.055q-.29-.135-.567-.285c-.067-.035-.133-.072-.2-.108q-.3-.165-.579-.346-.3-.192-.59-.4-.133-.1-.264-.2a11.683,11.683,0,0,1-1.4-1.265c-.024-.024-.046-.049-.069-.072-.115-.125-.228-.251-.337-.381-.041-.048-.081-.1-.121-.145q-.195-.238-.376-.486l-.053-.072a10.471,10.471,0,0,1-1.222-2.209c-.01-.024-.02-.049-.028-.072q-.145-.373-.264-.758c-.033-.107-.064-.217-.091-.324-.009-.032-.018-.064-.026-.1a19.59,19.59,0,0,1-.445-4.836v-.568a55.3,55.3,0,0,1,.44-7.9.33.33,0,0,1,.008-.054,24.679,24.679,0,0,1,.529-2.594h7.4v-3.732h1.475v-3h3.174v3Z" transform="translate(-63.83 -278.839)" fill="#6c63ff" opacity="0.1"/>
    <path id="Path_6709" data-name="Path 6709" d="M454.921,293.436c-1.924,3.969-5.831,6.624-9.88,8.374a36.453,36.453,0,0,1-10.172,2.714q-1.007.119-2.02.185a39.164,39.164,0,0,1-5.183-.006q-1.557-.1-3.1-.331a39.138,39.138,0,0,1-10.376-3.021q-1.43-.644-2.8-1.406a35.837,35.837,0,0,1-4.379-2.864q-.461-.352-.91-.719l-.123-.1c-.235-.194-.469-.393-.705-.585a10.252,10.252,0,0,0-1.25-.9l-.09-.051c-.081-.047-.164-.091-.248-.133a5.669,5.669,0,0,0-.532-.235V283.128h13.441v2.5h5.9V267.337h6.943v7.315h3.434V270.32H435.7v-4.626h1.3V263c.113.041.226.084.338.127v2.567h1.269v4.629h2.835v4.331h4.181v16.5h6.645v-12h2.142C456.364,283.693,457.065,289.013,454.921,293.436Z" transform="translate(-378.566 -248.293)" fill="#6c63ff" opacity="0.1"/>
    <rect id="Rectangle_7333" data-name="Rectangle 7333" width="3.103" height="3.103" transform="translate(45.998 21.796)" fill="#6c63ff" opacity="0.1"/>
    <rect id="Rectangle_7334" data-name="Rectangle 7334" width="3.103" height="3.103" transform="translate(45.998 28.229)" fill="#6c63ff" opacity="0.1"/>
    <rect id="Rectangle_7335" data-name="Rectangle 7335" width="3.103" height="3.103" transform="translate(45.998 34.662)" fill="#6c63ff" opacity="0.1"/>
    <rect id="Rectangle_7336" data-name="Rectangle 7336" width="3.103" height="3.103" transform="translate(45.998 41.095)" fill="#6c63ff" opacity="0.1"/>
    <rect id="Rectangle_7337" data-name="Rectangle 7337" width="3.103" height="3.103" transform="translate(45.998 47.528)" fill="#6c63ff" opacity="0.1"/>
    <path id="Path_6710" data-name="Path 6710" d="M701.943,805v2.451q-1.557-.1-3.1-.331V805Z" transform="translate(-652.842 -751.041)" fill="#6c63ff" opacity="0.1"/>
    <rect id="Rectangle_7338" data-name="Rectangle 7338" width="10.863" height="1.406" transform="translate(25.607 38.846)" fill="#6c63ff" opacity="0.1"/>
    <rect id="Rectangle_7339" data-name="Rectangle 7339" width="10.863" height="1.406" transform="translate(25.607 43.115)" fill="#6c63ff" opacity="0.1"/>
    <path id="Path_6711" data-name="Path 6711" d="M442.2,714.21v1.4h-8.027q-.461-.352-.91-.719l-.123-.1c-.235-.194-.469-.393-.705-.585Z" transform="translate(-405.726 -666.826)" fill="#6c63ff" opacity="0.1"/>
    <path id="Path_6712" data-name="Path 6712" d="M520.539,773.15v1.406h-.847q-1.43-.644-2.8-1.406Z" transform="translate(-484.069 -721.497)" fill="#6c63ff" opacity="0.1"/>
    <rect id="Rectangle_7340" data-name="Rectangle 7340" width="2.02" height="2.02" transform="translate(54.285 30.199)" fill="#6c63ff" opacity="0.1"/>
    <rect id="Rectangle_7341" data-name="Rectangle 7341" width="2.02" height="2.02" transform="translate(10.542 20.786)" fill="#6c63ff" opacity="0.1"/>
    <rect id="Rectangle_7342" data-name="Rectangle 7342" width="2.02" height="2.02" transform="translate(10.542 25.479)" fill="#6c63ff" opacity="0.1"/>
    <rect id="Rectangle_7343" data-name="Rectangle 7343" width="2.02" height="2.02" transform="translate(10.542 30.171)" fill="#6c63ff" opacity="0.1"/>
    <rect id="Rectangle_7344" data-name="Rectangle 7344" width="2.02" height="2.02" transform="translate(10.542 34.864)" fill="#6c63ff" opacity="0.1"/>
    <rect id="Rectangle_7345" data-name="Rectangle 7345" width="2.02" height="2.02" transform="translate(10.542 39.557)" fill="#6c63ff" opacity="0.1"/>
    <rect id="Rectangle_7346" data-name="Rectangle 7346" width="2.02" height="2.02" transform="translate(10.542 44.249)" fill="#6c63ff" opacity="0.1"/>
    <rect id="Rectangle_7347" data-name="Rectangle 7347" width="2.02" height="2.02" transform="translate(61.997 30.199)" fill="#6c63ff" opacity="0.1"/>
    <rect id="Rectangle_7348" data-name="Rectangle 7348" width="2.02" height="2.02" transform="translate(54.285 35.182)" fill="#6c63ff" opacity="0.1"/>
    <rect id="Rectangle_7349" data-name="Rectangle 7349" width="2.02" height="2.02" transform="translate(61.997 35.182)" fill="#6c63ff" opacity="0.1"/>
    <rect id="Rectangle_7350" data-name="Rectangle 7350" width="2.02" height="2.02" transform="translate(54.285 40.165)" fill="#6c63ff" opacity="0.1"/>
    <rect id="Rectangle_7351" data-name="Rectangle 7351" width="2.02" height="2.02" transform="translate(61.997 40.165)" fill="#6c63ff" opacity="0.1"/>
    <rect id="Rectangle_7352" data-name="Rectangle 7352" width="2.02" height="2.02" transform="translate(54.285 45.149)" fill="#6c63ff" opacity="0.1"/>
    <rect id="Rectangle_7353" data-name="Rectangle 7353" width="2.02" height="2.02" transform="translate(61.997 45.149)" fill="#6c63ff" opacity="0.1"/>
    <rect id="Rectangle_7354" data-name="Rectangle 7354" width="2.02" height="2.02" transform="translate(54.285 50.131)" fill="#6c63ff" opacity="0.1"/>
    <rect id="Rectangle_7355" data-name="Rectangle 7355" width="2.02" height="2.02" transform="translate(61.997 50.131)" fill="#6c63ff" opacity="0.1"/>
    <path id="Path_6713" data-name="Path 6713" d="M749.43,762.313v-1.3h2.02v1.117Z" transform="translate(-695.145 -705.896)" fill="#6c63ff" opacity="0.1"/>
    <path id="Path_6714" data-name="Path 6714" d="M69.93,424.68v1.159h7.725V424.68Zm.688,1.086h-.567v-1.014h.567Zm.688,0h-.567v-1.014h.567Zm.688,0h-.567v-1.014h.567Zm.688,0h-.567v-1.014h.567Zm.688,0H72.8v-1.014h.567Zm.688,0h-.567v-1.014h.567Zm.688,0h-.567v-1.014h.567Zm.688,0h-.567v-1.014h.567Zm.688,0h-.567v-1.014h.567Zm.688,0h-.567v-1.014h.567Zm.724,0h-.6v-1.014h.6Z" transform="translate(-69.479 -398.264)" fill="#6c63ff" opacity="0.1"/>
    <path id="Path_6715" data-name="Path 6715" d="M69.93,471.14V472.3h7.725V471.14Zm.688,1.083h-.567v-1.01h.567Zm.688,0h-.567v-1.01h.567Zm.688,0h-.567v-1.01h.567Zm.688,0h-.567v-1.01h.567Zm.688,0H72.8v-1.01h.567Zm.688,0h-.567v-1.01h.567Zm.688,0h-.567v-1.01h.567Zm.688,0h-.567v-1.01h.567Zm.688,0h-.567v-1.01h.567Zm.688,0h-.567v-1.01h.567Zm.724,0h-.6v-1.01h.6Z" transform="translate(-69.479 -441.359)" fill="#6c63ff" opacity="0.1"/>
    <path id="Path_6716" data-name="Path 6716" d="M69.93,517.59v1.155h7.725V517.59Zm.688,1.083h-.567v-1.01h.567Zm.688,0h-.567v-1.01h.567Zm.688,0h-.567v-1.01h.567Zm.688,0h-.567v-1.01h.567Zm.688,0H72.8v-1.01h.567Zm.688,0h-.567v-1.01h.567Zm.688,0h-.567v-1.01h.567Zm.688,0h-.567v-1.01h.567Zm.688,0h-.567v-1.01h.567Zm.688,0h-.567v-1.01h.567Zm.724,0h-.6v-1.01h.6Z" transform="translate(-69.479 -484.445)" fill="#6c63ff" opacity="0.1"/>
    <path id="Path_6717" data-name="Path 6717" d="M69.93,564v1.159h7.725V564Zm.688,1.086h-.567v-1.014h.567Zm.688,0h-.567v-1.014h.567Zm.688,0h-.567v-1.014h.567Zm.688,0h-.567v-1.014h.567Zm.688,0H72.8v-1.014h.567Zm.688,0h-.567v-1.014h.567Zm.688,0h-.567v-1.014h.567Zm.688,0h-.567v-1.014h.567Zm.688,0h-.567v-1.014h.567Zm.688,0h-.567v-1.014h.567Zm.724,0h-.6v-1.014h.6Z" transform="translate(-69.479 -527.494)" fill="#6c63ff" opacity="0.1"/>
    <path id="Path_6718" data-name="Path 6718" d="M70.34,610.49c.028.109.059.217.091.324v-.252H71v1.014h-.3c.009.024.018.049.028.073h7.315V610.49Zm1.346,1.086h-.567v-1.014h.567Zm.688,0h-.567v-1.014h.567Zm.688,0H72.5v-1.014h.567Zm.688,0h-.567v-1.014h.567Zm.688,0h-.567v-1.014h.567Zm.688,0h-.567v-1.014h.567Zm.688,0h-.567v-1.014h.567Zm.688,0h-.567v-1.014H76.5Zm.688,0h-.567v-1.014h.567Zm.724,0h-.6v-1.014h.6Z" transform="translate(-69.859 -570.617)" fill="#6c63ff" opacity="0.1"/>
    <path id="Path_6719" data-name="Path 6719" d="M92.51,656.94l.053.072h.376v.486l.121.145v-.63h.567v1.014H93.4c.022.024.045.049.069.072H98.6v-1.159Zm1.8,1.086h-.567v-1.014h.567Zm.688,0h-.567v-1.014H95Zm.688,0h-.567v-1.014h.567Zm.688,0h-.567v-1.014h.567Zm.688,0H96.5v-1.014h.567Zm.688,0h-.567v-1.014h.567Zm.724,0h-.6v-1.014h.6Z" transform="translate(-90.424 -613.703)" fill="#6c63ff" opacity="0.1"/>
    <path id="Path_6720" data-name="Path 6720" d="M144.87,703.39c.065.037.131.072.2.108v-.035h.567v.32l.121.055v-.375h.567v.615l.121.046v-.661h.6v.869l.121.038v-.979Z" transform="translate(-138.992 -656.789)" fill="#6c63ff" opacity="0.1"/>
    <path id="Path_6721" data-name="Path 6721" d="M454.093,286.141s-1.727-.1-1.521,1.105a.3.3,0,0,0,.154.311s0-.09.177-.059a.806.806,0,0,0,.188.009.39.39,0,0,0,.23-.094h0a1.371,1.371,0,0,0,.674-.994s.139-.173.134-.217l-.29.125a.521.521,0,0,1,.022.385s-.009-.377-.066-.368c-.011,0-.151.072-.151.072a.86.86,0,0,1,.042.632s.049-.45-.095-.605l-.21.121a.9.9,0,0,1,.064.687,1.28,1.28,0,0,0-.107-.657l-.186.145a.88.88,0,0,1,.072.629s-.015-.551-.114-.593a1.119,1.119,0,0,0-.188.2s.129.27.049.413c0,0-.049-.366-.09-.369a1.221,1.221,0,0,0-.178.41.882.882,0,0,1,.139-.435.487.487,0,0,0-.248.128s.025-.172.29-.187a1.132,1.132,0,0,1,.17-.2,1.067,1.067,0,0,0-.42.049.472.472,0,0,1,.468-.088l.183-.15a1.509,1.509,0,0,0-.49.005.589.589,0,0,1,.539-.039l.2-.12a1.823,1.823,0,0,0-.468-.041.718.718,0,0,1,.526.009l.145-.064s-.217-.042-.277-.049-.067-.024-.067-.024a.744.744,0,0,1,.4.045A1.826,1.826,0,0,0,454.093,286.141Z" transform="translate(-424.393 -269.757)" fill="#6c63ff" opacity="0.1"/>
    <path id="Path_6722" data-name="Path 6722" d="M409.379,367.254s-.59,1.625.628,1.774a.3.3,0,0,0,.341-.059s-.085-.028-.007-.187a.824.824,0,0,0,.062-.177.392.392,0,0,0-.026-.247h0a1.37,1.37,0,0,0-.761-.928s-.126-.183-.17-.19l.036.315a.522.522,0,0,1,.375.088s-.362-.1-.372-.041c0,.011.027.166.027.166a.858.858,0,0,1,.618.139s-.419-.175-.608-.08l.056.23a.907.907,0,0,1,.676.133,1.288,1.288,0,0,0-.66-.083l.086.217a.9.9,0,0,1,.624.108s-.533-.145-.6-.059a1.139,1.139,0,0,0,.141.237s.3-.046.41.072c0,0-.366-.057-.379-.02a1.248,1.248,0,0,0,.343.29.887.887,0,0,1-.376-.257.487.487,0,0,0,.053.274s-.158-.072-.1-.329a1.109,1.109,0,0,1-.139-.217,1.05,1.05,0,0,0-.072.416.472.472,0,0,1,.048-.474l-.091-.217a1.466,1.466,0,0,0-.135.471.6.6,0,0,1,.116-.529l-.057-.225a1.8,1.8,0,0,0-.172.435.716.716,0,0,1,.157-.5l-.021-.155s-.1.194-.125.253-.042.056-.042.056a.745.745,0,0,1,.157-.374A1.831,1.831,0,0,0,409.379,367.254Z" transform="translate(-384.212 -344.984)" fill="#6c63ff" opacity="0.1"/>
    <path id="Path_6723" data-name="Path 6723" d="M567.412,348.325s-.59,1.628.628,1.773a.3.3,0,0,0,.342-.059s-.085-.028-.006-.186a.776.776,0,0,0,.062-.177.392.392,0,0,0-.025-.247h0a1.37,1.37,0,0,0-.761-.928s-.127-.182-.171-.19l.037.314a.524.524,0,0,1,.375.089s-.362-.1-.372-.042c0,.012.027.166.027.166a.863.863,0,0,1,.618.139s-.419-.175-.608-.08l.057.231a.9.9,0,0,1,.676.133,1.289,1.289,0,0,0-.661-.084l.086.217a.9.9,0,0,1,.624.108s-.532-.145-.6-.059a1.119,1.119,0,0,0,.145.237s.3-.047.41.072c0,0-.366-.057-.379-.019a1.255,1.255,0,0,0,.342.29.879.879,0,0,1-.375-.257.49.49,0,0,0,.052.274s-.157-.072-.1-.329a1.166,1.166,0,0,1-.14-.217,1.069,1.069,0,0,0-.072.416.472.472,0,0,1,.048-.474l-.091-.217a1.468,1.468,0,0,0-.135.471.6.6,0,0,1,.116-.528l-.058-.226a1.8,1.8,0,0,0-.172.435.718.718,0,0,1,.158-.5l-.021-.155s-.1.194-.126.253-.042.056-.042.056a.749.749,0,0,1,.158-.374A1.783,1.783,0,0,0,567.412,348.325Z" transform="translate(-530.8 -327.425)" fill="#6c63ff" opacity="0.1"/>
    <path id="Path_6724" data-name="Path 6724" d="M341.509,531.824s-.59,1.626.628,1.774a.294.294,0,0,0,.341-.059s-.085-.028-.007-.186a.781.781,0,0,0,.062-.178.387.387,0,0,0-.026-.247h0a1.368,1.368,0,0,0-.761-.928s-.126-.183-.17-.19l.036.314a.524.524,0,0,1,.375.089s-.362-.1-.372-.042c0,.012.027.166.027.166a.861.861,0,0,1,.618.139s-.419-.174-.608-.08l.056.231a.9.9,0,0,1,.676.133,1.286,1.286,0,0,0-.66-.084l.086.217a.9.9,0,0,1,.624.108s-.532-.145-.6-.059a1.139,1.139,0,0,0,.141.237s.3-.047.411.072c0,0-.366-.057-.379-.019a1.261,1.261,0,0,0,.343.29.882.882,0,0,1-.376-.256.485.485,0,0,0,.053.274s-.158-.072-.1-.329a1.164,1.164,0,0,1-.139-.217,1.054,1.054,0,0,0-.072.416.472.472,0,0,1,.048-.474l-.091-.217a1.452,1.452,0,0,0-.134.471.6.6,0,0,1,.116-.528l-.058-.225a1.791,1.791,0,0,0-.172.435.715.715,0,0,1,.157-.5l-.021-.156s-.1.194-.125.253-.042.056-.042.056a.742.742,0,0,1,.158-.374A1.846,1.846,0,0,0,341.509,531.824Z" transform="translate(-321.257 -497.636)" fill="#6c63ff" opacity="0.1"/>
    <path id="Path_6725" data-name="Path 6725" d="M309.172,320.224s-.59,1.625.628,1.774a.3.3,0,0,0,.342-.059s-.085-.028-.007-.187a.812.812,0,0,0,.062-.177.389.389,0,0,0-.025-.246h0a1.37,1.37,0,0,0-.762-.928s-.126-.183-.17-.19l.037.315a.52.52,0,0,1,.374.088s-.362-.1-.372-.041c0,.011.027.166.027.166a.86.86,0,0,1,.618.139s-.419-.175-.608-.08l.057.23a.906.906,0,0,1,.677.133,1.283,1.283,0,0,0-.661-.083l.086.217a.9.9,0,0,1,.624.109s-.532-.145-.6-.059a1.141,1.141,0,0,0,.141.237s.3-.046.411.072c0,0-.366-.057-.379-.02a1.241,1.241,0,0,0,.342.29.891.891,0,0,1-.376-.257.486.486,0,0,0,.053.274s-.158-.072-.1-.33a1.142,1.142,0,0,1-.14-.217,1.065,1.065,0,0,0-.072.416.47.47,0,0,1,.048-.474l-.092-.217a1.451,1.451,0,0,0-.134.471.6.6,0,0,1,.116-.529l-.058-.225a1.8,1.8,0,0,0-.172.435.72.72,0,0,1,.157-.5l-.02-.155s-.1.194-.126.252-.042.057-.042.057a.742.742,0,0,1,.158-.374A1.773,1.773,0,0,0,309.172,320.224Z" transform="translate(-291.262 -301.36)" fill="#6c63ff" opacity="0.1"/>
    <path id="Path_6726" data-name="Path 6726" d="M371.44,441.92s.456,1.666,1.536,1.086a.3.3,0,0,0,.245-.245s-.085.026-.112-.148a.8.8,0,0,0-.052-.18.383.383,0,0,0-.163-.187h0a1.372,1.372,0,0,0-1.159-.32s-.209-.076-.249-.057l.212.235a.529.529,0,0,1,.358-.145s-.354.13-.328.18c.006.01.117.12.117.12a.855.855,0,0,1,.585-.243s-.443.1-.542.285l.179.156a.908.908,0,0,1,.63-.282s-.46.119-.589.313l.2.13a.876.876,0,0,1,.572-.271s-.517.19-.525.3a1.126,1.126,0,0,0,.252.112s.217-.209.376-.179c0,0-.332.164-.321.2a1.288,1.288,0,0,0,.445.038.884.884,0,0,1-.455.007.482.482,0,0,0,.2.193s-.171.031-.269-.213a1.15,1.15,0,0,1-.24-.1,1.071,1.071,0,0,0,.181.382.472.472,0,0,1-.234-.415l-.2-.125a1.518,1.518,0,0,0,.161.462.6.6,0,0,1-.21-.5l-.177-.151a1.811,1.811,0,0,0,.112.456.726.726,0,0,1-.161-.5l-.106-.115s.029.217.043.279,0,.072,0,.072a.744.744,0,0,1-.087-.4A1.81,1.81,0,0,0,371.44,441.92Z" transform="translate(-349.153 -414.205)" fill="#6c63ff" opacity="0.1"/>
    <path id="Path_6727" data-name="Path 6727" d="M542.08,462.506s.456,1.666,1.535,1.086a.294.294,0,0,0,.245-.245s-.086.026-.113-.145a.761.761,0,0,0-.051-.18.388.388,0,0,0-.164-.187h0a1.371,1.371,0,0,0-1.159-.319s-.208-.077-.248-.057l.211.235a.529.529,0,0,1,.358-.145s-.354.13-.327.18c.005.01.117.12.117.12a.855.855,0,0,1,.585-.243s-.443.1-.543.285l.18.156a.9.9,0,0,1,.629-.282s-.459.119-.588.313l.2.13a.876.876,0,0,1,.571-.271s-.517.19-.524.3a1.121,1.121,0,0,0,.251.112s.217-.209.376-.179c0,0-.332.164-.321.2a1.292,1.292,0,0,0,.446.038.887.887,0,0,1-.456.007.487.487,0,0,0,.2.193s-.171.031-.269-.213a1.13,1.13,0,0,1-.24-.1,1.064,1.064,0,0,0,.18.382.472.472,0,0,1-.234-.415l-.2-.127a1.5,1.5,0,0,0,.162.462.6.6,0,0,1-.21-.5l-.177-.151a1.787,1.787,0,0,0,.112.456.724.724,0,0,1-.161-.5l-.106-.115s.029.217.043.279,0,.072,0,.072a.744.744,0,0,1-.087-.4A1.82,1.82,0,0,0,542.08,462.506Z" transform="translate(-507.435 -433.304)" fill="#6c63ff" opacity="0.1"/>
    <path id="Path_6728" data-name="Path 6728" d="M440.9,604.637a4.89,4.89,0,0,0,2.979-5.748l-4.773-1.239L438,601.328Z" transform="translate(-410.893 -558.707)" fill="#ced7e7"/>
    <path id="Path_6729" data-name="Path 6729" d="M438,617.2l2.9,3.309a4.89,4.89,0,0,0,2.979-5.748Z" transform="translate(-410.893 -574.578)" opacity="0.1"/>
    <path id="Path_6730" data-name="Path 6730" d="M219.932,176.459s.507.825,1.2.413.028-1.551.028-1.551S219.833,175.14,219.932,176.459Z" transform="translate(-208.613 -166.957)" fill="#fed253"/>
    <path id="Path_6731" data-name="Path 6731" d="M221.132,176.877a.715.715,0,0,1-.558.094,1.126,1.126,0,0,1-.555-.388,1.212,1.212,0,0,1-.087-.118,1,1,0,0,1,.314-.916h0a1.277,1.277,0,0,1,.831-.229.378.378,0,0,1,.081.007l.014.023c.02.037.062.119.108.228C221.435,175.937,221.619,176.587,221.132,176.877Z" transform="translate(-208.612 -166.962)" opacity="0.1"/>
    <path id="Path_6732" data-name="Path 6732" d="M455.611,611.85l2.607.211,4.852.04-3.823,4.707a5.6,5.6,0,0,0-1.463.237,28.394,28.394,0,0,1-3.758.08l-.566-2.413Z" transform="translate(-425.233 -571.879)" fill="#ffa2a2"/>
    <path id="Path_6733" data-name="Path 6733" d="M455.611,611.85l2.607.211,4.852.04-3.823,4.707a5.6,5.6,0,0,0-1.463.237,28.394,28.394,0,0,1-3.758.08l-.566-2.413Z" transform="translate(-425.233 -571.879)" opacity="0.05"/>
    <path id="Path_6734" data-name="Path 6734" d="M412.977,435.782l.606,1.028.132,1.793a10.29,10.29,0,0,0,.739,1.977,4.905,4.905,0,0,1,.448,1.635,5.929,5.929,0,0,0,.29,1.344,11.777,11.777,0,0,1,.369,1.955s1.4,2.795,2.663,3.137c0,0-6.275,2.057-2.979,5.748,0,0-2.346.579-2.9-.079s-2-10.415-2-10.415l.448-8.227Z" transform="translate(-385.236 -408.467)" fill="#ced7e7"/>
    <path id="Path_6735" data-name="Path 6735" d="M412.977,435.782l.606,1.028.132,1.793a10.29,10.29,0,0,0,.739,1.977,4.905,4.905,0,0,1,.448,1.635,5.929,5.929,0,0,0,.29,1.344,11.777,11.777,0,0,1,.369,1.955s1.4,2.795,2.663,3.137c0,0-6.275,2.057-2.979,5.748,0,0-2.346.579-2.9-.079s-2-10.415-2-10.415l.448-8.227Z" transform="translate(-385.236 -408.467)" opacity="0.1"/>
    <path id="Path_6736" data-name="Path 6736" d="M243.447,240.977a5.649,5.649,0,0,0,.152,2.745l-.976,2.795s-7.436-4.14-6.8-5.142a7.853,7.853,0,0,0,.375-3.268c-.021-.908-.085-1.637-.085-1.637s9.125.9,7.911,2.98A4.917,4.917,0,0,0,243.447,240.977Z" transform="translate(-223.32 -223.685)" fill="#ffa2a2"/>
    <path id="Path_6737" data-name="Path 6737" d="M248.221,239.45a4.917,4.917,0,0,0-.574,1.527,6.152,6.152,0,0,1-7.252-2.87c-.021-.908-.085-1.637-.085-1.637S249.433,237.367,248.221,239.45Z" transform="translate(-227.52 -223.685)" opacity="0.1"/>
    <path id="Path_6738" data-name="Path 6738" d="M243.119,137.052a6.144,6.144,0,1,1-11.157-3.549q.13-.183.274-.358a6.145,6.145,0,0,1,2-1.593h0a6.035,6.035,0,0,1,1.314-.477,6.123,6.123,0,0,1,7.569,5.976Z" transform="translate(-218.726 -125.77)" fill="#ffa2a2"/>
    <path id="Path_6739" data-name="Path 6739" d="M97.91,299.37a7.638,7.638,0,0,0,.2,2.3c.007.04.015.08.023.12s.02.1.03.151c.08.393.168.781.253,1.135s.162.656.227.905c.1.373.166.608.166.608s.009.23.02.6c.007.211.014.469.021.754,0,.083.005.167.007.253,0,.151.007.309.011.469,0,.052,0,.1,0,.157,0,.173.007.35.009.526,0,.242.007.484.008.718v.9a5.328,5.328,0,0,1-.078,1.107c-.017.042-.032.088-.046.135a4.576,4.576,0,0,0-.136.686l-.123-.1c-.235-.194-.469-.393-.705-.585a10.257,10.257,0,0,0-1.25-.9l-.09-.051c-.081-.047-.164-.091-.248-.133a5.675,5.675,0,0,0-.532-.235,6.963,6.963,0,0,0-2.641-.415c-.362.138-.6.238-.6.238l-.461.139-.077.023c-.5.152-1.2.368-1.454.458-.408.145-3.955.883-3.955.883a5.9,5.9,0,0,1-.989.181,13.965,13.965,0,0,1-1.855.388,10.334,10.334,0,0,1-4.245-.342.7.7,0,0,1-.123,0,.38.38,0,0,0,.072-.01l-.088-.026-.121-.038q-.3-.1-.6-.209l-.121-.046q-.29-.112-.567-.24l-.121-.055q-.29-.135-.567-.285c-.067-.035-.133-.072-.2-.108q-.3-.165-.579-.346c-.032-.273-.049-.456-.049-.456l-.282-1.406-.014-.072-.2-1.014-.014-.072-.441-2.206-.014-.072-.2-1.014-.014-.072-.447-2.2-.014-.072-.2-1.014-.014-.072-.443-2.209-.014-.072-.2-1.01-.014-.072-.08-.4-.121-.6s-.386-.552-.821-1.2l-.049-.072c-.124-.183-.251-.374-.375-.561l-.121-.182-.175-.267-.039-.06-.008-.012c-.624-.966-.206-1.386-.206-1.386s.262-.355.6-.824l.052-.072c.145-.2.3-.424.461-.646l.121-.172c.046-.064.091-.129.134-.193.017-.024.034-.048.05-.072a8.57,8.57,0,0,0,.666-1.052,8.749,8.749,0,0,1,1.213-1.542,6.39,6.39,0,0,1,1.081-1.014,1.766,1.766,0,0,0,.633-1s.976-.342,1.107-.605a14.791,14.791,0,0,1,1.978-1.448,9.756,9.756,0,0,0,1.049-.771.617.617,0,0,0,.111-.13c.105-.188.791-.343,1.07-.4l.117-.022a2.36,2.36,0,0,1,.422-.554,2.539,2.539,0,0,0,.375-.784c.13-.366.23-.719.23-.719.211-.712.633-.5.633-.5a1.449,1.449,0,0,0,.028.29h0c.176.869,1.132,1.231,1.634,1.637.554.448,1.424,1.608,2.11,1.845a4.316,4.316,0,0,1,1.435,1.183l.016.019c.035.041.052.064.052.064s.389-.02.626-.025h.086a.251.251,0,0,0,.132-.054c.235-.16.586-.629.739-.737a10.985,10.985,0,0,0,.369-2.268l.009,0c.657-.308,1.362,2.773,1.362,2.773s1.239.369,1.345.633a.948.948,0,0,0,.254.257,13.94,13.94,0,0,0,2.035,1.293c.016.008.031.016.047.022l.044.021.077.035q.059.026.109.043l.043.015a1.048,1.048,0,0,1,.29.15c.026.019.052.038.077.059a2.043,2.043,0,0,1,.271.272l.035.044h0a2.44,2.44,0,0,1,.145.2,2.962,2.962,0,0,1,.182.3,12.694,12.694,0,0,0,1.424,2.056c.343.21.554,2.347.554,2.347h0l-1.159,4.3s-.054,1.086-.156,2.194C98.067,298.283,98,298.916,97.91,299.37Z" transform="translate(-71.092 -262.826)" fill="#3f3d56"/>
    <path id="Path_6740" data-name="Path 6740" d="M272.63,332.872a4.217,4.217,0,0,1-1.384.461,1.14,1.14,0,0,1-.238-.014,6.109,6.109,0,0,1-1.569-.619l1.094-1.2,1.331.66.49.456Z" transform="translate(-254.54 -311.833)" fill="#63667e"/>
    <path id="Path_6741" data-name="Path 6741" d="M243.049,136.087a.728.728,0,0,1-.093.108c-.381.362-1.057.212-1.577.128a5.741,5.741,0,0,1-1.313-.379c-.366-.156-.806-.348-1.136-.123-.127.085-.214.222-.345.3a.951.951,0,0,1-.456.083,6.651,6.651,0,0,1-1.509-.109c-.738-.172-1.5-.606-2.2-.32a1.945,1.945,0,0,0-1,1.395,2.524,2.524,0,0,1-.29.818.661.661,0,0,1-.75.3c-.4-.166-.456-.841-.936-.875-.527-.037-.52.507-.366.9a5.374,5.374,0,0,1,.538,1.763,6.148,6.148,0,0,1,.35-6.55.662.662,0,0,0,.261-.306.449.449,0,0,0,.013-.052c.04-.2-.072-.414-.079-.626-.025-.516.534-.876,1.047-.941.341-.043.69-.01,1.032-.021h0a2.335,2.335,0,0,0,.511-.068,2.456,2.456,0,0,0,.8-.409,6.156,6.156,0,0,1,7.494,4.992Z" transform="translate(-218.735 -125.788)" opacity="0.1"/>
    <path id="Path_6742" data-name="Path 6742" d="M235.948,122.149a.8.8,0,0,1-.217.377c-.381.362-1.057.211-1.577.127a5.668,5.668,0,0,1-1.313-.377c-.366-.156-.806-.347-1.136-.122-.127.085-.214.222-.345.3a.943.943,0,0,1-.456.082,6.45,6.45,0,0,1-1.509-.108c-.738-.173-1.5-.606-2.2-.321a1.946,1.946,0,0,0-1,1.4,2.514,2.514,0,0,1-.29.818.662.662,0,0,1-.75.3c-.4-.166-.456-.841-.936-.875-.527-.037-.52.507-.366.9a4.069,4.069,0,0,1,.516,2.1c-.12,0-.317,0-.435-.007.091-.156-.083-.341-.256-.394s-.375-.052-.507-.178a.594.594,0,0,1-.119-.5,3.408,3.408,0,0,1,.27-1.082,1,1,0,0,0,.145-.68,1.931,1.931,0,0,0-.156-.3,1.131,1.131,0,0,1,.014-.951c.055-.127.095-.248.141-.362a1.611,1.611,0,0,1,.247-.451c.166-.206.328-.517.145-.709-.046-.049.046-.082.017-.145a.124.124,0,0,1-.011-.034.329.329,0,0,1,.052-.217.528.528,0,0,1,.028-.049.411.411,0,0,1,.028-.048,2.3,2.3,0,0,1,.626-.683c.157-.114.341-.223.4-.407.072-.217-.055-.448-.066-.678-.025-.516.534-.876,1.046-.941a11.738,11.738,0,0,0,1.544-.09c.709-.187,1.207-.813,1.851-1.164a2.621,2.621,0,0,1,2.3-.083c.752.343,1.319,1.037,2.1,1.3a3.868,3.868,0,0,1,.83.283,1.826,1.826,0,0,1,.616.8,9.782,9.782,0,0,1,.435,1.427,5.289,5.289,0,0,1,.315,1.353,1.356,1.356,0,0,1-.035.4Z" transform="translate(-211.51 -112.277)" fill="#896363"/>
    <g id="Group_7980" data-name="Group 7980" transform="translate(11.562 6.461)" opacity="0.1">
      <path id="Path_6743" data-name="Path 6743" d="M234.438,180.241a.322.322,0,0,0-.054-.271c.019.056-.063.089-.018.136A.29.29,0,0,1,234.438,180.241Z" transform="translate(-233.554 -177.737)"/>
      <path id="Path_6744" data-name="Path 6744" d="M234.565,177.68h0a.3.3,0,0,0-.015.078C234.564,177.735,234.583,177.711,234.565,177.68Z" transform="translate(-233.739 -175.613)"/>
      <path id="Path_6745" data-name="Path 6745" d="M245.166,190.819c-.382.362-1.057.212-1.578.127a5.631,5.631,0,0,1-1.312-.379c-.367-.156-.806-.348-1.136-.123-.126.085-.213.222-.345.3a.944.944,0,0,1-.456.082,6.62,6.62,0,0,1-1.509-.109c-.737-.172-1.5-.6-2.2-.32a1.948,1.948,0,0,0-1,1.4,2.507,2.507,0,0,1-.29.818.663.663,0,0,1-.75.3c-.4-.167-.456-.841-.936-.875-.374-.027-.479.241-.453.539a.381.381,0,0,1,.453-.381c.479.034.538.709.936.875a.659.659,0,0,0,.75-.3,2.537,2.537,0,0,0,.29-.818,1.946,1.946,0,0,1,1-1.4c.7-.285,1.465.145,2.2.32a6.414,6.414,0,0,0,1.509.108.916.916,0,0,0,.456-.081c.135-.077.217-.212.345-.3.33-.224.769-.033,1.136.123a5.666,5.666,0,0,0,1.312.379c.521.084,1.2.235,1.578-.128a1,1,0,0,0,.256-.8A.912.912,0,0,1,245.166,190.819Z" transform="translate(-232.487 -187.208)"/>
      <path id="Path_6746" data-name="Path 6746" d="M249.42,149.14a.771.771,0,0,0,0,.109c.007.151.064.3.083.448A2.254,2.254,0,0,0,249.42,149.14Z" transform="translate(-247.527 -149.14)"/>
      <path id="Path_6747" data-name="Path 6747" d="M225.9,209.859a.532.532,0,0,1,.014.066.52.52,0,0,0-.014-.224,1.879,1.879,0,0,0-.156-.3.894.894,0,0,1-.095-.344.954.954,0,0,0,.095.5A1.841,1.841,0,0,1,225.9,209.859Z" transform="translate(-225.476 -204.72)"/>
      <path id="Path_6748" data-name="Path 6748" d="M235.977,254.3l-.424-.007a.182.182,0,0,1-.013.158c.12,0,.318,0,.435.007a1.775,1.775,0,0,0,.021-.375A1.7,1.7,0,0,1,235.977,254.3Z" transform="translate(-234.657 -246.48)"/>
      <path id="Path_6749" data-name="Path 6749" d="M223.972,245.353c-.173-.052-.374-.053-.5-.18a.459.459,0,0,1-.12-.3.57.57,0,0,0,.12.462c.129.127.33.127.5.18a.43.43,0,0,1,.263.217C224.308,245.579,224.14,245.4,223.972,245.353Z" transform="translate(-223.345 -237.937)"/>
    </g>
    <path id="Path_6750" data-name="Path 6750" d="M321.925,397.023c-.081-.047-.164-.091-.248-.133a5.673,5.673,0,0,0-.532-.235,6.962,6.962,0,0,0-2.641-.415c-.362.138-.6.238-.6.238l-.461.139-.077.023c-.005-.051-.011-.1-.016-.153s-.011-.1-.017-.151c-.162-1.536-.29-3.114-.29-3.114V391.7l-.009-4.016-.072-1.324-.034-.586-.007-.112-.013-.229-.007-.136a1.226,1.226,0,0,1-.041-.132h0c-.005-.018-.01-.038-.014-.059-.018-.072-.038-.166-.058-.267-.133-.666-.3-1.79-.309-2.018-.013-.3-.277-2.123-.277-2.123a10.168,10.168,0,0,0-1.081-3.243,9.046,9.046,0,0,1-.369-2.607,3.338,3.338,0,0,0,.085-.762c0-.038,0-.076.005-.113.011-.263.016-.482.016-.482l.829-.164.222-.043.017,0,.007.014c.024.044.1.185.186.371.01.02.02.041.03.062s.009.02.014.03a3.188,3.188,0,0,1,.342,1.091,5.882,5.882,0,0,0,.528,1.622c.052.264,1.2,2.887,1.2,2.887a18.934,18.934,0,0,1,.884,2.993,31.524,31.524,0,0,0,.448,3.217l.514,2.874a16.985,16.985,0,0,1,.579,1.871l.125.74.024.141.334,1.975.164.968s.069.514.173,1.086c.009.051.019.1.029.156a7.967,7.967,0,0,0,.273,1.112A4.159,4.159,0,0,1,321.925,397.023Z" transform="translate(-296.561 -350.587)" opacity="0.1"/>
    <path id="Path_6751" data-name="Path 6751" d="M323.038,397.056l-.09-.051c-.081-.047-.164-.091-.248-.133a5.688,5.688,0,0,0-.532-.235,6.963,6.963,0,0,0-2.641-.415c-.362.138-.6.238-.6.238l-.461.139c-.006-.051-.011-.1-.017-.153s-.01-.093-.014-.139c-.162-1.532-.29-3.1-.29-3.1v-1.535l-.009-4.006-.072-1.265-.014-.262-.01-.177-.013-.235-.013-.238-.009-.172v-.038a.014.014,0,0,0-.005-.012c-.014-.039-.03-.1-.049-.174l-.009-.036c0-.017-.008-.035-.012-.053-.136-.618-.336-1.95-.347-2.2-.013-.3-.277-2.123-.277-2.123a10.167,10.167,0,0,0-1.081-3.243,9.069,9.069,0,0,1-.369-2.607,4.214,4.214,0,0,0,.09-.875v-.084c.009-.224.013-.4.013-.4l.771-.152.2-.038.03-.006.072-.014s.095.175.209.416l.015.03a3.323,3.323,0,0,1,.356,1.121,5.882,5.882,0,0,0,.528,1.622c.052.264,1.2,2.887,1.2,2.887a18.937,18.937,0,0,1,.884,2.993,31.517,31.517,0,0,0,.448,3.217l.514,2.874a16.985,16.985,0,0,1,.579,1.871l.117.689.024.14.263,1.559.243,1.436s.072.512.172,1.086c.009.052.019.1.029.157a8.011,8.011,0,0,0,.273,1.117A4.419,4.419,0,0,1,323.038,397.056Z" transform="translate(-297.584 -350.568)" fill="#63667e"/>
    <path id="Path_6752" data-name="Path 6752" d="M235.086,82.477s-.277.356-.527.356a7.827,7.827,0,0,1-1.729-.2,26.827,26.827,0,0,0-2.992-.277s-3.52.013-3.638-.106a11.748,11.748,0,0,0-2.4-.712c-.044.009-.152.028-.3.051l-.165.027c-.25.04-.562.086-.847.12a2.647,2.647,0,0,1-.761.026v-.3a4.123,4.123,0,0,0,.435-.764c.026-.17.369-2.638,1.266-3.52a3.534,3.534,0,0,1,1.7-1.593c1.213-.528,2.426-.976,2.426-.976l.212-.03.684-.1a.516.516,0,0,1,.067-.056,1.114,1.114,0,0,1,1.514.217l.133.211a5.76,5.76,0,0,1,3.374,2.425,10.487,10.487,0,0,1,1.2,4.575s-.053.238.053.33a1.477,1.477,0,0,1,.109.107l.028.029c.03.03.059.062.082.088l.007.007.018.02Z" transform="translate(-210.285 -73.184)" fill="#fed253"/>
    <path id="Path_6753" data-name="Path 6753" d="M257.2,166.314s-.277.356-.527.356a7.828,7.828,0,0,1-1.729-.2,26.825,26.825,0,0,0-2.992-.277s-3.52.013-3.639-.106a11.747,11.747,0,0,0-2.4-.712c-.044.009-.152.028-.3.051l-.038-.232-.009-.057a22.287,22.287,0,0,1,6.658-.408c2.663.449,4.628.949,4.628.949s-.053.238.053.33a1.473,1.473,0,0,1,.109.107c.009.009.019.019.028.029.03.03.059.062.082.088l.007.007.018.02Z" transform="translate(-232.399 -157.022)" opacity="0.05"/>
    <path id="Path_6754" data-name="Path 6754" d="M233.088,176.506a10.429,10.429,0,0,1-1.8-.141c-.113-.017-.224-.037-.335-.062a8.739,8.739,0,0,0-2.535-.232,24.737,24.737,0,0,1-3.678-.119,19.487,19.487,0,0,1-2.347-.619,2.334,2.334,0,0,0-1.07-.083,2.977,2.977,0,0,0-.311.056c-.561.133-1.033.435-.952.949a1.205,1.205,0,0,1-.087-.118,1,1,0,0,1,.314-.916h0l.048-.02a5.85,5.85,0,0,1,.755-.162l.123-.017a4.654,4.654,0,0,1,2.642.324,4.2,4.2,0,0,0,1.371.383,45.5,45.5,0,0,1,6.117.343,4.488,4.488,0,0,0,.641.135,2.607,2.607,0,0,0,1.144-.108A1.356,1.356,0,0,1,233.088,176.506Z" transform="translate(-208.65 -166.634)" opacity="0.1"/>
    <path id="Path_6755" data-name="Path 6755" d="M235.086,173.849s-.277.356-.527.356a7.827,7.827,0,0,1-1.729-.2,26.829,26.829,0,0,0-2.992-.277s-3.52.013-3.638-.106a11.748,11.748,0,0,0-2.4-.712c-.044.009-.152.028-.3.051l-.165.027a2.941,2.941,0,0,0-.847.12,2.647,2.647,0,0,1-.761.026v-.06a1.738,1.738,0,0,1,.237-.114,6.406,6.406,0,0,1,1.5-.233,4.19,4.19,0,0,1,2.021.378,4.2,4.2,0,0,0,1.371.383,45.384,45.384,0,0,1,6.118.343,4.584,4.584,0,0,0,.641.135,2.665,2.665,0,0,0,1.4-.2l.007.007.018.02Z" transform="translate(-210.285 -164.557)" opacity="0.1"/>
    <path id="Path_6756" data-name="Path 6756" d="M217.219,175.218s-.884-.673.264-1.121a5.425,5.425,0,0,1,3.52.145,4.216,4.216,0,0,0,1.371.382,45.392,45.392,0,0,1,6.117.343,4.563,4.563,0,0,0,.641.135,2.728,2.728,0,0,0,1.627-.309c.072-.04.138-.06.157-.037.066.08.014.541-.566.633a9.009,9.009,0,0,1-1.913-.127c-.112-.017-.224-.038-.335-.062a8.752,8.752,0,0,0-2.538-.232,24.738,24.738,0,0,1-3.678-.119,19.393,19.393,0,0,1-2.346-.62C218.867,173.95,216.969,174.189,217.219,175.218Z" transform="translate(-205.8 -165.609)" fill="#fed253"/>
    <path id="Path_6757" data-name="Path 6757" d="M306.523,78.239c-.072-.1-1-.85-1.383-1.151l.684-.1a.517.517,0,0,1,.067-.056A2.831,2.831,0,0,1,306.523,78.239Z" transform="translate(-287.655 -75.699)" opacity="0.1"/>
    <path id="Path_6758" data-name="Path 6758" d="M214.833,89.082l-.3.448,1.16-.039.026-.5Z" transform="translate(-198.984 -82.545)" opacity="0.1"/>
    <path id="Path_6759" data-name="Path 6759" d="M316.47,97.73l.132.408.739.119-.317-.488Z" transform="translate(-293.541 -90.652)" opacity="0.1"/>
    <path id="Path_6760" data-name="Path 6760" d="M205.18,347c.079.132,2.676,3.549,3.362,3.454S205.18,347,205.18,347Z" transform="translate(-194.934 -326.21)" opacity="0.1"/>
    <path id="Path_6761" data-name="Path 6761" d="M325.33,390.12s.633.607.54.844S325.33,390.12,325.33,390.12Z" transform="translate(-306.382 -366.207)" opacity="0.1"/>
    <path id="Path_6762" data-name="Path 6762" d="M225.485,447.65s-.554,2.6-.264,2.68S225.485,447.65,225.485,447.65Z" transform="translate(-213.446 -419.571)" opacity="0.1"/>
    <path id="Path_6763" data-name="Path 6763" d="M328.24,586.91a12.064,12.064,0,0,0,1.028,2.07A15.765,15.765,0,0,0,328.24,586.91Z" transform="translate(-309.082 -548.745)" opacity="0.1"/>
    <path id="Path_6764" data-name="Path 6764" d="M443.745,489.7c-.027.092-.686.633-.541.831S443.745,489.7,443.745,489.7Z" transform="translate(-415.7 -458.575)" opacity="0.1"/>
    <path id="Path_6765" data-name="Path 6765" d="M379.708,556.14c-.013.067-.145,1.448.106,1.714S379.708,556.14,379.708,556.14Z" transform="translate(-356.779 -520.204)" opacity="0.1"/>
    <path id="Path_6766" data-name="Path 6766" d="M200.473,601.907c-.191.106-.389.209-.59.308-.217.106-.435.206-.656.3l-.264.112q-.2.083-.4.159c-.4.155-.778.29-1.117.4-.132.044-.258.085-.375.122-.591.188-.983.29-.983.29a1.068,1.068,0,0,0-.273-.023h-.078a3.428,3.428,0,0,0-.366.046,16.867,16.867,0,0,0-2.641.817c-.362.138-.6.238-.6.238l-.461.139-.077.023c-.5.152-1.2.368-1.454.458-.408.145-3.955.883-3.955.883a5.891,5.891,0,0,1-.989.181,18.05,18.05,0,0,1-2.478.057,16.289,16.289,0,0,1-2.954-.252l-.125-.02c-.3-.049-.494-.085-.494-.085l.1-.14,2.079-2.869.012-.017,1.937-2.672.072-.1.176-.243s.106-.145.513-.154h.157a4.247,4.247,0,0,1,1,.2l.094.028a13.852,13.852,0,0,0,3.571.3s1.349-.217,2.409-.348l.079-.01a9.742,9.742,0,0,1,1.045-.091,11.713,11.713,0,0,0,2.044-.33,1.362,1.362,0,0,0,.6-.24l.072-.052c.072-.054.156-.121.263-.2.2-.15.47-.353.9-.639.038-.025.077-.049.12-.072s.1-.054.149-.08a5.651,5.651,0,0,1,1.312-.435,7.694,7.694,0,0,1,1.142-.157h.057a3.931,3.931,0,0,1,2.845.739,1.779,1.779,0,0,1,.294.362,1.651,1.651,0,0,1,.106.2,1.847,1.847,0,0,1,.131.406q.008.039.013.078v.023c0,.021,0,.042.006.063C202.513,600.486,201.613,601.27,200.473,601.907Z" transform="translate(-170.789 -558.792)" opacity="0.1"/>
    <path id="Path_6767" data-name="Path 6767" d="M179.15,603.842a20.155,20.155,0,0,0,3.573.356,13.808,13.808,0,0,0,3.468-.237s3.549-.739,3.955-.884,1.991-.62,1.991-.62,3.085-1.292,3.955-1.081c0,0,6.829-1.766,6.341-4.153s-4.8-1.845-6.156-.949-1.159.989-1.832,1.134a11.719,11.719,0,0,1-2.044.33c-.646-.013-3.533.448-3.533.448a13.458,13.458,0,0,1-3.665-.33c-1.4-.435-1.674-.053-1.674-.053Z" transform="translate(-170.789 -556.725)" fill="#ffa2a2"/>
    <path id="Path_6768" data-name="Path 6768" d="M102.705,417.446a.036.036,0,0,1,0,.009.489.489,0,0,1-.041.156,17.627,17.627,0,0,1-1.857,2.522,5.04,5.04,0,0,1-.26.639,9.8,9.8,0,0,1-.75,1.271,17.216,17.216,0,0,1-1.364,1.729h0a2.089,2.089,0,0,1-.195.128,1.613,1.613,0,0,1-.667.242.7.7,0,0,1-.123,0,.383.383,0,0,0,.072-.01l-.088-.026-.121-.038q-.3-.1-.6-.209l-.121-.046q-.29-.112-.567-.24l-.121-.055q-.29-.135-.567-.285c-.067-.035-.133-.072-.2-.108q-.3-.165-.579-.346-.3-.192-.59-.4c-.145-.269-.264-.507-.33-.635a1.767,1.767,0,0,1-.114-.826.393.393,0,0,1,0-.072c.012-.155.031-.261.031-.261a3.722,3.722,0,0,1-.29-.452.532.532,0,0,1-.081-.26.308.308,0,0,0-.01-.11,2.569,2.569,0,0,0-.517-.869,2.809,2.809,0,0,1-.159-1.343c.009-.29.028-.5.028-.5a.168.168,0,0,1-.069-.089,2.152,2.152,0,0,1-.117-.491.512.512,0,0,0-.01-.072c-.046-.332-.067-.666-.067-.666a2.526,2.526,0,0,1-.91-1.543l-.015-.072a4.562,4.562,0,0,1-.083-1.014V413a12.632,12.632,0,0,1,.269-2.182c.008-.026.017-.05.025-.072a.543.543,0,0,1,.056-.109,1.349,1.349,0,0,0,.167-.493c.03-.149.054-.315.072-.48.017-.138.03-.274.04-.4.028-.339.037-.6.037-.6l-.134-.66c-.037-.18-.065-.362-.085-.544a.637.637,0,0,0-.009-.072,6.12,6.12,0,0,1-.018-1.01.4.4,0,0,1,0-.072,6.123,6.123,0,0,1,.591-2.209l.036-.072q.072-.145.152-.285c.038-.069.079-.137.121-.2a5.978,5.978,0,0,1,.362-.522c.019-.025.038-.049.058-.072a5.9,5.9,0,0,1,.75-.773,3.3,3.3,0,0,1,2.013-.923c2.667-.094,4.162,4.622,4.4,5.448.023.08.035.123.035.123s1.081,1.081.764,1.556a.816.816,0,0,0-.109.342,6.037,6.037,0,0,0,.162,1.689s.088.29.346.983l.076.2a4.165,4.165,0,0,1,.106,1.817c-.089.626-.3,1.179-.634,1.321-.686.29-.5.579-.343.818a3.255,3.255,0,0,1,.234.534c.1.267.191.548.226.658.01.03.015.047.015.047a1.433,1.433,0,0,1,.3-.08c.13-.018.258-.005.282.106.013.059.088.13.193.2A5.562,5.562,0,0,0,102.705,417.446Z" transform="translate(-89.256 -376.522)" opacity="0.1"/>
    <path id="Path_6769" data-name="Path 6769" d="M100.535,417.445h0a.477.477,0,0,1-.041.159,17.583,17.583,0,0,1-1.857,2.528,5.151,5.151,0,0,1-.26.639,9.223,9.223,0,0,1-.592,1.033,17.032,17.032,0,0,1-1.5,1.948l-.017.018s-.064.049-.165.111a1.883,1.883,0,0,1-.59.248l-.088-.026-.121-.038q-.3-.1-.6-.209l-.121-.046q-.29-.112-.567-.24l-.121-.055q-.29-.135-.567-.285c-.067-.035-.133-.072-.2-.108q-.3-.165-.579-.346-.3-.192-.59-.4-.133-.1-.264-.2c-.1-.185-.176-.342-.225-.439a1.766,1.766,0,0,1-.114-.826.393.393,0,0,1,0-.072c.012-.155.031-.261.031-.261s-.059-.079-.13-.186c-.04-.059-.083-.128-.121-.2a.672.672,0,0,1-.118-.33.16.16,0,0,0,0-.038.351.351,0,0,0-.011-.072,2.572,2.572,0,0,0-.518-.869,2.816,2.816,0,0,1-.16-1.343v-.072c.01-.25.025-.43.025-.43-.082-.035-.145-.3-.185-.579l-.011-.072c-.046-.332-.067-.666-.067-.666a2.521,2.521,0,0,1-.909-1.543,4.422,4.422,0,0,1-.094-1.159v-.018a12.449,12.449,0,0,1,.261-2.191c.008-.026.017-.05.025-.072a.541.541,0,0,1,.064-.106,2.441,2.441,0,0,0,.231-.9l.009-.072c.06-.507.077-1,.077-1l-.135-.66q-.055-.272-.085-.544c0-.024-.006-.049-.009-.072a6.121,6.121,0,0,1-.018-1.01.345.345,0,0,1,.005-.072,6.109,6.109,0,0,1,.591-2.209c.012-.025.023-.049.036-.072a5.678,5.678,0,0,1,.31-.548c.039-.062.079-.122.121-.182.066-.1.135-.19.206-.281l.058-.072a5.909,5.909,0,0,1,.744-.771,3.189,3.189,0,0,1,2.173-.923c2.567.092,4.009,4.639,4.245,5.448.023.08.035.123.035.123s1.081,1.081.765,1.556a.816.816,0,0,0-.109.342,6.009,6.009,0,0,0,.162,1.689s.088.29.346.983c.023.064.049.132.072.2a4.165,4.165,0,0,1,.106,1.817c-.089.626-.3,1.179-.634,1.321-.685.29-.5.579-.343.818a3.255,3.255,0,0,1,.234.534c.125.341.24.7.24.7a1.41,1.41,0,0,1,.145-.047.741.741,0,0,1,.313-.033.138.138,0,0,1,.124.106c.02.087.169.195.351.3a6.711,6.711,0,0,0,.729.342Z" transform="translate(-87.243 -376.521)" fill="#3f3d56"/>
    <path id="Path_6770" data-name="Path 6770" d="M115.61,507.992c.251-.013,2.94-1.054,3.494-.7s3.983,2.663,3.983,2.663-2.149-2.808-4.021-3.467S115.61,507.992,115.61,507.992Z" transform="translate(-111.851 -474.033)" opacity="0.1"/>
    <path id="Path_6771" data-name="Path 6771" d="M169,587.46a14.373,14.373,0,0,1,3.1.91Z" transform="translate(-161.374 -549.255)" opacity="0.1"/>
    <path id="Path_6772" data-name="Path 6772" d="M149.809,643a20.981,20.981,0,0,0-.936,2.228,13.138,13.138,0,0,0,.91-1.3Z" transform="translate(-142.7 -600.773)" opacity="0.1"/>
    <path id="Path_6773" data-name="Path 6773" d="M178.114,606.75s-.791.277-.7.3S178.087,606.869,178.114,606.75Z" transform="translate(-169.172 -567.148)" opacity="0.1"/>
    <path id="Path_6774" data-name="Path 6774" d="M176.24,652.45c.132.277.553,1.107.646.976S176.24,652.45,176.24,652.45Z" transform="translate(-168.09 -609.539)" opacity="0.1"/>
    <path id="Path_6775" data-name="Path 6775" d="M223.136,285.86l-.113.161s-.9-.632-1.266-.949-1.239,1.133-1.925,1.529a5.538,5.538,0,0,1-1.845.5s-.9-.9-.869-1.159-.422-.343-.448-.527a2.623,2.623,0,0,0-.4-.976,2.016,2.016,0,0,1-.117-.953l.117-.022a2.359,2.359,0,0,1,.422-.554,6.107,6.107,0,0,0,.606-1.5c.211-.712.632-.5.632-.5,0,1.081,1.108,1.477,1.661,1.925s1.424,1.608,2.11,1.846A4.292,4.292,0,0,1,223.136,285.86Z" transform="translate(-205.113 -264.876)" opacity="0.1"/>
    <path id="Path_6776" data-name="Path 6776" d="M223.09,283.673l-.113.162s-.9-.631-1.27-.949-1.239,1.133-1.925,1.529a5.547,5.547,0,0,1-1.845.5s-.9-.9-.869-1.159-.421-.343-.448-.528a2.618,2.618,0,0,0-.4-.976,2.016,2.016,0,0,1-.117-.953l.117-.022a2.361,2.361,0,0,1,.422-.554,6.119,6.119,0,0,0,.606-1.5c.211-.712.632-.5.632-.5,0,1.081,1.108,1.477,1.661,1.926s1.424,1.608,2.11,1.845A4.307,4.307,0,0,1,223.09,283.673Z" transform="translate(-205.067 -262.848)" fill="#3f3d56"/>
    <path id="Path_6777" data-name="Path 6777" d="M292.722,348.455a4.217,4.217,0,0,1-1.384.461,1.147,1.147,0,0,1-.238-.014h0a3.609,3.609,0,0,1,1.292-.6Z" transform="translate(-274.631 -327.416)" opacity="0.1"/>
    <path id="Path_6778" data-name="Path 6778" d="M318.644,373.691s-.98-.382-1.3.193c.011-.264.015-.482.015-.482l1.068-.211s.1.19.223.447C318.644,373.671,318.644,373.691,318.644,373.691Z" transform="translate(-298.971 -350.503)" opacity="0.1"/>
    <path id="Path_6779" data-name="Path 6779" d="M291.1,348.31a4.406,4.406,0,0,1,1.738-.645c.592.062,1.738.1,1.738.1a4.013,4.013,0,0,0-.343,1.081,9.275,9.275,0,0,1,.066,1.081s-1.186-.461-1.384.4a6.221,6.221,0,0,0-1.081-1.253A2.961,2.961,0,0,1,291.1,348.31Z" transform="translate(-274.631 -326.823)" fill="#63667e"/>
    <path id="Path_6780" data-name="Path 6780" d="M327.117,312.188a3.658,3.658,0,0,1-1.819-1.266c-.264-.5-.633.052-.976.238a3.352,3.352,0,0,1-1.543-.31c.235-.16.757-.611.91-.718a10.986,10.986,0,0,0,.369-2.268c.659-.343,1.371,2.769,1.371,2.769s1.24.369,1.345.633a.948.948,0,0,0,.254.257C327.174,311.886,327.254,312.188,327.117,312.188Z" transform="translate(-304.017 -289.882)" opacity="0.1"/>
    <path id="Path_6781" data-name="Path 6781" d="M329.306,310.025a3.657,3.657,0,0,1-1.819-1.265c-.264-.5-.633.052-.975.237-.217.119-.907-.111-1.372-.29.235-.159.586-.629.739-.737a10.971,10.971,0,0,0,.369-2.268c.659-.343,1.371,2.769,1.371,2.769s1.24.369,1.345.633a.946.946,0,0,0,.254.257C329.363,309.724,329.443,310.025,329.306,310.025Z" transform="translate(-306.206 -287.879)" fill="#3f3d56"/>
    <path id="Path_6782" data-name="Path 6782" d="M446.618,560.4l11.465-9.56a.614.614,0,0,1,.41-.145l4.277.112s.3.217-.138.692l-10.816,8.875a.688.688,0,0,1-.413.155l-4.677.155a.161.161,0,0,1-.109-.285Z" transform="translate(-418.832 -515.156)" fill="#6c63ff"/>
    <path id="Path_6783" data-name="Path 6783" d="M523.94,605.288s2.5,3.586,5.287.25,1.978-5.088,1.134-5.181S524.77,603.917,523.94,605.288Z" transform="translate(-490.608 -561.217)" fill="#ffa2a2"/>
    <path id="Path_6784" data-name="Path 6784" d="M757.17,63.889s3.228-6.265,7.043-3.034a1.2,1.2,0,0,1,.77,1.184s-.321-.176-.576.5a3.254,3.254,0,0,1-.362.676,1.594,1.594,0,0,1-.8.607h0s-1.712,1.283-4.883.293a3.162,3.162,0,0,1-1.041.017l1.042-.762a2.132,2.132,0,0,0,1.3.876s-1.3-.818-1.154-1c.03-.036.571-.379.571-.379a3.508,3.508,0,0,0,2.127,1.463s-1.682-.767-1.924-1.593l.845-.471a3.689,3.689,0,0,0,2.272,1.655s-1.731-.863-2.08-1.745l.894-.349s.915,1.434,2.05,1.565c0,0-1.9-1.2-1.84-1.632a4.635,4.635,0,0,1,1.1-.235s.68,1.014,1.346,1.032c0,0-1.184-.936-1.106-1.08a4.989,4.989,0,0,1,1.811.226,3.6,3.6,0,0,0-1.811-.412,1.981,1.981,0,0,1,.966-.6s-.655-.269-1.254.62a4.572,4.572,0,0,0-1.039.188,4.347,4.347,0,0,1,1.044-1.371s-.858.151-1.283,1.455l-.907.331a6.167,6.167,0,0,1,1.037-1.706s-.852.29-1.259,1.811l-.834.453a7.38,7.38,0,0,1,.833-1.724A2.926,2.926,0,0,0,759,62.608l-.521.367s.3-.842.407-1.075.054-.282.054-.282a3.033,3.033,0,0,0-.683,1.5A7.187,7.187,0,0,1,757.17,63.889Z" transform="translate(-706.947 -59.93)" fill="#6c63ff" opacity="0.1"/>
    <path id="Path_6785" data-name="Path 6785" d="M941.5,137.944s1.459-2.831,3.182-1.371a.542.542,0,0,1,.348.534s-.145-.079-.26.225a1.45,1.45,0,0,1-.162.3.724.724,0,0,1-.362.274h0a2.525,2.525,0,0,1-2.208.133,1.437,1.437,0,0,1-.47.008l.471-.345a.96.96,0,0,0,.59.4s-.588-.369-.521-.45c.013-.016.257-.171.257-.171a1.586,1.586,0,0,0,.962.661s-.76-.347-.869-.724l.382-.212a1.666,1.666,0,0,0,1.026.748s-.782-.39-.942-.789l.4-.158s.413.648.926.708c0,0-.858-.542-.831-.737a2.094,2.094,0,0,1,.5-.106s.307.458.608.466c0,0-.535-.422-.5-.487a2.253,2.253,0,0,1,.817.1,1.624,1.624,0,0,0-.817-.186.9.9,0,0,1,.434-.272s-.3-.122-.567.28a2.066,2.066,0,0,0-.469.085,1.963,1.963,0,0,1,.471-.619s-.388.068-.579.658l-.406.152a2.778,2.778,0,0,1,.469-.771s-.385.131-.569.818l-.377.2a3.311,3.311,0,0,1,.376-.779,1.32,1.32,0,0,0-.482.842l-.236.166s.135-.38.184-.486.024-.127.024-.127a1.376,1.376,0,0,0-.309.681A3.372,3.372,0,0,1,941.5,137.944Z" transform="translate(-877.928 -130.634)" fill="#6c63ff" opacity="0.1"/>
    <path id="Path_6786" data-name="Path 6786" d="M723.27,183.424s1.459-2.831,3.187-1.371a.544.544,0,0,1,.348.535s-.145-.08-.26.225a1.479,1.479,0,0,1-.162.3.724.724,0,0,1-.366.274h0a2.523,2.523,0,0,1-2.207.133s-.4.059-.47.008l.471-.345a.962.962,0,0,0,.589.4s-.588-.37-.521-.45c.014-.016.258-.171.258-.171a1.586,1.586,0,0,0,.961.661s-.76-.347-.869-.724l.382-.211a1.668,1.668,0,0,0,1.027.747s-.782-.39-.942-.789l.4-.158s.414.648.926.708c0,0-.858-.542-.831-.737a2.1,2.1,0,0,1,.5-.106s.307.458.608.466c0,0-.535-.423-.5-.488a2.254,2.254,0,0,1,.817.1,1.628,1.628,0,0,0-.818-.186.9.9,0,0,1,.435-.272s-.3-.122-.566.28a2.067,2.067,0,0,0-.469.085,1.951,1.951,0,0,1,.471-.619s-.388.068-.579.658l-.411.152a2.787,2.787,0,0,1,.469-.771s-.385.13-.568.817l-.377.2a3.33,3.33,0,0,1,.377-.779,1.322,1.322,0,0,0-.482.842l-.236.166s.135-.38.184-.486.025-.127.025-.127a1.369,1.369,0,0,0-.309.681A3.355,3.355,0,0,1,723.27,183.424Z" transform="translate(-675.503 -172.82)" fill="#6c63ff" opacity="0.1"/>
  </g>
</svg>
