<svg xmlns="http://www.w3.org/2000/svg" width="9.807" height="22.423" viewBox="0 0 9.807 22.423">
  <g id="Temperature" transform="translate(-9)">
    <path id="Path_6801" data-name="Path 6801" d="M17.406,14.087V3.5a3.5,3.5,0,1,0-7.005,0V14.087a4.9,4.9,0,1,0,7.005,0Zm-3.5,6.928a3.5,3.5,0,0,1-2.333-6.108.7.7,0,0,0,.231-.518V3.5a2.1,2.1,0,1,1,4.2,0,.7.7,0,1,0,0,1.4v.7a.7.7,0,1,0,0,1.4v.7a.7.7,0,1,0,0,1.4v5.282a.7.7,0,0,0,.231.518A3.5,3.5,0,0,1,13.9,21.015Z" fill="#6e6d7a"/>
    <path id="Path_6802" data-name="Path 6802" d="M15.8,16.735V4.7a.7.7,0,1,0-1.4,0V16.735a2.1,2.1,0,1,0,1.4,0Zm-.7,2.676a.7.7,0,1,1,.7-.7A.7.7,0,0,1,15.1,19.411Z" transform="translate(-1.198 -1.198)" fill="#6e6d7a"/>
  </g>
</svg>
