<svg xmlns="http://www.w3.org/2000/svg" width="17.498" height="17.495">
    <path d="m16.25 7.3-2.871 2.871a1.4 1.4 0 0 1-1.979 0l-.323-.323a.7.7 0 0 1 .989-.989l.323.323 2.872-2.872A2.869 2.869 0 0 0 11.2 2.254L8.333 5.125l1.533 1.534 1.581-1.581a.7.7 0 0 1 .989.989L8.619 9.885l1.533 1.533a1.4 1.4 0 0 1 0 1.979l-2.871 2.872a4.238 4.238 0 0 1-3.017 1.246 4.267 4.267 0 0 1-3.018-7.281l2.871-2.872a1.4 1.4 0 0 1 1.979 0l.323.323a.7.7 0 1 1-.989.989l-.323-.323-2.872 2.872a2.869 2.869 0 0 0 4.057 4.057l2.871-2.871-1.534-1.535-1.581 1.582a.7.7 0 0 1-.989-.989l2.075-2.076 1.743-1.743-1.534-1.533a1.4 1.4 0 0 1 0-1.979l2.871-2.871A4.238 4.238 0 0 1 13.232.019 4.263 4.263 0 0 1 16.25 7.3z" transform="translate(0 -.019)" style="fill:#fff;opacity:.6"/>
</svg>
